<?xml version="1.0" encoding="utf-8"?>
<!-- Generator: Adobe Illustrator 24.0.1, SVG Export Plug-In . SVG Version: 6.00 Build 0)  -->
<svg version="1.1" id="圖層_1" xmlns="http://www.w3.org/2000/svg" xmlns:xlink="http://www.w3.org/1999/xlink" x="0px" y="0px"
	 viewBox="0 0 130 130" style="enable-background:new 0 0 130 130;" xml:space="preserve">
<style type="text/css">
	.st0{fill:#FFFFFF;}
</style>
<title>6</title>
<path class="st0" d="M101.4,53.6c1,3.7,1.5,7.5,1.5,11.5c0,25.3-20.6,45.8-45.8,45.8S11.2,90.4,11.2,65.1s20.6-45.8,45.8-45.8
	c13.5,0,25.6,5.9,34,15.2C71,48.6,57.7,66.1,55.4,69.6c-3.9-5.8-9-11.7-20.2-17.9L24.3,65.5c0,0,13.6,5.2,31,28.5
	c23.5-35.1,52.5-62.9,74.7-76.7c-10.7,2-20.7,6.2-29.6,11.3C90,16.2,74.5,8.3,57.1,8.3C25.7,8.3,0.3,33.7,0.3,65.1
	c0,31.4,25.4,56.8,56.8,56.8s56.8-25.4,56.8-56.8c0-7.1-1.4-13.8-3.7-20.1C107.3,47.8,104.3,50.6,101.4,53.6z"/>
</svg>
