<svg id="圖層_1" data-name="圖層 1" xmlns="http://www.w3.org/2000/svg" viewBox="0 0 130 130"><defs><style>.cls-1{fill:none;}.cls-1,.cls-2,.cls-3{stroke:#c8161d;stroke-width:4px;}.cls-1,.cls-3{stroke-linejoin:round;}.cls-2,.cls-3{fill:#fff;}</style></defs><title>未命名-2</title><path class="cls-1" d="M37.08,77.73c4-11.71,15.49-18.39,29-18.39,16.87,0,30.55,10.39,30.55,28"/><path class="cls-1" d="M49,35c0-22,34.24-22,34.24,0"/><path class="cls-1" d="M51.2,40.06c0,22.14,29.8,22.14,29.8,0"/><path class="cls-1" d="M44.69,41.06C44.69,30,87.5,30,87.5,41.06"/><polyline class="cls-2" points="62.17 27.98 62.17 14.86 70.03 14.86 70.03 27.98"/><path class="cls-3" d="M101.29,111.81c-19.43,7.06-50.95,7.06-70.38,0L25.49,74.48c22.43,8.14,58.79,8.14,81.21,0Z"/><path class="cls-1" d="M25.49,74.48c-1.15-8.16,13.29-9.17,11.59,3.26"/><path class="cls-1" d="M106.7,74.48c1.16-8.16-13.28-9.17-11.58,3.26"/><path class="cls-3" d="M25.88,87.33c12.24-1.86,14.8,15.23,3.86,15.23S16.78,86,26.87,84"/><path class="cls-3" d="M106.32,87.33c-12.24-1.86-14.8,15.23-3.86,15.23s13-16.54,2.87-18.6"/></svg>