<svg id="圖層_1" data-name="圖層 1" xmlns="http://www.w3.org/2000/svg" xmlns:xlink="http://www.w3.org/1999/xlink" viewBox="0 0 72.28 71.37"><defs><style>.cls-1{fill:none;}.cls-2{clip-path:url(#clip-path);}.cls-3{fill:url(#linear-gradient);}.cls-4{fill:url(#linear-gradient-2);}.cls-5{fill:url(#linear-gradient-3);}.cls-6{fill:url(#linear-gradient-4);}.cls-7{fill:url(#linear-gradient-5);}.cls-8{fill:url(#linear-gradient-6);}</style><clipPath id="clip-path" transform="translate(-14.08 -14.36)"><rect class="cls-1" width="100" height="100"/></clipPath><linearGradient id="linear-gradient" x1="32.45" y1="13.52" x2="89.48" y2="61.28" gradientUnits="userSpaceOnUse"><stop offset="0" stop-color="#df89d9"/><stop offset="1" stop-color="#9171f2"/></linearGradient><linearGradient id="linear-gradient-2" x1="10.62" y1="39.59" x2="67.65" y2="87.35" xlink:href="#linear-gradient"/><linearGradient id="linear-gradient-3" x1="7.7" y1="43.08" x2="64.73" y2="90.84" gradientUnits="userSpaceOnUse"><stop offset="0" stop-color="#a680f5"/><stop offset="1" stop-color="#6165d3"/></linearGradient><linearGradient id="linear-gradient-4" x1="36.23" y1="9.01" x2="93.26" y2="56.78" xlink:href="#linear-gradient-3"/><linearGradient id="linear-gradient-5" x1="12.4" y1="37.47" x2="69.43" y2="85.23" xlink:href="#linear-gradient-3"/><linearGradient id="linear-gradient-6" x1="31.26" y1="14.94" x2="88.29" y2="62.71" xlink:href="#linear-gradient-3"/></defs><title>section_icon3</title><g class="cls-2"><path class="cls-3" d="M15.42,29.48l.17.05,3.93,1.41c1.66.6,3.32,1.2,5,1.78l7.89,2.76c5.33,1.85,10.84,3.77,16.25,5.7a4.76,4.76,0,0,0,1.59.31,4.23,4.23,0,0,0,1.45-.28c1.86-.7,3.73-1.37,5.6-2L59,38.55l25.19-9,.19-.06c.38-.11,1.28-.38,1.26-1.37s-.87-1.18-1.24-1.3l-.15,0c-1.19-.45-2.38-.88-3.57-1.31l-3.1-1.12-11-4.06L56.41,16.5l-3.8-1.38-2.1-.76-.8.24c-.39.12-.75.22-1.1.35L33.29,20.47l-9.92,3.58-7.86,2.83-.18.06c-.87.23-1.27.69-1.18,1.38S15,29.35,15.42,29.48Zm40.7,6.93c-1.59.54-3.1,1.06-4.56,1.64a3.75,3.75,0,0,1-3,0c-1.44-.58-2.92-1.09-4.49-1.64l-.22-.08.45-.17L50,34a1.13,1.13,0,0,1,.48.12l5.89,2.17Zm16.31-6L66,28l0,0,.31-.11,5.31-2a2,2,0,0,1,1.48,0c1.85.71,3.72,1.4,5.72,2.13l.45.17-.37.13c-2,.72-3.93,1.39-5.82,2.08A.84.84,0,0,1,72.43,30.42Zm-22.67.17c-2.11-.8-4.22-1.58-6.44-2.4L42.71,28l.38-.15,6.57-2.47a.84.84,0,0,1,.62-.07c2.19.83,4.39,1.65,6.71,2.51l.49.18h0l-6.93,2.58A1,1,0,0,1,49.76,30.59ZM32.24,31.93l5.89-2.25a.91.91,0,0,1,.74,0c2.16.83,4.33,1.65,6.58,2.49l.42.16c-.31.13-.63.24-1,.35l-.74.27c-.55.2-1.09.42-1.63.63s-1.2.48-1.84.72a2.63,2.63,0,0,1-1.88.25l-6.23-2.23-.74-.27ZM67.9,24l-5.8,2.18c-.34.13-.48.15-.61.1l-6.8-2.59-.27-.1,0,0A21.26,21.26,0,0,0,58.34,22c1.74-1,3.21-.43,4.92.24.49.2,1,.39,1.47.55,1.06.34,2.14.76,3.28,1.21ZM56.13,19.64l-5.78,2.23a1.2,1.2,0,0,1-.63-.11l-5.17-1.9-.32-.11.6-.22,5.39-1.91c.36-.12.71,0,1.26.26l.49.21c1.37.52,2.74,1,4.21,1.53ZM45.72,23.55l.05,0-7.1,2.7a.56.56,0,0,1-.47,0c-1.85-.7-3.7-1.4-5.7-2.14L32.3,24l.45-.15c1.79-.61,3.48-1.18,5.13-1.88a4.58,4.58,0,0,1,4,0C43.1,22.58,44.37,23.05,45.72,23.55ZM55.19,32c2.23-.87,4.34-1.69,6.48-2.43.3-.1.74.12,1.21.36a5.32,5.32,0,0,0,.77.36c1.48.56,3,1.12,4.51,1.69l.13.05-.46.17-6.21,2.24a1.89,1.89,0,0,1-1.35.12l-5.39-2-.53-.2ZM28.81,25.92l.09,0c1.63.61,3.26,1.23,5,1.89l.31.11h0l-6.6,2.51a1.62,1.62,0,0,1-.49-.14l-6.33-2.17.48-.18c2.21-.81,4.27-1.56,6.34-2.29A2,2,0,0,1,28.81,25.92Z" transform="translate(-14.08 -14.36)"/><path class="cls-4" d="M84.6,71.27l-.15,0c-1.13-.47-2.29-.9-3.41-1.31l-6.66-2.47Q65.56,64.18,56.73,61l-1.56-.6a27.19,27.19,0,0,0-4.75-1.52l-.18,0-.51.16-.8.25-2.43.88-3.13,1.13L36.8,63.57q-10.62,3.79-21.24,7.61l-.19,0c-.91.2-1.34.68-1.28,1.42s.9,1.07,1.26,1.16l.19,0L29,78.59l19.28,6.79a5.55,5.55,0,0,0,1.93.35,5.83,5.83,0,0,0,2-.37q7.35-2.67,14.71-5.27l6.47-2.31c3.65-1.31,7.3-2.61,10.94-3.94l.18,0a1.39,1.39,0,0,0,1.25-1.15C85.85,71.93,85.46,71.47,84.6,71.27ZM50.66,61.89c1.7.64,3.41,1.27,5.29,2l.29.11c-2.17.83-4.14,1.58-6.1,2.31a.4.4,0,0,1-.2,0c-1.86-.7-3.7-1.42-5.65-2.17l.41-.15,5.48-2C50.48,61.86,50.56,61.85,50.66,61.89ZM72,70a1,1,0,0,1,.76,0l6.54,2.43-.16.07-5.65,2-.12,0c-.43.15-.67.23-.93.13l-5.85-2.24-.53-.2ZM42.74,72.3l6.64-2.55a1.48,1.48,0,0,1,1.17-.08l1.32.51c1.77.69,3.59,1.39,5.4,2.2l-.8.31c-2.06.78-4.18,1.59-6.29,2.27a2.31,2.31,0,0,1-1.55-.42,9.65,9.65,0,0,0-.88-.4l-4.64-1.71ZM61,65.74l6.67,2.47.3.11-5.55,2.09a1.78,1.78,0,0,1-1.43,0c-2-.79-4-1.52-6.09-2.29l-.56-.2.26-.1,5.75-2.11A1,1,0,0,1,61,65.74ZM54.71,76.53l7-2.56a1.45,1.45,0,0,1,.63.15c1.85.72,3.71,1.42,5.73,2.19l.21.08-.69.24L61,79a.65.65,0,0,1-.49,0l-6.21-2.34ZM40.18,65.74c1.86.69,3.71,1.4,5.69,2.15l-.81.31c-2.22.82-4.34,1.62-6.47,2.39-.26.1-.54,0-1-.25-.19-.09-.38-.18-.57-.25l-4.46-1.66-.25-.09,7.62-2.66A1.75,1.75,0,0,1,40.18,65.74Zm-12,4.32c1.9.69,3.79,1.4,5.85,2.17l.18.06c-2.41.91-4.64,1.74-6.91,2.55-2.13-.75-4.25-1.52-6.54-2.34l.18-.07c2.36-.86,4.56-1.65,6.76-2.47C27.82,69.93,27.92,70,28.21,70.06Zm4.09,6.19c2-.79,3.94-1.53,5.86-2.25a1.3,1.3,0,0,1,.91.08l6.16,2.38.6.23-.26.09-5.64,2.11A1.19,1.19,0,0,1,39,79c-2.1-.76-4.21-1.51-6.44-2.29l-.7-.25Zm11.79,4.31c1.94-.74,3.76-1.43,5.59-2.11a1.24,1.24,0,0,1,.91,0c1.89.74,3.79,1.46,5.74,2.2h0l-.08,0-5.79,2.08a.94.94,0,0,1-.34.09l-6.27-2.23Z" transform="translate(-14.08 -14.36)"/><path class="cls-5" d="M14.2,33.3c0,11.61,0,17.06,0,26.67v6.12c0,.46,0,.92,0,1.38a1.35,1.35,0,0,0,1.37,1.36h0A1.34,1.34,0,0,0,17,67.52c0-.47,0-.93,0-1.4V41.42c0-2.58,0-3,0-8.09a3.32,3.32,0,0,1,0-.41,2.14,2.14,0,0,0-.27-1.77,1.51,1.51,0,0,0-1.16-.49,1.46,1.46,0,0,0-1.22.47,2.11,2.11,0,0,0-.28,1.77A3.12,3.12,0,0,1,14.2,33.3Z" transform="translate(-14.08 -14.36)"/><path class="cls-6" d="M86,31.16a1.73,1.73,0,0,0-2.39,0,2.1,2.1,0,0,0-.28,1.77,3.21,3.21,0,0,1,0,.39c0,11.52,0,17,0,26.43v6.55c0,.3,0,.6,0,1a1.43,1.43,0,0,0,1.36,1.59h.09c.63,0,1.34-.3,1.41-1.62,0-.36,0-.72,0-1.08V41.3c0-2.52,0-2.9,0-8a2.17,2.17,0,0,1,0-.41A2.22,2.22,0,0,0,86,31.16Z" transform="translate(-14.08 -14.36)"/><path class="cls-7" d="M27.17,35.94a1.35,1.35,0,0,0-1.37,1.34c0,.37,0,.74,0,1.1,0,10.59,0,12.4,0,23a10.22,10.22,0,0,0,.08,1.28,1.28,1.28,0,0,0,1.36,1.13h0a1.29,1.29,0,0,0,1.35-1.17c0-.44.07-.9.07-1.41V38.65c0-.46,0-.93,0-1.39A1.34,1.34,0,0,0,27.17,35.94Z" transform="translate(-14.08 -14.36)"/><path class="cls-8" d="M74.08,36.42A1.48,1.48,0,0,0,73,36a1.46,1.46,0,0,0-1.08.4,1.69,1.69,0,0,0-.35,1.35c0,.11,0,.27,0,.33a1.39,1.39,0,0,0,0,.45V61.2a12.2,12.2,0,0,0,.08,1.41,1.27,1.27,0,0,0,1.36,1.16h0a1.27,1.27,0,0,0,1.36-1.15,10.41,10.41,0,0,0,.08-1.41c0-4.46,0-8.91,0-13.36V42.62c0-.8,0-.8,0-2V38.22c0-.08,0-.18,0-.28A1.9,1.9,0,0,0,74.08,36.42Z" transform="translate(-14.08 -14.36)"/></g></svg>