<svg id="圖層_1" data-name="圖層 1" xmlns="http://www.w3.org/2000/svg" xmlns:xlink="http://www.w3.org/1999/xlink" viewBox="0 0 83.71 83.71"><defs><style>.cls-1{fill:none;}.cls-2{clip-path:url(#clip-path);}.cls-3{fill:url(#linear-gradient);}.cls-4{fill:url(#linear-gradient-2);}.cls-5{fill:url(#linear-gradient-3);}</style><clipPath id="clip-path" transform="translate(-8.36 -8.19)"><rect class="cls-1" width="100" height="100"/></clipPath><linearGradient id="linear-gradient" x1="29.31" y1="50.05" x2="71.14" y2="50.05" gradientUnits="userSpaceOnUse"><stop offset="0" stop-color="#a680f5"/><stop offset="1" stop-color="#6165d3"/></linearGradient><linearGradient id="linear-gradient-2" x1="19.55" y1="50.05" x2="80.9" y2="50.05" xlink:href="#linear-gradient"/><linearGradient id="linear-gradient-3" x1="8.36" y1="50.05" x2="92.08" y2="50.05" gradientUnits="userSpaceOnUse"><stop offset="0" stop-color="#df89d9"/><stop offset="1" stop-color="#9171f2"/></linearGradient></defs><title>section_icon1</title><g class="cls-2"><path class="cls-3" d="M50.22,71A20.92,20.92,0,1,1,71.14,50.05,20.93,20.93,0,0,1,50.22,71Zm0-38A17.11,17.11,0,1,0,67.33,50.05,17.13,17.13,0,0,0,50.22,32.94Z" transform="translate(-8.36 -8.19)"/><path class="cls-4" d="M50.22,80.72A30.68,30.68,0,1,1,80.9,50.05,30.71,30.71,0,0,1,50.22,80.72Zm0-57.63a27,27,0,1,0,27,27A27,27,0,0,0,50.22,23.09Z" transform="translate(-8.36 -8.19)"/><path class="cls-5" d="M90.22,48.19H58.75a8.66,8.66,0,0,0-6.67-7.07V10.05a1.86,1.86,0,0,0-3.72,0V41.12a8.66,8.66,0,0,0-6.67,7.07H10.22a1.86,1.86,0,0,0,0,3.72H41.9A8.66,8.66,0,0,0,48.36,58v32a1.86,1.86,0,0,0,3.72,0V58a8.69,8.69,0,0,0,6.47-6.11H90.22a1.86,1.86,0,1,0,0-3.72Z" transform="translate(-8.36 -8.19)"/></g></svg>