<svg id="圖層_1" data-name="圖層 1" xmlns="http://www.w3.org/2000/svg" xmlns:xlink="http://www.w3.org/1999/xlink" viewBox="0 0 79.05 78.61"><defs><style>.cls-1{fill:none;}.cls-2{clip-path:url(#clip-path);}.cls-3{fill:url(#linear-gradient);}.cls-4{fill:url(#linear-gradient-2);}.cls-5{fill:url(#linear-gradient-3);}.cls-6{fill:url(#linear-gradient-4);}.cls-7{fill:url(#linear-gradient-5);}.cls-8{fill:url(#linear-gradient-6);}.cls-9{fill:url(#linear-gradient-7);}.cls-10{fill:url(#linear-gradient-8);}</style><clipPath id="clip-path" transform="translate(-10.7 -10.74)"><rect class="cls-1" width="100" height="100"/></clipPath><linearGradient id="linear-gradient" x1="28.97" y1="-8.29" x2="104.53" y2="65.85" gradientUnits="userSpaceOnUse"><stop offset="0" stop-color="#df89d9"/><stop offset="1" stop-color="#9171f2"/></linearGradient><linearGradient id="linear-gradient-2" x1="18.57" y1="2.31" x2="94.13" y2="76.45" xlink:href="#linear-gradient"/><linearGradient id="linear-gradient-3" x1="12.44" y1="8.56" x2="88" y2="82.7" gradientUnits="userSpaceOnUse"><stop offset="0" stop-color="#a680f5"/><stop offset="1" stop-color="#6165d3"/></linearGradient><linearGradient id="linear-gradient-4" x1="-0.3" y1="21.54" x2="75.27" y2="95.68" xlink:href="#linear-gradient-3"/><linearGradient id="linear-gradient-5" x1="5.8" y1="15.33" x2="81.36" y2="89.47" xlink:href="#linear-gradient"/><linearGradient id="linear-gradient-6" x1="8.01" y1="13.07" x2="83.57" y2="87.21" xlink:href="#linear-gradient"/><linearGradient id="linear-gradient-7" x1="6.28" y1="14.83" x2="81.85" y2="88.97" xlink:href="#linear-gradient"/><linearGradient id="linear-gradient-8" x1="-5.69" y1="27.04" x2="69.87" y2="101.18" xlink:href="#linear-gradient"/></defs><title>section_icon2</title><g class="cls-2"><path class="cls-3" d="M18.87,14.52H81.7a1.89,1.89,0,1,0,0-3.78H18.87a1.89,1.89,0,0,0,0,3.78Z" transform="translate(-10.7 -10.74)"/><path class="cls-4" d="M80.47,16.35H19.7L10.84,41.43H89.67Zm-55,21.07h-2l4.12-17h1.87Zm12.42,0H36l2.1-17h1.87Zm11.39,0,0-17h1.87l.05,17Zm13.34,0-1.87-17h1.87l1.95,17Zm12.46,0-4-17h1.87l4.11,17Z" transform="translate(-10.7 -10.74)"/><path class="cls-5" d="M10.7,44.28a8,8,0,0,0,15.89,1,8.06,8.06,0,0,0,15.76,0,8.05,8.05,0,0,0,15.75,0,8.05,8.05,0,0,0,15.75,0,8.05,8.05,0,0,0,15.9-1Z" transform="translate(-10.7 -10.74)"/><path class="cls-6" d="M79.64,85.36H41.07V50.69L38.9,52.27V85.36H20.7V53.59h-4V87.36a2,2,0,0,0,2,2H81.63a2,2,0,0,0,2-2V53.91h-4Z" transform="translate(-10.7 -10.74)"/><path class="cls-7" d="M52.14,67.72a.78.78,0,0,0,.55-.23l6.2-6.2a.77.77,0,0,0,0-1.1.78.78,0,0,0-1.1,0l-6.2,6.2a.78.78,0,0,0,0,1.1A.82.82,0,0,0,52.14,67.72Z" transform="translate(-10.7 -10.74)"/><path class="cls-8" d="M63.7,73.85a.77.77,0,0,0,0,1.09.77.77,0,0,0,1.1,0L71,68.75a.78.78,0,0,0,0-1.1.77.77,0,0,0-1.1,0Z" transform="translate(-10.7 -10.74)"/><path class="cls-9" d="M51.59,77.61a.8.8,0,0,0,.55.22.77.77,0,0,0,.55-.22l17.4-17.4a.78.78,0,0,0-1.1-1.1l-17.4,17.4A.78.78,0,0,0,51.59,77.61Z" transform="translate(-10.7 -10.74)"/><path class="cls-10" d="M32.28,71.87a2.08,2.08,0,1,0,3.19-1.76V62.57a2.08,2.08,0,1,0-2.22,0v7.54A2.09,2.09,0,0,0,32.28,71.87Z" transform="translate(-10.7 -10.74)"/></g></svg>