<svg id="圖層_1" data-name="圖層 1" xmlns="http://www.w3.org/2000/svg" xmlns:xlink="http://www.w3.org/1999/xlink" viewBox="0 0 98 47.24"><defs><style>.cls-1{fill:none;}.cls-2{clip-path:url(#clip-path);}.cls-3{fill:url(#linear-gradient);}.cls-4{fill:url(#未命名漸層_8);}</style><clipPath id="clip-path" transform="translate(-1.22 -26.43)"><rect class="cls-1" width="100" height="100"/></clipPath><linearGradient id="linear-gradient" x1="25.54" y1="22.23" x2="67.6" y2="69.5" gradientUnits="userSpaceOnUse"><stop offset="0" stop-color="#df89d9"/><stop offset="1" stop-color="#9171f2"/></linearGradient><radialGradient id="未命名漸層_8" cx="50.2" cy="49.89" r="9.54" gradientUnits="userSpaceOnUse"><stop offset="0" stop-color="#a680f5"/><stop offset="1" stop-color="#6165d3"/></radialGradient></defs><title>section_icon5</title><g class="cls-2"><path class="cls-3" d="M99.22,50c0-.91-.67-1.91-2.12-3.16a84.4,84.4,0,0,0-12.93-9.41c-11.65-6.72-22-11.17-34.41-10.94h0l-1.22,0c-17.58,0-37,13.1-45.9,21A3.45,3.45,0,0,0,1.22,49.9,4,4,0,0,0,2.9,52.73,96.55,96.55,0,0,0,21.26,65.4c11.53,6.16,21.33,8.76,30.86,8.19,15.31-.91,29.25-7.31,45.18-20.74C98.61,51.75,99.22,50.83,99.22,50ZM29.36,63A54.23,54.23,0,0,1,17.87,57.1c-5.41-3.47-8.13-5.21-8.12-7.18s2.77-3.73,8.29-7.19l.76-.49a41.59,41.59,0,0,1,10.32-5.16l1-.33-.45,1c-4.05,8.85-4,16.42.24,24.53l.57,1.1Zm20.86,4.94h0A17.44,17.44,0,0,1,32.22,50c0-10.29,7.71-18.08,17.91-18.1h0a17.91,17.91,0,0,1,18.07,18A17.85,17.85,0,0,1,50.22,67.91Zm40-16a92.16,92.16,0,0,1-19,11.21l-1.22.52.59-1.19c4.24-8.55,4-16.41-.64-25.49l-.64-1.24,1.27.57C78.17,39.68,84,43.68,90.31,48.17A2.32,2.32,0,0,1,91.49,50,2.49,2.49,0,0,1,90.21,51.88Z" transform="translate(-1.22 -26.43)"/><path class="cls-4" d="M59.74,50a9.56,9.56,0,0,1-9.65,9.38,9.34,9.34,0,0,1-9.43-9.55,9.7,9.7,0,0,1,9.58-9.52A9.91,9.91,0,0,1,59.74,50Z" transform="translate(-1.22 -26.43)"/></g></svg>