<?xml version="1.0" encoding="utf-8"?>
<!-- Generator: Adobe Illustrator 24.0.1, SVG Export Plug-In . SVG Version: 6.00 Build 0)  -->
<svg version="1.1" id="圖層_1" xmlns="http://www.w3.org/2000/svg" xmlns:xlink="http://www.w3.org/1999/xlink" x="0px" y="0px"
	 viewBox="0 0 864.1 100.7" style="enable-background:new 0 0 864.1 100.7;" xml:space="preserve">
<style type="text/css">
	.st0{opacity:0.76;}
	.st1{fill:#FFF21B;}
	.st2{fill:#3E3A39;}
	.st3{fill:#D6164A;}
</style>
<title>slogan</title>
<g>
	<g id="圖層_1_1_">
		<g class="st0">
			<path class="st1" d="M802.2,60.9c0.4,0.1,0.9,0.2,1.4,0.3C802.2,61.3,801.6,61.2,802.2,60.9z"/>
			<path class="st1" d="M820.4,62.4c-4.7,0-12.2-0.1-16.9-1.3C807.8,60.9,819,59.2,820.4,62.4z"/>
			<path class="st1" d="M801.4,55.6l5.9,1C803.8,57.5,804.5,56,801.4,55.6z"/>
			<polygon class="st1" points="803.5,58.7 803.2,59.9 800,58.7 			"/>
			<path class="st1" d="M503.7,71.1c0.6,0.5,1,1,0.7,1.8L503.7,71.1z"/>
			<path class="st1" d="M490,66.1c-1.2-0.2-2.1-0.2-2.8-0.3C488.1,65.7,489.1,65.8,490,66.1z"/>
			<path class="st1" d="M516,70.4l-2.4,0.2C514.4,70.4,515.2,70.3,516,70.4z"/>
			<path class="st1" d="M666.7,64.6c2.2,0.9,4.4,1.7,6,2.2C668.3,67.7,667.9,65.8,666.7,64.6z"/>
			<path class="st1" d="M426.9,50.5l-0.5,1C425.8,51.1,425.4,50.7,426.9,50.5z"/>
			<path class="st1" d="M486.3,50.2c0.1,0.4,0,0.9-0.3,1.3c-0.2-0.1-0.5-0.1-0.7-0.2L486.3,50.2z"/>
			<path class="st1" d="M525.5,68.3c0,0,0.1-0.1,0.1-0.1l2,0.6C526.6,68.9,525.9,68.8,525.5,68.3z"/>
			<path class="st1" d="M407.8,50c-0.9-0.5-1.8-1.2-2.5-2C407.2,48.4,408.1,49.3,407.8,50z"/>
			<path class="st1" d="M486.8,65.8L486.8,65.8h0.4C487,65.8,487,65.8,486.8,65.8z"/>
			<path class="st1" d="M506,50.8c-1-0.1-2-0.2-3.1-0.4C503.9,50.1,505.1,50.3,506,50.8z"/>
			<path class="st1" d="M666.7,64.6l-1.9-0.7C665.5,63.9,666.1,64.1,666.7,64.6z"/>
			<path class="st1" d="M786.4,62.9c-1.9,0-2.3-0.7-2.7-1.4C784.7,61.8,785.6,62.2,786.4,62.9z"/>
			<path class="st1" d="M101.3,90.3h-0.8C100.8,90.3,101.1,90.3,101.3,90.3z"/>
			<path class="st1" d="M173.9,87.2c0.4,0.2,0.7,0.4,1,0.7C174.4,88.2,174,87.7,173.9,87.2z"/>
			<path class="st1" d="M239.1,59.3c-4.6,1.7-9.8-0.8-13.9-0.6l1.5,1.1l-4.2-0.7l0.2,1.7c-6.9-0.3-15.4,2-18.1-0.5l1,2.7l-7.5-1.6
				l4.3,1.5c-8.1,1.2-20.8,0-22.5,0.2l0.8,1c-1.3,0.6-2.4,0-3.8-0.2l1.2,1.4c-12.4,0.5-15.5,4.2-29.4,3.6c-3.7,0.7,2.1,0.3,2.2,1.2
				c-2,1.3-6.9,0.6-8,0c1.3,2.3,7,1.1,2.8,3.3c-3.2-0.9,2.3,2-3.2,2l-2.4-2.8c-3,0.8-0.4,2.4-5.3,2.5c-5.6-0.9,6.5-4-2.4-3.7
				c-4.4,0.6-8.8,7.8-17.6,6.8c-7.3,2.2,4.3,4.4-6.1,4.4l6.8,1.5c-1.6,1-0.4,2.4-5,2.1c-2-1.4-4.4-2.2-6.8-2.3
				c9.9,1.5-8.2,4.1,1,6.4l-3.4,0.2c0.4,0.1,0.6,0.4,0.3,0.6l-4.4,0.6c2.8,0.4,9.4,0.2,6.5,2.7l-6.4,1.1c1.9,1.5-0.4,2.4,0,3.7
				l19.2,1.7c-0.8-1-3.6-1.4-2.7-2.5c5-1.3,4.3,1.5,8.9-0.3l-2.2-1.2c0.4,0.5,1.1,0.6,0.1,0.8c-1.6,1-2.4,0-2.5-0.8
				c1.5-1.8,6.4-1.1,7.9,0c6.1-0.7,1-3.2,2.3-3.8c3.4,2.6,10.3-0.9,14.2,0.1l-2.6-1.7c4.5-2.6,8.9-1.1,11.7-0.7l-1.2-1.4
				c6.6-0.2,9.4-5.5,14.8-0.5l-0.8-1c2.6-0.7,6.6-2.1,9.3-0.7c0-0.8,0.6-1.6,1.5-1.7c1.6,2,4.3,0.2,8.2-0.5c-2.7-0.3-2-3.1-4.8-3.5
				c5.9-3.2,5.8,2.6,10.9,2.2c3-1.6-2.9-1.3-3.7-2.3c8,0.9,15.8-7.4,21.2-2.4l-3.3,2c3.2,0.9,4.9,0.8,4.5,0.3
				c-0.7,0.2-1.4-0.1-1.8-0.7c9.3-3.4,15.1,2.9,24.6,1.2c-0.8-1-2.2-1.2-2.3-2c4.4-1.4,4.7,4.9,11.6,2.3l-1.5-1.1
				c2.3-0.9,4.2,0.7,3.9,1.1c-0.1-2.3,3.7-2.5,8.1-2.9s9.3-1,11.6-4.1c3.6,2.3,13.8,3.6,16.8,2.1c4.2-3-4.1-2.8-2.6-5.4
				c3.4-0.2,5.4,2.2,10.5,1c0.2,2.5-9.8,5.8-0.1,6.7l1.3-1.4c-1.2,0.5-2.5,0.7-3.7,0.6c-2.9-1.3,1.6-1.8,2.2-2.5l10.4,0.1
				c0.9,2.7-5.3,2.4-5.9,3.1c8.1-1.1,17.8-5.6,25.5-4.2l-0.8-1c9.8,1.8,5.4-5.3,13.4-1.3c4-0.9-1.6-2.8,4.5-3.3
				c1.7-0.1,0.8,1,0.5,1.3c7.6,0.6,3.2-2.8,10.3-0.6l-1.6-2.8c8.4,1.6,17.4,6.2,24.5,4.6c-0.5-2.2-5-1.8-6.8-3.4
				c9.9,3.5,23.4-0.7,32.5,1.2c-2.6,2,4.4,4.2-1.3,6c-1.6-2.8-4.2-0.8-7.3-1c5.3,6,20.7-3.9,22.5,1.5l1.2-2.3c1.4,0.3,5,1.8,2.6,2.6
				l9.9-1.8c-3.5-1.5-11-5.1-13.3-2.6c-2.9-2.2,4-1.7,1.4-4.3c6.8,3.4,4-1.7,10.9-1.2c-3,3.3,7,4.1,6.8,5.6c2.2-0.7,7.3,0.7,9.3,1.7
				c4,0.2,13-2.7,19.5-1.8c-2.5-0.9-6.3-2.1-6.1-4.2c3.2,1.1,6.6,0.9,7.1-1.5c-11.3-4-3.4,5.6-13.6,3.1c-2.6-2.6-5.4-3.2-10.6-3.8
				c2.3-1.6,1.3-2.3,2.2-4.2c6.5,5.5,16.5,0,25,2.6c3.5,1.6,1,5.2,9,5.6l-6.8,2c7.4-1.8,1.8,1.6,8,2.1l-2.5-1.8
				c3.8-0.5,5.2-0.2,7.3,1.1l-3.3-2.8c2-0.4,5.8-0.9,5.9,0.8c0.4-0.5,0.6-1.1,0.7-1.8c0.4,0.5,1.4,0.8,3.8,0.6
				c-1.4-0.3-2.4-0.1-2.5-0.9c9.1,0.4,2-3.2,7.7-3c-0.9-0.6,0.7-1.5,2.7-1.9c0,4.5,11.2,4.8,14.2,7.3v-0.1l7.7,1.6
				c-1.5-0.3,0.1-1.6,2.3-2.1h-0.4c2.4-0.8-3-4.8,4.3-3.7l3.8,1.3c-0.7-0.2,0-0.8,0.3-1.2l4,1.2c5.9-4.3,11.4,2.2,18.4,0
				c-2,0.4-5.2,0.1-3.8-1.3c1.5-0.4,3.1-0.2,4.5,0.6l-0.4-0.5l13.5,2.4c-1.1-1.5-8.7-1.5-5.3-3.3c2-2.1,5.9,0.1,8.3,0.2
				c-0.3,1.2-4.7,2.3-0.2,2.9c0.5-0.6,4.8-1.9,2.8-2.7c4.6,1.2,11.3,1.8,15.5,3.9c1.3-0.5-0.8-1-1.5-1.2l-0.3,0.3
				c-2.8-0.6-0.5-3.1-5.9-1.8c-0.5-3.9,7.9-1.2,12.7-1.8l-7.7-2.6c12.8-5.5,30.3,0.2,43,0.2c-3.7,1.2-6.9,0.1-6.4,3.1
				c7.9,1.4,6.9,0.8,14.8,1.3l-0.7-0.2c4.1-1.6,9.7,1.4,12.3-1.3c-1.8-1.7-5.8,1.6-5.9-1.8l10,0.3c-3.1-2-10-0.3-13.8-0.7
				c-2.7,0.2,5.5,0.4,4.2,2.7c-9.3-0.1-11.4-2.2-16-5.4c-2.8-2.3,4.1-2.4,5.8-2.4c5.9,3.5,14.6,5.1,23.8,3.5l5.1-2.6
				c4.6,2.3,2.6,6.9,10.9,6.4l-2.5-1.8c1.2-0.6,2.5-0.9,3.9-1c-3.5-1.4-7.4-3-10.6-4.4c4.7-3.9,13.5,1.9,20.4,2.7
				c-0.4-0.5-2.8-0.7-3.5-1.7c10.3-0.9,21.1,3.8,29,4.5c3.4-1.7-6.6-1.2-5-3.7c4.2,1,8.9-1.2,10,1.2c-1.8-3.4,9.6-0.2,1.6-3.4
				c15.1-1.4,31.7,1.8,46.9,3.8c-0.7-1-0.7-1.9-0.1-2.6c-5.2,0-12.7-1-15.6-3.4c3.4-1.7,8,2.4,9,1.4c-1.7-0.8-5.2-0.8-5.2-2.5
				c4.4-1.9,6.9,0.8,10,1.2l-1.7,0.8c9.7,2.4,5.3,5.9,15.6,5.1c3.8-2,0-1.7-0.1-4.2c2.4,1,10.3-1.7,12.8,1l-6.2,0.2
				c4.3,0.8,8.5,0.8,11.5,1.7c-0.2-0.7-0.8-1.2-1.5-1.3c3.5,0.9,7.9,0.7,9.7,2.4l1-2.7c-2.1,1.2-8.3,1.3-9.3-0.2
				c0.6-2.4,6.8-0.8,9.6-1c-12.1-0.9-12.2-5.1-22.4-3.4l1.7,0.8c-6.4,2-12.9-1.4-18.5-1.4c1.6-0.6,1.9-1.5,1.2-2
				c-12.3,2-24.5,0.3-38.5,1.6l-4.1-2.6l-0.3,2c-6.9,0.9-1.5-2.9-5.9-2.7c1.7,0,1.4,0.3,1.7,0.9c-8-2.4-4.4,1.9-8.9,1.2
				c2.1,2.2,8.6,0.8,6.6,3.7c-8-2.3-20.3-1.1-21.5-6c-14.8,1.9-33.1-1.1-45.5-1.6c-1.7,0.9,1.1,0.7,0.4,1.4
				c-4.9-2.9-16.5,2-16.6-0.5c-2.4,0.7-3.4,2.6-4,3.3c-3.6-1.2-7.3-1.9-11-2.1l2.9,0.7l-0.3,0.3l-4.2-1l0.2-0.2
				c-5-0.3-10.4-0.3-15.6-0.6c-5-0.1-10.1-0.7-15-2c5.2,1.6-1.3,3.1,1.2,4.1c-4.6-4-15.7-4-24.6-3.5c0,0.8-0.6,1.5,0.4,2.2l-5.2-1.6
				l0.7,1c-9.3,0.9-19.5-3.4-25.6-1.4c3.8,0.4,3.8,1.3,4.3,2.6c-6.9,0.2-13.9-0.2-20.7-1c0.4,0.2,0.7,0.5,0.7,0.8
				c-2,0.4-4.5-0.5-6.6-1l-0.2,2c-4-0.8-9.1,0.3-13.9-1.2c-1.8,2.3-11.5-1.8-16.9-0.7c-2.1-0.4,4.6,2.2-1.2,2.3
				c-1-4.4-7.6,0.1-8.2-4.6l-5.1,1.9l-1.2-2.3c-4.2,4.6-6.7-1.8-13.1-0.2c0.4,0.5,1.1,0.6,0.7,1c-2.1-0.4-7-0.6-3.3-1.9
				c-3.5,0.1-15.2-0.6-9.9,1.8c-0.4-1.3,4.4-0.3,6.5,0.1c-0.2,2-5.4,1.4-6.6,3.7c-0.4-0.3-0.9-0.6-1.4-0.9l-0.7,1.3
				c-6.6-2-13.1-0.1-17.9-2.8c-0.3,0.6-1.4,1.2-3.6,1.1l-0.2-2.5l-6.9,0.3l3.4,3.7c-7.5,1-13-3-19.3-3.3c-1.4,4.3-12.2-1-17.4,3
				l4.9,0.9c-10.4-0.3-11.9,2.4-21.7,1.4c8.1-1.8,8.2-1,20-5c-11.9,2.4-20.9-1.4-31.7,1.6c0.8,1,3.6,1.5,1,2.7
				c-2.3-2.1-10.3,0.7-8.9-2c-3.4,1-3.8,3.5-5.9,3.9l-11.6-2.5l0.4,0.5c-4.5,1.6-9.3,2.5-14.1,2.7c-4.6,0.2-9.2,0-13.8-0.5
				c-9.2-0.8-18.4-2.1-28.1-0.3l0.5,1.3l-5-1.7c3.9,1.1-1.5,1.8-1.8,3l-12.7-2.1c-0.2,1.6,0.9,3,2.4,3.2
				C238.3,59.5,238.7,59.4,239.1,59.3z M403.8,51.5l3,0.1c0.6-0.2,1.3-0.2,1.9,0l-2,0C405.3,52,404.2,53.1,403.8,51.5z M677,51.8
				c1.4,1.2-2,0.4-3,0.5l4.8,0.3C679.4,52,677.7,52,677,51.8z M404.7,67.9l-1.6,1.8l-2.2-1.3L404.7,67.9z M362.8,69.9l4.2,0.8
				l-0.3,0.4l-4.2-0.8L362.8,69.9z M315.5,58.6c0.3,0.1,0.6,0.2,0.8,0.3C316,58.9,315.7,58.8,315.5,58.6c-3.3-1-4.4,2.1-7.2-0.7
				C311.3,55.2,313.5,57.7,315.5,58.6L315.5,58.6z M389.2,54.9c1,0.3,2.1,0.4,3.1,0.2c-0.8-1-3.6-2.4-1.6-2.8
				c1.5,1.1,6.3,1.2,6.4,2.9C392.9,53.5,390.2,58.4,389.2,54.9L389.2,54.9z M488.2,52.7l-1,0.2l3.9,1.2L488.2,52.7z M506.2,54
				c2.2,2.1,7.7,1.7,11.5,2.1c0.9-1.9-3-4-7.4-3.7C505,50.8,508.3,55.3,506.2,54L506.2,54z M357.1,59.7l1.1,1.5l-1,0.2l4.2,0.8
				c-5.4,2.3-9.4-1.3-12.3-1.9C351.7,60.3,358.5,63.7,357.1,59.7z M544.5,54.4c3.8,1.3,10.8,2.8,10.2,4.4c0.2-2.9-5.3-4.2-7.1-4.1
				C546.6,54.8,545.5,54.7,544.5,54.4z M544.4,59.8c-5.6-1.2-6-2.6-10.3-5.2c5.5-1.3,7,2.4,6.4,3.9c3.8,1.3,3.1-0.6,5.1-1
				L544.4,59.8z M538.5,51.8l-2.3,0.4c-2.7,1.3-3.2,4.5-7,1.3l7-1.3C536.9,51.9,537.7,51.8,538.5,51.8L538.5,51.8z M585.2,51.4
				l-2.3-1C585.2,50.5,585.4,50.9,585.2,51.4l1.9,0.8C582.2,53.3,584.7,52.3,585.2,51.4L585.2,51.4z M549.6,52.5l-6.6-0.2
				C543.4,53.7,547.5,53,549.6,52.5z M583.8,54c-2.8,0.2-10,0.7-9,0.5C575.4,53,582,53.2,583.8,54z M728.5,58l-4.1-0.2l2-2L728.5,58
				z M680,59.3l1-1l2.4,0.2L680,59.3z M635.3,59.5c0.2-0.5,0.1-1.1-0.3-1.5c-0.6-0.1-1.2-0.4-1.6-0.9c0.6,0,1.2,0.3,1.6,0.9
				c1.9,0.4,3.9,0.3,5.7-0.4c-0.7-1-3.5-0.8-4.5-1.5c4.1-2.4,13.3,4.8,10.7-2.1c1.7,0.8,7.7,2.7,5.6,3.9
				C647.7,57.4,638.8,58.2,635.3,59.5c-0.3,0.5-0.8,0.7-1.4,0.7C634.3,59.8,634.8,59.6,635.3,59.5L635.3,59.5z M575.1,61.3
				c-0.9,0-1.9-0.2-2.8-0.6c-1.5-0.5-2.6-1.3-2.2-2.2c3.5,0.8,1.3,1.6,2.2,2.2C573.2,61,574.1,61.2,575.1,61.3L575.1,61.3z
				 M564.4,61.9l5.5,1.3l-2.8-1.6l8.4,2.7C570.8,65.8,565.2,63.7,564.4,61.9L564.4,61.9z M562.5,63.2l-1.2-1.7l1.8,1.7L562.5,63.2
				l0.2,0.3l-9.3-0.8L562.5,63.2z M467.3,61.8c-3.3,5.8,8.3,3.8,10.2,6.5c0.3-1.9,3.8-5-5.3-4.7c7.8-2.1,5,3.6,9.6-1.3
				c-3.8,0.5-8.3-0.9-9-1.1l4.4-0.3C474.7,57.4,470.5,62.8,467.3,61.8L467.3,61.8z M419.6,64.2l-5.8,0.1l5.5,0.3L419.6,64.2z
				 M275.8,73c0.5,1.3-6.9,4.2-8.8,1.8C270.7,74.2,274.8,74.1,275.8,73z M213.9,76.7l6.6,0.7c-1,3.1-5.9,0.3-8.9,1
				C210.5,77,213,77.8,213.9,76.7L213.9,76.7z M171.4,79.8l-2.1-0.3l2.4,2.9L171.4,79.8z M174.6,83.7c-1.2,1.5,3.3,1.8,4.3,1.5
				L174.6,83.7z M136.4,89.3l2.7-0.4l-2.7-2.5L136.4,89.3z M140.6,85.8c0.8,1.9,0.7,4.5,6.9,2.7c0.1-2-1.6-1.9,0.5-4.5
				c-2.1-0.3-3.7,0.7-4.8,0.9c1.4,0.2,3-0.8,3.5,0.5C144.8,86.3,142.6,86.4,140.6,85.8c-0.2-0.7-0.8-1.3-1.5-1.5
				C139,84.9,139.6,85.4,140.6,85.8L140.6,85.8z M163.1,81.9c0.7-0.2,1.3-0.5,1.8-1l0.4,0.5C164.8,82.1,163.9,82.3,163.1,81.9
				c-0.9,0.3-1.9,0.6-3,1c-0.6,1.8,3.8,2.6,5,3.5c-2.1-0.3-4-1.9-6.6-0.7c0.4,0.5,0.1,0.8,1.8,0.7l-3.7,0.7
				c-4.5-2.1-0.4-3.1,3.5-4.2c0.2-0.6,0.6-1,1.1-1.3C161.8,81.2,162.4,81.6,163.1,81.9L163.1,81.9z M132.7,80.4l2.1,0.3
				c1.1,0.6,0.5,1.3,0.9,1.8C133.3,82.6,130,81.6,132.7,80.4L132.7,80.4z M255.9,70.8c-1.3,0.6,2,2.4,5,1.7l-1.5,2.7
				c-0.2-1.7-6.3-1.1-7-1.2C251.1,71.7,253.6,72.6,255.9,70.8L255.9,70.8z M399.2,63.1c1.3,3.2,9,0.9,10.8,1.7
				C405.9,65.7,396.7,66.8,399.2,63.1L399.2,63.1z M412.8,61.2c2.1,0,2.8-0.4,2.6,1.3c1.1,0.6,2.7-0.3,3.8,0.3
				C415,64.4,415.2,61.8,412.8,61.2c-0.7,0-1.3,0-2-0.1C411.4,61.1,412.1,61.1,412.8,61.2z M328.9,64.9l-3-2.2l-4.5,0.4L328.9,64.9z
				 M280.8,63.5c0.5,1.3-4.7,1.7-5.8,1.1c0.4,1.8,3.9,1.3,6.6,1.3c0.6,0.2,1.2,0.2,1.8,0.1c-0.6-0.1-1.2-0.1-1.8-0.1
				c-1-0.3-0.4-1.3-0.4-1.9l1.3-0.6l-3.8-0.3L280.8,63.5z M196.4,67.2c-2.9,1.6-3.4,1.1-5.4,0.8C191.5,67.3,194.2,66.9,196.4,67.2
				L196.4,67.2z M306.1,60.4c-5.1,1.2,2.6,2.6-0.7,3.6l2.7-0.3c-4.3,2.1-3.3-1.8-6.3-1.1l2-0.5c1.5-1.8-3.2-1-3.7-2.3
				C302.5,58.9,308.1,59.9,306.1,60.4L306.1,60.4z M191.4,66.4c-5,2.1-4.3-1.5-7.4-1.6C187.9,63,187.5,66.2,191.4,66.4L191.4,66.4z
				 M273.3,57.2l0.3-0.3l-4.2-0.7l-0.3,0.4L273.3,57.2z"/>
			<path class="st1" d="M186.4,84.7c-0.9,0.3-1.8,0.3-2.8,0.3C184.5,84.8,185.5,84.7,186.4,84.7z"/>
			<path class="st1" d="M425.7,72.9c0.1-0.5,0.5-0.7,1.1-0.9C426.8,72.3,426.5,72.6,425.7,72.9z"/>
			<path class="st1" d="M435.7,73.7c0.1,0,0.3,0,0.4,0l0.3,0.2L435.7,73.7z"/>
			<path class="st1" d="M783.3,65.1c2.1,2.2-2.1,0.3-3.8,0.3C781.3,65.4,781.9,63.9,783.3,65.1z"/>
			<path class="st1" d="M769.8,61.3c1.3,0.7,2.7,1.2,4.2,1.3C772.6,62.7,771.1,62.2,769.8,61.3z"/>
			<path class="st1" d="M780.9,62.4c-2.2,0.4-4.5,0.5-6.8,0.3C775.8,62.5,777.3,61.7,780.9,62.4z"/>
			<path class="st1" d="M733.4,61.7c2.1,1.4,6.2,0.7,6.2,0.7c-8.9,1.2,1.8,2.6,2.5,3.6C736.5,65.4,736.5,63.7,733.4,61.7z"/>
			<path class="st1" d="M721.6,60.9c0.8,0,1.7-0.1,2.5-0.3C723.3,60.9,722.4,61,721.6,60.9z"/>
			<path class="st1" d="M718.3,62.2c-3.1-0.3-4.2-1.8-5.6-3c3.7-1.1,6.1,1.3,8.9,1.7C719.4,60.9,717.2,60.8,718.3,62.2z"/>
			<path class="st1" d="M623.2,69.4c0.7,0.2,2.4,0.1,2.5,1l-5.2,0.1C618.4,70,622.2,69.6,623.2,69.4z"/>
			<path class="st1" d="M604.1,65.4c-4.1-0.1-2,2.1-4,1.6l0.2-2.9L604.1,65.4z"/>
			<path class="st1" d="M606.4,50.8l1.2,0.3l-1.4-0.1L606.4,50.8z"/>
			<path class="st1" d="M584.3,68.4l2.9,3.1C583.8,70.8,583.7,68.3,584.3,68.4z"/>
			<polygon class="st1" points="568.6,70.7 571,71.7 563.5,70.8 			"/>
			<polygon class="st1" points="549.6,69.4 549,70.1 543.8,69.4 			"/>
			<path class="st1" d="M343.4,73.4c-0.9-2.7,7.4-1.9,9.8-2.8C351.8,74.1,346.5,69.8,343.4,73.4z"/>
			<path class="st1" d="M193.5,82.9h7.9C195.4,84.5,199.7,83.1,193.5,82.9z"/>
		</g>
		<path class="st2" d="M48,76.7c-1.8-0.2-3.7-0.6-5.4-1.2c-1.7-0.5-3.5-1.2-5.1-2c-1.7-0.8-3.3-1.8-4.9-2.8c-1.6-1-3.1-2.1-4.7-3.3
			c-0.6,0.4-1.2,0.8-1.8,1.3s-1.2,0.9-1.8,1.3s-1.2,0.8-1.8,1.1c-0.6,0.3-1.2,0.6-1.9,0.9c-0.6,0.2-1.2,0.3-1.8,0.2
			c-0.6,0-1.2-0.3-1.6-0.7c-1-1.2-1.5-2.6-1.6-4.1c-0.1-1.6-0.1-3.1,0.1-4.7c0-0.4,0.2-0.8,0.4-1.2c0.2-0.4,0.5-0.7,0.9-0.9
			c0.6-0.2,1.2-0.3,1.8-0.2c0.6,0.1,1.2,0.3,1.8,0.5c0.6-0.7,1.3-1.5,2.2-2.4s1.6-1.6,2.3-2.4c-0.5-0.2-0.9-0.3-1.3-0.4l-1-0.3
			c-0.7-0.3-1.4-0.5-2.1-0.7l-0.4,0.4l-0.3,0.4c-0.3,0.3-0.5,0.6-0.9,1c-0.3,0.3-0.8,0.5-1.2,0.4c-0.3-0.1-0.5-0.4-0.6-0.6
			c-0.1-0.2-0.1-0.4,0-0.6c0.4-0.5,0.7-1,1.2-1.5c0.4-0.5,0.8-1,1.2-1.5s0.8-1,1.2-1.6c0.5-0.7,0.8-1.4,1.2-2.1
			c-0.8,0.3-1.6,0.7-2.4,1.2c-0.8,0.4-1.5,1.1-1.9,1.9c-0.1,0.1-0.2,0.2-0.3,0.3s-0.2,0.2-0.3,0.3c-0.2,0.1-0.4,0.1-0.7,0.1
			c-0.6-0.4-1.1-1-1.4-1.6l-0.8-2c-0.1-0.3-0.2-0.7-0.2-1c0-0.3,0.1-0.6,0.2-0.8c0.5-0.4,1-0.8,1.6-1.1c0.5-0.3,1.1-0.6,1.7-0.8
			l1.7-0.8c0.5-0.3,1.1-0.5,1.8-0.9c-0.1-2.7,0.4-5.4,1.5-7.9c1.2-2.7,2.6-5.2,4.3-7.6c-1.2,0.7-2.3,1.4-3.3,1.9s-1.9,1.1-2.9,1.5
			s-1.8,0.8-2.6,1.2c-0.9,0.3-1.7,0.6-2.6,0.8c-0.8,0-1.6-0.2-2.3-0.6L12,35l-1.3,2.1c-0.4,0.7-0.9,1.4-1.3,2.1s-0.8,1.3-1.1,1.9
			c0.8,0.6,1.4,1.4,1.8,2.2c0.4,0.9,0.6,1.8,0.6,2.7c0.1,1.1,0.1,2.5,0.1,3.9s-0.1,3-0.1,4.5s-0.2,3-0.3,4.4s-0.2,2.7-0.4,3.8
			s-0.3,2.1-0.4,3.2s-0.3,2.2-0.4,3.3c-0.1,0.4-0.1,0.7-0.3,1.1c-0.1,0.3-0.4,0.6-0.7,0.8c-0.2,0-0.4-0.1-0.5-0.3
			c-0.1-0.2-0.2-0.4-0.3-0.6c-0.2-0.7-0.3-1.4-0.2-2.1c0.1-0.8,0.1-1.5,0.2-2.1c0.4-3.4,0.8-6.9,1-10.4c0.2-3.5,0.2-7,0-10.5
			c-0.1-0.4-0.2-0.8-0.4-1.1c-0.2-0.3-0.6-0.5-1-0.5c-1,1.2-2,2.5-2.9,3.9c-0.9,1.3-1.7,2.6-2.6,3.9c-0.3,0.4-0.6,0.7-1.1,0.8
			l-0.4-0.1c-0.1-0.1-0.2-0.1-0.3-0.3c0-0.8,0.3-1.6,0.8-2.3c0.5-0.6,0.9-1.4,1.2-2.1l1.7-2.7c0.7-1.1,1.3-2.2,2-3.3s1.4-2.3,2-3.3
			s1.2-2,1.7-2.7c0.6-1,1.1-2,1.5-3c0.5-1,1.1-1.9,1.9-2.7c0.2-0.1,0.4-0.1,0.7-0.1c0.2,0,0.4,0.1,0.6,0.2c0.2,0.2,0.3,0.5,0.2,0.8
			c0,0.4-0.2,0.9-0.4,1.3c0.7,0,1.4-0.1,2.1-0.3c0.6-0.2,1.2-0.4,1.7-0.5c0.5-0.2,1.1-0.5,1.6-0.7c0.5-0.2,1.1-0.5,1.6-0.7
			c0.8-0.4,1.6-0.9,2.4-1.4c0.8-0.5,1.5-1,2.3-1.5s1.6-0.9,2.4-1.3c0.8-0.4,1.7-0.7,2.6-0.9h1c0.3,0,0.6,0.1,0.9,0.3
			c0.2,0.1,0.3,0.2,0.3,0.4c0,0.2,0,0.4-0.1,0.5c-0.4,0.4-0.8,0.8-1.3,1.1c-0.5,0.3-1,0.6-1.5,0.9c-0.2,0.1-0.3,0.2-0.5,0.3
			c-0.2,0.1-0.3,0.3-0.4,0.4c-0.8,0.7-1.4,1.5-1.9,2.5c1.4-0.3,2.8-0.1,4,0.6c0.6,0.4,1.1,0.9,1.3,1.5c0.2,0.6,0.4,1.3,0.5,2
			c0.2,1.4,0.2,2.8,0.1,4.2c-0.1,1.4-0.2,2.9-0.3,4.4l1.9-0.2c0.6-0.1,1.2-0.1,1.8-0.1c0.7,0,1.4,0.2,2,0.5c0.6,0.2,1.1,0.7,1.4,1.3
			c0,0.4-0.1,0.7-0.4,1c-0.7,0.4-1.4,0.6-2.1,0.8c-0.4,0.2-0.8,0.3-1.2,0.4s-0.9,0.3-1.5,0.5l1.1,0.5c0.3,0.1,0.5,0.3,0.8,0.3
			c0.5,0.3,1,0.6,1.5,1c0.5,0.4,0.8,1,0.8,1.6c-0.1,0.2-0.3,0.3-0.4,0.4l-0.6,0.2c-0.9,0.1-1.9,0.2-2.8,0.4c-1,0.2-2,0.6-2.9,1
			c0.3,0.2,0.5,0.4,0.7,0.7c0.1,0.2,0.2,0.4,0.2,0.7c-0.2,0.4-0.4,0.7-0.8,0.9c-0.3,0.2-0.6,0.4-1,0.5c-0.4,0.1-0.7,0.2-1.1,0.3
			c-0.3,0.1-0.7,0.1-1,0.2s-0.7,0.1-1,0.1h-1.3c-0.4,0.4-0.8,0.8-1.2,1.3c-0.5,0.5-0.9,1.1-1.2,1.7c1.2-0.4,2.3-0.8,3.3-1.1
			c1-0.3,2-0.6,3.1-0.7c1.2-0.2,2.4-0.1,3.6,0.2c0.2,0.1,0.4,0.2,0.6,0.5c0.1,0.2,0.2,0.5,0.3,0.7c0.1,0.4,0,0.9-0.2,1.3
			c-0.8,1-1.7,1.9-2.7,2.9c-0.9,1-2,2-3,3c2.8,2.1,5.8,3.9,8.9,5.4c3,1.5,6.3,2.6,9.6,3.3c0.1,0.1,0.2,0.2,0.3,0.3
			c0.1,0.1,0.1,0.2,0.2,0.4l0.1,0.3C48.5,76.2,48.3,76.5,48,76.7z M19.3,62.7l-0.5-0.2c-0.1,0-0.2-0.1-0.3-0.1
			c-0.3-0.1-0.7-0.2-1-0.3c-0.4,0-0.7,0.2-0.9,0.5c-0.1,0.6-0.2,1.2-0.2,1.8c0,0.3,0,0.6,0,0.9s0,0.8,0.1,1.4c0.5-0.8,1-1.6,1.6-2.4
			C18.5,63.7,19,63.1,19.3,62.7L19.3,62.7z M22,47c-0.3-0.3-0.6-0.6-0.7-1c-0.2-0.4-0.3-0.8-0.3-1.2c-0.5,0.3-1,0.5-1.4,0.7
			s-0.8,0.4-1.1,0.6c-0.4,0.2-0.7,0.5-1,0.8c-0.4,0.3-0.7,0.6-0.9,1c-0.1,0.3-0.1,0.6,0,0.9c0.1,0.2,0.1,0.3,0.2,0.4
			c0.1,0.2,0.2,0.4,0.2,0.6c0.4-0.3,0.8-0.6,1.3-0.9c0.4-0.2,0.8-0.4,1.2-0.6c0.4-0.2,0.8-0.4,1.2-0.6L22,47z M25.7,66.1
			c-0.6-0.5-1.3-0.9-2-1.3c-0.5-0.3-1-0.6-1.6-0.8c-0.4,0.3-0.7,0.6-1.1,1c-0.3,0.3-0.6,0.7-0.9,1s-0.6,0.6-0.9,0.9s-0.5,0.7-0.8,1
			l-0.3,0.3c-0.1,0.2-0.3,0.3-0.5,0.4c-0.2,0.1-0.5,0.1-0.7,0c0.1,0.4,0.2,0.8,0.4,1.1c0.2,0.3,0.5,0.6,0.8,0.7
			c1.4-0.3,2.8-0.9,4-1.8C23.3,67.8,24.5,67,25.7,66.1L25.7,66.1z M28.9,53.8c-0.5-0.3-1.1-0.5-1.7-0.7l-1.5-0.5
			c-0.4-0.1-0.9-0.3-1.3-0.5c-0.5-0.2-1-0.5-1.4-0.8c-0.2,0.4-0.4,0.8-0.6,1.2l-0.6,1.1c0.9,0.2,1.6,0.3,2.3,0.4
			c0.7,0.1,1.4,0.2,2.1,0.2c0.4,0.1,0.9,0.1,1.3,0C27.9,54.2,28.5,54.1,28.9,53.8L28.9,53.8z M27.7,44.8c-0.1-0.2-0.2-0.5-0.3-0.7
			c-0.1-0.1-0.2-0.3-0.3-0.4c-0.1-0.2-0.2-0.3-0.3-0.4c-0.1-0.1-0.2-0.3-0.3-0.4c-0.3,0-0.7,0.1-1,0.2c-0.3,0.1-0.6,0.2-0.8,0.3
			l-0.8,0.3c-0.3,0.1-0.6,0.3-0.9,0.5c0,0.2,0.1,0.4,0.1,0.6c0,0.2,0,0.3,0.1,0.5c0,0.4,0.1,0.8,0.3,1.2c0.7-0.3,1.5-0.6,2.2-0.8
			L27.7,44.8z M25.3,41.8c-0.1-0.6-0.3-1.3-0.6-1.8c-0.3-0.6-0.6-1.2-1-1.8c-0.2,0.8-0.4,1.6-0.5,2.4c-0.1,0.7-0.2,1.5-0.3,2.4
			c0.2-0.1,0.5-0.3,0.7-0.4c0.2-0.1,0.4-0.1,0.5-0.2C24.7,42.3,25,42.1,25.3,41.8L25.3,41.8z M35.5,45.1c-1.2,0-2.3,0.1-3.5,0.4
			c-0.1,0.3-0.3,0.5-0.4,0.7c-0.2,0.2-0.4,0.3-0.7,0.4c-0.3,0.1-0.7,0.1-1,0c-0.3-0.1-0.7-0.2-1.1-0.3c-0.4,0.2-0.9,0.3-1.3,0.5
			c-0.4,0.1-0.9,0.3-1.3,0.5l-1.3,0.6c-0.5,0.2-1,0.5-1.4,0.7c0.2,0.1,0.2,0.2,0.3,0.3c0,0,0,0.1,0,0.1c0,0.1,0,0.3,0,0.4
			c0,0.2,0,0.3,0.1,0.4c0.7,0,1.4-0.1,2.1-0.3c0.6-0.2,1.2-0.3,1.8-0.5c0.5-0.2,1.1-0.5,1.7-0.7c0.6-0.3,1.2-0.5,1.8-0.7
			c0.7,0.2,1.4,0.1,2-0.2c0.5-0.3,1.1-0.7,1.7-1.1c0.2-0.1,0.3-0.3,0.5-0.5C35.5,45.6,35.6,45.3,35.5,45.1L35.5,45.1z M32.1,59.7
			c-0.3-0.2-0.7-0.3-1-0.2c-0.3,0-0.6,0.1-0.9,0.2c-1.1,0.3-2.2,0.6-3.2,1.1c-1.1,0.5-2.2,1.1-3.1,1.9l0.6,0.3
			c0.1,0.1,0.3,0.1,0.4,0.2c0.4,0.2,0.8,0.5,1.2,0.7c0.4,0.3,0.8,0.5,1.3,0.6c0.4-0.3,0.8-0.6,1.3-1s0.9-0.8,1.3-1.2
			c0.4-0.4,0.8-0.8,1.2-1.3C31.6,60.7,31.9,60.2,32.1,59.7z M28.1,37.4c0.2-0.2,0.2-0.4,0.1-0.6c-0.1-0.2-0.3-0.3-0.5-0.3
			c-0.5,0-1,0.1-1.4,0.3c-0.4,0.2-0.8,0.4-1.1,0.7C25,37.7,25,37.9,25,38c0,0.2,0.1,0.3,0.2,0.5c0.1,0.2,0.2,0.3,0.3,0.5
			s0.2,0.4,0.4,0.7c0.1-0.1,0.2-0.3,0.3-0.4c0.1-0.1,0.2-0.2,0.3-0.3c0.1-0.1,0.2-0.2,0.3-0.3c0.1-0.1,0.2-0.2,0.3-0.3l0.5-0.5
			L28.1,37.4z M30.5,35c-0.1-0.5-0.2-0.8-0.2-1.1c-0.1-0.3-0.2-0.6-0.5-0.7c-0.3-0.2-0.6-0.4-0.9-0.4c-0.3-0.1-0.7-0.1-1,0
			c-0.3,0.1-0.6,0.2-0.8,0.4c-0.3,0.2-0.6,0.4-0.8,0.6c-0.2,0.2-0.4,0.5-0.6,0.8c-0.1,0.3-0.2,0.5-0.2,0.8c0.8-0.3,1.6-0.5,2.4-0.6
			C28.8,34.6,29.7,34.7,30.5,35z M35.5,50.2l-1.4-0.5L33,49.2l-1.1-0.3c-0.4-0.1-0.8-0.1-1.2-0.1c-0.6,0.6-1.2,1.1-1.8,1.5
			c-0.7,0.4-1.4,0.8-2.2,1.3c0.7,0.2,1.5,0.4,2.3,0.6l1.8,0.4l2.2-1.1C33.8,51,34.7,50.6,35.5,50.2z M30.6,40.1
			c0.1-0.5,0.1-1.1,0.1-1.6c0-0.5-0.1-1.1-0.2-1.6c-0.4,0.5-0.9,1-1.5,1.6L27.6,40c0.5-0.1,0.8-0.1,1.1-0.2c0.2,0,0.4,0,0.6,0
			c0.2,0,0.4,0.1,0.6,0.1L30.6,40.1z M30.6,41.6c-0.4,0.3-0.9,0.5-1.3,0.6c-0.4,0.1-0.9,0.2-1.5,0.3c0.2,0.1,0.4,0.2,0.6,0.4
			c0.1,0.1,0.2,0.1,0.2,0.2l0.7,0.7c0.2,0.2,0.6,0.4,0.9,0.4c0.2-0.4,0.3-0.8,0.3-1.2C30.4,42.6,30.5,42.1,30.6,41.6L30.6,41.6z"/>
		<path class="st2" d="M77.8,42.5c0,0.2,0,0.5-0.2,0.7c-0.1,0.1-0.2,0.2-0.3,0.3l-0.3,0.2c-1.2,0.5-2.3,1.1-3.5,1.6
			c-1.2,0.6-2.3,1.2-3.3,2c-0.6,0.4-1.3,0.9-1.8,1.3c-0.6,0.5-1.2,1.1-1.8,1.6c-0.5,0.5-1,1.1-1.5,1.7c-0.4,0.5-0.7,1-0.9,1.5
			c1.1-0.7,2.1-1.4,3.2-2.1c1.1-0.7,2.2-1.3,3.4-1.8c0.6-0.1,1.3,0,1.9,0.1c0.6,0.1,1.1,0.5,1.5,1c0.1,0.2,0.1,0.4,0,0.6
			c-0.1,0.2-0.2,0.4-0.3,0.6c-0.2,0.2-0.4,0.4-0.5,0.5c-0.2,0.2-0.3,0.4-0.4,0.6c-0.8,2.6-1.2,5.3-1.2,8c0.1,0.4,0.4,0.7,0.7,0.9
			c0.3,0.2,0.6,0.3,1,0.4c0.4,0.1,0.8,0.1,1.1,0.2c0.4,0,0.7,0.1,1.1,0.3c0.4,0.2,0.8,0.4,1.1,0.6c0.4,0.2,0.7,0.5,0.9,0.9
			c0.1,0.2,0.2,0.4,0.2,0.7c0,0.2,0,0.3-0.1,0.5c-1.1,0.8-2.2,1.6-3.3,2.5s-2.2,1.7-3.3,2.6c-1.1,0.8-2.2,1.6-3.3,2.3
			c-1.1,0.7-2.3,1.3-3.6,1.9c-0.4,0.1-0.8,0.2-1.2,0.3c-0.4,0.1-0.8,0.2-1.2,0.2c-0.2,0-0.3,0-0.5-0.1c-0.1,0-0.3-0.1-0.3-0.3
			c0.9-0.4,1.7-0.9,2.5-1.4c0.8-0.6,1.6-1.1,2.4-1.7l2.4-1.8c0.8-0.6,1.6-1.2,2.3-1.9l1.9-1.6c0.6-0.5,1.2-1.1,1.7-1.8
			c0-0.2-0.1-0.4-0.3-0.5c-0.2-0.1-0.4-0.2-0.6-0.3c-0.7-0.3-1.3-0.6-1.9-0.9c-0.7-0.3-1.1-0.9-1.3-1.7c-0.3-1-0.4-2.1-0.3-3.2
			c0.1-1.1,0.2-2.1,0.2-3.2c0-0.7,0-1.3,0-2c0-0.2,0-0.3-0.1-0.4c-0.1-0.1-0.2-0.2-0.3-0.1c0,0,0,0,0,0c-0.5,0.2-1,0.5-1.4,0.7
			c-0.6,0.3-1.2,0.7-1.8,1.1s-1.2,0.8-1.8,1.2c-0.5,0.3-1,0.6-1.4,1c-0.2,1.7-0.3,3.3-0.3,5c0,1.7-0.1,3.4-0.2,5.1
			c0,0.3,0,0.5-0.2,0.7c-0.2,0.2-0.3,0.4-0.5,0.5c-0.5,0.2-1.1,0.1-1.6-0.2c-0.5-0.3-1-0.6-1.4-1c-0.8-0.9-1.4-1.9-1.8-3
			c-0.4-1.1-0.5-2.4-0.3-3.6c0.2-0.5,0.5-1,0.9-1.4c0.4-0.4,0.8-0.8,1.3-1.2s1-0.8,1.5-1.1s1-0.7,1.4-1.1c0.4-1.2,1-2.4,1.6-3.4
			c0.7-1.1,1.6-2.2,2.5-3.1c-0.3-0.5-0.4-1.2-0.3-1.8c0-0.3,0-0.6,0-0.9c0-0.3,0.1-0.7,0.1-1c-1.2,0.3-2.4,0.7-3.4,1.3
			c-1.1,0.6-2.1,1.2-3.2,1.9c-1.2,0.9-2.5,1.8-3.7,2.8c-1.2,1-2.4,1.9-3.6,2.7c-0.2,0.2-0.4,0.2-0.6,0.2c-0.2,0-0.4-0.1-0.5-0.3
			c-0.2-0.3-0.2-0.7-0.1-1.1c0.1-0.4,0.3-0.7,0.5-1c0.3-0.3,0.5-0.5,0.8-0.7l0.9-0.7c0.2-0.2,0.4-0.3,0.5-0.5c1-0.9,2-1.7,3-2.5
			s2.1-1.7,3-2.7s2-1.9,3-2.8s2-2,3.1-3c-1.4,0.7-2.8,1.4-4.1,2c-1.3,0.6-2.6,1.1-4,1.4c-0.2,0-0.4-0.1-0.6-0.2
			c-0.2-0.1-0.3-0.3-0.4-0.5c-0.2-0.4-0.1-0.8,0.1-1.2c1.9-2.1,3.9-4.1,6-5.9s4.1-3.8,6.2-5.8c-0.6,0.1-1.2,0.2-1.7,0.3
			c-0.6,0.1-1.2,0.2-1.7,0.3c-0.7,0.1-1.5,0.1-2.2,0c-0.7-0.1-1.4-0.4-2-0.9c-0.4-0.3-0.7-0.6-1-1c-0.3-0.3-0.5-0.7-0.6-1.2
			c0.2-0.1,0.5,0,0.7,0.2c0.1,0.1,0.3,0.1,0.4,0.2c0.1,0.1,0.3,0.2,0.4,0.2c0.7,0.3,1.4,0.4,2.2,0.4c0.7,0,1.5,0,2.2-0.1
			c1.2-0.2,2.5-0.5,3.6-1c1.2-0.5,2.3-1,3.3-1.5c0.4,0.1,0.7,0.2,1.1,0.3c0.4,0.1,0.7,0.4,0.8,0.8c0.1,0.4-0.1,0.9-0.5,1.1
			c-0.7,0.5-1.4,1.1-2,1.7l-2,1.8c0.6,0.7,1.4,1.1,2.3,1.3c0.8,0.2,1.7,0.4,2.6,0.6c0.3,0.1,0.6,0.4,0.7,0.7c0,0.3-0.1,0.6-0.4,0.8
			c-0.2,0.2-0.5,0.4-0.8,0.6c-0.5,0.3-1.1,0.6-1.6,0.9C72,35,71.5,35.3,71,35.7c-0.5,0.3-1,0.7-1.5,1.1c-0.5,0.4-1,0.9-1.4,1.4
			c0,0.4,0,1-0.1,1.8c0,0.8-0.1,1.4-0.2,1.9c0.5-0.1,1-0.2,1.5-0.3c0.4-0.1,0.9-0.3,1.4-0.4l1.4-0.2c0.5-0.1,1-0.1,1.5-0.1
			c0.8,0,1.6,0.1,2.4,0.3C76.7,41.3,77.4,41.8,77.8,42.5z M60.9,58.2c-0.2,0.2-0.3,0.3-0.5,0.4c-0.2,0.1-0.3,0.2-0.4,0.4
			c-0.4,0.4-0.8,0.7-1.2,1.2c-0.4,0.4-0.7,0.9-0.8,1.4c0.1,0.7,0.4,1.4,0.7,2c0.3,0.6,0.7,1.1,1.2,1.5c0.1,0.1,0.2,0.1,0.3,0.1
			c0.1,0,0.2-0.1,0.2-0.3c0.1-1.1,0.2-2.2,0.3-3.4S60.8,59.3,60.9,58.2z M66.8,32.2c-0.6,0.6-1.2,1.2-1.8,1.7l-1.8,1.6
			c-0.6,0.5-1.2,1.1-1.7,1.6c-0.6,0.6-1.1,1.2-1.6,1.8c0.6-0.3,1.2-0.5,1.8-0.7s1.1-0.5,1.6-0.7s1-0.5,1.6-0.7s1-0.5,1.5-0.8
			c0.1-0.5,0.2-1.1,0.3-1.9S66.8,32.7,66.8,32.2L66.8,32.2z M65.9,40.4c-0.3,0.3-0.7,0.7-1.2,1.2l-1.3,1.3l-1.3,1.3
			c-0.4,0.4-0.8,0.8-1.1,1.1l1.2-0.6l1.3-0.7l1.2-0.6c0.4-0.2,0.7-0.4,0.9-0.5c0-0.3,0-0.7,0-1.1S65.8,40.8,65.9,40.4L65.9,40.4z
			 M72.6,43.4c-0.8-0.1-1.7,0-2.5,0.1c-0.8,0.2-1.5,0.3-2.3,0.6c0,0.4,0,0.9-0.1,1.5c0,0.6-0.1,1.1-0.1,1.5c0.4-0.4,0.8-0.7,1.2-1
			l1.2-0.9l1.3-0.9C71.8,44,72.2,43.7,72.6,43.4L72.6,43.4z M71.1,33.4c0.2-0.3,0.1-0.7-0.1-0.9c-0.2-0.2-0.3-0.4-0.5-0.5
			c-0.2-0.2-0.4-0.3-0.6-0.5c-0.1-0.1-0.3-0.2-0.4-0.4c-0.2,0.6-0.4,1.3-0.6,1.9c-0.1,0.7-0.2,1.3-0.3,1.9c0.4-0.2,0.8-0.5,1.3-0.8
			S70.8,33.5,71.1,33.4L71.1,33.4z"/>
		<path class="st2" d="M128.3,54.9c-0.2,1.5-0.6,3-1.3,4.3c-0.7,1.4-1.6,2.7-2.6,3.8c-0.7,0.8-1.4,1.5-2.2,2.1
			c-1,0.9-2.1,1.7-3.3,2.4c-1.1,0.7-2.3,1.2-3.6,1.5c-1.1,0.3-2.2,0.1-3.1-0.6c-1.1-0.9-1.9-2.2-2.2-3.7c0.2,0.1,0.3,0.2,0.4,0.4
			c0.1,0.1,0.2,0.2,0.2,0.3c0.2,0.3,0.4,0.5,0.6,0.7c0.3,0.3,0.6,0.6,1,0.8c0.4,0.2,0.8,0.4,1.3,0.4c1-0.2,2-0.5,2.9-1
			c0.9-0.5,1.8-1,2.6-1.7c0.8-0.7,1.6-1.4,2.3-2.1c0.7-0.7,1.4-1.5,2-2.3l1.1-1.8c0.4-0.6,0.7-1.3,1-2c0.2-0.6,0.3-1.3,0.3-2
			c-0.1-0.7-0.4-1.5-0.9-2c-0.5-0.6-1-1.2-1.6-1.7c-0.6-0.5-1.1-1-1.8-1.5l-1.9-1.4c-0.6-0.5-1.2-1-1.8-1.5
			c-0.5-0.7-0.9-1.5-0.9-2.3c-0.1-0.8,0-1.6,0.2-2.4c0.2-0.5,0.3-1,0.5-1.4l0.5-1.5c0.2-0.4,0.3-0.9,0.4-1.4c0.1-0.5,0.2-1,0.2-1.6
			c-4.1,3-7.7,6.7-10.6,10.9c0.4,0.3,0.7,0.7,0.8,1.2c0.2,0.4,0.2,0.8,0.2,1.3c0,0.5,0,1,0,1.4c0,0.5,0,1,0,1.4
			c-0.2,1.2-0.4,2.5-0.6,3.7c-0.2,1.2-0.5,2.4-1,3.6c-0.3,0.6-0.7,1.1-1.2,1.4c-0.5,0.4-1.1,0.6-1.7,0.7c-0.7,0.1-1.5,0-2.1-0.4
			c-0.3-0.3-0.6-0.6-0.7-1c-0.1-0.4-0.2-0.8-0.2-1.2c0-0.4,0-0.9,0.1-1.3c0.1-0.4,0.2-0.8,0.2-1.2c0.2-0.7,0.4-1.4,0.7-2.1
			c0.3-0.7,0.5-1.4,0.9-2.1s0.6-1.3,1-1.9s0.8-1.4,1.2-2.2c-0.5,0.1-1,0.3-1.4,0.6c-0.4,0.2-0.8,0.5-1.2,0.8
			c-0.4,0.4-0.8,0.7-1.2,1.1c-0.4,0.4-0.7,0.8-0.9,1.2c-0.4,0.7-0.7,1.5-0.8,2.3c-0.1,0.8-0.2,1.6-0.3,2.5c0,1.1,0,2.2,0,3.2
			c0.1,1.1,0.1,2.2,0,3.3c-0.1,0.2-0.2,0.4-0.3,0.6c-0.1,0.2-0.3,0.3-0.5,0.4c-0.3-0.1-0.6-0.3-0.8-0.5c-0.2-0.3-0.4-0.5-0.6-0.8
			c-0.1-1.1-0.2-2.2-0.1-3.3c0-1.2,0-2.3-0.1-3.4c-0.1-0.7-0.1-1.5-0.2-2.2c0-0.7-0.1-1.4-0.2-2.1c-0.1-0.7-0.4-1.3-0.8-1.9
			c-0.4-0.6-1-1.2-1.7-1.5c-0.2-0.1-0.3-0.1-0.5-0.2c-0.2-0.1-0.3-0.1-0.5,0c-0.4,0.5-0.8,1.1-1.3,1.8L91,52l-1.6,2.1
			c-0.5,0.7-0.9,1.2-1.2,1.7L87.8,56c-0.1,0.1-0.2,0.1-0.4,0.2c-0.2,0.1-0.5,0-0.7-0.2c-0.1-0.3-0.2-0.7-0.2-1.1
			c0.1-0.3,0.2-0.7,0.3-1c0.2-0.3,0.4-0.7,0.6-1c0.2-0.3,0.4-0.6,0.7-0.9c2.4-3.2,4.7-6.5,7-9.8s4.4-6.6,6.4-10.1
			c0-0.2,0.1-0.3,0.1-0.5c0-0.2,0-0.3,0-0.5c0-0.1,0-0.2,0-0.4c0-0.1,0-0.3,0-0.4c0.2-0.2,0.4-0.3,0.7-0.4c0.3-0.1,0.7,0,0.9,0.3
			c0.2,0.3,0.4,0.5,0.6,0.7c0.3,0.7,0.3,1.5,0,2.2c-0.3,0.6-0.6,1.3-1,1.9c-1.2,1.9-2.4,3.8-3.7,5.6l-4,5.7c0.9,0.3,1.8,0.8,2.5,1.5
			c0.8,0.7,1.4,1.5,1.9,2.4c0.6-0.8,1.3-1.6,2-2.3c0.7-0.7,1.4-1.2,2.3-1.6c0.6-0.3,1.2-0.5,1.8-0.5c0.6-0.1,1.2-0.1,1.8,0
			c0.8-1.2,1.7-2.4,2.6-3.5c1-1.1,2-2.2,3-3.3s2.1-2.1,3.2-3.2l3.1-3c0.4-0.3,0.9-0.3,1.3,0c0.4,0.3,0.9,0.5,1.2,0.8
			c0.2,0.3,0.4,0.6,0.4,1c0,0.4,0,0.7-0.1,1.1c-0.5,1.3-1,2.5-1.7,3.7c-0.6,1.2-1.2,2.5-1.6,3.8c-0.2,0.7,0,1.5,0.5,2.1
			c0.5,0.4,1,0.7,1.4,1s1,0.7,1.5,1s1.4,1,2.1,1.5c0.7,0.5,1.3,1.1,1.9,1.7c0.6,0.6,1.1,1.3,1.4,2C128.1,53.3,128.3,54.1,128.3,54.9
			z M106.9,49.3c-1.4,2.9-2.4,5.9-3,9c0,0.3,0.1,0.5,0.3,0.7c0.2,0.1,0.5,0.2,0.7,0.1c0.3-0.2,0.6-0.4,0.8-0.8
			c0.4-1.4,0.7-2.8,1-4.2C107,52.5,107,50.9,106.9,49.3z M121.5,60.1c-0.2,0.5-0.7,0.7-1.2,0.8c-0.3-0.1-0.5-0.1-0.8-0.1
			c-0.2,0-0.5-0.1-0.7-0.2c0.2-0.2,0.3-0.5,0.4-0.8c0-0.2,0-0.5-0.2-0.7c-0.8-0.7-1.7-1.3-2.7-1.7c-1-0.4-1.9-0.9-2.9-1.4l-0.2-0.2
			c-0.1-0.1-0.2-0.2-0.3-0.3c-0.1-0.1,0-0.3,0.1-0.4c0.5-0.3,1.1-0.5,1.7-0.5c0.6,0,1.1,0.2,1.7,0.4c0.8,0.3,1.7,0.7,2.4,1.3
			c0.7,0.5,1.4,1.1,2.1,1.7c0.2,0.3,0.4,0.6,0.5,1C121.7,59.3,121.7,59.7,121.5,60.1z"/>
		<path class="st3" d="M177.7,58.8c0,0.4,0,0.7-0.2,1c-0.4,0.6-0.9,1-1.6,1.1c-0.6,0.1-1.3,0.3-2,0.4c-0.9,0.1-1.7,0.2-2.6,0.3
			s-1.7,0.2-2.7,0.3c0.9-0.6,1.8-1.1,2.8-1.6c0.4-0.2,0.8-0.5,1.1-0.7c0.3-0.2,0.6-0.4,0.9-0.6c-1.1-1.1-2.4-1.8-3.8-2.2
			c-1.5-0.4-3-0.6-4.5-0.8c-0.1,1.1-0.1,2.3,0,3.4c0.1,1.3,0.2,2.7,0.2,4c0,0.7-0.1,1.5-0.3,2.2c-0.2,0.7-0.5,1.4-0.9,2
			c-0.4,0.3-0.9,0.3-1.4,0.2c-0.4-0.2-0.8-0.3-1.3-0.5c-0.3-0.2-0.6-0.3-0.9-0.3c-0.7-0.4-1.3-0.8-1.8-1.1c-0.5-0.3-1.1-0.7-1.6-1.1
			c-0.6-0.4-1.2-0.8-1.7-1.2c-0.6-0.4-1-1-1.5-1.5c-1.5,0.1-3.1,0-4.6-0.3c-1.5-0.3-2.9-1.3-3.6-2.6c0-0.3,0.1-0.7,0.2-1
			c0.1-0.3,0.3-0.5,0.6-0.6c0.7-0.1,1.5,0,2.1,0.3c0.7,0.3,1.3,0.5,2,0.8c0.7,0.3,1.3,0.5,2,0.6c0.7,0.2,1.4,0.2,2.1,0.1
			c1.2-0.5,2.4-1.1,3.6-1.8c1.1-0.7,2.3-1.4,3.4-2c0-0.5,0-1.2,0.1-2s0.1-1.5,0.1-2.2c-0.4,0.1-0.7,0.3-1.1,0.5
			c-0.3,0.2-0.7,0.4-1.1,0.5c-0.4,0.2-0.8,0.3-1.2,0.4c-0.4,0.1-0.8,0.1-1.2,0c-0.3-0.1-0.7-0.3-0.9-0.6c-0.3-0.3-0.5-0.6-0.6-0.9
			c-0.4,0.1-0.9,0.1-1.3,0c-0.4-0.1-0.8-0.5-0.8-0.9c-0.2-1-0.3-2.1-0.1-3.1c0.2-1,0.5-2,0.9-2.9c0.6-1.3,1.3-2.5,2.2-3.7
			c0.8-1.2,1.8-2.4,2.7-3.6c-2.4,1.1-4.8,2.3-7.1,3.7c-2.3,1.3-4.6,2.7-6.9,4c-1.4,0.8-2.8,1.3-4.4,1.6c-1.6,0.4-3.2,0.1-4.6-0.7
			c-0.4-0.3-0.8-0.8-1-1.3c-0.1-0.4-0.2-0.9-0.1-1.4c1.2,0.6,2.6,0.7,3.9,0.3c1.3-0.4,2.6-0.8,3.8-1.3c3.3-1.9,6.7-3.7,10-5.4
			s6.8-3.4,10.3-5.1c-0.4-0.3-0.9-0.5-1.4-0.6c-0.5-0.1-1-0.3-1.4-0.5c-0.4-0.2-0.9-0.3-1.3-0.6c-0.4-0.2-0.8-0.5-1.1-0.9
			c-0.1-0.4,0-0.8,0.1-1.2c0.1-0.4,0.4-0.8,0.8-1c0.5-0.3,0.9-0.7,1.3-1.1c-0.6,0.1-1.3,0.2-1.9,0.2c-0.6,0-1.3-0.1-1.8-0.5
			c0,0.5-0.1,1-0.2,1.5c-0.2,0.5-0.5,0.8-1,1c-0.3,0.1-0.6,0.1-0.8-0.1c-0.2-0.2-0.4-0.4-0.5-0.7c-0.5-2.4-0.8-4.8-1.1-7.4
			c-0.3-2.6-0.7-5.2-1.3-7.7c-0.2-1.1-0.6-2.2-1-3.2c-0.4-1.1-1.3-2-2.3-2.5c-0.4-0.1-0.7-0.2-1.1-0.4c-0.3-0.2-0.4-0.4-0.2-0.7
			c0.3-0.6,0.9-0.9,1.5-0.8c0.7,0,1.3,0.1,1.9,0.2c1.3,0.4,2.4,1.3,3,2.5c0.6,1.2,1.1,2.5,1.4,3.9c1.5-1.7,3.2-3.3,5.1-4.5
			c1.8-1.3,3.8-2.3,6-2.9c0.9-0.1,1.7,0,2.5,0.4c0.8,0.4,1.4,0.9,2,1.5c0.5,0.5,0.8,1.2,1,1.9c0.1,0.6,0.2,1.3,0.1,1.9
			c0,1-0.2,2-0.5,3c-0.3,1-0.5,2-0.7,2.9c-0.5,2.5-1.8,4.8-3.5,6.6c-1.8,1.9-3.8,3.8-5.9,5.4c0.4,0.4,0.9,0.6,1.5,0.7
			c0.6,0.1,1.1,0.3,1.6,0.6c0.8,0.3,1.4,0.9,1.8,1.7c0.8-0.3,1.6-0.6,2.4-1c0.7-0.4,1.5-0.6,2.3-0.7c0.4-0.1,0.9,0,1.3,0.2
			c0.5,0.2,0.9,0.6,1.1,1c0.1,0.5,0,0.9-0.4,1.3c-0.3,0.3-0.7,0.6-1.1,0.8c-1.4,0.6-2.8,1.2-4.2,1.8c-1.4,0.6-2.8,1.3-4,2.2
			c-0.8,0.6-1.5,1.2-2.1,1.9c-0.7,0.8-1.3,1.7-1.8,2.7c1.5-0.9,3-1.7,4.6-2.3c1.5-0.7,3.2-1.1,4.9-1.2c0.7,0.2,1.3,0.5,1.7,1
			c0.5,0.5,0.9,1,1.3,1.6c0.2,0.4,0.3,0.9,0.1,1.4c-0.1,0.4-0.4,0.8-0.6,1.2c-0.2,0.2-0.4,0.5-0.6,0.7c-0.2,0.2-0.5,0.4-0.7,0.6
			s-0.4,0.5-0.6,0.8c-0.2,0.2-0.5,0.5-0.7,0.8c0.3,0.2,0.6,0.3,0.9,0.4c0.3,0.1,0.5,0.4,0.6,0.7c0.2,0.5,0,1.1-0.4,1.4
			c-0.4,0.3-0.9,0.6-1.3,0.9l-1.7,1c-0.7,0.4-1.3,0.8-1.9,1.2c-0.2,0.6-0.3,1.2-0.4,1.8c0,0.6,0,1.3,0,1.9c1.3-0.1,2.6-0.1,3.8,0
			c1.3,0.1,2.5,0.3,3.7,0.7c1.9,0.5,3.6,1.6,4.9,3.2c0.1,0.2,0.1,0.4,0.1,0.5C177.6,58.4,177.6,58.6,177.7,58.8z M161.8,63.9
			c0-1.1,0-2.3,0-3.6c0-1,0-1.9-0.2-2.9c-1,0.6-2,1.3-3,2c-1,0.7-2,1.4-3,2.1c1,0.6,2,1.1,3.1,1.5C159.6,63.5,160.7,63.8,161.8,63.9
			z M168.4,7.4c-0.3-0.5-0.9-0.8-1.5-0.6c-1,0.3-2.1,0.7-3,1.3c-1,0.6-2,1.2-2.9,2c-0.9,0.8-1.8,1.6-2.7,2.4s-1.7,1.6-2.6,2.4
			c0,0.2,0,0.5,0.1,0.7c0.1,0.2,0.1,0.5,0.2,0.7c0.2,0.6,0.3,1.2,0.4,1.7c0.7-0.9,1.5-1.7,2.5-2.4c0.9-0.6,1.7-1.3,2.6-1.9
			c1-0.5,2.1-1,3.1-1.6c1.1-0.5,2.3-0.6,3.5-0.3c0.2-0.8,0.3-1.5,0.5-2.2C168.8,8.8,168.7,8.1,168.4,7.4L168.4,7.4z M167,15.5
			c-0.3-0.2-0.7-0.3-1.1-0.2c-0.5,0.1-0.9,0.3-1.4,0.5l-1.4,0.8c-0.5,0.3-0.9,0.6-1.4,0.9s-1,0.7-1.4,1c-0.4,0.3-0.9,0.7-1.4,1.1
			c-1.1,0.8-1.8,1.9-1.9,3.2c0.5,0.4,1,0.5,1.6,0.5c0.5-0.1,1.1-0.2,1.5-0.5c1.5-0.8,2.9-1.9,4.1-3.1
			C165.6,18.6,166.5,17.1,167,15.5L167,15.5z M168.2,40.7c0-0.3-0.2-0.4-0.5-0.5c-0.3-0.1-0.6,0-0.8,0.1c-1.4,0.6-2.8,1.2-4.4,2
			c-1.5,0.7-2.8,1.8-3.9,3.1c-1.1,1.3-1.6,3-1.4,4.6c2.1-1.2,4.1-2.6,6-4.1C165.1,44.4,166.8,42.7,168.2,40.7L168.2,40.7z
			 M190.4,60.1c-1.5,4.9-4.2,9.4-7.8,13.1c-2.8,2.9-6,5.3-9.7,7c-0.1,0.1-0.2,0-0.3-0.1c-0.1-0.1-0.1-0.3,0-0.4c0,0,0,0,0,0
			c1.6-1.4,3.2-2.9,4.6-4.5c1.4-1.5,2.6-3.1,3.8-4.7c1.5-2.1,2.9-4.3,3.9-6.6c1.1-2.4,1.8-4.9,2.3-7.4c0.2-1.5-0.2-3-1.1-4.1
			c-0.8-1.2-1.6-2.3-2.3-3.4c-0.7-1.1-1.3-2.3-1.9-3.6c-0.3-0.8-0.6-1.7-0.7-2.6c-0.1-0.9,0.1-1.9,0.6-2.7c0.5-0.9,1.1-1.9,1.6-3
			c0.5-1.1,0.9-2.2,1.1-3.3c-0.2-0.7-0.6-1.3-1.1-1.8c-0.5-0.5-1-1.1-1.5-1.6s-1-1-1.6-1.5c-0.5-0.5-1-1-1.4-1.6
			c-0.6-0.9-0.7-2-0.1-2.9c0.3-0.7,0.7-1.5,1.1-2.2c0.4-0.7,0.9-1.5,1.4-2.2s1-1.5,1.4-2.2c0.4-0.7,0.9-1.4,1.4-2.1
			c0.3-0.7,0.1-1.6-0.4-2.1c-0.6-0.8-1.3-1.5-2.1-2.1c-0.8-0.7-1.6-1.3-2.3-1.9c-0.2-0.1-0.3-0.4-0.2-0.8c0-0.3,0.2-0.7,0.4-0.9
			c0.5-0.2,0.9-0.4,1.4-0.4c0.5,0,1.1,0.1,1.5,0.4c0.9,0.6,1.7,1.4,2.4,2.2c0.7,0.9,1.4,1.8,1.9,2.8c0.5,0.7,0.8,1.5,1.1,2.3
			c0.3,0.8,0.2,1.8-0.3,2.5c-0.4,0.6-0.8,1.2-1.3,1.8l-1.4,1.6c-0.5,0.5-1,1.1-1.4,1.7c-0.5,0.6-1,1.3-1.4,2c-0.1,0.3-0.2,0.7-0.2,1
			c0,0.3,0,0.7,0.1,1c0.3,0.4,0.6,0.8,0.9,1.1c0.3,0.4,0.7,0.7,1,1.1s0.8,0.7,1.1,1.1c0.4,0.3,0.7,0.7,1,1.1
			c0.6,0.7,1.1,1.4,1.4,2.3c0.3,0.8,0.4,1.7,0.2,2.6c-0.4,1.2-1,2.3-1.6,3.4l-2,3.5c-0.1,1.1,0.2,2.1,0.7,3c0.5,0.9,1.1,1.7,1.8,2.5
			l0.7,0.8c0.2,0.3,0.4,0.5,0.7,0.8c1.4,1.3,2.4,2.9,2.8,4.7C191.1,56.4,191,58.3,190.4,60.1L190.4,60.1z"/>
		<path class="st3" d="M249.8,32.1c-0.4,0.4-0.9,0.9-1.4,1.2c-0.5,0.4-1.1,0.7-1.7,1c-0.6,0.3-1.2,0.6-1.8,0.9l-1.8,1
			c-2.3,1.4-4.5,3-6.7,4.6c-2.2,1.6-4.6,3.5-7.2,5.7c1.3-0.5,2.4-0.8,3.3-1.1c0.8-0.2,1.7-0.4,2.5-0.5c0.7,0,1.3,0.1,2,0.2
			c0.6,0.2,1.2,0.5,1.7,0.9c1.2,1,2.3,2.1,3.3,3.3c1,1.2,1.4,2.8,1.3,4.4c0.1,2.8,0.2,5.4,0.1,7.8c0,2.5-0.2,5-0.6,7.5
			c-0.3,0.6-0.6,1.1-1,1.5c-0.4,0.4-0.9,0.7-1.5,0.7c-1.7-0.3-3.3-1-4.7-2.2l-4-3.3l-1.1-1.1c-0.4-0.4-0.7-0.8-1-1.2
			c-0.7-0.7-1.4-1.4-1.9-2.2c-0.5-0.8-0.8-1.8-0.8-2.8c0.5-1.1,1.4-1.9,2.5-2.3c1.1-0.4,2.2-0.8,3.3-1.1c1.1-0.3,2.3-0.5,3.5-0.5
			c1.2-0.1,2.4,0.1,3.6,0.6c0-0.3,0-0.6,0-0.9c0-0.3,0-0.7,0-1c0-1-0.2-1.9-0.5-2.8c-0.3-0.9-1.1-1.7-2-2.1
			c-0.7-0.3-1.6-0.5-2.4-0.3c-0.8,0.1-1.6,0.4-2.4,0.6c-0.8,0.3-1.5,0.7-2.2,1.1c-0.7,0.5-1.4,1.1-2,1.7H228l-0.2-0.2
			c0.1-0.7,0.2-1.5,0.4-2.2c0.1-0.7,0.3-1.5,0.6-2.2c-0.3,0.1-0.6,0.3-0.8,0.5c-0.2,0.2-0.5,0.5-0.6,0.7c-0.4,0.6-0.8,1.1-1.2,1.7
			c-0.8,2.3-1.3,4.7-1.5,7.1c-0.3,2.5-0.2,5.1,0.2,7.6c0.4-0.3,0.7-0.6,1-0.8c0.2-0.2,0.5-0.4,0.8-0.5c-0.1,0.4-0.1,0.9-0.1,1.4
			c0,0.5,0,1-0.1,1.4c0,0.5-0.1,1-0.2,1.4c-0.1,0.4-0.4,0.8-0.8,1c-0.8,0.2-1.6,0-2.2-0.5c-0.9-0.9-1.5-2.1-1.9-3.3
			c-0.4-1.3-0.5-2.6-0.5-4c0-1.4,0.1-2.7,0.3-4.1c0.2-1.3,0.5-2.6,0.8-3.8c0.3-1.4,1-2.8,1.9-3.9c0.9-1.2,2-2.2,3.1-3.2
			c1.9-1.8,3.9-3.5,6-5.1s4.4-3.4,7.1-5.4c-1,0.3-2.1,0.7-3.3,1.2s-2.2,0.9-3.2,1.4s-1.9,0.9-2.8,1.3s-1.4,0.7-1.8,0.8l-3.7,1.8
			c-1.4,0.7-2.9,1.5-4.4,2.3l-4.4,2.3c-1.4,0.8-2.7,1.4-3.7,1.9c-0.7,0.3-1.4,0.6-2.2,1c-0.7,0.4-1.5,0.7-2.3,0.9
			c-0.7,0.2-1.5,0.3-2.3,0.3c-0.8,0-1.6-0.3-2.3-0.8c-0.3-0.2-0.4-0.7-0.2-1.4c0.2-0.2,0.4-0.4,0.6-0.4c0.3-0.1,0.5-0.1,0.8-0.3
			c0.2,0,0.3-0.1,0.5-0.2c4.1-1.8,8.2-3.7,12.3-5.6c4.1-1.9,7.9-4.3,11.4-7.1c1.6-1.3,3.1-2.8,4.5-4.3c1.4-1.6,2.7-3.4,3.9-5.2
			c0.1-0.1,0.2-0.2,0.2-0.4v-0.4c0.1-0.4-0.1-0.6-0.3-0.6c-2.2,1.1-4.2,2.6-5.9,4.3c-1.8,1.8-3.6,3.5-5.3,5.1
			c-0.4,0.3-0.7,0.5-1.1,0.7c-0.4,0.2-0.8,0.2-1.2,0c-0.7-0.4-1.1-1-1.3-1.8c0.1-2.1,0.7-4.1,1.7-5.9c1.1-2,2.3-3.9,3.6-5.7
			l-1.9,0.7c-0.5,0.2-1,0.4-1.5,0.6c-0.5,0.2-1,0.4-1.5,0.5c-0.5,0.1-1,0.2-1.4,0.3c-0.7,0.1-1.5,0.1-2.2,0.1
			c-0.7-0.1-1.4-0.3-2.1-0.6c-0.3-0.4-0.5-0.9-0.6-1.3c-0.1-0.4-0.1-0.9,0-1.3c0.5-0.7,1-1.3,1.7-1.9c0.7-0.6,1.4-1.1,2.2-1.6
			c1.6-1.1,3.2-2.3,4.9-3.5c1.7-1.2,3.3-2.6,4.8-4c-1.2-0.4-2.4-0.9-3.7-1.5c-1.2-0.5-2.2-1.5-2.8-2.7c0-0.3,0.2-0.6,0.4-0.8
			c0.2-0.2,0.5-0.4,0.7-0.6c0.8,0,1.6,0.2,2.3,0.6l2,1.3c0.4,0.3,1,0.6,1.5,0.7c0.5,0.3,1.2,0.5,1.8,0.6c0.6,0.1,1.3,0.2,1.9,0.4
			c0.4,0.2,0.8,0.4,1.2,0.6c0.4,0.3,0.7,0.6,0.9,1c0.1,0.4-0.2,0.9-0.5,1.1l-1,0.8c-2.3,0.6-4.5,1.5-6.6,2.8
			c-1.4,0.8-2.8,1.8-4.1,2.8c-1.3,1-2.6,2.1-4,3.1c0,0.5,0.3,0.7,0.8,0.7c3.3-1,6.5-2.3,9.6-3.8c3.1-1.5,6.2-3,9.4-4.7
			c0.4-0.1,0.7-0.1,1.1-0.1c0.4,0.1,0.7,0.2,1,0.4c0.3,0.3,0.4,0.6,0.5,1c0,0.3,0,0.7-0.1,1c-0.4,0.5-0.9,0.9-1.5,1.2
			c-0.7,0.4-1.5,0.9-2.4,1.3c-0.9,0.4-1.7,0.8-2.6,1.2c-0.7,0.3-1.3,0.6-1.9,1c-0.8,0.5-1.5,1-2.1,1.6c-0.7,0.7-1.3,1.4-1.7,2.3
			c-0.1,0.2-0.3,0.5-0.5,1s-0.5,0.9-0.7,1.4s-0.6,1.2-0.9,1.9s-0.6,1.4-0.9,2.2c1.2-0.8,2.3-1.6,3.3-2.3c1-0.8,2-1.5,3-2.3
			c0.9-0.7,1.9-1.3,2.9-1.9c1-0.6,2.1-1.1,3.2-1.6c0.4-0.2,0.9-0.2,1.3,0c0.4,0.1,0.8,0.3,1.2,0.6c0.8,0.9,1,2.3,0.4,3.4
			c-1.1,1.8-2.5,3.6-4,5.1c-1.8,1.8-3.6,3.5-5.6,5c1.6-0.6,2.9-1.2,4.1-1.7l3.3-1.4c2-0.7,4.1-1.4,6.3-2c0.5-0.1,1.1-0.1,1.6,0
			c0.5,0.1,1,0.4,1.4,0.8c0.3,0.2,0.6,0.5,0.7,0.9C250.2,31.5,250,31.9,249.8,32.1z M237.5,59c0.1-0.3,0-0.5-0.2-0.7
			c-0.2-0.2-0.4-0.4-0.7-0.4c-1.1,0.2-2.2,0.4-3.3,0.7c-1,0.3-2,0.6-2.9,1c-0.2,0.1-0.4,0.3-0.6,0.5c-0.2,0.3-0.3,0.7-0.1,1
			c0.4,0.7,0.9,1.3,1.5,1.8c0.6,0.6,1.3,1.2,2,1.6c0.4-0.5,0.8-1,1.2-1.5c0.4-0.4,0.8-0.8,1.1-1.3s0.7-0.9,1.1-1.3
			C237,60,237.3,59.5,237.5,59z M239.8,63.7c0.1-0.5,0.1-1,0.1-1.5c0-0.6-0.1-1.2-0.2-1.8c-0.5,0.5-1,1-1.6,1.3l-0.7,0.6
			c-0.2,0.2-0.5,0.3-0.7,0.5c-1,0.6-2.1,1.3-3,2.1c0.2,0.3,0.5,0.5,0.8,0.7c0.3,0.2,0.6,0.4,0.8,0.6c0.2,0.2,0.5,0.4,0.8,0.5
			l0.8,0.4c0.5,0.2,1,0.2,1.4,0.2c0.5,0,0.9-0.3,1.2-0.7l0.1-1.5L239.8,63.7z"/>
		<path class="st3" d="M283.2,58.5c-0.8,0.8-2,1.3-3.1,1.3c-1.1,0.1-2.3-0.1-3.3-0.5c-2-1.3-3.6-3.1-4.8-5.2
			c-1.1-2.1-1.9-4.3-2.3-6.6c-0.4-2.4-0.5-4.8-0.3-7.2c0.2-2.3,0.6-4.7,1.2-7c1-3.7,2.6-7.3,4.7-10.5c0.3-0.5,0.9-0.9,1.5-0.9
			c0.5-0.1,1.1,0.2,1.2,0.8c0,0.1,0,0.1,0,0.2c0.1,1.1-0.1,2.1-0.6,3.1c-0.5,0.9-0.9,1.9-1.3,2.8c-1.1,2-1.9,4.2-2.4,6.5
			c-0.6,2.4-0.8,4.8-0.8,7.3c0,2.1,0.3,4.2,0.8,6.3c0.5,2,1.3,3.9,2.4,5.7c0.9,1.4,2.6,2.2,4.2,2c0.5-0.3,0.9-0.8,1.1-1.3
			c0.2-0.5,0.5-1,0.7-1.5c0.2,0.4,0.3,0.9,0.5,1.4c0.1,0.6,0.2,1.1,0.3,1.7c0,0.3,0.1,0.6,0.1,0.9C283.3,58,283.3,58.3,283.2,58.5z
			 M316.5,69.3c0,0.4-0.1,0.8-0.2,1.2c-0.1,0.3-0.3,0.6-0.6,0.7c-1.1,0.1-2.1-0.1-3-0.7c-0.9-0.6-1.8-1.3-2.5-2
			c-0.3-0.3-0.6-0.6-0.8-0.8s-0.5-0.6-0.8-0.9c-1.2-1.3-2.6-3-4.2-5s-3-4.2-4.5-6.4c-1.4-2.2-2.6-4.5-3.6-6.8
			c-0.9-2-1.5-4.1-1.8-6.2c1.3,2.4,2.7,4.8,4.2,7.1c1.5,2.3,3,4.5,4.6,6.8c1.2,1.6,2.5,3.2,3.9,4.6c1.5,1.5,3.2,3,5.1,4.7
			c-0.4-7-0.6-13.8-0.6-20.5c0-6.7,0.1-13.5,0.3-20.5c-0.3-0.8-0.8-1.4-1.5-1.8c-1.7-0.2-3.4-0.1-5,0.4c-1.6,0.5-3.2,0.9-5,1.3
			l-2.3,0.9c-1,0.4-1.9,0.8-2.9,1.3c1.4,3.6,2.9,7,4.4,10.1c1.3,2.7,2.9,5.2,4.9,7.5c0.5,0.6,1,1.1,1.6,1.6c0.5,0.5,1.1,0.9,1.8,1.3
			c0.3,0.2,0.7,0.3,1.1,0.3c0.6-0.1,1.2-0.4,1.7-0.8c0.2-0.2,0.5-0.3,0.7-0.4c0.1,0.5,0,1-0.1,1.4c-0.6,1.3-1.9,2.1-3.4,2.2
			c-1.3-0.1-2.6-0.6-3.6-1.4c-1-0.8-1.9-1.7-2.7-2.6c-1.6-1.9-2.9-4-4.1-6.2c-1.4-2.5-2.7-5.2-3.8-7.8c-0.3,0.4-0.5,0.9-0.7,1.4
			c-0.2,0.4-0.3,1-0.5,1.6c-0.6,1.9-1.2,3.8-2,5.6c-0.7,1.6-1.5,3.2-2.4,4.8c-0.7,1.1-1.6,2.1-2.6,3c-1,0.9-2.3,1.4-3.6,1.5
			c-1.5,0-2.9-0.8-3.7-2.1c-0.2-0.4-0.2-0.9-0.2-1.4c0.3,0.1,0.5,0.2,0.7,0.4c0.2,0.2,0.4,0.3,0.7,0.4c0.4,0.2,0.8,0.4,1.2,0.4
			c0.4,0,0.9-0.1,1.3-0.3c0.9-0.5,1.6-1.2,2.2-2c0.6-0.8,1.1-1.5,1.5-2.1c0.4-0.6,0.8-1.3,1.1-1.9c0.5-0.9,1-2,1.4-3.1
			s1-2.2,1.4-3.3c0.5-1.1,1-2.1,1.5-3.1c0.4-0.8,1-1.6,1.6-2.3l-0.5-1.2l-1.2,0.6c-0.4,0.2-0.7,0.4-1,0.5c-1.4,0.8-2.7,1.7-4,2.7
			c-1.3,1-2.6,2.1-3.7,3.3c-0.3,0-0.5-0.1-0.5-0.4c0.2-1.8,0.8-3.4,1.9-4.8c0.7-0.9,1.6-1.7,2.6-2.4c1-0.7,1.9-1.3,2.8-1.8
			c0.3-0.1,0.6-0.3,0.8-0.4l0.8-0.5c-0.4-1.5-0.9-3.1-1.4-4.9c-0.5-1.8-1.2-3.5-1.9-5.2c-0.7-1.6-1.6-3.2-2.6-4.6
			c-1-1.4-2.2-2.5-3.7-3.2l-0.6-0.8c-0.2-0.2-0.3-0.4-0.4-0.6c-0.1-0.1-0.1-0.3,0-0.5c0.1-0.2,0.2-0.3,0.3-0.5c2,0.2,3.8,1,5.3,2.3
			c1.5,1.3,2.8,2.9,3.9,4.6c1.1,1.9,2,3.8,2.8,5.8c0.8,2.1,1.4,4,2,5.8c1.3-0.6,2.5-1.1,3.8-1.7s2.4-0.9,3.3-1.2
			c1.1-0.3,2.3-0.6,3.5-0.9c1.2-0.3,2.5-0.4,3.7-0.4c1.2,0,2.4,0.2,3.5,0.5c1.1,0.4,2.1,1.1,2.9,2c0.3,0.4,0.6,0.8,0.8,1.2
			c0.2,0.4,0.3,0.9,0.2,1.3c-0.7,7.5-1,15.1-0.9,22.7C315,54.3,315.5,61.8,316.5,69.3z"/>
		<path class="st3" d="M377.3,69.2c0,0.5-0.3,0.9-0.7,1.2c-0.4,0.2-0.9,0.3-1.3,0.4c-0.3,0.1-0.6,0.1-0.9,0.1h-0.9h-0.8
			c-0.3,0-0.5,0.1-0.8,0.2c-1.2,0-2.6,0-4.1,0s-3,0.2-4.4,0.3c0.8-0.4,1.7-0.8,2.5-1.1c0.8-0.3,1.6-0.7,2.5-1.1
			c-0.7-0.3-1.3-0.5-1.7-0.7s-1-0.3-1.4-0.5c-1-0.4-2-1-2.9-1.6c-0.9-0.7-1.5-1.6-1.8-2.7c0.1-1.6,0.6-3.2,1.5-4.5
			c0.9-1.3,1.7-2.7,2.3-4.2c0-0.4-0.2-0.9-0.7-1c-2.2,0.6-4.3,1.7-6,3.3c-1.7,1.5-3.3,3.2-4.7,5c-0.3,0.4-0.4,0.9-0.5,1.4
			c0,0.5-0.1,0.9-0.2,1.4c-0.1,0.5-0.3,1-0.6,1.4c-0.3,0.4-0.9,0.7-1.4,0.6c-0.7-0.5-1.2-1.4-1.4-2.3c-0.2-0.9-0.4-1.8-0.7-2.7
			c-0.2-1.4-0.4-2.8-0.6-4.2c-0.2-1.4-0.2-2.8,0-4.2c0.2-0.4,0.6-0.8,1-0.9c0.4-0.2,0.9-0.3,1.3-0.4c3.8-1.3,7.5-2.9,11.1-4.6
			c3.7-1.7,7.3-3.8,10.7-6.2c-0.3-0.2-0.7-0.4-1.1-0.5c-0.4-0.1-0.7-0.2-1.1-0.2h-1c-0.3,0-0.7,0-1,0.1c-2.4,0.1-4.8,0.4-7,1.1
			c-2.2,0.6-4.4,1.4-6.5,2.3c-1.6,1.5-3.1,3-4.7,4.5s-3.1,2.9-4.7,4.2s-3.2,2.7-4.8,3.9c-1.6,1.2-3.3,2.3-5.1,3.2
			c-0.6,0.2-1.2,0-1.6-0.4c-0.3-0.4-0.3-0.9,0-1.4c0.3-0.5,0.6-0.9,0.9-1.3c2.5-1.8,4.8-3.6,7-5.4s4.4-3.7,6.7-5.7l3.3-3
			c1.3-1.1,2.5-2.3,3.9-3.5c1.3-1.2,2.6-2.4,3.8-3.6l3.1-2.9c0.2-0.2,0.4-0.4,0.7-0.6c0.3-0.2,0.5-0.5,0.6-0.8
			c-1.4-0.3-2.8-0.2-4.1,0.3c-1.2,0.5-2.4,1.1-3.7,1.7c-1.2,0.7-2.2,1.6-3,2.7c-0.8,1.1-1.7,2.2-2.7,3.1c-0.2,0.1-0.5,0.2-0.7,0.2
			h-0.7c-0.3-0.3-0.6-0.6-0.9-0.9c-0.3-0.3-0.4-0.7-0.3-1.2c0.2-0.9,0.6-1.8,1.2-2.5c0.6-0.7,1.1-1.4,1.6-2.2c0.8-1,1.4-2.2,1.5-3.5
			c-0.1-0.3-0.1-0.5-0.1-0.7c0-0.2-0.1-0.3-0.1-0.5c0-0.4,0-0.6,0.2-0.7c0.3-0.5,1-0.7,1.6-0.6c0.4,0,0.7,0.2,1.1,0.4
			c0.3,0.2,0.6,0.5,0.7,0.9c0.6,1.1,0.4,2.5-0.5,4.1c1.5-1,3.1-1.9,4.8-2.6c1.5-0.7,3.2-1.1,4.8-1.2c1.1-0.1,2.3-0.1,3.4,0.1
			c1.1,0.2,2.1,0.7,3.1,1.3c0.3,0.3,0.5,0.6,0.7,0.9c0.2,0.3,0.2,0.7,0.1,1.1c-0.2,0.3-0.5,0.5-0.9,0.7c-0.4,0.2-0.8,0.3-1.2,0.4
			c-0.5,0.1-0.9,0.1-1.4,0.1c-0.5,0-0.9,0.1-1.4,0.2c-1.3,0.6-2.5,1.4-3.5,2.4c-0.5,0.4-1,1-1.6,1.5l-1.9,2c2-0.4,4-0.8,6-1
			c2-0.2,3.9-0.2,5.9,0c1,0.1,2.1,0.3,3.1,0.5c1,0.2,2,0.8,2.5,1.8c0.1,0.3,0.2,0.7,0.2,1c0,0.3-0.1,0.7-0.4,0.9
			c-0.6,0.6-1.3,1.1-2.1,1.5c-0.7,0.4-1.5,0.7-2.2,1L356,51.8c-0.9,0.4-1.8,0.8-2.6,1.1c-0.9,0.3-1.7,0.8-2.5,1.3
			c0.1,1.7,0.3,3.3,0.5,5c1-0.8,1.8-1.5,2.5-2s1.4-1.2,2.1-1.7s1.3-1.1,2-1.6s1.5-1.1,2.5-1.6c2.1-1.3,4.5-1.9,7-1.6
			c0.4,0.2,0.7,0.3,1.1,0.6c0.3,0.2,0.6,0.5,0.8,0.8c0.3,0.3,0.4,0.6,0.3,1c-0.1,0.4-0.2,0.7-0.3,1l-5.3,8.2l-0.2,0.3
			c-0.1,0.2-0.1,0.4-0.1,0.6c0,0.2,0.1,0.4,0.2,0.6c0.5,0.7,1.3,1.2,2.2,1.4c0.8,0.2,1.7,0.4,2.4,0.7c0.5,0.1,1,0.2,1.6,0.2
			c0.6,0,1.1,0.1,1.6,0.2c1.1,0.1,2.2,0.3,3.2,0.7C376.1,67.2,376.9,68.1,377.3,69.2z M372.9,18c0.2,0.5,0.1,1.1-0.1,1.6
			c-0.2,0.5-0.6,0.9-1,1.3c-1.4,1.3-3,2.4-4.5,3.5c-1.6,1.1-3.4,1.9-5.2,2.4c0,0-0.1-0.1-0.1-0.3c1.3-1,2.5-2.1,3.6-3.4
			c1-1.2,2-2.5,2.8-3.9c-0.3-0.5-0.9-0.7-1.5-0.6c-0.7,0-1.3,0.1-1.9,0.2c-4.4,1.1-8.6,3-12.3,5.6c-3.7,2.6-6.9,5.9-9.4,9.8
			c-0.3,0.3-0.8,0.5-1.2,0.6c-0.4,0.1-0.8,0.2-1.2,0c-0.6-0.3-1.1-0.9-1.1-1.6c-0.1-0.7-0.2-1.3-0.4-2c0.1-2,0.1-4,0-6.1
			c-0.2-2,0-4.1,0.4-6.1c0.2-0.4,0.4-0.8,0.6-1.2c0.2-0.4,0.6-0.7,1-0.8c0.2-0.1,0.5-0.2,0.8-0.2c0.3,0,0.6,0.1,0.8,0.2
			c0.4,0.2,0.5,0.6,0.3,1.1c-0.2,1.7-0.4,3.4-0.4,5.1c-0.1,1.8,0,3.5,0.3,5.2c1.8-1.5,3.5-3,5.3-4.4c1.8-1.4,3.7-2.7,5.6-3.8
			c1.9-1.1,4-2.1,6.1-2.9c2.2-0.8,4.4-1.3,6.7-1.6c1.2-0.1,2.4-0.1,3.5,0.2C371.5,16.3,372.4,17,372.9,18z M360.4,9.5
			c-0.5,0.8-1.2,1.5-1.9,2.1c-0.8,0.6-1.6,1-2.5,1.3c-0.9,0.4-1.9,0.7-2.9,0.9c-1,0.2-1.9,0.4-2.9,0.7c2.2-1.2,4.2-2.6,6-4.3
			c0.4-0.3,0.6-0.8,0.4-1.3c-0.1-0.4-0.3-0.7-0.5-1c-0.7-0.5-1.3-1-2.1-1.5l-2.2-1.3c-0.7-0.4-1.3-0.9-1.9-1.4
			c-0.6-0.5-1.1-1.1-1.6-1.7c0-0.3,0.1-0.6,0.2-0.9c0.1-0.3,0.2-0.6,0.4-0.8c0.1-0.3,0.6-0.3,1.4,0.1c1.8,0.9,3.5,1.9,5.2,2.9
			c1.7,1.1,3.3,2.4,4.6,4C360.6,7.9,360.7,8.7,360.4,9.5z"/>
		<path class="st2" d="M431.4,70.7c-0.8,0.4-1.7,0.6-2.6,0.6c-0.9-0.1-1.8-0.3-2.6-0.7c-0.4-0.2-0.8-0.4-1.2-0.6l-1.2-0.6
			c-2.9-1.5-5.8-3.2-8.6-4.9c-2.8-1.8-5.8-3.4-8.8-5.1c-0.2,0.2-0.4,0.4-0.7,0.5c-0.2,0.1-0.4,0.1-0.6,0c-0.2-0.1-0.4-0.3-0.5-0.6
			c0-0.3-0.1-0.5-0.1-0.8c-0.7-0.4-1.4-0.8-2.1-1.1c-0.7-0.4-1.5-0.5-2.3-0.3c-0.5,1-1.1,1.9-1.8,2.7c-0.7,0.9-1.5,1.8-2.3,2.6
			c-0.8,0.8-1.7,1.4-2.8,1.9c-1,0.5-2.1,0.7-3.2,0.7c-0.2-0.2-0.2-0.3-0.1-0.3c1.1-0.7,2.1-1.4,3-2.2c1-0.8,1.9-1.8,2.8-2.8
			c0.8-1,1.5-2.1,2-3.2c0.5-1.1,0.8-2.4,0.9-3.6c0.1-0.3,0.1-0.6,0.1-0.9c0-0.3,0-0.6,0-0.8c0.1-0.2,0.2-0.4,0.3-0.6
			c0.1-0.2,0.3-0.3,0.5-0.4c0.2,0,0.3,0.1,0.5,0.1c0.2,0.1,0.4,0.2,0.6,0.3c0.3,0.4,0.5,0.9,0.5,1.4c0,0.5,0,1.1-0.1,1.6
			c-0.1,0.2-0.1,0.5-0.2,0.8c-0.1,0.3-0.1,0.6-0.2,0.9c0.7-0.1,1.4-0.1,2.1,0.1c0.5,0.2,1.1,0.4,1.9,0.7c0.1-1.8,0.2-3.4,0.2-5
			c0-1.7,0.2-3.3,0.5-4.9c-1.1,0.5-2.2,0.9-3.2,1.4s-2.1,1-3.2,1.4c-1.1,0.4-2.1,0.7-3.3,0.9c-1.2,0.2-2.3,0.3-3.5,0.1
			c-0.2-0.1-0.3-0.2-0.5-0.3c-0.1-0.1-0.2-0.2-0.3-0.3c-0.1-0.1-0.2-0.3-0.2-0.4c0-0.4,0.2-0.5,0.5-0.5c2-0.4,3.9-1,5.8-1.7
			c1.9-0.7,3.7-1.4,5.4-2.3c1.8-0.9,3.5-1.8,5.2-2.8c1.7-1,3.4-2,5.1-3c0.1,0,0.3,0.1,0.5,0.1c0.2,0,0.3,0,0.4,0.1l0.4,0.2
			c0.1,0.1,0.2,0.2,0.3,0.4c0.1,0.3,0,0.6-0.1,0.8c-0.2,0.2-0.4,0.4-0.6,0.6c-0.1,0.1-0.1,0.1-0.2,0.2c-0.1,0.1-0.2,0.1-0.2,0.2
			l-2.7,1.6c-1,0.6-1.8,1.2-2.5,1.6c-0.5,0.5-0.8,1.2-0.9,2c-0.1,0.8-0.1,1.5-0.2,2.2c0,0.2,0,0.4,0,0.6c0,0.2,0,0.4,0,0.6
			c0,0.2,0,0.4,0,0.6c0,0.3,0.1,0.5,0.1,0.8c1.2-0.9,2.5-1.8,3.9-2.6c1.3-0.8,2.7-1.4,4.2-1.8c0.3,0.1,0.6,0.1,0.9,0.2
			c0.3,0.1,0.5,0.3,0.6,0.5c0.1,0.1,0,0.3-0.1,0.4l-0.3,0.3l-2.8,1.5c-0.9,0.5-1.9,1.1-2.8,1.7c-1.4,0.9-2.6,2-3.7,3.3
			c-0.1,0.3-0.1,0.7-0.2,1c-0.1,0.4-0.1,0.8-0.1,1.1c2.2,1,4.3,2.2,6.4,3.4c2,1.2,4,2.4,6.1,3.6c1.9,1.1,3.9,2.1,5.8,3.1
			c2,1,4,1.7,6.1,2.3c0.2,0,0.3,0.2,0.4,0.4C431.7,70.3,431.6,70.5,431.4,70.7z M412.9,25.7c0.6,1.7,0.7,3.6,0.1,5.4
			c-0.6,1.8-1.4,3.5-2.4,5c-1,1.2-2.1,2.3-3.2,3.3c-1.1,1-2.4,1.8-3.7,2.5c-0.4,0.2-0.9,0.4-1.3,0.5c-0.5,0.1-0.9,0.3-1.4,0.4
			c0.2-0.2,0.3-0.3,0.5-0.4c0.2-0.1,0.4-0.2,0.5-0.3l0.3-0.2l0.2-0.2c0.3-0.2,0.6-0.4,0.8-0.7c-0.2-0.2-0.4-0.4-0.5-0.7
			c-0.2-1.3-0.5-2.5-0.7-3.8s-0.5-2.5-0.8-3.7s-0.7-2.5-1.1-3.6c-0.4-1.2-1-2.4-1.7-3.5c-0.1-0.1-0.2-0.1-0.3-0.2
			c-0.1-0.1-0.2-0.2-0.3-0.3c-0.1-0.1-0.3-0.2-0.3-0.4c-0.1-0.2,0-0.4,0.1-0.5c0-0.2,0.1-0.3,0.4-0.4h0.6c0.3,0.1,0.6,0.2,0.9,0.2
			c0.3,0.1,0.5,0.3,0.8,0.5c0.9,1.3,1.6,2.7,2.2,4.1c0.5,1.5,1,3.1,1.2,4.6c0.3-0.3,0.6-0.5,0.8-0.7s0.4-0.4,0.7-0.6
			c0.6-0.5,1.2-0.9,1.9-1.3c0.7-0.3,1.5-0.4,2.2-0.2c0.1,0.1,0.2,0.1,0.3,0.1c0.1,0,0.2,0.1,0.3,0.1c0.2,0.2,0.4,0.4,0.6,0.6
			l0.4-1.3c0.2-0.4,0.3-0.8,0.3-1.2c0.1-0.4,0.1-0.8,0-1.2c0-0.4-0.2-0.8-0.5-1.1c-0.3-0.2-0.7-0.3-1.1-0.3c-0.4,0-0.8,0.1-1.1,0.1
			l-1.1,0.2c-0.4,0.1-0.8,0-1.1-0.1c-0.1,0-0.2-0.1-0.2-0.2c0-0.1,0-0.2,0.1-0.2c0.6-0.7,1.3-1.3,2.2-1.7c0.9-0.4,1.8-0.4,2.7-0.1
			c0.4,0.1,0.8,0.3,1.1,0.5C412.4,25,412.7,25.3,412.9,25.7L412.9,25.7z M408.9,33.5c-0.2-0.4-0.6-0.7-1-0.8
			c-0.9,0.5-1.7,1.1-2.4,1.9c-0.7,0.8-1,1.8-1,2.8c0.2,0.2,0.4,0.3,0.6,0.4c0.3,0.1,0.6,0.1,0.8-0.1c0.8-0.4,1.4-1,1.9-1.8
			C408.3,35.2,408.7,34.3,408.9,33.5L408.9,33.5z"/>
		<path class="st2" d="M478.2,44c-0.2,0.2-0.4,0.3-0.7,0.3l-0.5-0.1c-0.1,0-0.3,0-0.4,0c-0.6-0.2-1.2-0.4-1.8-0.7s-1.2-0.5-1.8-0.8
			s-1.2-0.5-1.8-0.7c-0.6-0.2-1.3-0.4-1.9-0.6c-0.2,1-0.6,1.9-1,2.8c-0.2,0.5-0.3,0.9-0.6,1.3c-0.2,0.4-0.4,0.9-0.6,1.4
			c0.1,0.2,0.2,0.3,0.3,0.5c0.1,0.2,0.1,0.3,0,0.5c-0.5,0.7-1.1,1.3-1.8,2s-1.3,1.3-2,1.9s-1.4,1.3-2.1,1.9l-2,1.8
			c-0.4,0.2-0.8,0.4-1,0.5c-0.4,0.2-0.8,0.2-1.2,0c-0.2,0.5-0.5,1-0.7,1.6s-0.4,1.1-0.5,1.4c0.3,0.3,0.6,0.6,1,0.9l0.9,0.8
			c0.4-0.7,0.9-1.4,1.6-1.9c0.7-0.5,1.3-1,2-1.5c1.1-0.7,2.2-1.3,3.4-1.9c1.2-0.6,2.4-1.1,3.6-1.4c0.3-0.1,0.6-0.1,0.9-0.1
			c0.3,0,0.6,0.1,0.8,0.3c0.2,0.2,0.3,0.5,0.3,0.7c0,0.3-0.1,0.5-0.1,0.8c-0.5,0.9-1,1.8-1.5,2.8c-0.6,0.9-1,1.9-1.4,2.9
			c0.3,0.7,0.8,1.2,1.4,1.5c0.6,0.3,1.3,0.5,1.9,0.8c0.4,0.1,0.8,0.2,1.3,0.3c0.4,0,0.8,0.1,1.3,0.2c0.4,0.1,0.8,0.2,1.2,0.4
			c0.4,0.2,0.7,0.5,0.9,0.8c0.1,0.3,0.1,0.6,0,0.8c-0.1,0.3-0.3,0.5-0.6,0.5c-0.6,0.3-1.2,0.4-1.8,0.5l-1.9,0.2l-2,0.1
			c-0.7,0.1-1.3,0.1-1.9,0.2l-1.8,0.3c-0.8,0.2-1.5,0.3-2,0.4c1-0.5,2-1,3.1-1.5s2.1-1.1,3.1-1.5l-1.9-1c-0.6-0.3-1.1-0.7-1.6-1.2
			c-0.3-0.3-0.5-0.7-0.7-1.1c-0.1-0.4-0.2-0.9-0.1-1.3c0.3-1.1,0.7-2.1,1.1-3.2c0-0.2,0-0.3-0.1-0.4c-0.1-0.1-0.3-0.2-0.4-0.1
			c-1.1,0.5-2.1,1-3.2,1.7c-1.1,0.6-2.1,1.4-2.9,2.4c-0.2,0.4-0.2,0.9-0.1,1.4l0.1,0.7c0,0.2,0.1,0.4,0.1,0.6c0.1,0.3,0.1,0.5,0,0.8
			c-0.1,0.3-0.3,0.5-0.5,0.7c-0.5-0.1-1-0.4-1.4-0.7c-0.4-0.4-0.7-0.7-1-1.2c-0.1-0.2-0.2-0.3-0.3-0.4c-0.1-0.1-0.2-0.3-0.3-0.4
			c-0.2-0.3-0.4-0.6-0.6-0.9c-0.2-0.3-0.5-0.6-0.8-0.9c-0.5,0.6-1,1.1-1.5,1.8c-0.5,0.6-1.1,1.1-1.7,1.5c-0.8,0.6-1.9,0.8-2.9,0.5
			c-0.5-0.2-0.8-0.4-0.8-0.8c0.5,0,0.9,0,1.4-0.2c0.4-0.2,0.8-0.4,1.1-0.7c0.6-0.5,1.1-1.1,1.6-1.7c0.5-0.6,0.9-1.3,1.2-1.9
			c-0.1-0.2-0.3-0.3-0.5-0.4c-0.1-0.1-0.3-0.2-0.5-0.3c-0.3-0.1-0.4-0.3-0.4-0.6c0.3-0.1,0.6-0.1,0.9-0.2c0.3-0.1,0.7-0.1,1,0
			c0.4-0.9,0.8-1.9,1.1-2.9c0.3-1,0.6-1.9,0.8-2.9c0.2-1,0.4-2,0.6-3s0.4-2.1,0.7-3.1c-0.2,0.1-0.4,0.1-0.5,0.2l-0.4,0.2
			c-0.4,0.2-0.8,0.4-1.2,0.6c-0.4,0.2-0.8,0.4-1.2,0.5c-0.4,0.2-0.9,0.2-1.4,0.1l-0.4-0.1c-0.1-0.1-0.2-0.1-0.4-0.2
			c-0.8,1.3-1.7,2.6-2.7,3.8c-1,1.2-2.1,2.2-3.4,3c-0.1,1.7-0.2,3.4-0.1,5.2c0.1,1.8,0.1,3.5,0,5.2l-0.4,0.2c-0.1,0.1-0.3,0.1-0.4,0
			c-0.7-0.7-1.4-1.4-2-2.2c-0.6-0.8-1.2-1.6-1.8-2.4s-1.2-1.6-1.8-2.4c-0.6-0.8-1.3-1.5-2.1-2.2c-0.4-0.3-0.8-0.5-1.3-0.4
			c-0.5,0.1-0.9,0.1-1.4,0c-0.3,0-0.6-0.1-0.8-0.4c-0.2-0.3-0.3-0.6-0.2-0.9c0.4-0.4,0.9-0.8,1.4-1.1c0.5-0.3,1-0.7,1.6-0.9
			s1.1-0.6,1.6-0.9c0.5-0.3,1.1-0.6,1.5-1c0.3-0.3,0.7-0.5,1-0.7s0.7-0.5,1-0.7l1-0.8c0.4-0.3,0.7-0.6,1-0.9c0-1.2,0.1-2.3,0.2-3.5
			c0.1-1.2,0.2-2.3,0.1-3.5c-1.5,1-3,1.9-4.5,2.7c-1.5,0.8-3,1.5-4.5,2.1c-0.7,0.3-1.5,0.3-2.3,0.2c-0.8-0.1-1.5-0.4-2-0.9
			c-0.5-0.5-0.7-1.1-0.6-1.8c0.1-0.2,0.2-0.4,0.3-0.6c0.1-0.2,0.3-0.3,0.5-0.4c0.2,0.4,0.5,0.7,0.8,1.1c0.3,0.4,0.8,0.5,1.2,0.3
			c1.2-0.2,2.3-0.6,3.5-1c1.1-0.5,2.2-1,3.3-1.6c0.9-0.5,1.7-1,2.5-1.5s1.6-1.1,2.4-1.7c0.1-0.9,0.2-1.8,0.3-2.7s0.1-1.8,0.3-2.7
			s0.2-1.7,0.4-2.5c0.2-0.8,0.4-1.6,0.7-2.4c0.1-0.2,0.2-0.4,0.3-0.5c0.1-0.2,0.3-0.3,0.5-0.3c0.2-0.1,0.5,0,0.7,0.1
			c0.2,0.2,0.3,0.3,0.5,0.5l0.5,0.8c0.1,0.2,0.4,0.4,0.6,0.6c0.7,0.6,1.5,1.2,2.4,1.6c0.8,0.4,1.7,0.7,2.5,1.1
			c0.1,0.1,0.2,0.2,0.2,0.3c0,0.1,0,0.3-0.1,0.4c-1.1,1.3-2.3,2.6-3.5,3.7c-1.3,1.2-2.6,2.3-4,3.4c-0.1,1.1-0.1,2.1-0.3,3.2
			c-0.1,1.1-0.1,2.2-0.1,3.3c0.9-0.7,1.7-1.5,2.5-2.3c0.9-0.9,1.7-1.9,2.4-2.8c-0.6,1.4-1.4,2.8-2.3,4c-0.9,1.2-1.8,2.4-2.8,3.6
			c0,0.6,0,1.4-0.1,2.4c0,1-0.1,1.9-0.1,2.6c0.5-0.5,1-1,1.5-1.5c0.4-0.5,0.8-1,1.2-1.5s0.8-1.1,1.1-1.6s0.7-1.1,1.1-1.6
			c2.8-4.4,5.2-9,7.1-13.9c-0.3,0.1-0.7,0.2-1,0.3c-0.4,0.1-0.7,0.2-1,0.4c0.3-0.5,0.7-1,1.2-1.4c0.5-0.4,1-0.6,1.5-0.9
			c0.5-1.1,1-2.2,1.5-3.3c0.5-1.1,1.2-2.2,2.2-3l0.9-0.3c0.3-0.1,0.6,0,0.8,0.3c0.2,0.3,0.2,0.7,0,1c-0.2,0.3-0.4,0.6-0.6,0.9
			c-0.2,0.2-0.3,0.4-0.4,0.7c-0.3,0.5-0.6,1.1-0.9,1.6c-0.3,0.6-0.6,1.2-0.8,1.8c1.2,0.2,2.4,0.6,3.5,1.2c1.1,0.6,2.1,1.3,3,2.1
			c0.3,0.3,0.7,0.6,1,0.8s0.6,0.5,1,0.8c1.5,1.3,3,2.6,4.4,3.9c1.4,1.3,2.8,2.7,4,4.2c0.1,0.2,0.1,0.4,0.2,0.5
			C478.3,43.7,478.3,43.9,478.2,44z M443.6,49.3l-1.5,1.3l-1.4,1.2c-0.4,0.4-0.9,0.7-1.4,1.1s-0.9,0.7-1.5,1.1
			c0.3,0.3,0.5,0.5,0.8,0.7l0.6,0.6c0.2,0.2,0.4,0.4,0.6,0.7c0.2,0.2,0.4,0.4,0.6,0.7c0.4,0.4,0.8,0.9,1.3,1.3
			c0.5,0.5,1,0.9,1.5,1.3c0-0.6,0-1.3,0.1-2.1s0-1.6,0.1-2.5s0-1.8,0.1-2.7S443.6,50.2,443.6,49.3L443.6,49.3z M451.3,30.5
			c-0.4-0.3-0.8-0.7-1.3-1.1s-1-0.7-1.5-1.1c-0.1-0.1-0.3-0.1-0.4-0.1c-0.2,0-0.4,0.1-0.4,0.3c-0.2,1-0.3,1.9-0.4,2.9
			c-0.1,1-0.2,2-0.3,3.1c0.3-0.3,0.6-0.6,1-0.9l1.1-1.1c0.4-0.4,0.8-0.7,1.2-1.1S451,30.9,451.3,30.5z M472.8,40.7
			c-0.7-0.7-1.3-1.3-1.9-1.9l-1.9-1.8c-1.2-1.2-2.6-2.2-3.9-3.3c-1.4-1-2.9-1.8-4.5-2.4l-2.4,5.1c0.6,0,1.3,0.1,1.9,0.3
			c0.6,0.2,1.1,0.3,1.7,0.5c0.3,0.2,0.6,0.4,0.8,0.7c0.2,0.3,0.3,0.6,0.2,0.9c0,0.2,0,0.3-0.2,0.5c-0.1,0.1-0.2,0.2-0.4,0.3
			c-0.6,0-1.3-0.1-1.9-0.3c-0.6-0.2-1.2-0.4-1.8-0.6c-0.2-0.1-0.4-0.1-0.6-0.2c-0.2-0.1-0.5-0.1-0.7-0.1c-0.3,0.6-0.6,1.2-1,1.8
			s-0.6,1.1-0.9,1.7s-0.6,1.1-1,1.7s-0.8,1.2-1.2,1.9c1.2-0.5,2.3-1.1,3.2-1.6l2.9-1.7c1.1-0.7,2.2-1.3,3.3-1.9
			c1.1-0.6,2.3-1.1,3.5-1.5c0.6-0.2,1.2,0,1.7,0.4c0.5,0.4,1,0.9,1.4,1.4c0.3,0,0.6,0.1,0.9,0.1c0.3,0,0.6,0.1,0.9,0.1
			c0.3,0,0.6,0.1,0.9,0.1C472.1,40.8,472.4,40.8,472.8,40.7z M461.8,51c-0.5,0.1-1.1,0.2-1.6,0.2c-0.5,0-1-0.1-1.3-0.5
			c-0.1,0.5-0.3,1.1-0.4,1.7s-0.3,1.2-0.4,1.6c0.6-0.4,1.2-1,2-1.6L461.8,51z M464.2,47.3c-0.5-0.2-1-0.2-1.5-0.2
			c-0.6,0.1-1.1,0.2-1.7,0.4c-0.4,0.2-0.9,0.4-1.3,0.6c-0.5,0.2-0.7,0.8-0.6,1.3c0.1,0.2,0.3,0.4,0.6,0.5l0.8,0.1
			c0.5-0.1,1-0.2,1.5-0.3c0.5-0.1,1-0.4,1.4-0.7C463.9,48.4,464.1,47.9,464.2,47.3L464.2,47.3z M466.7,41.6c0.1-0.2,0-0.4-0.2-0.5
			c-0.2-0.1-0.4-0.1-0.5,0c-1.1,0.6-2.2,1.2-3.3,1.8s-2.2,1.3-3.3,1.9c0.1,0.2,0.2,0.4,0.2,0.5l0.2,0.7c0.9-0.4,1.8-0.8,2.7-1
			c1-0.3,2-0.3,3,0c0.1-0.2,0.1-0.4,0.2-0.5c0-0.1,0.1-0.3,0.2-0.4l0.5-1.2C466.5,42.5,466.6,42.1,466.7,41.6L466.7,41.6z"/>
		<path class="st2" d="M497.3,31.2c0.3,0.8,0.4,1.7,0.3,2.6c-0.1,0.9-0.3,1.7-0.6,2.5c-0.6,1.5-1.2,3.1-1.9,4.5s-1.4,3-2.2,4.6
			c0.7,0.3,1.5,0.7,2.2,1.1c0.7,0.4,1.3,1.1,1.5,1.9c0.2,2.1,0.3,4.2,0.2,6.3c-0.1,2.1-0.2,4.2-0.4,6.3c0,0.4-0.1,0.8-0.3,1.2
			c-0.2,0.2-0.4,0.3-0.6,0.3c-0.2,0-0.5,0-0.7-0.2c-0.2-0.3-0.4-0.5-0.6-0.8c-0.2-0.3-0.2-0.7-0.2-1c0.2-2,0.3-3.9,0.4-5.8
			c0.1-2,0-3.9-0.2-5.9c-0.1-0.2-0.3-0.4-0.5-0.6c-0.1-0.2-0.4-0.4-0.6-0.4c-0.4-0.1-0.8-0.1-1.1,0.1c-0.3,0.2-0.6,0.5-0.8,0.8
			c-0.1,0.2-0.2,0.3-0.4,0.5l-0.3,0.5c-0.1,0.2-0.2,0.4-0.3,0.5c-0.1,0.2-0.2,0.3-0.4,0.5c-0.5,0.8-0.9,1.6-1.3,2.4
			c-0.4,0.8-1,1.6-1.7,2.2c-0.2,0.1-0.4,0.1-0.6-0.1c-0.2-0.2-0.4-0.4-0.5-0.6c0-0.2,0-0.5,0-0.7c0-0.2,0-0.5,0-0.8
			c2-3.3,3.8-6.6,5.5-9.9c1.7-3.3,3-6.8,4-10.5c0.1-0.6-0.1-1.2-0.4-1.7c-0.1-0.1-0.2-0.2-0.4-0.3l-0.4-0.2
			c-0.1-0.1-0.2-0.1-0.3-0.2c-0.1-0.1,0-0.2,0-0.4c0.2-0.2,0.5-0.3,0.8-0.4c0.3-0.1,0.6,0,0.9,0.1c0.4,0.1,0.7,0.2,0.9,0.5
			C496.9,30.6,497.1,31,497.3,31.2z M523,60.5c0.1,0.3,0,0.5-0.2,0.7c-0.2,0.1-0.4,0.3-0.6,0.4c-1,0.3-2.1,0.5-3.1,0.8
			c-1,0.3-2.1,0.4-3.2,0.5c-0.5,0.1-1.1,0.1-1.7,0.1c-0.6,0-1.4-0.1-2.4-0.2c1.2-0.4,2.3-0.8,3.2-1.1s1.7-0.6,2.3-0.8
			c0.1,0,0.2-0.1,0.2-0.2c0-0.1,0-0.2-0.1-0.3c-0.6-0.3-1.2-0.5-1.8-0.6c-0.6-0.1-1.3-0.2-1.9-0.4c-0.5-0.1-1-0.3-1.4-0.6
			c-0.5-0.3-0.8-0.8-1-1.3c0.1-0.5,0.2-1,0.3-1.5c0.2-0.5,0.3-0.9,0.6-1.3c0.4-0.7,0.8-1.4,1.2-2s0.8-1.3,1.3-2
			c0.1-0.1,0.1-0.2,0-0.3c0-0.1-0.2-0.1-0.3-0.1c-3.4,1.5-6.5,3.5-9.2,6c-0.2,0.3-0.3,0.7-0.3,1.1c0,0.4,0.1,0.8,0.1,1.3
			c0.1,0.4,0.1,0.8,0,1.2c-0.1,0.4-0.3,0.8-0.7,1c-0.4-0.1-0.7-0.4-1-0.7c-0.2-0.3-0.4-0.6-0.5-1c-0.3-0.8-0.5-1.7-0.7-2.6
			c-0.2-0.9-0.3-1.7-0.4-2.6c-0.1-0.8-0.2-1.5-0.2-2.3c0-0.8,0.1-1.6,0.3-2.3c0.4-0.3,0.8-0.7,1.3-1.1s1-0.9,1.5-1.4l1.6-1.4
			l1.4-1.2c0.1-2.1,0.2-4.2,0.2-6.3c0-2,0-4.1-0.2-6.1c-0.1-0.6-0.3-1.1-0.7-1.4c-0.2-0.1-0.4-0.2-0.5-0.3c-0.2-0.1-0.4-0.2-0.6-0.1
			c-0.1,0-0.2,0-0.3,0.1c-0.1,0-0.2,0-0.3,0c-0.1,0-0.2,0.1-0.3,0.1c-0.2,0-0.4,0-0.6,0l0.7-1.1c0.2-0.4,0.6-0.7,1-0.9
			c0.9,0,1.8,0.2,2.6,0.8c0.4,0.4,0.7,0.8,0.9,1.3c0.2,0.5,0.4,1,0.4,1.5c0.1,0.7,0.2,1.4,0.2,2.1c0,0.8,0,1.6,0.1,2.4
			c1.1-0.6,2.2-1.1,3.4-1.5c1.1-0.4,2.3-0.8,3.5-0.9c0.3,0.1,0.6,0.2,0.9,0.2c0.3,0.1,0.5,0.2,0.8,0.4l0.3,0.7
			c0.1,0.3,0.1,0.6-0.1,0.9c-1.3,1.5-2.7,2.9-4.3,4.2c-1.5,1.3-3.1,2.5-4.6,3.9c0,0.4,0,0.7,0,1c0,0.3,0,0.7,0,1
			c0,0.3-0.1,0.6-0.2,0.9c-0.1,0.3-0.2,0.6-0.4,0.9c-0.5,0-1.1-0.3-1.3-0.8l-0.1-0.2c0-0.1-0.1-0.1-0.1-0.2l-0.3-0.6
			c-0.3,0.3-0.6,0.5-0.9,0.8c-0.3,0.2-0.6,0.4-1,0.7c-0.6,0.4-1.1,1-1.6,1.6c-0.4,0.6-0.5,1.5-0.2,2.2l0.2,1.5
			c0,0.2,0.1,0.4,0.1,0.6s0.1,0.5,0.2,0.8c1.8-1.5,3.7-2.9,5.8-4.1c1.9-1.1,3.9-2.1,6-2.9c0.5-0.2,1-0.2,1.5-0.1
			c0.5,0.1,1,0.4,1.4,0.7c0.3,0.2,0.5,0.6,0.4,1c-0.5,0.7-1,1.4-1.5,2c-0.5,0.6-1,1.3-1.5,1.9c-1,1.3-1.8,2.6-2.6,4
			c-0.1,0.1-0.1,0.2,0,0.3c0,0.1,0.1,0.2,0.2,0.3l3.9,0.8c1.3,0.3,2.5,0.7,3.8,1.2c0.3,0.1,0.5,0.2,0.8,0.4
			C522.8,60,522.9,60.3,523,60.5z M515.9,36.4c-0.6,0.2-1.2,0.4-1.6,0.6c-0.5,0.2-0.9,0.4-1.3,0.6s-0.9,0.5-1.3,0.8
			s-0.9,0.6-1.4,0.9c0,0.4,0,0.8,0,1.3s0,1,0,1.5c0.6-0.5,1.2-1,1.7-1.5s0.9-0.9,1.3-1.3s0.9-0.9,1.3-1.4S515.4,37.1,515.9,36.4z"/>
		<path class="st2" d="M559.9,43.3c-0.1,0.6-0.2,1.2-0.5,1.7c-0.3,0.5-0.6,1.1-1,1.5c-0.4,0.5-0.8,1-1.2,1.5s-0.8,1-1.2,1.5
			c-0.7,0.7-1.3,1.4-2,2.1c-0.7,0.7-1.4,1.3-2.2,1.8c-0.6,0.4-1.2,0.7-1.9,0.8c-0.8,0.2-1.6,0.2-2.3,0c-0.1,2.2-0.2,4.6-0.3,7
			s-0.4,5-0.7,7.6l-0.2,0.3c-0.2,0.4-0.4,0.7-0.7,0.7c-0.5-0.2-0.8-0.7-1-1.2c-0.1-0.3-0.1-0.6-0.1-0.9c0-0.3,0-0.6,0-0.9
			c0.1-1,0.1-2.1,0.2-3.3c0.1-1.2,0.1-2.5,0.2-3.8s0.1-2.6,0.2-3.8s0.1-2.3,0.1-3.3c0.1-0.8,0.1-1.8,0.1-2.9c0-1.1,0-2.1,0-2.9
			c-1,0.4-1.9,0.9-2.9,1.5c-0.9,0.5-1.7,1.1-2.6,1.7c-0.9,0.6-1.8,1.2-2.6,1.9c-0.8,0.7-1.6,1.4-2.4,2.3c-0.4,0.2-0.8,0.2-1.2,0
			c-0.2-0.1-0.3-0.2-0.4-0.4c0-0.2-0.1-0.4-0.2-0.6c0.2-1.1,0.7-2.1,1.3-3c0.6-0.9,1.3-1.8,1.8-2.8c0.8-1.3,1.7-2.6,2.7-3.8
			c1-1.2,2-2.4,3-3.5c0.3-0.3,0.5-0.6,0.8-0.9s0.6-0.6,0.9-1c0.3-0.3,0.6-0.6,0.8-1c0.2-0.3,0.5-0.7,0.8-1.2c-1.7,0.8-3.3,1.4-4.8,2
			c-1.5,0.5-3,1-4.6,1.3c-0.3,0-0.6,0-0.8,0c-0.3,0-0.6,0-0.8-0.1c-0.5-0.1-0.9-0.4-1.1-0.9c0-0.3,0-0.6,0.2-0.8
			c0.2-0.3,0.5-0.5,0.7-0.7c0.3-0.2,0.5-0.4,0.7-0.6l0.8-0.9c0,0.3,0.1,0.7,0.2,1c0.1,0.3,0.3,0.5,0.6,0.6c2.7-0.6,5.3-1.4,7.8-2.6
			c2.5-1.2,4.9-2.4,7.3-3.7c0.3,0,0.7,0,1,0.1c0.3,0.1,0.6,0.4,0.8,0.7c0.1,0.1,0.1,0.3,0.2,0.4c0.1,0.1,0,0.3-0.1,0.4
			c-1.1,0.8-2.2,1.5-3.3,2.3s-2.1,1.7-3.2,2.7c0.4,0.8,0.7,1.7,0.8,2.7c0.1,1,0.1,2,0,3c1-0.3,1.9-0.6,2.7-0.9s1.7-0.6,2.6-0.9
			c0.9-0.2,1.8-0.4,2.7-0.5c0.9-0.1,1.8,0,2.7,0.2c0.4,0.2,0.7,0.5,1,0.8C559.8,42.4,560,42.9,559.9,43.3z M545.4,44.5
			c0.1-0.8,0.1-1.7,0.1-2.6c0-0.9-0.1-1.8-0.2-2.7c-1.3,1.5-2.6,3-3.7,4.5c-1.1,1.5-2.3,3.1-3.4,4.9c1.4-0.9,2.7-1.6,3.8-2.3
			C543.2,45.7,544.3,45.1,545.4,44.5z M550.1,26.1c0.1,0.3,0,0.6-0.1,0.9c-0.2,0.2-0.4,0.4-0.6,0.6c-1.2,0.7-2.4,1.3-3.6,1.9
			s-2.5,1.1-3.8,1.5c-0.2,0.1-0.3,0.1-0.4-0.1c0-0.1,0-0.2,0.2-0.3c0.8-0.4,1.6-0.8,2.3-1.4c0.4-0.3,0.7-0.6,1.1-1
			c0.3-0.3,0.7-0.7,1.1-1c0.1-0.2,0-0.4-0.1-0.5c-0.1-0.1-0.3-0.1-0.4-0.2c-0.9-0.4-1.8-0.8-2.7-1.1c-0.9-0.4-1.8-0.8-2.6-1.4
			c-0.2-0.2-0.3-0.4-0.4-0.6c-0.1-0.2,0-0.4,0.2-0.5c0.1-0.2,0.2-0.3,0.4-0.4c0.2-0.1,0.3-0.2,0.5-0.3c0.7,0.1,1.4,0.3,2,0.7
			c0.6,0.4,1.2,0.7,1.9,1c0.4,0.2,0.8,0.4,1.3,0.6c0.4,0.1,0.9,0.3,1.3,0.4c0.6,0.1,1.2,0.4,1.7,0.7
			C549.6,25.6,549.9,25.9,550.1,26.1L550.1,26.1z M557.2,44c0.1-0.2,0.1-0.4,0-0.6c-0.1-0.2-0.3-0.4-0.6-0.3c-0.7,0.1-1.3,0.2-2,0.4
			c-0.8,0.2-1.5,0.4-2.3,0.7s-1.5,0.5-2.3,0.8s-1.4,0.5-2,0.8c0,0.9-0.1,2-0.1,3.3s-0.1,2.6-0.2,3.7c0.3,0.1,0.6,0.1,0.9,0
			c0.3-0.1,0.6-0.3,0.8-0.4c0.9-0.5,1.7-1.1,2.4-1.8c0.7-0.7,1.4-1.4,2-2.2c0.6-0.7,1.2-1.5,1.7-2.2S556.7,44.7,557.2,44L557.2,44z"
			/>
		<path class="st2" d="M609.2,54.8c-0.5,1.9-1.4,3.8-2.6,5.4c-1.3,1.7-2.7,3.2-4.3,4.7c-1.5,1.4-3.3,2.3-5.2,2.8
			c-0.5,0-1-0.1-1.5-0.4c-0.5-0.3-0.9-0.7-1.1-1.2c-0.3-0.6-0.5-1.3-0.6-2c-0.1-0.5-0.1-0.9-0.2-1.4c0-0.5-0.1-1.1-0.2-1.8
			c-1.3,1-2.6,1.9-4.1,2.6c-1.3,0.7-2.7,1.2-4.2,1.6l-0.5,0.1c-0.2,0-0.3,0-0.5,0c1.6-0.9,3.2-1.9,4.7-2.9c1.6-1,3-2.2,4.4-3.5
			c0.1-0.6,0.1-1.1,0.1-1.7c0-0.6,0-1.2,0.1-1.8c-0.2,0.2-0.4,0.3-0.6,0.5c-0.1,0.1-0.3,0.3-0.5,0.4c-0.2,0.2-0.5,0.3-0.8,0.3
			c-0.2,0-0.5-0.1-0.7-0.2c-0.2-0.1-0.3-0.3-0.4-0.5c0.2-0.4,0.4-0.9,0.7-1.3l0.8-1.2l0.3-0.5c0.1-0.2,0.3-0.4,0.4-0.8
			c-1.3,0.5-2.6,1.2-3.7,2c-1.1,0.8-2.2,1.6-3.2,2.6c-0.3,0.1-0.6,0.1-0.9,0c-0.2-0.2-0.3-0.4-0.4-0.7c0-0.3-0.1-0.5-0.1-0.8
			c1-1.6,2.2-3.4,3.5-5.2c1.3-1.8,2.7-3.6,4.1-5.2c-1.3,0.4-2.6,0.9-3.9,1.4s-2.4,1-3.4,1.3c-0.5,1.5-1.1,3.1-1.8,4.5
			c-0.7,1.5-1.8,2.7-3.1,3.7c-0.2,0.1-0.4,0.2-0.7,0.2c-0.2,0-0.5,0-0.7-0.1c-0.5-0.2-0.9-0.6-1.2-1c-0.3-0.4-0.5-0.9-0.6-1.4
			c-0.2-0.6-0.3-1.2-0.3-1.8c-0.1-0.7-0.2-1.3-0.4-1.9c-1.1,0.8-2.2,1.6-3.3,2.3c-1.1,0.8-2.3,1.5-3.6,2c-0.4,0.2-0.9,0.2-1.3,0.2
			c-0.4-0.1-0.9-0.3-1.2-0.6c-0.3-0.3-0.4-0.7-0.4-1.1c0.1-0.4,0.3-0.8,0.5-1.1c0.2-0.2,0.4-0.5,0.5-0.8c0.1-0.3,0.2-0.5,0.3-0.8
			c0.1,0.2,0.1,0.4,0.1,0.6c0,0.2,0,0.4,0,0.7c0,0.3,0.1,0.6,0.4,0.7c0.3,0.1,0.6,0.1,0.9-0.1c1.3-0.6,2.5-1.4,3.6-2.2
			c1.1-0.8,2.3-1.6,3.5-2.6c0-0.8-0.1-1.7-0.1-2.5s0-1.7,0-2.5s0.1-1.7,0.2-2.4c0.1-0.8,0.2-1.5,0.4-2.3c0.2-0.3,0.6-0.4,1-0.3
			c1,0.6,2,1.1,3.1,1.6c1.1,0.5,2.1,0.9,3.3,1.2c0.3,0.1,0.5,0.4,0.7,0.7c0,0.1,0,0.2,0,0.3c0,0.1-0.1,0.3-0.2,0.4
			c-0.9,1.1-1.9,2.2-3,3.3l-3.1,3.3c0,0.5,0.1,0.9,0.1,1.4c0,0.5,0,0.9,0.1,1.3c0,0.4,0.1,0.9,0.2,1.3c0.1,0.5,0.3,0.9,0.6,1.3
			c0.5-0.2,0.9-0.5,1.3-0.9c0.4-0.4,0.7-0.8,1-1.3c0.3-0.5,0.6-0.9,0.8-1.4l0.8-1.6c-0.6-0.2-1.1-0.7-1.4-1.3c0-0.4,0.3-0.7,0.7-0.8
			c0.3-0.1,0.6-0.2,0.9-0.2c0.3,0,0.7-0.2,0.9-0.3c2.8-5.7,4.7-11.8,5.8-18v-2.7c0.1-0.2,0.3-0.4,0.4-0.4c0.4,0,0.8,0.1,1.1,0.3
			c0.3,0.3,0.6,0.6,0.8,1c0.1,0.3,0.2,0.5,0.3,0.8c0.1,0.2,0.2,0.5,0.4,0.9c0.6-1.3,1.5-2.5,2.6-3.4c0.5-0.4,1.1-0.8,1.7-1.1
			c0.6-0.3,1.2-0.5,1.8-0.6c0.6,0,1.3,0.2,1.8,0.5c0.6,0.4,1,0.8,1.4,1.4c0.3,0.8,0.5,1.7,0.6,2.5c0.1,0.9,0,1.8-0.1,2.7
			c-0.1,0.9-0.3,1.8-0.6,2.6c-0.2,0.8-0.5,1.7-0.9,2.5c-0.3,0.6-0.6,1.2-0.9,1.7c-0.3,0.5-0.8,0.9-1.5,1.1c-0.2,0-0.5,0.1-0.7,0.1
			c-0.3,0-0.5,0-0.8,0.1c-0.5,0.5-1.1,1-1.7,1.5c-0.5,0.5-1.1,0.9-1.7,1.4l-1.8,1.3c-0.6,0.5-1.4,1-2.4,1.7c0.8-0.2,1.4-0.3,1.8-0.5
			c0.4-0.1,0.8-0.3,1.1-0.5c0.3-0.2,0.6-0.3,0.9-0.5l0.8-0.4c1.9-0.9,3.8-1.8,5.7-2.6s3.8-1.6,5.8-2.4c0.3-0.1,0.7-0.1,1-0.2
			c0.3-0.1,0.7,0,1,0.1c0.2,0.2,0.4,0.4,0.5,0.7c0,0.1,0,0.3,0,0.4c0,0.1-0.1,0.2-0.2,0.3c-1.9,0.8-3.8,1.6-5.7,2.4
			c-1.9,0.8-3.8,1.7-5.7,2.7c-1.3,1.2-2.6,2.5-3.7,3.8c-1.2,1.5-2.4,3-3.4,4.6c1-0.3,1.8-0.7,2.6-1c0.8-0.4,1.5-0.7,2.3-0.9
			c1.1-1.5,1.9-3,2.6-4.7c0.1-0.2,0.2-0.2,0.5-0.1c0.2,0.2,0.3,0.5,0.3,0.8c0,0.2,0,0.4,0,0.6c0,0.3,0,0.6,0,0.8
			c0.9-0.9,1.7-1.6,2.5-2.3c0.8-0.6,1.6-1.2,2.4-1.8c0.2-0.1,0.5-0.1,0.8-0.1c0.2,0,0.4,0.1,0.6,0.3c0.3,0.5,0.5,1.1,0.3,1.7
			c-0.1,0.6-0.3,1.1-0.5,1.7c-0.1,0.2-0.2,0.5-0.3,0.7l-0.3,0.8c1,0.1,1.9,0.3,2.8,0.6c0.9,0.2,1.7,0.8,2.3,1.5
			c0.4,0.7,0.7,1.5,0.7,2.3C609.5,53.3,609.4,54.1,609.2,54.8z M581.9,41.1c-0.2-0.2-0.5-0.5-0.8-0.7l-0.8-0.4l-0.9-0.4
			c-0.3-0.1-0.6-0.3-1-0.5c-0.1,1-0.1,2-0.1,3c0,0.9,0,2,0,3c0.7-0.8,1.3-1.4,1.9-2C580.8,42.5,581.4,41.8,581.9,41.1z M592,40.7
			l-0.2-0.5c-0.1-0.2-0.1-0.3-0.2-0.4c0-0.2-0.1-0.3-0.1-0.5c0-0.2-0.1-0.3-0.1-0.5c0-0.6-0.1-1.3-0.2-2.2s-0.1-1.8-0.2-2.7
			S591,32,591,31s-0.1-1.9-0.2-2.8c-0.3,1.3-0.6,2.6-1,4s-0.8,2.8-1.2,4.2s-0.8,2.8-1.2,4.2s-0.8,2.7-1.2,4c1.1-0.6,2.1-1.2,3-1.8
			S591.1,41.4,592,40.7z M600.8,26.8c0.1-0.7-0.1-1.5-0.5-2.1c-0.5-0.4-1.1-0.6-1.8-0.5c-1.4,0.5-2.6,1.4-3.5,2.6
			c-0.4,0.6-0.8,1.2-1.1,1.9c-0.3,0.7-0.5,1.5-0.5,2.3l1.2-0.6c0.3-0.2,0.7-0.3,1-0.5l0.9-0.5c0.3-0.1,0.7-0.3,1-0.3
			c0.9-0.3,1.9-0.3,2.9,0c0.1-0.4,0.1-0.7,0.2-1.1C600.7,27.6,600.8,27.2,600.8,26.8z M594.9,35.4c-0.5-0.5-0.9-0.9-1.4-1.4
			c0,0.5,0,0.9,0,1.4c0,0.4,0,0.8,0,1.2c0,0.9,0.1,1.7,0.3,2.5l2.3-2.6C595.7,36.2,595.4,35.8,594.9,35.4L594.9,35.4z M599.9,50.2
			c-0.3,0.1-0.7,0.2-1,0.2l-0.8,0.1l-0.8,0.2c-0.3,0.1-0.5,0.1-0.8,0.3c-0.3,0.5-0.6,1-1.1,1.6l-1.1,1.6c0,0.6,0,1.1,0,1.7
			c0,0.7,0,1.4,0.1,2.1c1.1-1.3,2.1-2.6,3-3.8C598.3,52.9,599.2,51.5,599.9,50.2L599.9,50.2z M607.3,51.7c-0.3-0.5-0.8-0.9-1.3-1.1
			c-0.5-0.3-1.1-0.4-1.7-0.4l-1.7-0.1c-1.1,1.9-2.2,3.7-3.5,5.5c-1.3,1.8-2.9,3.4-4.6,4.8c0.1,0.5,0.2,1,0.2,1.5
			c0.1,0.5,0.1,0.9,0.3,1.3c0.1,0.4,0.3,0.9,0.5,1.3c0.2,0.4,0.5,0.8,0.8,1.2c0.3,0,0.5,0.1,0.9,0.1c0.3,0,0.6,0,0.8-0.1
			c0.6-0.3,1.1-0.6,1.6-1c0.5-0.4,1-0.8,1.5-1.2c0.6-0.6,1.2-1.2,1.7-1.8c0.6-0.7,1.2-1.4,1.8-2.2s1.1-1.6,1.6-2.3
			c0.4-0.7,0.8-1.4,1-2.2c0.2-0.5,0.3-0.9,0.3-1.4C607.5,52.7,607.4,52.2,607.3,51.7L607.3,51.7z M599.7,31.3
			c-0.9-0.1-1.8,0-2.7,0.3c-0.8,0.3-1.6,0.8-2.4,1.3c0.4,1.2,1.3,2.2,2.3,2.8l0.8-1.1c0.3-0.3,0.5-0.7,0.8-1s0.4-0.7,0.6-1.1
			C599.4,32.1,599.6,31.7,599.7,31.3z M602.4,45.2c-0.3-0.1-0.6-0.1-0.8,0c-0.3,0.1-0.5,0.3-0.8,0.5c-0.5,0.4-1.1,0.9-1.7,1.4
			c-0.5,0.5-1,1-1.5,1.5c0.7-0.1,1.4-0.2,1.9-0.3s1-0.2,1.6-0.3c0.2-0.3,0.4-0.8,0.6-1.3S602.2,45.7,602.4,45.2z"/>
		<path class="st2" d="M658.4,50.2c-0.2,1.5-0.6,3-1.3,4.3c-0.7,1.4-1.6,2.7-2.6,3.8c-0.7,0.8-1.4,1.5-2.2,2.1
			c-1,0.9-2.1,1.7-3.3,2.3c-1.1,0.7-2.3,1.2-3.6,1.5c-1.1,0.3-2.2,0.1-3.1-0.6c-1.1-0.9-1.9-2.2-2.2-3.7c0.2,0.1,0.3,0.2,0.5,0.4
			c0.1,0.1,0.2,0.2,0.2,0.3c0.2,0.3,0.4,0.5,0.6,0.7c0.3,0.3,0.6,0.6,1,0.8c0.4,0.2,0.8,0.4,1.3,0.4c1-0.2,2-0.5,2.9-1
			c0.9-0.5,1.8-1,2.6-1.7c0.8-0.6,1.6-1.3,2.3-2.1c0.7-0.7,1.4-1.5,2-2.3c0.4-0.6,0.8-1.2,1.2-1.8c0.4-0.6,0.7-1.3,1-2
			c0.2-0.6,0.3-1.3,0.3-2c-0.1-0.7-0.4-1.4-0.9-2c-0.5-0.6-1-1.2-1.6-1.7c-0.6-0.5-1.2-1-1.8-1.5s-1.3-0.9-1.9-1.4s-1.2-1-1.8-1.5
			c-0.5-0.7-0.9-1.5-0.9-2.3c-0.1-0.8,0-1.6,0.2-2.4c0.2-0.5,0.3-1,0.5-1.4l0.5-1.5c0.2-0.4,0.3-0.9,0.4-1.4c0.1-0.5,0.2-1,0.2-1.6
			c-4.1,3-7.7,6.7-10.5,10.9c0.4,0.3,0.7,0.7,0.8,1.2c0.2,0.4,0.2,0.8,0.2,1.3c0,0.5,0,1,0,1.4c0,0.5,0,1,0,1.4
			c-0.2,1.2-0.4,2.5-0.6,3.7c-0.2,1.2-0.5,2.4-1,3.6c-0.3,0.6-0.7,1.1-1.2,1.4c-0.5,0.4-1.1,0.6-1.7,0.7c-0.7,0.1-1.5,0-2.1-0.4
			c-0.3-0.3-0.6-0.6-0.7-1c-0.1-0.4-0.2-0.8-0.2-1.2c0-0.4,0-0.9,0.1-1.3c0.1-0.4,0.2-0.8,0.2-1.2c0.2-0.7,0.4-1.4,0.7-2.1
			c0.3-0.7,0.5-1.4,0.9-2.1s0.6-1.3,1-1.9s0.8-1.4,1.2-2.1c-0.5,0.1-1,0.3-1.4,0.6c-0.4,0.2-0.8,0.5-1.2,0.8
			c-0.4,0.4-0.8,0.7-1.2,1.1c-0.4,0.4-0.7,0.8-0.9,1.3c-0.4,0.7-0.7,1.5-0.8,2.3c-0.1,0.8-0.2,1.7-0.2,2.5c0,1.1,0,2.2,0.1,3.2
			c0.1,1.1,0,2.2-0.1,3.3c-0.1,0.2-0.2,0.4-0.3,0.6c-0.1,0.2-0.3,0.3-0.5,0.4c-0.3-0.1-0.6-0.3-0.8-0.5c-0.2-0.3-0.4-0.5-0.6-0.8
			c-0.1-1.1-0.2-2.2-0.1-3.3c0-1.1,0-2.3-0.1-3.4c-0.1-0.7-0.1-1.5-0.2-2.2c0-0.7-0.1-1.4-0.2-2.1c-0.1-0.7-0.4-1.3-0.8-1.9
			c-0.4-0.6-1-1.2-1.7-1.5c-0.2-0.1-0.3-0.2-0.5-0.3c-0.2-0.1-0.3-0.1-0.5,0c-0.4,0.5-0.8,1.1-1.3,1.8l-1.6,2.2l-1.6,2.2
			c-0.5,0.7-0.9,1.2-1.2,1.6c-0.2,0.1-0.3,0.1-0.4,0.2l-0.4,0.2c-0.2,0.1-0.5,0-0.7-0.2c-0.1-0.4-0.2-0.8-0.1-1.1
			c0.1-0.3,0.2-0.7,0.3-1c0.2-0.3,0.4-0.7,0.6-1c0.2-0.3,0.4-0.6,0.7-0.9c2.4-3.2,4.7-6.5,7-9.7c2.3-3.3,4.4-6.6,6.4-10.1
			c0-0.2,0.1-0.3,0.1-0.5c0-0.2,0-0.3,0-0.5c0-0.1,0-0.2,0-0.4c0-0.1,0-0.3,0-0.4c0.2-0.2,0.4-0.3,0.7-0.4c0.3-0.1,0.7,0,0.9,0.3
			c0.2,0.3,0.4,0.5,0.6,0.7c0.3,0.7,0.3,1.5,0,2.2c-0.3,0.7-0.7,1.3-1.1,1.9c-1.2,1.9-2.4,3.8-3.7,5.6c-1.3,1.8-2.6,3.7-4,5.7
			c0.9,0.3,1.8,0.8,2.5,1.5c0.8,0.7,1.4,1.5,1.9,2.4c0.6-0.8,1.3-1.6,2-2.3c0.7-0.7,1.5-1.2,2.3-1.7c0.6-0.3,1.2-0.5,1.8-0.5
			c0.6-0.1,1.2-0.1,1.8,0c0.8-1.2,1.7-2.4,2.6-3.5c0.9-1.1,1.9-2.2,3-3.3s2.1-2.1,3.2-3.2l3.1-3c0.4-0.3,0.9-0.3,1.3,0
			c0.4,0.3,0.8,0.5,1.2,0.8c0.2,0.3,0.4,0.6,0.4,1c0,0.4,0,0.7-0.1,1.1c-0.5,1.3-1,2.5-1.7,3.7c-0.6,1.2-1.2,2.5-1.6,3.8
			c-0.2,0.7,0,1.5,0.5,2.1c0.5,0.4,1,0.7,1.5,1s1,0.7,1.5,1l2.1,1.5c0.7,0.5,1.3,1.1,1.9,1.7c0.6,0.6,1,1.3,1.4,2
			C658.2,48.6,658.4,49.4,658.4,50.2z M637,44.6c-1.4,2.8-2.4,5.9-3,9c0,0.3,0.1,0.5,0.3,0.7c0.2,0.2,0.5,0.2,0.7,0.1
			c0.3-0.2,0.6-0.5,0.7-0.8c0.4-1.4,0.7-2.8,1-4.2C637.1,47.8,637.1,46.2,637,44.6z M651.7,55.4c-0.2,0.5-0.7,0.8-1.2,0.8
			c-0.3-0.1-0.5-0.1-0.8-0.1c-0.2,0-0.5-0.1-0.7-0.2c0.2-0.2,0.3-0.5,0.4-0.8c0-0.2,0-0.5-0.2-0.7c-0.8-0.7-1.7-1.3-2.7-1.7
			c-1-0.4-1.9-0.9-2.9-1.4l-0.2-0.2c-0.1-0.1-0.2-0.2-0.3-0.3c-0.1-0.1,0-0.3,0.1-0.4c0.5-0.4,1.1-0.5,1.7-0.5
			c0.6,0,1.2,0.2,1.7,0.4c0.8,0.3,1.6,0.7,2.4,1.3c0.7,0.5,1.4,1.1,2.1,1.7c0.2,0.3,0.4,0.6,0.5,1C651.8,54.6,651.8,55,651.7,55.4
			L651.7,55.4z"/>
		<path class="st2" d="M711.3,55.5c0,0.2,0.1,0.5,0.1,0.8c0,0.2-0.1,0.4-0.3,0.6c-0.5,0.4-1,0.6-1.6,0.7c-0.6,0.1-1.2,0.2-1.7,0.5
			c-1,0.3-1.9,0.6-2.8,1l-2.8,1.1c-0.9,0.3-1.9,0.7-2.8,1c-1,0.3-2,0.6-3.1,0.8c0.2-0.1,0.4-0.2,0.5-0.3c0.1-0.1,0.2-0.1,0.4-0.2
			L698,61c1.1-0.7,2.3-1.4,3.5-2.1c1.3-0.7,2.5-1.5,3.7-2.4c-2.8-0.2-5.6-0.2-8.4,0.1c-2.7,0.2-5.4,0.6-8,1c-0.2,0-0.5,0-0.6-0.2
			c-0.2-0.2-0.3-0.3-0.4-0.6c-0.1-0.2-0.1-0.5-0.1-0.8c0-0.2,0.2-0.5,0.4-0.5c1.6-0.6,3.2-1.4,4.6-2.4c-0.6-1.3-1.3-2.7-1.9-4
			c-0.6-1.3-1.3-2.6-2.2-3.8c-0.2-0.4-0.2-0.9-0.2-1.3c0.1-0.4,0.3-0.8,0.6-1.2c0.6-0.9,1.3-1.7,2.2-2.4l2.5-2.2
			c0-0.4,0.1-0.8,0.1-1.3c0-0.5,0-1,0-1.4c-1.5,1.2-2.8,2.3-4.1,3.5c-1.3,1.2-2.5,2.5-3.7,3.9c-0.1,0.8-0.1,1.8-0.2,3
			s-0.2,2.4-0.3,3.6s-0.2,2.4-0.3,3.5s-0.2,2-0.3,2.7c-0.2,1.7-0.2,3.4-0.1,5.1c0.1,1.7,0.3,3.4,0.5,5c0,0.1,0,0.3-0.1,0.4
			c0,0.1-0.2,0.2-0.3,0.3c-0.4,0.1-0.8,0-1.2-0.3c-0.7-0.9-1.1-1.9-1.4-2.9c-0.3-1.1-0.5-2.2-0.7-3.2c0.1,0,0.2,0.1,0.3,0.2
			c0.1,0.1,0.2,0.2,0.3,0.2c0.2,0.1,0.3,0.2,0.5,0.4c0-0.5,0.1-1.2,0.2-2.2s0.2-2.1,0.3-3.4s0.2-2.7,0.3-4.1s0.2-2.9,0.2-4.3
			c-0.2,0.3-0.4,0.5-0.5,0.7s-0.2,0.4-0.3,0.6l-0.4,0.9c0-0.8,0.1-1.6,0.4-2.4c0.2-0.7,0.5-1.4,0.7-2s0.5-1.2,0.7-1.6v-1.6
			c0-0.3,0-0.5,0-0.8c0-0.3-0.1-0.7-0.2-1l-1.1,2c-0.3,0.6-0.6,1.2-0.9,1.8s-0.6,1.2-0.9,1.8c-0.3,0.6-0.7,1.1-1.1,1.6
			c-0.1,0.1-0.3,0.2-0.4,0.2c-0.1,0.1-0.3,0.1-0.5,0c-0.1-0.1-0.2-0.2-0.3-0.3c-0.1-0.2-0.2-0.3-0.2-0.5c0-0.1-0.1-0.1-0.1-0.2
			c-0.1-0.1-0.1-0.2-0.2-0.3c-0.1,0.2-0.2,0.3-0.4,0.4c-0.1,0.1-0.2,0.2-0.3,0.3c-0.1,0.2-0.4,0.2-0.6,0c0,0,0,0,0,0
			c-0.4-0.2-0.7-0.6-0.9-1.1c-0.1-0.5,0-0.9,0.2-1.4c0.2-0.4,0.4-0.9,0.6-1.4c0.2-0.5,0.3-1,0.3-1.5c0-0.2,0-0.5,0.1-0.7
			c0.1-0.3,0.1-0.7,0.1-1c0-0.4-0.3-0.7-0.6-0.8c-0.4,0-0.8,0.2-1.1,0.4c-0.3,0.2-0.6,0.5-0.8,0.7c-0.3,0.3-0.5,0.6-0.7,0.9
			c-0.2,0.3-0.4,0.6-0.7,0.9c-0.4,0.8-0.6,1.7-0.6,2.6c0,0.8,0.1,1.6,0.3,2.4c0.2,0.8,0.3,1.6,0.5,2.4c0,0.1-0.1,0.2-0.2,0.3
			c-0.1,0-0.2,0.1-0.3,0.2c-0.6,0-1.1-0.3-1.4-0.7c-0.3-0.5-0.6-1-0.8-1.5c-0.5-1.4-0.9-2.9-1.3-4.4c-0.4-1.5-0.9-3-1.7-4.3
			c-0.7-1.2-1.6-2.3-2.6-3.2c0.4-0.2,0.9-0.3,1.3-0.2c0.4,0.1,0.9,0.3,1.3,0.5c0.9,0.7,1.6,1.5,2.1,2.5l1.5,2.9
			c0.5-0.9,1.1-1.7,1.7-2.5c0.6-0.8,1.3-1.5,2.1-2c0.4-0.1,0.9-0.2,1.4-0.1c0.4,0.1,0.8,0.3,1.2,0.5l0.9,1.1
			c0.7-1.2,1.3-2.4,1.9-3.7c0.5-1.2,1.1-2.4,1.8-3.6c0.8-1.4,1.7-2.8,2.9-3.9c0.3-0.2,0.7-0.4,1.1-0.3c0.4,0,0.8,0.2,1.1,0.3
			c0.3,0.2,0.4,0.5,0.4,0.8c0,0.3,0,0.7,0,1c-0.4,1.3-0.9,2.7-1.3,4c-0.5,1.3-1,2.6-1.6,3.8c0.3,0.5,0.5,1,0.6,1.5
			c0.1,0.3,0.1,0.5,0.2,0.8c0,0.3,0.1,0.6,0.2,1c1.3-1.3,2.7-2.6,4-3.7c1.3-1.2,2.6-2.3,4-3.4c0-0.5,0.1-1.2,0.1-1.9
			s0.1-1.4,0.2-2.2s0.1-1.4,0.2-2.1s0.1-1.2,0.1-1.7c0.1-0.3,0-0.6-0.1-0.9c-0.1-0.3-0.2-0.5-0.3-0.8c-0.1-0.2-0.1-0.4-0.1-0.5
			c0-0.2,0.3-0.2,0.8-0.2c0.3,0,0.5,0.1,0.8,0.1c0.3,0,0.5,0.1,0.7,0.3c0.1,0.3,0.3,0.7,0.3,1c0.1,0.3,0.2,0.7,0.3,1
			c0.1,0.3,0.2,0.7,0.4,1c0.2,0.3,0.4,0.6,0.7,0.8c0.2,0.5,0.6,0.8,1.1,1c0.4,0.1,0.9,0.2,1.4,0.1l0.9-0.2c0.3-0.1,0.6-0.1,0.8-0.1
			c0.4,0,0.8,0.1,1.1,0.4c0.1,0.1,0.2,0.2,0.3,0.4c0,0.1,0,0.3,0,0.4c-2.7,1.6-5.2,3.3-7.7,5.1c0,0.3-0.1,0.5-0.1,0.8
			s-0.1,0.5-0.1,0.7s-0.1,0.5-0.1,0.7c0,0.3,0,0.6,0.1,0.9c0.4-0.2,0.8-0.5,1.3-0.7c0.5-0.2,1-0.4,1.5-0.6c0.5-0.1,1-0.2,1.5-0.2
			c0.5,0,1,0.3,1.4,0.7c0.2,0.2,0.4,0.5,0.5,0.8c0.1,0.3,0,0.6-0.2,0.9c-0.9,1.2-1.9,2.4-3,3.6c-1.1,1.2-2.1,2.4-3.2,3.7
			c0.3,0.1,0.6,0.2,0.9,0.2l0.8,0.2c0.6,0.2,1.2,0.4,1.8,0.7c0.6,0.2,1.1,0.7,1.4,1.2c0,0.4,0,0.9-0.3,1.3c-0.2,0.4-0.5,0.8-0.8,1.2
			c-0.3,0.3-0.7,0.7-1,1l-1.1,0.9c-0.4,0.3-0.8,0.6-1.1,0.9s-0.7,0.6-1.1,0.9c0,0.2,0,0.3,0,0.5c0,0.1,0,0.2,0,0.3
			c0,0.1,0,0.3,0,0.4c2.5-0.2,5.1-0.3,7.8-0.3c2.5,0,5,0.1,7.5,0.5l0.5,0.2C711.3,55.2,711.3,55.3,711.3,55.5z M685.8,28.7
			c0-0.1-0.1-0.2-0.3-0.2c-0.2,0-0.3,0-0.5,0.1c-0.9,0.8-1.6,1.8-2.2,2.9c-0.5,1-1,2.1-1.5,3.2c-0.3,0.6-0.5,1.3-0.7,1.9
			c-0.2,0.7-0.4,1.3-0.6,2c-0.2,0.9-0.4,1.9-0.6,2.9c-0.2,1.3-0.5,2.5-0.9,3.7c1.6-2.7,3.1-5.6,4.4-8.5
			C684.1,34.2,685,31.5,685.8,28.7z M693.6,41.2c-0.4,0.4-0.7,0.7-0.9,0.9s-0.5,0.5-0.8,0.7c-0.5,0.5-1,1-1.4,1.6
			c0.2,1.2,0.5,2.3,1,3.3c0.5,1,1.1,2.2,1.8,3.4c0-1.9,0.1-3.6,0.1-5.1S693.5,42.9,693.6,41.2L693.6,41.2z M698.3,47.9
			c-0.2-0.2-0.4-0.3-0.6-0.4c-0.2,0-0.4-0.1-0.6-0.2c-0.2,0-0.4-0.1-0.7-0.1c-0.3,0-0.5-0.1-0.8-0.1l-0.1,2.1c0,0.7,0,1.5,0,2.3
			l1.2-1.2l0.5-0.5c0.2-0.2,0.3-0.3,0.4-0.5C697.9,49,698.2,48.4,698.3,47.9L698.3,47.9z M699.4,37.6c-0.3,0.1-0.7,0.2-1,0.3
			c-0.3,0.1-0.6,0.3-0.8,0.5l-0.8,0.5c-0.3,0.2-0.5,0.3-0.9,0.5c0,0.4,0,0.9-0.1,1.6s0,1.3,0,2c0.3-0.3,0.5-0.6,0.6-0.8
			s0.3-0.4,0.4-0.5c0.4-0.5,0.8-1,1.3-1.5c0.4-0.5,0.8-1,1.2-1.6c0.1-0.2,0.2-0.3,0.2-0.5C699.5,38,699.5,37.8,699.4,37.6
			L699.4,37.6z M699.5,29c-0.5-0.2-1-0.4-1.4-0.8c-0.5-0.4-0.8-0.9-1.1-1.4c-0.1,0.7-0.2,1.4-0.3,2.2c0,0.7-0.1,1.4-0.2,2.1
			c0.4-0.3,0.9-0.6,1.4-1S699,29.4,699.5,29L699.5,29z"/>
		<path class="st2" d="M745.7,41c0.3,0.8,0,1.3-0.9,1.4c-0.8-0.2-1.5-0.3-2.4-0.5c-0.8-0.2-1.6-0.2-2.4,0c-1.3,0.2-2.6,0.5-3.9,0.9
			c-1.3,0.4-2.5,0.8-3.8,1.2l-3.8,1.2c-1.3,0.4-2.6,0.7-3.9,0.9c-1,0.2-2,0.1-2.9-0.4c-0.9-0.4-1.6-1-2.3-1.6
			c-0.1-0.1-0.2-0.3-0.3-0.5c-0.1-0.1-0.1-0.3,0-0.5c0.1-0.1,0.2-0.3,0.3-0.4c0.1-0.1,0.2-0.2,0.4-0.3c0.5,0.6,1.2,1.1,2,1.2
			c0.7,0.1,1.5,0.1,2.2,0c0.8-0.1,1.6-0.3,2.3-0.6c0.7-0.2,1.4-0.4,2.2-0.6c1.4-0.3,2.7-0.7,4-1.1c1.3-0.5,2.6-0.9,3.9-1.2
			c1.1-0.3,2.2-0.5,3.3-0.7c1.2-0.1,2.3-0.2,3.5-0.1c0.5,0.1,1,0.2,1.5,0.4C745.1,40,745.5,40.4,745.7,41z"/>
		<path class="st2" d="M795.8,64.8c-0.1,0.2-0.2,0.4-0.3,0.6c-0.1,0.2-0.3,0.4-0.5,0.4c-0.8,0.2-1.6,0.3-2.5,0.3
			c-0.8,0-1.6-0.1-2.3-0.2c-1.3-0.2-2.7-0.4-4-0.8c-1.3-0.3-2.6-0.7-3.9-1.1c-2.8-0.8-5.5-1.7-8.3-2.6c-2.8-0.9-5.6-1.5-8.6-1.8
			c-1.3-0.1-2.7-0.1-4-0.1c-1.4,0.1-2.8,0.3-4.1,0.6c-0.6,0.1-1.2,0.2-1.8,0.3c-0.6,0.1-1.2-0.1-1.7-0.5c-0.2-0.1-0.3-0.3-0.3-0.5
			c0-0.2,0-0.4,0.1-0.6c0.2-0.3,0.5-0.5,0.8-0.6c0.3-0.1,0.7-0.2,1-0.3c0.4-0.1,0.8-0.2,1.3-0.2c0.4,0,0.9,0,1.3,0h1.3
			c0.4,0,0.9-0.1,1.3-0.2c0.8-0.1,1.5-0.5,1.9-1.2c0.2-0.3,0.3-0.6,0.5-0.9c0.2-0.4,0.3-0.7,0.3-0.9c0.1-0.3,0.1-0.7,0-1
			c0-0.3-0.1-0.7-0.3-1c-0.3-0.5-0.5-0.9-0.9-1.3c-0.3-0.4-0.6-0.9-0.8-1.3c-0.2-0.3-0.3-0.7-0.3-1.1c0-0.4,0-0.7,0.1-1.1
			c0.1-0.4,0.2-0.8,0.2-1.1c0.1-0.4,0.2-0.7,0.3-1.1c0.1-0.3,0.2-0.7,0.4-1c0.1-0.3,0.2-0.7,0.3-1c0-0.4-0.2-0.8-0.4-1.1
			c-0.3-0.4-0.5-0.7-0.9-1c-0.3-0.3-0.6-0.6-0.8-1c-0.1-0.3-0.3-0.5-0.3-0.8c-0.1-0.3-0.1-0.7,0-1c0.2-0.2,0.4-0.4,0.7-0.6
			c0.3-0.1,0.5,0,0.8,0.3c0.6,0.8,1.2,1.5,1.8,2.2c0.6,0.7,1.1,1.6,1.4,2.5c0,0.6-0.1,1.2-0.4,1.8c-0.2,0.5-0.5,1.1-0.8,1.5
			c-0.3,0.5-0.5,0.9-0.7,1.5c-0.1,0.3-0.1,0.5-0.2,0.8c-0.1,0.2,0,0.5,0.1,0.7c0.4,0.5,0.8,1,1.2,1.5c0.4,0.5,0.8,1,1.1,1.5
			c0.2,0.4,0.4,0.8,0.5,1.2c0.1,0.5,0,0.9-0.1,1.4c-0.1,0.5-0.3,0.9-0.5,1.4c-0.2,0.5-0.5,0.9-0.9,1.3c1.2,0.1,2.4,0.2,3.6,0.3
			s2.3,0.3,3.4,0.5c2.2,0.5,4.4,1,6.5,1.7c2.1,0.7,4.2,1.3,6.4,1.9c1.8,0.5,3.7,0.9,5.6,1.3c1.9,0.4,3.8,0.6,5.8,0.6
			c0.1,0.1,0.3,0.1,0.4,0.2C795.7,64.5,795.8,64.6,795.8,64.8z M786.5,46.4c0.1,0.2,0.1,0.5-0.2,0.6c0,0-0.1,0-0.1,0
			c-0.3,0.1-0.5,0.2-0.7,0.4c-1.7,0.3-3.4,0.7-5.1,1.3c-1.6,0.5-3.1,1.3-4.5,2.3c-0.6,0.4-1.2,0.9-1.8,1.4l-1.8,1.8
			c0.8-0.4,1.6-0.8,2.4-1.1c0.9-0.4,1.7-0.7,2.7-1c1-0.3,2-0.4,3.1-0.4c1.1,0.1,2.1,0.4,3,1c0.5,0.4,0.8,1,0.8,1.7
			c0,0.3-0.1,0.6-0.3,0.8c-0.2,0.2-0.4,0.4-0.7,0.4c-1.3,0.5-2.6,1-4,1.5s-2.7,0.9-4.1,1.3c-0.1,0-0.2-0.1-0.3-0.2
			c-0.1-0.1,0-0.2,0.1-0.3c1-0.5,2.1-1.1,3.1-1.7c1-0.6,2-1.4,2.9-2.2c-0.1-0.2-0.2-0.3-0.4-0.4c-0.2-0.1-0.3-0.2-0.5-0.3
			c-0.3-0.1-0.6-0.2-0.9-0.2c-0.3,0-0.6,0-0.9-0.1c-0.5-0.1-1,0-1.5,0.1c-0.5,0.1-0.9,0.3-1.3,0.5c-0.5,0.3-1.1,0.7-1.5,1.1
			l-1.4,1.2l-0.5,0.4c-0.2,0.1-0.4,0.3-0.5,0.4l-0.6,0.2c-0.2,0.1-0.5,0-0.7-0.1c-0.5-0.2-0.9-0.7-1-1.2c0.1-0.4,0.2-0.7,0.3-1
			c0.2-0.3,0.3-0.6,0.6-0.9c0.4-0.4,0.7-0.8,1.2-1.1c0.4-0.3,0.8-0.7,1.2-1.1l-1.3,0.4c-0.5,0.2-1,0.3-1.5,0.5l-1.3,0.5l-0.9,0.3
			c-0.4,0.1-0.7,0.1-1.1,0.1c-0.4,0-0.7-0.2-1-0.5c-0.1-0.1-0.3-0.3-0.3-0.4c0-0.2,0-0.4,0.2-0.5c0.3-0.3,0.8-0.5,1.2-0.6
			c0.5,0,0.9-0.2,1.3-0.3c0.7-0.3,1.6-0.6,2.7-1s2-0.7,2.7-1c-0.2-0.2-0.3-0.5-0.3-0.7c0-0.3-0.1-0.6-0.2-0.9c0-0.3-0.1-0.6-0.1-0.9
			c0-0.3,0-0.6-0.1-0.9c-0.6,0.2-1.3,0.4-2,0.5c-0.7,0.2-1.4,0-2-0.4c-0.4-0.2-0.6-0.7-0.6-1.1c0-0.2,0.2-0.4,0.4-0.4
			c0.2-0.1,0.5-0.1,0.7,0c0.3,0.1,0.5,0.1,0.8,0c0.3-0.1,0.6-0.1,0.9-0.2c0.3-0.1,0.6-0.2,0.8-0.3l0.9-0.4c0-0.3,0-0.6,0-0.9
			s0-0.7,0-1.1c-0.1-0.6-0.1-1.3,0-1.9c-0.2-0.1-0.4-0.2-0.6-0.3c-0.2,0-0.4-0.1-0.5-0.2c-0.4-0.1-0.8-0.3-1.3-0.4
			c-1-0.4-1.9-0.9-2.7-1.5c-0.9-0.6-1.6-1.4-2.2-2.4c-0.3-0.6-0.3-1.3-0.2-1.9c0.1-0.4,0.4-0.7,0.7-0.9c0.3-0.2,0.7-0.3,1-0.4
			c1.1-0.3,2.2-0.5,3.3-0.6c0.5-0.7,1-1.5,1.5-2.2s0.9-1.5,1.3-2.2c-1,0.5-2,1-3,1.6c-1,0.6-2,1.2-3,1.7c-1.1,0.6-2.5,0.7-3.7,0.4
			l-0.8-0.6c-0.3-0.2-0.5-0.5-0.5-0.8c0-0.2,0-0.3,0-0.5c0-0.2,0.2-0.4,0.4-0.4c0.7,0.5,1.6,0.7,2.5,0.5c0.9-0.2,1.7-0.5,2.5-0.9
			c0.4-0.2,0.8-0.4,1.1-0.6l1.1-0.6c0.8-0.4,1.6-0.9,2.3-1.3c0.8-0.5,1.6-0.9,2.5-1.1l1.1,0.1c0.4,0,0.7,0.2,1,0.4
			c0.9,0.1,1.9,0,2.8-0.4c0.9-0.3,1.7-0.8,2.4-1.3c0.7-0.5,1.4-0.9,2.2-1.2c0.5-0.1,1.1,0,1.5,0.4c0.2,0.2,0.3,0.4,0.3,0.7
			c0.1,0.2,0.1,0.5,0,0.7c-0.5,0.9-1.1,1.6-1.8,2.3c-0.7,0.7-1.4,1.4-2,2.1l1-0.1c0.3,0,0.7,0,1,0.1c0.2,0.1,0.3,0.2,0.4,0.4
			c0.1,0.2,0.1,0.4,0,0.6c-0.5,0.5-1.2,0.9-1.8,1.1c-0.7,0.2-1.4,0.4-2,0.7l-0.6,0.3c-0.2,0.1-0.4,0.2-0.5,0.4
			c0.1,0.4,0.2,0.8,0.3,1.2c0.1,0.4,0.4,0.7,0.7,0.8c0.4,0.2,0.9,0.3,1.4,0.3l1.4,0.1c0.5,0.1,1,0.1,1.5,0.2
			c0.5,0.1,0.9,0.2,1.4,0.5c0.4,0.3,0.5,0.6,0.4,1c-0.1,0.3-0.3,0.6-0.7,0.7l-0.9,0.2l-1.3,0.2l-1.4,0.2l-1.2,0.2
			c0.2,0.4,0.2,0.8,0.2,1.2c0,0.2,0,0.4,0,0.6c0,0.2,0,0.4,0,0.6l0.8-0.5c0.3-0.2,0.6-0.3,0.8-0.4c0.5-0.1,1.1,0,1.5,0.4
			c0.2,0.1,0.3,0.3,0.2,0.5c0,0.2-0.1,0.3-0.2,0.5c-0.5,0.4-1.1,0.8-1.7,1.1c-0.6,0.3-1.3,0.6-1.9,0.9c-0.3,0.4-0.4,0.8-0.5,1.3
			c0,0.5-0.2,0.9-0.4,1.3c-0.4,1.2-1,2.3-1.8,3.2c0.5-0.1,0.9-0.3,1.4-0.5l1.3-0.6c0.7-0.3,1.5-0.5,2.2-0.7c0.8-0.2,1.5-0.3,2.3-0.4
			l0.9,0.4C786.3,45.8,786.5,46.1,786.5,46.4z M769.5,32c-0.4,0.1-0.9,0.2-1.3,0.3c-0.4,0.1-0.8,0.4-1.1,0.7
			c-0.1,0.2-0.1,0.4-0.1,0.7c0,0.2,0.1,0.4,0.3,0.5l0.2-0.3c0.1-0.1,0.2-0.2,0.3-0.3c0.3-0.3,0.6-0.6,0.8-0.8
			C769,32.6,769.3,32.3,769.5,32L769.5,32z M781.4,25.1c-0.2,0.1-0.4,0.2-0.6,0.3s-0.4,0.2-0.6,0.3c-0.6,0.3-1.3,0.5-2,0.7
			c-0.7,0.1-1.4,0-2-0.5c-0.2,0.3-0.4,0.6-0.6,0.9c-0.2,0.3-0.5,0.6-0.7,0.9s-0.5,0.6-0.7,0.9s-0.4,0.6-0.7,0.9l0.8-0.2
			c0.2-0.1,0.5-0.1,0.7,0c0.3,0,0.6,0.2,0.7,0.5c0.1,0.3,0.1,0.5,0,0.7c-1.2,0.8-2.4,1.6-3.5,2.5c-1.1,0.9-2.2,1.8-3.3,2.7
			c0.7,0.4,1.5,0.8,2.2,1.2c0.8,0.4,1.6,0.6,2.4,0.6c0.3-0.3,0.5-0.6,0.5-1c0-0.5,0.1-0.9,0.1-1.3c0-0.2,0.1-0.4,0.1-0.5
			c0-0.2,0.1-0.4,0.2-0.6c0.1,0.4,0.2,0.9,0.3,1.3c0.1,0.4,0.3,0.7,0.5,1.1c0.2,0.4,0.4,0.9,0.5,1.3c0.2,0.5,0.2,1,0.2,1.4
			c0.5,0.1,0.9,0.1,1.3,0.1s0.9,0,1.4,0c0.1-0.4,0.1-0.7,0.1-1.1c0-0.3,0-0.7,0-0.9c-0.1-0.3-0.2-0.5-0.3-0.8
			c-0.2-0.2-0.4-0.4-0.7-0.5c0.3-0.4,0.7-0.6,1.2-0.7c0.3,0,0.5,0,0.8,0.2c0.2,0.1,0.4,0.3,0.6,0.5c0.2-0.1,0.4-0.1,0.6-0.2
			c0.2-0.1,0.4-0.3,0.5-0.5c-0.4,0-0.8-0.1-1.1-0.3l-1.1-0.5c-0.6-0.4-1.2-0.9-1.5-1.5c-0.3-0.5-0.4-1.1-0.5-1.7
			c-0.1-0.6,0-1.2,0.1-1.8c0.2-0.3,0.4-0.6,0.7-0.8c0.3-0.2,0.6-0.3,0.9-0.4c0.2-0.1,0.4-0.2,0.6-0.2c0.4-0.5,0.7-1,1-1.5
			S781.1,25.7,781.4,25.1L781.4,25.1z M778.4,40.4c-0.5-0.1-1.2-0.1-1.8-0.1s-1.3,0-1.9-0.1c-0.1,0.4-0.2,0.7-0.1,1.1
			c0,0.4,0,0.8,0.1,1.1c0.5-0.3,1.1-0.6,1.8-1S777.9,40.8,778.4,40.4L778.4,40.4z M777.9,43.1c-0.4,0.2-0.9,0.5-1.6,0.8l-1.6,0.9
			c0.1,0.5,0.2,1.2,0.2,1.9s0.1,1.3,0.2,1.8c0.1-0.1,0.2-0.1,0.3-0.1c0.1,0,0.2-0.1,0.3-0.2c0.5-0.8,1-1.7,1.4-2.6
			C777.4,44.9,777.7,44,777.9,43.1L777.9,43.1z"/>
		<path class="st2" d="M840.2,35.5c0,0.3-0.1,0.6-0.3,0.7c-0.2,0.2-0.5,0.3-0.7,0.4l-1.2,0.5l-1.4,0.7c-0.5,0.2-0.9,0.4-1.4,0.6
			s-0.9,0.4-1.2,0.6c0.2,0.2,0.4,0.4,0.5,0.7c0.1,0.2,0.2,0.5,0.2,0.8c-0.3,1.3-0.9,2.5-1.7,3.5c-0.9,1-1.8,2-2.7,3
			c-0.5,0.5-1,0.9-1.5,1.4s-1.1,1.1-1.7,1.9c1.4-0.7,2.8-1.4,4.3-2.1s2.6-1.4,3.6-2c0.5-0.2,1.2,0,1.5,0.5c0.1,0.2,0.1,0.4,0.1,0.6
			c0,0.2-0.1,0.5-0.3,0.6l-0.9,0.7c-0.3,0.3-0.7,0.6-1.1,0.8l-1.2,0.8c-0.4,0.3-0.7,0.5-1,0.8c0.5,0.2,1,0.3,1.6,0.4
			c0.5,0.1,1,0.1,1.5,0.1s1,0.1,1.5,0.1c0.5,0,1,0,1.5,0.1c0.2,0,0.3,0.1,0.4,0.3c0.1,0.2,0.2,0.3,0.3,0.5c0.1,0.3,0,0.7-0.3,0.9
			c-0.3,0.2-0.6,0.3-0.8,0.5c-1,0.8-2.1,1.4-3.3,2c-1.1,0.6-2.2,1.2-3.3,1.8c-0.1,1.2-0.2,2.4-0.2,3.6c0,1.2,0,2.3-0.2,3.5
			c-0.2,0.8-0.4,1.7-0.8,2.4c-0.4,0.8-1,1.4-1.8,1.9c0.6-3.4,0.9-6.8,0.8-10.3c-0.8,0.3-1.5,0.6-2.2,0.9s-1.3,0.6-2,0.9l-2,0.8
			c-0.7,0.3-1.4,0.5-2.1,0.7c-0.4,0.1-0.8,0.1-1.1,0c-0.4-0.1-0.7-0.4-0.8-0.8c-0.1-0.1-0.1-0.2-0.1-0.4v-0.5c0.3-0.3,0.6-0.6,1-0.8
			c0.3-0.2,0.7-0.5,1-0.7l0.4-0.3c0.1-0.1,0.2-0.2,0.4-0.3c1.1-1,2.2-2,3.3-3.1s2.3-2.2,3.6-3.5c-1.3,0.6-2.4,1.1-3.3,1.6
			s-1.8,0.9-2.7,1.3c-0.3,0.1-0.6,0.1-0.8,0.1c-0.3,0-0.5-0.2-0.6-0.5c-0.1-0.5,0-1,0.3-1.3c0.6-0.4,1.2-0.8,1.8-1.2
			s1.2-0.8,1.8-1.3s1.2-1,1.9-1.5c0.7-0.7,1.4-1.4,2-2.2c-1,0.6-2,1.1-3,1.5c-0.4,0.1-0.9-0.1-1.2-0.4c-0.4-0.4-0.6-0.9-0.5-1.4
			c0-0.5,0.2-1.1,0.4-1.6c0.1-0.3,0.3-0.6,0.4-0.8s0.3-0.6,0.5-1c-0.8,0.3-1.6,0.6-2.3,0.9l-2,0.9c-1.3,0.6-2.6,1-4,1.3
			c-0.3-0.1-0.7-0.2-1-0.3c-0.4-0.1-0.7-0.4-0.8-0.7c0-0.3,0.1-0.5,0.2-0.5c0.2-0.1,0.3-0.1,0.5-0.1c0.2,0,0.4-0.1,0.7-0.1
			c0.2,0,0.5-0.1,0.7-0.3l2.5-0.9c0.8-0.3,1.6-0.7,2.5-1l2.3-1c0.8-0.3,1.5-0.7,2.2-1.2c0.3-0.2,0.6-0.5,0.7-0.9
			c0.1-0.4,0.2-0.7,0.3-1.1c0-0.1,0-0.3,0-0.5c0-0.2,0-0.3,0-0.5c-0.3,0.1-0.6,0.2-0.9,0.3l-0.8,0.4l-0.7,0.4
			c-0.2,0.1-0.5,0.2-0.8,0.3c-0.7,0.2-1.5,0.2-2.1-0.2c-0.2-0.2-0.2-0.4-0.2-0.7c0.1-0.3,0.3-0.5,0.5-0.6c0.9-0.3,1.8-0.7,2.7-1.2
			c0.9-0.5,1.8-1,2.7-1.4c0-0.3,0-0.7,0-1c0-0.4,0-0.8,0-1.2c-0.3,0.1-0.7,0.2-1,0.3l-0.9,0.4c-0.3,0.1-0.6,0.2-0.9,0.2
			c-0.3,0-0.6,0-0.9-0.2c-0.2,0.2-0.5,0.3-0.8,0.4c-0.3,0.1-0.5,0-0.8-0.1c-0.7-0.4-1.3-1-1.7-1.8c-0.2-0.4-0.4-0.7-0.7-1.1
			s-0.4-0.8-0.7-1.3c-1,1-2.1,2-3.2,2.8c-1.1,0.9-2.2,1.8-3.2,2.7c0,1.1-0.1,2.1-0.1,3.2s-0.1,2.2-0.1,3.4c0.6-0.5,1.2-1,1.7-1.5
			s0.9-1,1.4-1.5s0.8-0.8,1.1-1.3s0.7-0.8,1.1-1.3c-0.6,1.5-1.3,2.9-2.3,4.2c-1,1.3-2,2.6-3.1,3.9c0.1,2.5,0.1,4.9,0.2,7.4
			c0,2.5,0.2,4.9,0.4,7.4c-0.1,0.2-0.2,0.3-0.4,0.4c-0.6-0.2-1.2-0.5-1.5-1c-0.5-0.5-0.9-1-1.2-1.4c-0.7-0.9-1.4-1.8-2.2-2.6
			c-0.8-0.9-1.7-1.6-2.7-2.2c-0.3,0-0.6,0-0.8,0.1l-0.7,0.2l-1.3,0.5c-0.4,0.2-0.9,0.1-1.3-0.1c-0.3-0.1-0.4-0.4-0.3-0.7
			c0-0.3,0.1-0.6,0.3-0.8c0.1-0.2,0.3-0.4,0.4-0.5l0.5-0.5l0.6-0.4c0.2-0.2,0.3-0.3,0.5-0.5c1.2-1,2.5-2,3.8-3s2.5-2.1,3.8-3.2
			c-0.1-1.1-0.1-2.3,0-3.4c0.1-1.2,0.1-2.3,0-3.5l-2.9,1.9c-1,0.7-1.9,1.3-2.9,1.8c-0.7,0.4-1.4,0.7-2.2,0.9
			c-0.8,0.2-1.6,0.1-2.4-0.1l-0.8-0.8c-0.3-0.3-0.4-0.6-0.5-1c0-0.7,0.3-1.3,0.9-1.7v0.2c0,0.2,0,0.5,0.1,0.7c0.2,0.4,0.6,0.7,1,0.7
			c0.4,0,0.8,0,1.2-0.1l1.7-0.9c0.8-0.4,1.6-0.9,2.5-1.4s1.7-1,2.6-1.6c0.7-0.4,1.4-1,2-1.5c0.1-1.4,0.3-2.9,0.4-4.5
			c0.1-1.5,0.4-3,0.7-4.4c0.2-0.3,0.3-0.7,0.5-1c0.2-0.4,0.5-0.6,0.8-0.8c0.2-0.1,0.4-0.1,0.6,0c0.2,0,0.4,0.2,0.4,0.4
			c0.2,0.9,0.5,1.7,0.9,2.5c0.5,0.8,1.1,1.5,1.9,2c0.1,0.1,0.2,0.1,0.3,0.1c0.1,0,0.2,0,0.3,0.1c0.3,0.1,0.6,0.2,0.9,0.2
			c-0.4-1.6-0.9-3.2-1.5-4.8c0-0.2,0.2-0.3,0.4-0.2c0,0,0,0,0,0c0.2,0,0.4,0.1,0.6,0.2c0.3,0.1,0.6,0.4,0.8,0.7
			c0.1,0.2,0.3,0.4,0.4,0.5l0.3,0.5c0.2,0.4,0.4,0.9,0.5,1.3s0.3,0.9,0.5,1.3s0.4,0.9,0.6,1.3c0.3,0.5,0.6,1,1,1.5
			c0.1-0.4,0.1-0.8,0.1-1.3c0-0.3,0-0.7-0.1-1s0-0.4,0-0.6s0-0.4,0-0.6c0-0.6,0.1-1.2,0.3-1.8c0.3-0.6,0.7-1,1.3-1.3
			c1.6-1.1,3.3-2.1,5-3c1.7-0.9,3.5-1.6,5.4-1.9c1.2-0.1,2.5,0.4,3.4,1.2c0.5,0.6,0.8,1.3,0.8,2c0.1,0.7,0,1.4-0.2,2.1
			c-0.6,1.2-1.3,2.3-2.3,3.1c-0.9,1-2.2,1.6-3.5,1.9c-0.5,0.4-1,0.8-1.5,1.1l-1.7,0.9c0.1,0.2,0.2,0.5,0.5,0.6
			c0.2,0.1,0.4,0.3,0.6,0.3c0.4,0,0.8,0,1.1-0.2c0.3-0.2,0.7-0.3,1-0.3c0.2,0,0.5,0,0.7,0c0.2,0.1,0.4,0.2,0.6,0.4
			c0.1,0.3,0.1,0.6-0.1,0.8c-0.2,0.3-0.5,0.5-0.7,0.6c-0.4,0.3-0.8,0.6-1.3,0.8c-0.4,0.3-0.9,0.5-1.3,0.8c-0.1,0.1-0.3,0.2-0.4,0.3
			l-0.4,0.3c-0.1,0.4-0.2,0.9-0.4,1.5s-0.3,1-0.4,1.4c1-0.4,1.8-0.8,2.6-1.1s1.5-0.7,2.2-1.1s1.5-0.7,2.2-1s1.5-0.6,2.4-0.8
			C839.4,34.9,839.8,35.1,840.2,35.5z M811.4,54.3c0-0.5,0-1.1,0-1.8s0-1.3,0-2.1s0-1.4,0-2.2s-0.1-1.4-0.1-2
			c-0.3,0.3-0.7,0.6-1.1,1s-0.9,0.8-1.3,1.2s-1,0.8-1.4,1.2s-0.9,0.8-1.3,1.1c0.7,0.2,1.4,0.6,2.1,1c0.6,0.4,1.2,0.9,1.8,1.4
			l0.6,0.5C810.9,53.9,811.2,54.1,811.4,54.3z M817.1,29c-0.3-0.2-0.5-0.4-0.7-0.7l-0.5-0.7c-0.1-0.2-0.3-0.5-0.5-0.7
			c-0.2-0.3-0.4-0.6-0.7-0.8c-0.2,0.9-0.4,1.9-0.5,2.8c-0.1,0.9-0.2,1.9-0.2,3c0.5-0.5,1.1-1,1.6-1.5l0.7-0.7
			C816.7,29.6,816.9,29.3,817.1,29z M828.8,53.4c-1.1,0.9-2.2,1.9-3.3,2.8c-1,1-2.1,2-3.3,3.3c1.3-0.5,2.5-1,3.6-1.5s2.1-1,3.1-1.5
			L828.8,53.4z M826.8,30.3c-0.1-0.7-0.2-1.5-0.4-2.4c-0.2-0.7-0.3-1.5-0.3-2.2c-0.7,0.4-1.3,0.9-1.8,1.5c-0.1,0.7-0.2,1.5-0.1,2.3
			c0.1,0.8,0.2,1.6,0.4,2.4c0.4-0.3,0.8-0.5,1.2-0.8C826,30.8,826.4,30.5,826.8,30.3z M832.8,39.5c-0.8,0.3-1.6,0.7-2.4,1.1
			c-0.7,0.4-1.4,0.8-2,1.4c-1.1,1-1.9,2.3-2.2,3.8c0.1,0.3,0.5,0.5,0.8,0.4c0,0,0,0,0,0c0.3-0.1,0.7-0.2,0.9-0.3
			c1.1-0.8,2-1.8,2.8-2.9C831.6,41.9,832.2,40.8,832.8,39.5z M831.6,22.4c-0.7,0.4-1.4,0.8-2.1,1.1c-0.7,0.3-1.4,0.7-2,1.1
			c0.2,0.3,0.3,0.7,0.4,1c0.1,0.3,0.2,0.6,0.3,1c0.1,0.3,0.1,0.7,0.2,1c0,0.4,0.1,0.8,0.2,1.3c0.7-0.6,1.2-1.3,1.7-2
			c0.4-0.7,0.8-1.4,1.1-2.1c0.2-0.3,0.3-0.7,0.4-1.1C831.8,23.3,831.8,22.8,831.6,22.4L831.6,22.4z M837.1,22.9
			c0.1-0.4,0-0.8-0.3-1.1c-0.2-0.3-0.6-0.5-1-0.6c-0.5-0.1-1,0-1.5,0.1c-0.5,0.2-1.1,0.3-1.6,0.5c0.7,0.4,1.1,1.1,1,1.9
			c-0.2,0.9-0.5,1.7-1,2.4c-0.6,0.8-1.2,1.6-1.9,2.4c0.3-0.1,0.5-0.1,0.8-0.2c0.2-0.1,0.3-0.1,0.5-0.1c0.1,0,0.3-0.1,0.4-0.1
			c0.2,0,0.3,0.1,0.5,0.2c0.4-0.4,0.9-0.9,1.3-1.3c0.4-0.5,0.8-0.9,1.2-1.5c0.4-0.5,0.7-0.9,1-1.4C836.8,23.8,837,23.4,837.1,22.9
			L837.1,22.9z M834.9,53c-0.7-0.1-1.3-0.2-2-0.3c-0.6-0.1-1.2-0.3-1.8-0.6v3.2l1.8-1.1C833.5,53.8,834.2,53.5,834.9,53L834.9,53z"
			/>
		<path class="st2" d="M863,55.3c0,0.5-0.3,1-0.8,1.1c-1.1,0.3-2.2,0-3-0.8c-0.3-0.3-0.6-0.7-0.7-1.1c-0.1-0.4-0.3-0.8-0.5-1.2
			c0-0.2,0.1-0.2,0.3-0.3c0.2-0.1,0.3-0.1,0.5,0l0.5,0.2c0.2,0.1,0.3,0.1,0.5,0.1c0.3,0,0.5,0,0.8,0c0.3,0,0.5,0,0.8,0.1
			c0.4,0.2,0.8,0.4,1.2,0.7C862.9,54.3,863.1,54.8,863,55.3z M863.9,29.8c0.2,1,0.2,2,0,2.9c-0.2,1-0.4,1.9-0.6,2.9
			c-0.4,2-0.7,4-1,6.1c-0.3,2.1-0.5,4.2-0.7,6.2c-0.1,0.2-0.3,0.4-0.5,0.5c-0.2,0.1-0.5,0-0.7-0.1c-0.3-0.5-0.5-1-0.6-1.5
			c-0.1-0.5-0.1-1,0-1.5c0.2-2.2,0.4-4.6,0.7-7.1c0.3-2.5,0.6-4.9,0.9-7.4c0-0.2-0.1-0.5-0.3-0.6c-0.2-0.2-0.4-0.3-0.6-0.4
			c0.1-0.3,0.2-0.6,0.5-0.7c0.3-0.2,0.6-0.3,0.9-0.4c0.4,0,0.8,0,1.2,0.2C863.4,29.2,863.7,29.5,863.9,29.8z"/>
	</g>
</g>
</svg>
