<?xml version="1.0" encoding="utf-8"?>
<!-- Generator: Adobe Illustrator 24.0.1, SVG Export Plug-In . SVG Version: 6.00 Build 0)  -->
<svg version="1.1" id="圖層_1" xmlns="http://www.w3.org/2000/svg" xmlns:xlink="http://www.w3.org/1999/xlink" x="0px" y="0px"
	 viewBox="0 0 527.8 167.1" style="enable-background:new 0 0 527.8 167.1;" xml:space="preserve">
<style type="text/css">
	.st0{opacity:0.76;}
	.st1{fill:#FFF21B;}
	.st2{fill:#3E3A39;}
	.st3{fill:#D6164A;}
</style>
<g id="圖層_1_1_">
	<g class="st0">
		<path class="st1" d="M513.9,145.8c0.2,0.1,0.5,0.1,0.7,0.1C514,146,513.7,146,513.9,145.8z"/>
		<path class="st1" d="M522.9,146.6c-2.3,0-6,0-8.3-0.6C516.7,145.8,522.2,145,522.9,146.6z"/>
		<path class="st1" d="M513.5,143.3l2.9,0.5C514.7,144.2,515,143.4,513.5,143.3z"/>
		<polygon class="st1" points="514.6,144.8 514.4,145.3 512.9,144.7 		"/>
		<path class="st1" d="M367.9,150.9c0.3,0.2,0.5,0.5,0.4,0.9L367.9,150.9z"/>
		<path class="st1" d="M361.2,148.4c-0.6-0.1-1-0.1-1.4-0.1C360.3,148.2,360.7,148.2,361.2,148.4z"/>
		<path class="st1" d="M373.9,150.5l-1.2,0.1C373.1,150.5,373.5,150.5,373.9,150.5z"/>
		<path class="st1" d="M447.6,147.7c1.1,0.4,2.1,0.8,2.9,1.1C448.4,149.2,448.2,148.2,447.6,147.7z"/>
		<path class="st1" d="M330.3,140.8l-0.3,0.5C329.8,141.1,329.6,140.9,330.3,140.8z"/>
		<path class="st1" d="M359.4,140.6c0,0.2,0,0.4-0.1,0.6c-0.1,0-0.2-0.1-0.3-0.1L359.4,140.6z"/>
		<path class="st1" d="M378.6,149.5C378.6,149.5,378.6,149.4,378.6,149.5l1,0.2C379.1,149.8,378.8,149.7,378.6,149.5z"/>
		<path class="st1" d="M321,140.5c-0.5-0.3-0.9-0.6-1.2-1C320.7,139.7,321.1,140.2,321,140.5z"/>
		<path class="st1" d="M359.6,148.3L359.6,148.3h0.2C359.7,148.3,359.7,148.2,359.6,148.3z"/>
		<path class="st1" d="M369,140.9c-0.5-0.1-1-0.1-1.5-0.2C368,140.6,368.6,140.6,369,140.9z"/>
		<path class="st1" d="M447.6,147.7l-0.9-0.4C447,147.3,447.4,147.4,447.6,147.7z"/>
		<path class="st1" d="M506.2,146.8c-0.9,0-1.1-0.3-1.3-0.7C505.4,146.3,505.8,146.5,506.2,146.8z"/>
		<path class="st1" d="M171,160.2h-0.4C170.8,160.2,170.9,160.2,171,160.2z"/>
		<path class="st1" d="M206.6,158.7c0.2,0.1,0.3,0.2,0.5,0.3C206.8,159.2,206.6,159,206.6,158.7z"/>
		<path class="st1" d="M238.5,145.1c-2.3,0.8-4.8-0.4-6.8-0.3l0.7,0.5l-2.1-0.3l0.1,0.8c-3.4-0.2-7.5,1-8.8-0.2l0.5,1.3l-3.6-0.8
			l2.1,0.7c-4,0.6-10.2,0-11,0.1l0.4,0.5c-0.6,0.3-1.2,0-1.9-0.1l0.6,0.7c-6.1,0.2-7.6,2-14.4,1.8c-1.8,0.3,1,0.2,1.1,0.6
			c-1,0.7-3.4,0.3-3.9,0c0.6,1.1,3.4,0.5,1.4,1.6c-1.6-0.4,1.1,1-1.6,1l-1.2-1.4c-1.5,0.4-0.2,1.2-2.6,1.2c-2.8-0.4,3.2-2-1.2-1.8
			c-2.2,0.3-4.3,3.8-8.6,3.3c-3.6,1.1,2.1,2.2-3,2.2l3.3,0.7c-0.8,0.5-0.2,1.2-2.4,1c-1-0.7-2.1-1.1-3.3-1.1c4.8,0.7-4,2,0.5,3.1
			l-1.6,0.1c0.2,0,0.3,0.2,0.2,0.3l-2.2,0.3c1.4,0.2,4.6,0.1,3.2,1.3l-3.1,0.5c0.9,0.8-0.2,1.2,0,1.8l9.4,0.8
			c-0.4-0.5-1.8-0.7-1.3-1.2c2.4-0.6,2.1,0.7,4.4-0.1l-1.1-0.6c0.2,0.2,0.5,0.3,0,0.4c-0.8,0.5-1.2,0-1.2-0.4c0.7-0.9,3.1-0.5,3.9,0
			c3-0.3,0.5-1.5,1.1-1.9c1.7,1.3,5-0.4,7,0.1l-1.3-0.8c2.2-1.3,4.3-0.5,5.7-0.3l-0.6-0.7c3.2-0.1,4.6-2.7,7.2-0.3l-0.4-0.5
			c1.3-0.3,3.2-1,4.6-0.3c0-0.4,0.3-0.8,0.7-0.8c0.8,1,2.1,0.1,4-0.2c-1.3-0.2-1-1.5-2.4-1.7c2.9-1.6,2.8,1.3,5.3,1.1
			c1.5-0.8-1.4-0.6-1.8-1.1c3.9,0.4,7.7-3.6,10.4-1.2l-1.6,1c1.6,0.5,2.4,0.4,2.2,0.2c-0.3,0.1-0.7,0-0.9-0.3
			c4.6-1.7,7.4,1.4,12.1,0.6c-0.4-0.5-1.1-0.6-1.1-1c2.1-0.7,2.3,2.4,5.7,1.1l-0.7-0.5c1.1-0.4,2.1,0.3,1.9,0.5c0-1.1,1.8-1.2,4-1.4
			s4.6-0.5,5.7-2c1.8,1.1,6.7,1.8,8.2,1c2.1-1.5-2-1.4-1.3-2.7c1.7-0.1,2.6,1.1,5.1,0.5c0.1,1.2-4.8,2.8,0,3.3l0.6-0.7
			c-0.6,0.2-1.2,0.3-1.8,0.3c-1.4-0.7,0.8-0.9,1.1-1.2l5.1,0.1c0.4,1.3-2.6,1.2-2.9,1.5c4-0.5,8.7-2.7,12.5-2.1l-0.4-0.5
			c4.8,0.9,2.6-2.6,6.5-0.7c2-0.5-0.8-1.4,2.2-1.6c0.9-0.1,0.4,0.5,0.2,0.7c3.7,0.3,1.6-1.4,5-0.3l-0.8-1.4c4.1,0.8,8.5,3,12,2.2
			c-0.3-1.1-2.4-0.9-3.3-1.6c4.9,1.7,11.4-0.3,15.9,0.6c-1.3,1,2.2,2.1-0.6,2.9c-0.8-1.4-2.1-0.4-3.6-0.5c2.6,2.9,10.1-1.9,11,0.7
			l0.6-1.1c0.7,0.1,2.4,0.9,1.3,1.3l4.8-0.9c-1.7-0.8-5.4-2.5-6.5-1.3c-1.4-1.1,2-0.8,0.7-2.1c3.3,1.7,2-0.8,5.4-0.6
			c-1.5,1.6,3.4,2,3.3,2.8c1.1-0.3,3.6,0.3,4.5,0.8c2,0.1,6.4-1.3,9.5-0.9c-1.2-0.5-3.1-1-3-2c1.6,0.5,3.2,0.5,3.5-0.7
			c-5.5-2-1.7,2.7-6.6,1.5c-1.3-1.3-2.6-1.6-5.2-1.9c1.1-0.8,0.6-1.1,1.1-2c3.2,2.7,8.1,0,12.2,1.3c1.7,0.8,0.5,2.6,4.4,2.7l-3.3,1
			c3.6-0.9,0.9,0.8,3.9,1l-1.2-0.9c1.8-0.2,2.5-0.1,3.6,0.6l-1.6-1.4c1-0.2,2.8-0.4,2.9,0.4c0.2-0.2,0.3-0.5,0.3-0.9
			c0.2,0.2,0.7,0.4,1.8,0.3c-0.7-0.1-1.2,0-1.2-0.5c4.5,0.2,1-1.5,3.8-1.5c-0.4-0.3,0.3-0.7,1.3-0.9c0,2.2,5.5,2.4,6.9,3.6v0
			l3.7,0.8c-0.8-0.2,0-0.8,1.1-1h-0.2c1.2-0.4-1.5-2.4,2.1-1.8l1.9,0.6c-0.3-0.1,0-0.4,0.2-0.6l2,0.6c2.9-2.1,5.6,1.1,9,0
			c-1,0.2-2.5,0.1-1.9-0.6c0.7-0.2,1.5-0.1,2.2,0.3l-0.2-0.2l6.6,1.2c-0.5-0.7-4.2-0.8-2.6-1.6c1-1,2.9,0,4.1,0.1
			c-0.1,0.6-2.3,1.1-0.1,1.4c0.3-0.3,2.4-0.9,1.4-1.3c2.3,0.6,5.6,0.9,7.6,1.9c0.6-0.3-0.4-0.5-0.7-0.6l-0.2,0.2
			c-1.4-0.3-0.2-1.5-2.9-0.9c-0.2-1.9,3.9-0.6,6.2-0.9l-3.7-1.3c6.3-2.7,14.8,0.1,21,0.1c-1.8,0.6-3.4,0-3.1,1.5
			c3.9,0.7,3.4,0.4,7.2,0.7l-0.3-0.1c2-0.8,4.7,0.7,6-0.6c-0.9-0.8-2.8,0.8-2.9-0.9l4.9,0.1c-1.5-1-4.9-0.1-6.7-0.4
			c-1.3,0.1,2.7,0.2,2.1,1.3c-4.6,0-5.6-1.1-7.8-2.6c-1.4-1.1,2-1.2,2.8-1.2c2.9,1.7,7.1,2.5,11.7,1.7l2.5-1.3
			c2.2,1.1,1.3,3.4,5.3,3.1l-1.2-0.9c0.6-0.3,1.2-0.4,1.9-0.5c-1.7-0.7-3.6-1.5-5.2-2.2c2.3-1.9,6.6,1,10,1.3
			c-0.2-0.2-1.4-0.3-1.7-0.8c5-0.5,10.3,1.9,14.2,2.2c1.6-0.8-3.2-0.6-2.4-1.8c2,0.5,4.4-0.6,4.9,0.6c-0.9-1.7,4.7-0.1,0.8-1.7
			c7.4-0.7,15.5,0.9,23,1.9c-0.4-0.5-0.4-0.9,0-1.2c-2.5,0-6.2-0.5-7.6-1.7c1.7-0.8,3.9,1.2,4.4,0.7c-0.8-0.4-2.5-0.4-2.5-1.2
			c2.2-0.9,3.4,0.4,4.9,0.6l-0.8,0.4c4.7,1.2,2.6,2.9,7.6,2.5c1.8-1,0-0.8,0-2.1c1.2,0.5,5-0.8,6.2,0.5l-3,0.1
			c2.1,0.4,4.1,0.4,5.6,0.8c-0.1-0.3-0.4-0.6-0.7-0.7c1.7,0.4,3.9,0.3,4.7,1.2l0.5-1.3c-1,0.6-4,0.7-4.5-0.1
			c0.3-1.2,3.4-0.4,4.7-0.5c-5.9-0.4-6-2.5-11-1.7l0.8,0.4c-3.1,1-6.3-0.7-9-0.7c0.8-0.3,0.9-0.8,0.6-1c-6,1-12,0.2-18.8,0.8l-2-1.3
			l-0.1,1c-3.4,0.4-0.7-1.4-2.9-1.3c0.8,0,0.7,0.2,0.8,0.4c-3.9-1.2-2.2,0.9-4.4,0.6c1,1.1,4.2,0.4,3.2,1.8
			c-3.9-1.1-9.9-0.5-10.5-2.9c-7.2,0.9-16.2-0.5-22.3-0.8c-0.8,0.4,0.5,0.3,0.2,0.7c-2.4-1.4-8.1,1-8.1-0.2c-1.2,0.3-1.6,1.3-2,1.6
			c-1.7-0.6-3.5-0.9-5.4-1l1.4,0.3l-0.2,0.2l-2-0.5l0.1-0.1c-2.4-0.2-5.1-0.2-7.6-0.3c-2.5,0-4.9-0.4-7.3-1c2.6,0.8-0.6,1.5,0.6,2
			c-2.3-2-7.7-2-12-1.7c0,0.4-0.3,0.8,0.2,1.1l-2.5-0.8l0.3,0.5c-4.5,0.4-9.5-1.7-12.5-0.7c1.9,0.2,1.9,0.6,2.1,1.3
			c-3.4,0.1-6.8-0.1-10.1-0.5c0.2,0.1,0.3,0.3,0.4,0.4c-1,0.2-2.2-0.3-3.2-0.5l-0.1,1c-2-0.4-4.5,0.2-6.8-0.6
			c-0.9,1.1-5.6-0.9-8.3-0.4c-1-0.2,2.3,1.1-0.6,1.1c-0.5-2.1-3.7,0.1-4-2.3l-2.5,0.9l-0.6-1.1c-2.1,2.2-3.3-0.9-6.4-0.1
			c0.2,0.2,0.5,0.3,0.4,0.5c-1-0.2-3.4-0.3-1.6-0.9c-1.7,0.1-7.5-0.3-4.8,0.9c-0.2-0.7,2.2-0.2,3.2,0c-0.1,1-2.7,0.7-3.2,1.8
			c-0.2-0.2-0.4-0.3-0.7-0.4l-0.3,0.6c-3.2-1-6.4-0.1-8.8-1.4c-0.1,0.3-0.7,0.6-1.8,0.5l-0.1-1.2l-3.4,0.2l1.7,1.8
			c-3.7,0.5-6.4-1.5-9.4-1.6c-0.7,2.1-6-0.5-8.5,1.5l2.4,0.5c-5.1-0.1-5.8,1.2-10.6,0.7c4-0.9,4-0.5,9.8-2.4
			c-5.8,1.2-10.2-0.7-15.5,0.8c0.4,0.5,1.8,0.7,0.5,1.3c-1.1-1-5.1,0.3-4.3-1c-1.6,0.5-1.9,1.7-2.9,1.9l-5.7-1.2l0.2,0.2
			c-2.2,0.8-4.5,1.2-6.9,1.3c-2.2,0.1-4.5,0-6.7-0.2c-4.5-0.4-9-1-13.7-0.1l0.2,0.7l-2.4-0.8c1.9,0.5-0.8,0.9-0.9,1.5l-6.2-1
			c-0.1,0.8,0.4,1.5,1.2,1.6C238,145.2,238.2,145.1,238.5,145.1z M319,141.2l1.5,0c0.3-0.1,0.6-0.1,0.9,0l-1,0
			C319.8,141.5,319.2,142,319,141.2z M452.7,141.4c0.7,0.6-1,0.2-1.5,0.3l2.4,0.2C453.9,141.5,453,141.5,452.7,141.4z M319.4,149.3
			l-0.8,0.9l-1.1-0.6L319.4,149.3z M298.9,150.3l2.1,0.4l-0.2,0.2l-2-0.4L298.9,150.3z M275.8,144.7c0.1,0,0.3,0.1,0.4,0.1
			C276.1,144.8,275.9,144.8,275.8,144.7c-1.6-0.5-2.2,1-3.5-0.4C273.8,143,274.9,144.3,275.8,144.7L275.8,144.7z M311.9,142.9
			c0.5,0.1,1,0.2,1.5,0.1c-0.4-0.5-1.8-1.2-0.8-1.4c0.7,0.5,3.1,0.6,3.2,1.4C313.7,142.2,312.4,144.6,311.9,142.9L311.9,142.9z
			 M360.3,141.8l-0.5,0.1l1.9,0.6L360.3,141.8z M369.1,142.5c1.1,1,3.8,0.8,5.6,1c0.5-0.9-1.5-2-3.6-1.8
			C368.5,140.9,370.2,143.1,369.1,142.5L369.1,142.5z M296.2,145.3l0.6,0.7l-0.5,0.1l2.1,0.4c-2.6,1.1-4.6-0.7-6-0.9
			C293.5,145.6,296.9,147.2,296.2,145.3z M387.9,142.7c1.9,0.6,5.3,1.4,5,2.1c0.1-1.4-2.6-2-3.5-2
			C388.9,142.9,388.4,142.8,387.9,142.7z M387.8,145.3c-2.7-0.6-2.9-1.3-5-2.5c2.7-0.6,3.4,1.2,3.1,1.9c1.9,0.6,1.5-0.3,2.5-0.5
			L387.8,145.3z M384.9,141.4l-1.1,0.2c-1.3,0.6-1.5,2.2-3.4,0.7l3.4-0.7C384.2,141.5,384.5,141.4,384.9,141.4L384.9,141.4z
			 M407.8,141.2l-1.1-0.5C407.8,140.8,407.9,141,407.8,141.2l0.9,0.4C406.3,142.1,407.5,141.6,407.8,141.2L407.8,141.2z
			 M390.4,141.8l-3.2-0.1C387.3,142.3,389.3,142,390.4,141.8z M407.1,142.5c-1.4,0.1-4.9,0.3-4.4,0.2
			C403,142,406.2,142.1,407.1,142.5z M477.9,144.4l-2-0.1l1-1L477.9,144.4z M454.2,145.1l0.5-0.5l1.2,0.1L454.2,145.1z M432.3,145.1
			c0.1-0.2,0-0.5-0.1-0.7c-0.3,0-0.6-0.2-0.8-0.4c0.3,0,0.6,0.2,0.8,0.4c0.9,0.2,1.9,0.1,2.8-0.2c-0.4-0.5-1.7-0.4-2.2-0.7
			c2-1.2,6.5,2.4,5.2-1c0.8,0.4,3.7,1.3,2.7,1.9C438.4,144.1,434,144.5,432.3,145.1c-0.2,0.2-0.4,0.4-0.7,0.3
			C431.8,145.3,432,145.2,432.3,145.1L432.3,145.1z M402.8,146.1c-0.5,0-0.9-0.1-1.4-0.3c-0.7-0.2-1.3-0.6-1.1-1.1
			c1.7,0.4,0.6,0.8,1.1,1.1C401.9,145.9,402.4,146,402.8,146.1L402.8,146.1z M397.6,146.3l2.7,0.6l-1.4-0.8l4.1,1.3
			C400.7,148.2,398,147.2,397.6,146.3L397.6,146.3z M396.7,147l-0.6-0.8l0.9,0.8L396.7,147l0.1,0.2l-4.6-0.4L396.7,147z
			 M350.1,146.3c-1.6,2.8,4.1,1.9,5,3.2c0.2-0.9,1.9-2.4-2.6-2.3c3.8-1,2.4,1.8,4.7-0.6c-1.8,0.2-4.1-0.5-4.4-0.5l2.2-0.2
			C353.7,144.1,351.6,146.8,350.1,146.3L350.1,146.3z M326.7,147.5l-2.9,0l2.7,0.1L326.7,147.5z M256.4,151.8
			c0.2,0.6-3.4,2.1-4.3,0.9C253.9,152.4,255.9,152.3,256.4,151.8z M226.1,153.6l3.2,0.3c-0.5,1.5-2.9,0.1-4.3,0.5
			C224.4,153.7,225.7,154.1,226.1,153.6L226.1,153.6z M205.3,155.1l-1-0.2l1.2,1.4L205.3,155.1z M206.9,157
			c-0.6,0.7,1.6,0.9,2.1,0.7L206.9,157z M188.2,159.7l1.3-0.2l-1.3-1.2L188.2,159.7z M190.2,158c0.4,0.9,0.4,2.2,3.4,1.3
			c0.1-1-0.8-0.9,0.3-2.2c-1-0.2-1.8,0.3-2.3,0.5c0.7,0.1,1.5-0.4,1.7,0.3C192.3,158.3,191.2,158.3,190.2,158
			c-0.1-0.4-0.4-0.6-0.7-0.7C189.5,157.6,189.8,157.8,190.2,158L190.2,158z M201.3,156.1c0.3-0.1,0.6-0.3,0.9-0.5l0.2,0.2
			C202.1,156.2,201.6,156.3,201.3,156.1c-0.4,0.2-0.9,0.3-1.5,0.5c-0.3,0.9,1.9,1.3,2.4,1.7c-1-0.2-2-0.9-3.2-0.3
			c0.2,0.2,0,0.4,0.9,0.3l-1.8,0.3c-2.2-1-0.2-1.5,1.7-2.1c0.1-0.3,0.3-0.5,0.5-0.6C200.6,155.8,200.9,155.9,201.3,156.1
			L201.3,156.1z M186.4,155.4l1,0.2c0.5,0.3,0.2,0.6,0.4,0.9C186.7,156.4,185.1,156,186.4,155.4L186.4,155.4z M246.7,150.7
			c-0.7,0.3,1,1.2,2.4,0.8l-0.7,1.3c-0.1-0.8-3.1-0.5-3.4-0.6C244.3,151.1,245.5,151.5,246.7,150.7L246.7,150.7z M316.8,146.9
			c0.6,1.6,4.4,0.5,5.3,0.8C320,148.2,315.5,148.7,316.8,146.9L316.8,146.9z M323.4,146c1.1,0,1.4-0.2,1.3,0.6
			c0.5,0.3,1.3-0.1,1.9,0.2C324.5,147.6,324.6,146.3,323.4,146c-0.3,0-0.7,0-1,0C322.8,145.9,323.1,145.9,323.4,146z M282.4,147.8
			l-1.5-1.1l-2.2,0.2L282.4,147.8z M258.8,147.1c0.2,0.7-2.3,0.8-2.8,0.5c0.2,0.9,1.9,0.6,3.2,0.7c0.3,0.1,0.6,0.1,0.9,0.1
			c-0.3,0-0.6-0.1-0.9-0.1c-0.5-0.2-0.2-0.6-0.2-0.9l0.7-0.3l-1.9-0.1L258.8,147.1z M217.5,148.9c-1.4,0.8-1.6,0.6-2.7,0.4
			C215.1,149,216.5,148.8,217.5,148.9L217.5,148.9z M271.2,145.6c-2.5,0.6,1.3,1.3-0.3,1.8l1.3-0.2c-2.1,1-1.6-0.9-3.1-0.6l1-0.2
			c0.7-0.9-1.6-0.5-1.8-1.1C269.4,144.9,272.2,145.4,271.2,145.6L271.2,145.6z M215.1,148.5c-2.4,1-2.1-0.7-3.6-0.8
			C213.4,146.8,213.2,148.4,215.1,148.5L215.1,148.5z M255.2,144l0.1-0.2l-2.1-0.4l-0.2,0.2L255.2,144z"/>
		<path class="st1" d="M212.7,157.5c-0.4,0.1-0.9,0.2-1.4,0.1C211.7,157.5,212.2,157.5,212.7,157.5z"/>
		<path class="st1" d="M329.7,151.7c0-0.2,0.3-0.4,0.5-0.4C330.3,151.4,330.1,151.5,329.7,151.7z"/>
		<path class="st1" d="M334.6,152.1c0.1,0,0.1,0,0.2,0l0.2,0.1L334.6,152.1z"/>
		<path class="st1" d="M504.7,147.9c1,1.1-1,0.2-1.8,0.2C503.7,148.1,504,147.3,504.7,147.9z"/>
		<path class="st1" d="M498.1,146.1c0.6,0.4,1.3,0.6,2.1,0.6C499.4,146.7,498.7,146.5,498.1,146.1z"/>
		<path class="st1" d="M503.5,146.6c-1.1,0.2-2.2,0.2-3.3,0.1C501,146.7,501.8,146.3,503.5,146.6z"/>
		<path class="st1" d="M480.3,146.2c1,0.7,3,0.3,3,0.3c-4.4,0.6,0.9,1.2,1.2,1.7C481.8,148,481.8,147.2,480.3,146.2z"/>
		<path class="st1" d="M474.5,145.8c0.4,0,0.8,0,1.2-0.1C475.3,145.9,474.9,145.9,474.5,145.8z"/>
		<path class="st1" d="M472.9,146.5c-1.5-0.2-2-0.9-2.7-1.5c1.8-0.5,3,0.7,4.3,0.9C473.4,145.9,472.4,145.8,472.9,146.5z"/>
		<path class="st1" d="M426.4,150c0.3,0.1,1.2,0.1,1.2,0.5l-2.5,0C424,150.3,425.9,150.1,426.4,150z"/>
		<path class="st1" d="M417,148c-2-0.1-1,1-2,0.8l0.1-1.4L417,148z"/>
		<path class="st1" d="M418.1,140.9l0.6,0.1L418.1,140.9L418.1,140.9z"/>
		<path class="st1" d="M407.3,149.5l1.4,1.5C407.1,150.7,407,149.4,407.3,149.5z"/>
		<polygon class="st1" points="399.7,150.7 400.8,151.1 397.1,150.7 		"/>
		<polygon class="st1" points="390.4,150 390.1,150.3 387.5,150 		"/>
		<path class="st1" d="M289.5,151.9c-0.5-1.3,3.6-0.9,4.8-1.3C293.6,152.3,291,150.2,289.5,151.9z"/>
		<path class="st1" d="M216.1,156.6h3.9C217,157.4,219.2,156.7,216.1,156.6z"/>
	</g>
	<path class="st2" d="M109.5,81.1c-1.8-0.2-3.7-0.6-5.4-1.2c-1.7-0.5-3.5-1.2-5.1-2c-1.7-0.8-3.3-1.8-4.9-2.8
		c-1.6-1-3.1-2.1-4.7-3.3c-0.6,0.4-1.2,0.8-1.8,1.3s-1.2,0.9-1.8,1.3s-1.2,0.8-1.8,1.1c-0.6,0.3-1.2,0.6-1.9,0.9
		c-0.6,0.2-1.2,0.3-1.8,0.2c-0.6,0-1.2-0.3-1.6-0.7c-1-1.2-1.5-2.6-1.6-4.1c-0.1-1.6-0.1-3.1,0.1-4.7c0-0.4,0.2-0.8,0.4-1.2
		c0.2-0.4,0.5-0.7,0.9-0.9c0.6-0.2,1.2-0.3,1.8-0.2c0.6,0.1,1.2,0.3,1.8,0.5c0.6-0.7,1.3-1.5,2.2-2.4c0.8-0.8,1.6-1.6,2.3-2.4
		c-0.5-0.2-0.9-0.3-1.3-0.4L84.2,60c-0.7-0.3-1.4-0.5-2.1-0.7l-0.4,0.4l-0.3,0.4c-0.3,0.3-0.6,0.6-0.9,1c-0.3,0.3-0.8,0.5-1.2,0.4
		c-0.3-0.1-0.5-0.4-0.6-0.6c-0.1-0.2-0.1-0.4,0-0.6c0.4-0.5,0.7-1,1.2-1.5c0.4-0.5,0.8-1,1.2-1.5c0.4-0.5,0.8-1,1.2-1.6
		c0.5-0.7,0.8-1.4,1.2-2.1c-0.8,0.3-1.6,0.7-2.4,1.2c-0.8,0.4-1.5,1.1-1.9,1.9c-0.1,0.1-0.2,0.2-0.3,0.3s-0.2,0.2-0.3,0.3
		c-0.2,0.1-0.4,0.1-0.7,0.1c-0.6-0.4-1.1-1-1.4-1.6l-0.8-2c-0.1-0.3-0.2-0.7-0.2-1c0-0.3,0.1-0.6,0.2-0.8c0.5-0.4,1-0.8,1.6-1.1
		c0.5-0.3,1.1-0.6,1.7-0.8l1.7-0.8c0.5-0.3,1.1-0.5,1.8-0.9c-0.1-2.7,0.4-5.4,1.5-7.9c1.2-2.7,2.6-5.2,4.3-7.6
		c-1.2,0.7-2.3,1.4-3.3,1.9c-1,0.6-1.9,1.1-2.9,1.5c-0.9,0.5-1.8,0.8-2.7,1.2c-0.9,0.3-1.7,0.6-2.7,0.8c-0.8,0-1.6-0.2-2.3-0.6
		l-1,1.7l-1.3,2.1c-0.4,0.7-0.9,1.4-1.3,2.1c-0.4,0.7-0.8,1.3-1.1,1.9c0.8,0.6,1.4,1.4,1.8,2.2c0.4,0.9,0.6,1.8,0.6,2.7
		c0.1,1.1,0.1,2.5,0.1,3.9s-0.1,3-0.2,4.5c-0.1,1.5-0.2,3-0.3,4.4c-0.1,1.4-0.2,2.7-0.4,3.8s-0.3,2.1-0.4,3.2
		c-0.2,1.1-0.3,2.2-0.4,3.3c-0.1,0.4-0.1,0.7-0.3,1.1c-0.1,0.3-0.4,0.6-0.7,0.8c-0.2,0-0.4-0.1-0.5-0.3C69.1,75,69,74.8,69,74.6
		c-0.2-0.7-0.3-1.4-0.2-2.1c0.1-0.8,0.1-1.5,0.2-2.1c0.4-3.4,0.8-6.9,1-10.4c0.2-3.5,0.2-7,0-10.5c-0.1-0.4-0.2-0.8-0.4-1.1
		c-0.2-0.3-0.6-0.5-0.9-0.5c-1,1.2-2,2.5-2.9,3.9c-0.9,1.3-1.7,2.6-2.6,3.9c-0.3,0.4-0.6,0.7-1,0.8l-0.4-0.1
		c-0.1-0.1-0.2-0.1-0.3-0.3c0-0.8,0.3-1.6,0.8-2.3c0.5-0.6,0.9-1.4,1.2-2.1l1.7-2.7c0.7-1.1,1.3-2.2,2-3.3c0.7-1.2,1.4-2.3,2-3.3
		c0.6-1.1,1.2-2,1.7-2.7c0.6-1,1.1-2,1.6-3c0.5-1,1.1-1.9,1.9-2.7c0.2-0.1,0.4-0.1,0.7-0.1c0.2,0,0.4,0.1,0.6,0.2
		c0.2,0.2,0.3,0.5,0.2,0.8c0,0.4-0.2,0.9-0.4,1.3c0.7,0,1.4-0.1,2.1-0.3c0.6-0.2,1.2-0.4,1.7-0.5c0.6-0.2,1.1-0.5,1.6-0.7
		c0.5-0.2,1.1-0.5,1.6-0.7c0.8-0.4,1.6-0.9,2.4-1.4c0.8-0.5,1.6-1,2.3-1.5s1.6-0.9,2.4-1.3c0.8-0.4,1.7-0.7,2.6-0.9h1
		c0.3,0,0.6,0.1,0.9,0.3c0.2,0.1,0.3,0.2,0.3,0.4c0,0.2,0,0.4-0.1,0.5c-0.4,0.4-0.8,0.8-1.3,1.1c-0.5,0.3-1,0.6-1.5,0.9
		c-0.2,0.1-0.3,0.2-0.5,0.3c-0.2,0.1-0.3,0.3-0.4,0.4c-0.8,0.7-1.4,1.5-1.9,2.5c1.4-0.3,2.8-0.1,4,0.6c0.6,0.4,1.1,0.9,1.3,1.5
		c0.2,0.6,0.4,1.3,0.5,2c0.2,1.4,0.2,2.8,0.1,4.2c-0.1,1.4-0.2,2.9-0.3,4.4l1.9-0.2c0.6-0.1,1.2-0.1,1.8-0.1c0.7,0,1.4,0.2,2,0.5
		c0.6,0.2,1.1,0.7,1.4,1.3c0,0.4-0.1,0.7-0.4,1c-0.7,0.4-1.4,0.6-2.1,0.8c-0.4,0.2-0.8,0.3-1.2,0.4s-0.9,0.3-1.5,0.5l1.1,0.5
		c0.3,0.1,0.5,0.3,0.8,0.3c0.5,0.3,1,0.6,1.5,1c0.5,0.4,0.8,1,0.8,1.6c-0.1,0.2-0.3,0.3-0.4,0.4l-0.6,0.2c-0.9,0.1-1.9,0.2-2.8,0.4
		c-1,0.2-2,0.6-2.9,1c0.3,0.2,0.5,0.4,0.7,0.7c0.1,0.2,0.2,0.4,0.2,0.7c-0.2,0.4-0.4,0.7-0.8,0.9c-0.3,0.2-0.6,0.4-1,0.5
		c-0.4,0.1-0.7,0.2-1.1,0.3c-0.3,0.1-0.7,0.1-1,0.2s-0.7,0.1-1,0.1h-1.3c-0.4,0.4-0.8,0.8-1.2,1.3c-0.5,0.5-0.9,1.1-1.2,1.7
		c1.2-0.4,2.3-0.8,3.3-1.1c1-0.3,2-0.6,3.1-0.7c1.2-0.2,2.4-0.1,3.6,0.2c0.2,0.1,0.4,0.2,0.6,0.5c0.1,0.2,0.2,0.5,0.3,0.7
		c0.1,0.4,0,0.9-0.2,1.3c-0.8,1-1.7,1.9-2.7,2.9s-2,2-3,3c2.8,2.1,5.8,3.9,8.9,5.4c3,1.5,6.3,2.6,9.6,3.3c0.1,0.1,0.2,0.2,0.3,0.3
		c0.1,0.1,0.1,0.2,0.2,0.4l0.1,0.3C110,80.7,109.8,81,109.5,81.1z M80.8,67.1L80.2,67c-0.1,0-0.2-0.1-0.3-0.1
		c-0.3-0.1-0.7-0.2-1-0.3c-0.4,0-0.7,0.2-0.9,0.5c-0.1,0.6-0.2,1.2-0.2,1.8c0,0.3,0,0.6,0,0.9s0.1,0.8,0.1,1.4
		c0.5-0.8,1-1.6,1.6-2.4S80.5,67.5,80.8,67.1L80.8,67.1z M83.5,51.4c-0.3-0.3-0.6-0.6-0.7-1c-0.2-0.4-0.3-0.8-0.3-1.2
		c-0.5,0.3-1,0.5-1.3,0.7s-0.8,0.4-1.1,0.6c-0.4,0.2-0.7,0.5-1,0.8c-0.4,0.3-0.7,0.6-0.9,1c-0.1,0.3-0.1,0.6,0,0.9
		c0.1,0.2,0.2,0.3,0.2,0.4c0.1,0.2,0.2,0.4,0.2,0.6c0.4-0.3,0.8-0.6,1.3-0.9c0.4-0.2,0.8-0.4,1.2-0.6c0.4-0.2,0.8-0.4,1.2-0.6
		L83.5,51.4z M87.2,70.6c-0.6-0.5-1.3-0.9-2-1.3c-0.5-0.3-1-0.6-1.6-0.8c-0.4,0.3-0.7,0.6-1.1,1c-0.3,0.3-0.6,0.7-0.9,1
		c-0.3,0.3-0.6,0.6-0.8,0.9s-0.5,0.7-0.8,1l-0.3,0.3c-0.1,0.2-0.3,0.3-0.5,0.4c-0.2,0.1-0.5,0.1-0.7,0c0.1,0.4,0.2,0.8,0.4,1.1
		c0.2,0.3,0.5,0.6,0.8,0.7c1.4-0.3,2.8-0.9,4-1.8C84.8,72.3,86,71.4,87.2,70.6L87.2,70.6z M90.4,58.3c-0.5-0.3-1.1-0.5-1.7-0.7
		l-1.5-0.5c-0.4-0.1-0.9-0.3-1.3-0.5c-0.5-0.2-1-0.5-1.4-0.8c-0.2,0.4-0.4,0.8-0.7,1.2l-0.6,1.1c0.9,0.2,1.6,0.3,2.3,0.4
		c0.7,0.1,1.4,0.2,2.1,0.2c0.4,0.1,0.9,0.1,1.3,0C89.4,58.7,89.9,58.5,90.4,58.3L90.4,58.3z M89.2,49.3c-0.1-0.2-0.2-0.5-0.3-0.7
		c-0.1-0.1-0.2-0.3-0.3-0.4c-0.1-0.2-0.2-0.3-0.3-0.4c-0.1-0.1-0.2-0.3-0.3-0.4c-0.3,0-0.7,0.1-1,0.2c-0.3,0.1-0.6,0.2-0.8,0.3
		l-0.8,0.3c-0.3,0.1-0.6,0.3-0.9,0.5c0,0.2,0.1,0.4,0.1,0.6c0,0.2,0,0.3,0.1,0.5c0,0.4,0.1,0.8,0.3,1.2c0.7-0.3,1.4-0.6,2.2-0.8
		L89.2,49.3z M86.8,46.3c-0.1-0.6-0.3-1.3-0.6-1.8c-0.3-0.6-0.6-1.2-1-1.8c-0.2,0.8-0.4,1.6-0.5,2.4c-0.1,0.7-0.2,1.5-0.3,2.4
		c0.2-0.1,0.5-0.3,0.7-0.4c0.2-0.1,0.4-0.1,0.5-0.2C86.1,46.7,86.5,46.5,86.8,46.3L86.8,46.3z M97,49.5c-1.2,0-2.3,0.1-3.5,0.4
		c-0.1,0.3-0.3,0.5-0.4,0.7c-0.2,0.2-0.4,0.3-0.7,0.4c-0.3,0.1-0.7,0.1-1,0c-0.3-0.1-0.7-0.2-1.1-0.3c-0.4,0.2-0.9,0.3-1.3,0.5
		c-0.4,0.1-0.9,0.3-1.3,0.5l-1.3,0.6c-0.5,0.2-1,0.5-1.4,0.7c0.2,0.1,0.2,0.2,0.3,0.3c0,0,0,0.1,0,0.1c0,0.1,0,0.3,0,0.4
		c0,0.2,0,0.3,0.1,0.4c0.7,0,1.4-0.1,2.1-0.3c0.6-0.2,1.2-0.3,1.8-0.5c0.5-0.2,1.1-0.5,1.7-0.7c0.6-0.3,1.2-0.5,1.8-0.7
		c0.7,0.2,1.4,0.1,2-0.2c0.5-0.3,1.1-0.7,1.7-1.1c0.2-0.1,0.3-0.3,0.5-0.5C97,50,97,49.8,97,49.5L97,49.5z M93.6,64.1
		c-0.3-0.2-0.7-0.3-1-0.2c-0.3,0-0.6,0.1-0.9,0.2c-1.1,0.3-2.2,0.6-3.2,1.1c-1.1,0.5-2.2,1.1-3.1,1.9l0.6,0.3
		c0.1,0.1,0.3,0.1,0.4,0.2c0.4,0.2,0.8,0.5,1.2,0.7c0.4,0.3,0.8,0.5,1.3,0.6c0.4-0.3,0.8-0.6,1.3-1s0.9-0.8,1.3-1.2
		c0.4-0.4,0.8-0.8,1.2-1.3C93.1,65.1,93.4,64.6,93.6,64.1z M89.5,41.9c0.2-0.2,0.2-0.4,0.1-0.6c-0.1-0.2-0.3-0.3-0.5-0.3
		c-0.5,0-1,0.1-1.4,0.3c-0.4,0.2-0.8,0.4-1.1,0.7c-0.1,0.2-0.1,0.3-0.1,0.5c0,0.2,0.1,0.3,0.2,0.5c0.1,0.2,0.2,0.3,0.3,0.5
		c0.1,0.2,0.2,0.4,0.4,0.7c0.1-0.1,0.2-0.3,0.3-0.4c0.1-0.1,0.2-0.2,0.3-0.3c0.1-0.1,0.2-0.2,0.3-0.3c0.1-0.1,0.2-0.2,0.3-0.3
		l0.6-0.5L89.5,41.9z M92,39.5c-0.1-0.5-0.2-0.8-0.2-1.1c-0.1-0.3-0.2-0.6-0.5-0.7c-0.3-0.2-0.6-0.4-0.9-0.4c-0.3-0.1-0.7-0.1-1,0
		c-0.3,0.1-0.6,0.2-0.8,0.4c-0.3,0.2-0.6,0.4-0.8,0.6c-0.2,0.2-0.4,0.5-0.6,0.8c-0.1,0.3-0.2,0.5-0.2,0.8c0.8-0.3,1.6-0.5,2.4-0.6
		C90.3,39,91.2,39.1,92,39.5z M97,54.6l-1.4-0.5l-1.1-0.4l-1.1-0.3c-0.4-0.1-0.8-0.1-1.2-0.1c-0.6,0.6-1.2,1.1-1.8,1.5
		c-0.7,0.4-1.4,0.8-2.2,1.3c0.7,0.2,1.5,0.4,2.3,0.6l1.8,0.4l2.2-1.1C95.3,55.5,96.2,55,97,54.6z M92.1,44.5
		c0.1-0.5,0.1-1.1,0.1-1.6c0-0.5-0.1-1.1-0.2-1.6c-0.4,0.5-0.9,1-1.5,1.6l-1.5,1.6c0.5-0.1,0.8-0.1,1.1-0.2c0.2,0,0.4,0,0.6,0
		c0.2,0,0.4,0.1,0.6,0.1L92.1,44.5z M92.1,46c-0.4,0.3-0.9,0.5-1.3,0.6c-0.4,0.1-0.9,0.2-1.6,0.3c0.2,0.1,0.4,0.2,0.6,0.4
		c0.1,0.1,0.2,0.1,0.2,0.2l0.7,0.7c0.2,0.2,0.6,0.4,0.9,0.4c0.2-0.4,0.3-0.8,0.3-1.2C91.9,47.1,92,46.6,92.1,46L92.1,46z"/>
	<path class="st2" d="M139.2,47c0,0.2,0,0.5-0.2,0.7c-0.1,0.1-0.2,0.2-0.3,0.3l-0.3,0.2c-1.2,0.5-2.4,1.1-3.5,1.6
		c-1.2,0.6-2.3,1.2-3.3,2c-0.6,0.4-1.3,0.9-1.9,1.3c-0.6,0.5-1.2,1.1-1.8,1.6c-0.5,0.5-1,1.1-1.5,1.7c-0.4,0.5-0.7,1-0.9,1.5
		c1.1-0.7,2.1-1.4,3.2-2.1c1.1-0.7,2.2-1.3,3.4-1.8c0.6-0.1,1.3,0,1.9,0.1c0.6,0.1,1.1,0.5,1.5,1c0.1,0.2,0.1,0.4,0,0.6
		c-0.1,0.2-0.2,0.4-0.3,0.6c-0.2,0.2-0.4,0.4-0.5,0.5c-0.2,0.2-0.3,0.4-0.4,0.6c-0.8,2.6-1.2,5.3-1.1,8c0.1,0.4,0.4,0.7,0.7,0.9
		c0.3,0.2,0.6,0.3,1,0.4c0.4,0.1,0.8,0.1,1.1,0.2c0.4,0,0.7,0.1,1.1,0.3c0.4,0.2,0.8,0.4,1.1,0.6c0.4,0.2,0.7,0.5,0.9,0.9
		c0.1,0.2,0.2,0.4,0.2,0.7c0,0.2,0,0.3-0.1,0.5c-1.1,0.8-2.2,1.6-3.3,2.5c-1.1,0.9-2.2,1.7-3.3,2.6c-1.1,0.8-2.2,1.6-3.3,2.3
		c-1.1,0.7-2.3,1.3-3.6,1.9c-0.4,0.1-0.8,0.2-1.2,0.3c-0.4,0.1-0.8,0.2-1.2,0.2c-0.2,0-0.3,0-0.5-0.1c-0.1,0-0.3-0.1-0.3-0.3
		c0.9-0.4,1.7-0.9,2.5-1.4c0.8-0.6,1.6-1.1,2.4-1.7l2.4-1.8c0.8-0.6,1.6-1.2,2.3-1.9l1.9-1.6c0.6-0.5,1.2-1.1,1.7-1.8
		c0-0.2-0.1-0.4-0.3-0.5c-0.2-0.1-0.4-0.2-0.6-0.3c-0.7-0.3-1.3-0.6-1.9-0.9c-0.7-0.3-1.1-0.9-1.3-1.7c-0.3-1-0.4-2.1-0.3-3.2
		c0.1-1.1,0.2-2.1,0.2-3.2c0-0.7,0-1.3,0-2c0-0.2,0-0.3-0.1-0.4c-0.1-0.1-0.2-0.2-0.3-0.1c0,0,0,0,0,0c-0.5,0.2-1,0.5-1.4,0.7
		c-0.6,0.3-1.2,0.7-1.8,1.1c-0.6,0.4-1.2,0.8-1.8,1.2c-0.5,0.3-1,0.6-1.4,1c-0.2,1.7-0.3,3.3-0.3,5c0,1.7-0.1,3.4-0.2,5.1
		c0,0.3,0,0.5-0.2,0.7c-0.2,0.2-0.3,0.4-0.5,0.5c-0.5,0.2-1.1,0.1-1.6-0.2c-0.5-0.3-1-0.6-1.4-1c-0.8-0.9-1.4-1.9-1.8-3
		c-0.4-1.1-0.5-2.4-0.3-3.6c0.2-0.5,0.5-1,0.9-1.4c0.4-0.4,0.8-0.8,1.3-1.2s1-0.8,1.5-1.1s1-0.7,1.4-1.1c0.4-1.2,1-2.4,1.6-3.4
		c0.7-1.1,1.6-2.2,2.5-3.1c-0.3-0.5-0.4-1.2-0.3-1.8c0-0.3,0-0.6,0-0.9c0-0.3,0.1-0.7,0.1-1c-1.2,0.3-2.4,0.7-3.4,1.3
		c-1.1,0.6-2.1,1.2-3.2,1.9c-1.2,0.9-2.5,1.8-3.7,2.8c-1.2,1-2.4,1.9-3.6,2.7c-0.2,0.2-0.4,0.2-0.6,0.2c-0.2,0-0.4-0.1-0.5-0.3
		c-0.2-0.3-0.2-0.7-0.1-1.1c0.1-0.4,0.3-0.7,0.5-1c0.3-0.3,0.5-0.5,0.8-0.7l0.9-0.7c0.2-0.2,0.4-0.3,0.5-0.5c1-0.9,2-1.7,3-2.5
		s2.1-1.7,3-2.7s2-1.9,3-2.8s2-2,3.1-3c-1.4,0.7-2.8,1.4-4.1,2c-1.3,0.6-2.6,1.1-4,1.4c-0.2,0-0.4-0.1-0.6-0.2
		c-0.2-0.1-0.3-0.3-0.4-0.5c-0.2-0.4-0.1-0.8,0.1-1.2c1.9-2.1,3.9-4.1,6-5.9s4.1-3.8,6.2-5.8c-0.6,0.1-1.2,0.2-1.7,0.3
		c-0.6,0.1-1.2,0.2-1.7,0.3c-0.7,0.1-1.5,0.1-2.2,0c-0.7-0.1-1.4-0.4-2-0.9c-0.4-0.3-0.7-0.6-1-1c-0.3-0.3-0.5-0.7-0.6-1.2
		c0.2-0.1,0.5,0,0.7,0.2c0.1,0.1,0.3,0.1,0.4,0.2c0.1,0.1,0.3,0.2,0.4,0.2c0.7,0.3,1.4,0.4,2.2,0.4c0.7,0,1.5,0,2.2-0.1
		c1.2-0.2,2.5-0.5,3.6-1c1.2-0.5,2.3-1,3.3-1.5c0.4,0.1,0.7,0.2,1.1,0.3c0.4,0.1,0.7,0.4,0.8,0.8c0.1,0.4-0.1,0.9-0.5,1.1
		c-0.7,0.5-1.4,1.1-2,1.7l-2,1.8c0.6,0.7,1.4,1.1,2.3,1.3c0.8,0.2,1.7,0.4,2.6,0.6c0.3,0.1,0.6,0.4,0.7,0.7c0,0.3-0.1,0.6-0.4,0.8
		c-0.2,0.2-0.5,0.4-0.8,0.6c-0.5,0.3-1.1,0.6-1.6,0.9c-0.5,0.3-1.1,0.6-1.6,0.9c-0.5,0.3-1,0.7-1.5,1.1c-0.5,0.4-1,0.9-1.4,1.4
		c0,0.4,0,1-0.1,1.8c0,0.8-0.1,1.4-0.2,1.9c0.5-0.1,1-0.2,1.5-0.3c0.4-0.1,0.9-0.3,1.4-0.4l1.4-0.2c0.5-0.1,1-0.1,1.5-0.1
		c0.8,0,1.6,0.1,2.4,0.3C138.2,45.8,138.9,46.3,139.2,47z M122.4,62.7c-0.2,0.2-0.3,0.3-0.5,0.4c-0.2,0.1-0.3,0.2-0.4,0.4
		c-0.4,0.4-0.8,0.7-1.2,1.2c-0.4,0.4-0.7,0.9-0.8,1.4c0.1,0.7,0.4,1.4,0.7,2c0.3,0.6,0.7,1.1,1.2,1.5c0.1,0.1,0.2,0.1,0.3,0.1
		c0.1,0,0.2-0.1,0.2-0.3c0.1-1.1,0.2-2.2,0.3-3.3S122.2,63.7,122.4,62.7z M128.3,36.7c-0.6,0.6-1.2,1.2-1.8,1.7l-1.8,1.6
		c-0.6,0.5-1.2,1.1-1.7,1.6c-0.6,0.6-1.1,1.2-1.6,1.8c0.6-0.3,1.2-0.5,1.8-0.7s1.1-0.5,1.6-0.7s1-0.5,1.6-0.7s1-0.5,1.5-0.8
		c0.1-0.5,0.2-1.1,0.3-1.9C128.1,37.8,128.2,37.2,128.3,36.7L128.3,36.7z M127.4,44.9c-0.3,0.3-0.7,0.7-1.2,1.2l-1.3,1.3l-1.3,1.3
		c-0.4,0.4-0.8,0.8-1.1,1.1l1.2-0.6l1.3-0.7l1.2-0.6c0.4-0.2,0.7-0.4,0.9-0.5c0-0.3,0-0.7,0-1.1S127.3,45.2,127.4,44.9L127.4,44.9z
		 M134.1,47.9c-0.8-0.1-1.7,0-2.5,0.1c-0.8,0.2-1.5,0.3-2.3,0.6c0,0.4,0,0.9-0.1,1.5c0,0.6-0.1,1.1-0.1,1.5c0.4-0.4,0.8-0.7,1.2-1
		l1.2-0.9l1.3-0.9C133.2,48.4,133.7,48.1,134.1,47.9L134.1,47.9z M132.5,37.9c0.2-0.3,0.1-0.7-0.1-0.9c-0.2-0.2-0.3-0.4-0.5-0.5
		c-0.2-0.2-0.4-0.3-0.6-0.5c-0.1-0.1-0.3-0.2-0.4-0.4c-0.2,0.6-0.4,1.3-0.6,1.9c-0.1,0.7-0.2,1.3-0.3,1.9c0.4-0.2,0.8-0.5,1.3-0.8
		S132.2,38,132.5,37.9L132.5,37.9z"/>
	<path class="st2" d="M189.8,59.4c-0.2,1.5-0.6,3-1.3,4.3c-0.7,1.4-1.6,2.7-2.6,3.8c-0.7,0.8-1.4,1.5-2.2,2.1
		c-1,0.9-2.1,1.7-3.3,2.4c-1.1,0.7-2.3,1.2-3.6,1.5c-1.1,0.3-2.2,0.1-3.1-0.6c-1.1-0.9-1.9-2.2-2.2-3.7c0.2,0.1,0.3,0.2,0.4,0.4
		c0.1,0.1,0.2,0.2,0.2,0.3c0.2,0.3,0.4,0.5,0.6,0.7c0.3,0.3,0.6,0.6,1,0.8c0.4,0.2,0.8,0.4,1.3,0.4c1-0.2,2-0.5,2.9-1
		c0.9-0.5,1.8-1,2.6-1.7c0.8-0.7,1.6-1.4,2.3-2.1c0.7-0.7,1.4-1.5,2-2.3l1.1-1.8c0.4-0.6,0.7-1.3,1-2c0.2-0.6,0.3-1.3,0.3-2
		c-0.1-0.7-0.4-1.5-0.9-2c-0.5-0.6-1-1.2-1.6-1.7c-0.6-0.5-1.1-1-1.8-1.5l-1.9-1.4c-0.6-0.5-1.2-1-1.8-1.5c-0.5-0.7-0.9-1.5-0.9-2.3
		c-0.1-0.8,0-1.6,0.2-2.4c0.1-0.5,0.3-1,0.5-1.4l0.5-1.5c0.2-0.4,0.3-0.9,0.4-1.4c0.1-0.5,0.2-1,0.2-1.6c-4.1,3-7.7,6.7-10.6,10.9
		c0.4,0.3,0.7,0.7,0.8,1.2c0.2,0.4,0.2,0.8,0.2,1.3c0,0.5,0,1,0,1.4c0,0.5,0,1,0,1.4c-0.2,1.2-0.4,2.5-0.6,3.7
		c-0.2,1.2-0.5,2.4-1,3.6c-0.3,0.6-0.7,1.1-1.2,1.4c-0.5,0.4-1.1,0.6-1.7,0.7c-0.7,0.1-1.5,0-2.1-0.4c-0.3-0.3-0.6-0.6-0.7-1
		c-0.1-0.4-0.2-0.8-0.2-1.2c0-0.4,0-0.9,0.1-1.3c0.1-0.4,0.2-0.8,0.2-1.2c0.2-0.7,0.4-1.4,0.7-2.1c0.3-0.7,0.5-1.4,0.9-2.1
		s0.6-1.3,1-1.9s0.8-1.4,1.2-2.2c-0.5,0.1-1,0.3-1.4,0.6c-0.4,0.2-0.8,0.5-1.2,0.8c-0.4,0.4-0.8,0.7-1.2,1.1
		c-0.4,0.4-0.7,0.8-0.9,1.2c-0.4,0.7-0.7,1.5-0.8,2.3c-0.1,0.8-0.2,1.6-0.3,2.5c0,1.1,0,2.2,0,3.2c0.1,1.1,0.1,2.2,0,3.3
		c-0.1,0.2-0.2,0.4-0.3,0.6c-0.1,0.2-0.3,0.3-0.5,0.4c-0.3-0.1-0.6-0.3-0.8-0.5c-0.2-0.3-0.4-0.5-0.6-0.8c-0.1-1.1-0.2-2.2-0.1-3.3
		c0-1.2,0-2.3-0.1-3.4c-0.1-0.7-0.1-1.5-0.2-2.2c0-0.7-0.1-1.4-0.2-2.1c-0.1-0.7-0.4-1.3-0.8-1.9c-0.4-0.6-1-1.2-1.7-1.5
		c-0.2-0.1-0.3-0.1-0.5-0.2c-0.2-0.1-0.3-0.1-0.5,0c-0.4,0.5-0.8,1.1-1.3,1.8l-1.6,2.2l-1.6,2.1c-0.5,0.7-0.9,1.2-1.2,1.7l-0.4,0.2
		c-0.1,0.1-0.2,0.1-0.4,0.2c-0.2,0.1-0.5,0-0.7-0.2c-0.1-0.3-0.2-0.7-0.1-1.1c0.1-0.3,0.2-0.7,0.3-1c0.2-0.3,0.4-0.7,0.6-1
		c0.2-0.3,0.4-0.6,0.7-0.9c2.4-3.2,4.7-6.5,7-9.8c2.3-3.3,4.4-6.6,6.4-10.1c0-0.2,0.1-0.3,0.1-0.5c0-0.2,0-0.3,0-0.5
		c0-0.1,0-0.2,0-0.4c0-0.1,0-0.3,0-0.4c0.2-0.2,0.4-0.3,0.7-0.4c0.3-0.1,0.7,0,0.9,0.3c0.2,0.3,0.4,0.5,0.6,0.7
		c0.3,0.7,0.3,1.5,0,2.2c-0.3,0.6-0.6,1.3-1,1.9c-1.2,1.9-2.4,3.8-3.7,5.6l-4,5.7c0.9,0.3,1.8,0.8,2.5,1.5c0.8,0.7,1.4,1.5,1.9,2.4
		c0.6-0.8,1.3-1.6,2-2.3c0.7-0.7,1.4-1.2,2.3-1.6c0.6-0.3,1.2-0.5,1.8-0.5c0.6-0.1,1.2-0.1,1.8,0c0.8-1.2,1.7-2.4,2.6-3.5
		c1-1.1,2-2.2,3-3.3s2.1-2.1,3.2-3.2l3.1-3c0.4-0.3,0.9-0.3,1.3,0c0.4,0.3,0.9,0.5,1.2,0.8c0.2,0.3,0.4,0.6,0.4,1
		c0,0.4,0,0.7-0.1,1.1c-0.5,1.3-1,2.5-1.7,3.7c-0.6,1.2-1.2,2.5-1.6,3.8c-0.2,0.7,0,1.5,0.5,2.1c0.5,0.4,1,0.7,1.4,1s1,0.7,1.5,1
		s1.4,1,2.1,1.5c0.7,0.5,1.3,1.1,1.9,1.7c0.6,0.6,1.1,1.3,1.4,2C189.6,57.7,189.8,58.5,189.8,59.4z M168.4,53.7
		c-1.4,2.9-2.4,5.9-3,9c0,0.3,0.1,0.5,0.3,0.7c0.2,0.1,0.5,0.2,0.7,0.1c0.3-0.2,0.6-0.4,0.8-0.8c0.4-1.4,0.7-2.8,1-4.2
		C168.4,56.9,168.5,55.3,168.4,53.7z M183,64.5c-0.2,0.5-0.7,0.7-1.2,0.8c-0.3-0.1-0.5-0.1-0.8-0.1c-0.2,0-0.5-0.1-0.7-0.2
		c0.2-0.2,0.3-0.5,0.4-0.8c0-0.2,0-0.5-0.2-0.7c-0.8-0.7-1.7-1.3-2.7-1.7c-1-0.4-1.9-0.9-2.9-1.4l-0.2-0.2c-0.1-0.1-0.2-0.2-0.3-0.3
		c-0.1-0.1,0-0.3,0.1-0.4c0.5-0.3,1.1-0.5,1.7-0.5c0.6,0,1.1,0.2,1.7,0.4c0.8,0.3,1.7,0.7,2.4,1.3c0.7,0.5,1.4,1.1,2.1,1.7
		c0.2,0.3,0.4,0.6,0.5,1C183.1,63.7,183.2,64.1,183,64.5z"/>
	<path class="st3" d="M239.1,63.3c0,0.4,0,0.7-0.2,1c-0.4,0.6-0.9,1-1.6,1.1c-0.6,0.1-1.3,0.3-2,0.4c-0.9,0.1-1.7,0.2-2.6,0.3
		s-1.7,0.2-2.7,0.3c0.9-0.6,1.8-1.1,2.8-1.6c0.4-0.2,0.8-0.5,1.1-0.7c0.3-0.2,0.6-0.4,0.9-0.6c-1.1-1.1-2.4-1.8-3.8-2.2
		c-1.5-0.4-3-0.6-4.5-0.8c-0.1,1.1-0.1,2.3,0,3.4c0.1,1.3,0.2,2.7,0.2,4c0,0.7-0.1,1.5-0.3,2.2c-0.2,0.7-0.5,1.4-0.9,2
		c-0.4,0.3-0.9,0.3-1.4,0.2c-0.4-0.2-0.8-0.3-1.3-0.5c-0.3-0.2-0.6-0.3-0.9-0.3c-0.7-0.4-1.3-0.8-1.8-1.1c-0.5-0.3-1.1-0.7-1.6-1.1
		c-0.6-0.4-1.2-0.8-1.7-1.2c-0.6-0.4-1-1-1.5-1.5c-1.5,0.1-3.1,0-4.6-0.3c-1.5-0.3-2.9-1.3-3.6-2.6c0-0.3,0.1-0.7,0.2-1
		c0.1-0.3,0.3-0.5,0.6-0.6c0.7-0.1,1.5,0,2.1,0.3c0.7,0.3,1.3,0.5,2,0.8c0.7,0.3,1.3,0.5,2,0.6c0.7,0.2,1.4,0.2,2.1,0.1
		c1.2-0.5,2.4-1.1,3.6-1.8c1.1-0.7,2.3-1.4,3.4-2c0-0.5,0-1.2,0.1-2s0.1-1.5,0.1-2.2c-0.4,0.1-0.7,0.3-1.1,0.5
		c-0.3,0.2-0.7,0.4-1.1,0.5c-0.4,0.2-0.8,0.3-1.2,0.4c-0.4,0.1-0.8,0.1-1.2,0c-0.3-0.1-0.7-0.3-0.9-0.6c-0.3-0.3-0.5-0.6-0.6-0.9
		c-0.4,0.1-0.9,0.1-1.3,0c-0.4-0.1-0.8-0.5-0.8-0.9c-0.2-1-0.3-2.1-0.1-3.1c0.2-1,0.5-2,0.9-2.9c0.6-1.3,1.3-2.5,2.2-3.7
		c0.8-1.2,1.8-2.4,2.7-3.6c-2.4,1.1-4.8,2.3-7.1,3.7c-2.3,1.3-4.6,2.7-6.9,4c-1.4,0.8-2.8,1.3-4.4,1.6c-1.6,0.4-3.2,0.1-4.6-0.7
		c-0.4-0.3-0.8-0.8-1-1.3c-0.1-0.4-0.2-0.9-0.1-1.4c1.2,0.6,2.6,0.7,3.9,0.3c1.3-0.4,2.6-0.8,3.8-1.3c3.3-1.9,6.7-3.7,10-5.4
		s6.8-3.4,10.3-5.1c-0.4-0.3-0.9-0.5-1.4-0.6c-0.5-0.1-1-0.3-1.4-0.5c-0.4-0.2-0.9-0.3-1.3-0.6c-0.4-0.2-0.8-0.5-1.1-0.9
		c-0.1-0.4,0-0.8,0.1-1.2c0.1-0.4,0.4-0.8,0.8-1c0.5-0.3,0.9-0.7,1.3-1.1c-0.6,0.1-1.3,0.2-1.9,0.2c-0.6,0-1.3-0.1-1.8-0.5
		c0,0.5-0.1,1-0.2,1.5c-0.2,0.5-0.5,0.8-1,1c-0.3,0.1-0.6,0.1-0.8-0.1c-0.2-0.2-0.4-0.4-0.5-0.6c-0.5-2.4-0.8-4.8-1.1-7.4
		c-0.3-2.6-0.7-5.2-1.3-7.8c-0.2-1.1-0.6-2.2-1-3.2c-0.4-1.1-1.3-2-2.3-2.5c-0.4-0.1-0.7-0.2-1.1-0.4c-0.3-0.2-0.4-0.4-0.2-0.7
		c0.3-0.6,0.9-0.9,1.5-0.8c0.7,0,1.3,0.1,1.9,0.2c1.3,0.4,2.4,1.3,3,2.5c0.6,1.2,1.1,2.5,1.4,3.9c1.5-1.7,3.2-3.3,5.1-4.5
		c1.8-1.3,3.8-2.3,6-2.9c0.9-0.1,1.7,0,2.5,0.4c0.8,0.4,1.4,0.9,2,1.5c0.5,0.5,0.8,1.2,1,1.9c0.1,0.6,0.2,1.3,0.1,1.9
		c0,1-0.2,2-0.5,3c-0.3,1-0.5,2-0.7,2.9c-0.5,2.5-1.8,4.8-3.5,6.6c-1.8,1.9-3.8,3.8-5.9,5.4c0.4,0.4,0.9,0.6,1.5,0.6
		c0.6,0.1,1.1,0.3,1.6,0.6c0.8,0.3,1.4,0.9,1.8,1.7c0.8-0.3,1.6-0.6,2.4-1c0.7-0.4,1.5-0.6,2.3-0.7c0.4-0.1,0.9,0,1.3,0.2
		c0.5,0.2,0.9,0.6,1.1,1c0.1,0.5,0,0.9-0.4,1.3c-0.3,0.3-0.7,0.6-1.1,0.8c-1.4,0.6-2.8,1.2-4.2,1.8c-1.4,0.6-2.8,1.3-4,2.2
		c-0.8,0.6-1.5,1.2-2.1,1.9c-0.7,0.8-1.3,1.7-1.8,2.7c1.5-0.9,3-1.7,4.6-2.3c1.5-0.7,3.2-1.1,4.9-1.2c0.7,0.2,1.3,0.5,1.7,1
		c0.5,0.5,0.9,1,1.3,1.6c0.2,0.4,0.3,0.9,0.1,1.4c-0.1,0.4-0.4,0.8-0.6,1.2c-0.2,0.2-0.4,0.5-0.6,0.7c-0.2,0.2-0.5,0.4-0.7,0.6
		s-0.4,0.5-0.6,0.8c-0.2,0.2-0.5,0.5-0.7,0.8c0.3,0.2,0.6,0.3,0.9,0.4c0.3,0.1,0.5,0.4,0.6,0.7c0.2,0.5,0,1.1-0.4,1.4
		c-0.4,0.3-0.9,0.6-1.3,0.9l-1.7,1c-0.7,0.4-1.3,0.8-1.9,1.2c-0.2,0.6-0.3,1.2-0.4,1.8c0,0.6,0,1.3,0,1.9c1.3-0.1,2.6-0.1,3.8,0
		c1.3,0.1,2.5,0.3,3.7,0.7c1.9,0.5,3.6,1.6,4.9,3.2c0.1,0.2,0.1,0.4,0.1,0.5C239.1,62.9,239.1,63.1,239.1,63.3z M223.2,68.4
		c0-1.1,0-2.3,0-3.6c0-1,0-1.9-0.2-2.9c-1,0.6-2,1.3-3,2c-1,0.7-2,1.4-3,2.1c1,0.6,2,1.1,3.1,1.5C221.1,67.9,222.2,68.2,223.2,68.4z
		 M229.9,11.8c-0.3-0.5-0.9-0.8-1.5-0.6c-1,0.3-2.1,0.7-3,1.3c-1,0.6-2,1.2-2.9,2c-0.9,0.8-1.8,1.6-2.7,2.4
		c-0.8,0.8-1.7,1.6-2.6,2.4c0,0.2,0,0.5,0.1,0.7c0.1,0.2,0.1,0.5,0.2,0.7c0.2,0.6,0.3,1.2,0.4,1.7c0.7-0.9,1.5-1.7,2.5-2.4
		c0.9-0.6,1.7-1.3,2.6-1.9c1-0.5,2.1-1,3.1-1.6c1.1-0.5,2.3-0.6,3.5-0.3c0.2-0.8,0.3-1.5,0.5-2.2C230.3,13.3,230.2,12.5,229.9,11.8
		L229.9,11.8z M228.5,19.9c-0.3-0.2-0.7-0.3-1.1-0.2c-0.5,0.1-0.9,0.3-1.4,0.5l-1.4,0.8c-0.5,0.3-0.9,0.6-1.4,0.9s-1,0.7-1.4,1
		s-0.9,0.7-1.4,1.1c-1.1,0.8-1.8,1.9-1.9,3.2c0.5,0.4,1,0.5,1.6,0.5c0.5-0.1,1.1-0.2,1.5-0.5c1.5-0.8,2.9-1.9,4.1-3.1
		C227.1,23,228,21.6,228.5,19.9L228.5,19.9z M229.6,45.1c0-0.3-0.2-0.4-0.5-0.5c-0.3-0.1-0.6,0-0.8,0.1c-1.4,0.6-2.8,1.2-4.4,2
		c-1.5,0.7-2.8,1.8-3.9,3.1c-1.1,1.3-1.6,3-1.4,4.6c2.1-1.2,4.1-2.6,6-4.1C226.6,48.9,228.3,47.1,229.6,45.1L229.6,45.1z
		 M251.9,64.6c-1.5,4.9-4.2,9.4-7.8,13.1c-2.8,2.9-6,5.3-9.7,7c-0.1,0.1-0.2,0-0.3-0.1c-0.1-0.1-0.1-0.3,0-0.4c0,0,0,0,0,0
		c1.6-1.4,3.2-2.9,4.6-4.5c1.4-1.5,2.6-3.1,3.8-4.7c1.5-2.1,2.9-4.3,3.9-6.6c1.1-2.4,1.8-4.9,2.3-7.4c0.2-1.5-0.2-3-1.1-4.1
		c-0.8-1.2-1.6-2.3-2.3-3.4c-0.7-1.1-1.3-2.3-1.9-3.6c-0.3-0.8-0.6-1.7-0.7-2.6c-0.1-0.9,0.1-1.9,0.6-2.7c0.5-0.9,1.1-1.9,1.6-3
		c0.5-1.1,0.9-2.2,1.1-3.3c-0.2-0.7-0.6-1.3-1.1-1.8c-0.5-0.5-1-1.1-1.5-1.6s-1-1-1.6-1.5c-0.5-0.5-1-1-1.4-1.6
		c-0.6-0.9-0.7-2-0.1-2.9c0.3-0.7,0.7-1.5,1.1-2.2c0.4-0.7,0.9-1.5,1.4-2.2s1-1.5,1.4-2.2s0.9-1.4,1.4-2.1c0.3-0.7,0.1-1.6-0.4-2.1
		c-0.6-0.8-1.3-1.5-2.1-2.1c-0.8-0.7-1.6-1.3-2.3-1.9c-0.2-0.1-0.3-0.4-0.2-0.8c0-0.3,0.2-0.7,0.4-0.9c0.5-0.2,0.9-0.4,1.4-0.4
		c0.5,0,1.1,0.1,1.5,0.4c0.9,0.6,1.7,1.4,2.4,2.2c0.7,0.9,1.4,1.8,1.9,2.8c0.5,0.7,0.8,1.5,1.1,2.3c0.3,0.8,0.2,1.8-0.3,2.5
		c-0.4,0.6-0.8,1.2-1.3,1.8l-1.4,1.6c-0.5,0.5-1,1.1-1.4,1.7c-0.5,0.6-1,1.3-1.4,2c-0.1,0.3-0.2,0.7-0.2,1c0,0.3,0,0.7,0.1,1
		c0.3,0.4,0.6,0.8,0.9,1.1c0.3,0.4,0.7,0.7,1,1.1s0.8,0.7,1.1,1.1c0.4,0.3,0.7,0.7,1,1.1c0.6,0.7,1.1,1.4,1.4,2.3
		c0.3,0.8,0.4,1.7,0.2,2.6c-0.4,1.2-1,2.3-1.6,3.4l-2,3.5c-0.1,1.1,0.2,2.1,0.7,3c0.5,0.9,1.1,1.7,1.8,2.5l0.7,0.8
		c0.2,0.3,0.4,0.5,0.7,0.8c1.4,1.3,2.4,2.9,2.8,4.7C252.6,60.8,252.5,62.8,251.9,64.6L251.9,64.6z"/>
	<path class="st3" d="M311.2,36.5c-0.4,0.4-0.9,0.9-1.4,1.2c-0.5,0.4-1.1,0.7-1.7,1c-0.6,0.3-1.2,0.6-1.8,0.9l-1.8,1
		c-2.3,1.4-4.5,3-6.7,4.6c-2.2,1.6-4.6,3.5-7.2,5.7c1.3-0.5,2.4-0.8,3.3-1.1c0.8-0.2,1.7-0.4,2.5-0.5c0.7,0,1.3,0.1,2,0.2
		c0.6,0.2,1.2,0.5,1.7,0.9c1.2,1,2.3,2.1,3.3,3.3c1,1.2,1.4,2.8,1.3,4.4c0.1,2.8,0.2,5.4,0.1,7.8c0,2.5-0.2,5-0.6,7.5
		c-0.3,0.6-0.6,1.1-1,1.5c-0.4,0.4-0.9,0.7-1.5,0.7c-1.7-0.3-3.3-1-4.7-2.2l-4-3.3l-1.1-1.1c-0.4-0.4-0.7-0.8-1-1.2
		c-0.7-0.7-1.4-1.4-1.9-2.2c-0.5-0.8-0.8-1.8-0.8-2.8c0.5-1.1,1.4-1.9,2.5-2.3c1.1-0.4,2.2-0.8,3.3-1.1c1.1-0.3,2.3-0.5,3.5-0.5
		c1.2-0.1,2.4,0.1,3.6,0.6c0-0.3,0-0.6,0-0.9c0-0.3,0-0.7,0-1c0-1-0.2-1.9-0.5-2.8c-0.3-0.9-1.1-1.7-2-2.1c-0.7-0.3-1.6-0.5-2.4-0.3
		c-0.8,0.1-1.6,0.4-2.4,0.6c-0.8,0.3-1.5,0.7-2.2,1.1c-0.7,0.5-1.4,1.1-2,1.7h-0.2l-0.2-0.2c0.1-0.7,0.2-1.5,0.4-2.2
		c0.1-0.7,0.3-1.5,0.6-2.2c-0.3,0.1-0.6,0.3-0.8,0.5c-0.2,0.2-0.5,0.5-0.6,0.7c-0.4,0.6-0.8,1.1-1.2,1.7c-0.8,2.3-1.3,4.7-1.5,7.1
		c-0.3,2.5-0.2,5.1,0.2,7.6c0.4-0.3,0.7-0.6,1-0.8c0.2-0.2,0.5-0.4,0.8-0.5c-0.1,0.4-0.1,0.9-0.1,1.4c0,0.5,0,1-0.1,1.4
		c0,0.5-0.1,1-0.2,1.4c-0.1,0.4-0.4,0.8-0.8,1c-0.8,0.2-1.6,0-2.2-0.5c-0.9-0.9-1.5-2.1-1.9-3.3c-0.4-1.3-0.5-2.6-0.5-4
		c0-1.4,0.1-2.7,0.3-4.1c0.2-1.3,0.5-2.6,0.8-3.8c0.3-1.4,1-2.8,1.9-3.9c0.9-1.2,2-2.2,3.1-3.2c1.9-1.8,3.9-3.5,6-5.1
		s4.4-3.4,7.1-5.4c-1,0.3-2.1,0.7-3.3,1.2s-2.2,0.9-3.2,1.4s-1.9,0.9-2.8,1.3c-0.8,0.4-1.4,0.7-1.8,0.8l-3.7,1.8
		c-1.4,0.7-2.9,1.5-4.4,2.3l-4.4,2.3c-1.4,0.8-2.7,1.4-3.7,1.9c-0.7,0.3-1.4,0.6-2.2,1c-0.7,0.4-1.5,0.7-2.3,0.9
		c-0.7,0.2-1.5,0.3-2.3,0.3c-0.8,0-1.6-0.3-2.3-0.8c-0.3-0.2-0.4-0.7-0.2-1.4c0.2-0.2,0.4-0.4,0.6-0.4c0.3-0.1,0.5-0.1,0.8-0.3
		c0.2,0,0.3-0.1,0.5-0.2c4.1-1.8,8.2-3.7,12.3-5.6c4.1-1.9,7.9-4.3,11.4-7.1c1.6-1.3,3.1-2.8,4.5-4.3c1.4-1.6,2.7-3.4,3.9-5.1
		c0.1-0.1,0.2-0.2,0.2-0.4v-0.4c0.1-0.4-0.1-0.6-0.3-0.6c-2.2,1.1-4.2,2.6-5.9,4.3c-1.8,1.8-3.6,3.5-5.3,5.1
		c-0.4,0.3-0.7,0.5-1.1,0.7c-0.4,0.2-0.8,0.2-1.2,0c-0.7-0.4-1.1-1-1.3-1.8c0.1-2.1,0.7-4.1,1.7-5.9c1.1-2,2.3-3.9,3.6-5.7l-1.9,0.7
		c-0.5,0.2-1,0.4-1.5,0.6c-0.5,0.2-1,0.4-1.5,0.5c-0.5,0.1-1,0.2-1.4,0.3c-0.7,0.1-1.5,0.1-2.2,0.1c-0.7-0.1-1.4-0.3-2.1-0.6
		c-0.3-0.4-0.5-0.9-0.6-1.3c-0.1-0.4-0.1-0.9,0-1.3c0.5-0.7,1-1.3,1.7-1.9c0.7-0.6,1.4-1.1,2.2-1.6c1.6-1.1,3.2-2.3,4.9-3.5
		c1.7-1.2,3.3-2.6,4.8-4c-1.2-0.4-2.4-0.9-3.7-1.5c-1.2-0.5-2.2-1.5-2.8-2.7c0-0.3,0.2-0.6,0.4-0.8c0.2-0.2,0.5-0.4,0.7-0.6
		c0.8,0,1.6,0.2,2.3,0.6l2,1.3c0.4,0.3,1,0.6,1.5,0.7c0.5,0.3,1.2,0.5,1.8,0.6c0.6,0.1,1.3,0.2,1.9,0.4c0.4,0.2,0.8,0.4,1.2,0.6
		c0.4,0.3,0.7,0.6,0.9,1c0.1,0.4-0.2,0.9-0.5,1.1l-1,0.8c-2.3,0.6-4.5,1.5-6.6,2.8c-1.4,0.8-2.8,1.8-4.1,2.8c-1.3,1-2.6,2.1-4,3.1
		c0,0.5,0.3,0.7,0.8,0.7c3.3-1,6.5-2.3,9.6-3.8c3.1-1.5,6.2-3,9.4-4.7c0.4-0.1,0.7-0.1,1.1-0.1c0.4,0.1,0.7,0.2,1,0.4
		c0.3,0.3,0.4,0.6,0.5,1c0,0.3,0,0.7-0.1,1c-0.4,0.5-0.9,0.9-1.5,1.2c-0.7,0.4-1.5,0.9-2.4,1.3s-1.7,0.8-2.6,1.2
		c-0.7,0.3-1.3,0.6-1.9,1c-0.8,0.5-1.5,1-2.1,1.6c-0.7,0.7-1.3,1.4-1.7,2.3c-0.1,0.2-0.3,0.5-0.5,1s-0.5,0.9-0.7,1.4
		s-0.6,1.2-0.9,1.9c-0.3,0.7-0.6,1.4-0.9,2.2c1.2-0.8,2.3-1.6,3.3-2.3c1-0.8,2-1.5,3-2.3c0.9-0.7,1.9-1.3,2.9-1.9
		c1-0.6,2.1-1.1,3.2-1.6c0.4-0.2,0.9-0.2,1.3,0c0.4,0.1,0.8,0.3,1.2,0.6c0.8,0.9,1,2.3,0.4,3.4c-1.1,1.8-2.5,3.6-4,5.1
		c-1.8,1.8-3.6,3.5-5.6,5c1.6-0.6,2.9-1.2,4.1-1.7l3.3-1.4c2-0.7,4.1-1.4,6.3-2c0.5-0.1,1.1-0.1,1.6,0c0.5,0.1,1,0.4,1.4,0.8
		c0.3,0.2,0.6,0.5,0.7,0.9C311.7,35.9,311.5,36.3,311.2,36.5z M299,63.4c0.1-0.3,0-0.5-0.2-0.7c-0.2-0.2-0.4-0.4-0.7-0.4
		c-1.1,0.2-2.2,0.4-3.3,0.7c-1,0.3-2,0.6-2.9,1c-0.2,0.1-0.4,0.3-0.6,0.5c-0.2,0.3-0.3,0.7-0.1,1c0.4,0.7,0.9,1.3,1.5,1.8
		c0.6,0.6,1.3,1.2,2,1.6c0.4-0.5,0.8-1,1.2-1.5c0.4-0.4,0.8-0.8,1.1-1.3c0.4-0.4,0.7-0.9,1.1-1.3C298.5,64.4,298.8,63.9,299,63.4z
		 M301.2,68.2c0.1-0.5,0.1-1,0.1-1.5c0-0.6-0.1-1.2-0.2-1.8c-0.5,0.5-1,1-1.6,1.3l-0.7,0.6c-0.2,0.2-0.5,0.3-0.7,0.5
		c-1,0.6-2.1,1.3-3,2.1c0.2,0.3,0.5,0.5,0.8,0.7c0.3,0.2,0.6,0.4,0.8,0.6c0.2,0.2,0.5,0.4,0.8,0.5l0.8,0.4c0.5,0.2,1,0.2,1.4,0.2
		c0.5,0,0.9-0.3,1.2-0.7l0.1-1.5L301.2,68.2z"/>
	<path class="st3" d="M344.7,63c-0.8,0.8-2,1.3-3.1,1.3c-1.1,0.1-2.3-0.1-3.3-0.5c-2-1.3-3.6-3.1-4.8-5.2c-1.1-2.1-1.9-4.3-2.3-6.6
		c-0.4-2.4-0.5-4.8-0.3-7.2c0.2-2.3,0.6-4.7,1.2-7c1-3.7,2.6-7.3,4.7-10.4c0.3-0.5,0.9-0.9,1.5-0.9c0.5-0.1,1.1,0.2,1.2,0.8
		c0,0.1,0,0.1,0,0.2c0.1,1.1-0.1,2.1-0.6,3.1c-0.5,0.9-0.9,1.9-1.3,2.8c-1.1,2-1.9,4.2-2.4,6.5c-0.6,2.4-0.8,4.8-0.8,7.3
		c0,2.1,0.3,4.2,0.8,6.3c0.5,2,1.3,3.9,2.4,5.7c0.9,1.4,2.6,2.2,4.2,2c0.5-0.3,0.9-0.8,1.1-1.3c0.2-0.5,0.5-1,0.7-1.5
		c0.2,0.4,0.3,0.9,0.5,1.4c0.1,0.6,0.2,1.1,0.3,1.7c0,0.3,0.1,0.6,0.1,0.9C344.7,62.4,344.8,62.7,344.7,63z M377.9,73.7
		c0,0.4-0.1,0.8-0.2,1.2c-0.1,0.3-0.3,0.6-0.6,0.7c-1.1,0.1-2.1-0.1-3-0.7c-0.9-0.6-1.8-1.3-2.5-2c-0.3-0.3-0.6-0.6-0.8-0.8
		s-0.5-0.6-0.8-0.9c-1.2-1.3-2.6-3-4.2-5s-3-4.2-4.5-6.4c-1.4-2.2-2.6-4.5-3.6-6.8c-0.9-2-1.5-4.1-1.8-6.2c1.3,2.4,2.7,4.8,4.2,7.1
		c1.5,2.3,3,4.5,4.6,6.8c1.2,1.6,2.5,3.2,3.9,4.6c1.5,1.5,3.2,3,5.1,4.7c-0.4-7-0.6-13.8-0.6-20.5c0-6.7,0.1-13.5,0.3-20.5
		c-0.3-0.8-0.8-1.4-1.5-1.8c-1.7-0.2-3.4-0.1-5,0.4c-1.6,0.5-3.2,0.9-5,1.3l-2.3,0.9c-1,0.4-1.9,0.8-2.9,1.3c1.4,3.6,2.9,7,4.4,10.1
		c1.3,2.7,2.9,5.2,4.9,7.5c0.5,0.6,1,1.1,1.6,1.6c0.5,0.5,1.1,0.9,1.8,1.3c0.3,0.2,0.7,0.3,1.1,0.3c0.6-0.1,1.2-0.4,1.7-0.8
		c0.2-0.2,0.5-0.3,0.7-0.4c0.1,0.5,0,1-0.1,1.4c-0.6,1.3-1.9,2.1-3.4,2.2c-1.3-0.1-2.6-0.6-3.6-1.4c-1-0.8-1.9-1.7-2.7-2.6
		c-1.6-1.9-2.9-4-4.1-6.2c-1.4-2.5-2.7-5.2-3.8-7.8c-0.3,0.4-0.5,0.9-0.7,1.4c-0.2,0.4-0.3,1-0.5,1.6c-0.6,1.9-1.2,3.8-2,5.6
		c-0.7,1.6-1.5,3.2-2.4,4.8c-0.7,1.1-1.6,2.1-2.6,3c-1,0.9-2.3,1.4-3.6,1.5c-1.5,0-2.9-0.8-3.7-2.1c-0.2-0.4-0.2-0.9-0.2-1.4
		c0.3,0.1,0.5,0.2,0.7,0.4c0.2,0.2,0.4,0.3,0.7,0.4c0.4,0.2,0.8,0.4,1.2,0.4c0.4,0,0.9-0.1,1.3-0.3c0.9-0.5,1.6-1.2,2.2-2
		c0.6-0.8,1.1-1.5,1.5-2.1c0.4-0.6,0.8-1.3,1.1-1.9c0.5-0.9,1-2,1.4-3.1s1-2.2,1.4-3.3c0.5-1.1,1-2.1,1.5-3.1c0.4-0.8,1-1.6,1.6-2.3
		l-0.5-1.2l-1.2,0.6c-0.4,0.2-0.7,0.4-1,0.5c-1.4,0.8-2.7,1.7-4,2.7c-1.3,1-2.6,2.1-3.7,3.3c-0.3,0-0.5-0.1-0.5-0.4
		c0.2-1.8,0.8-3.4,1.9-4.8c0.7-0.9,1.6-1.7,2.6-2.4c1-0.7,1.9-1.3,2.8-1.8c0.3-0.1,0.6-0.3,0.8-0.4l0.8-0.5
		c-0.4-1.5-0.9-3.1-1.4-4.9c-0.5-1.8-1.2-3.5-1.9-5.2c-0.7-1.6-1.6-3.2-2.6-4.6c-1-1.4-2.2-2.5-3.7-3.2l-0.6-0.8
		c-0.2-0.2-0.3-0.4-0.4-0.6c-0.1-0.1-0.1-0.3,0-0.5c0.1-0.2,0.2-0.3,0.3-0.5c2,0.2,3.8,1,5.3,2.3c1.5,1.3,2.8,2.9,3.9,4.6
		c1.1,1.9,2,3.8,2.8,5.8c0.8,2.1,1.4,4,2,5.8c1.3-0.6,2.5-1.1,3.8-1.7s2.4-0.9,3.3-1.2c1.1-0.3,2.3-0.6,3.5-0.9
		c1.2-0.3,2.5-0.4,3.7-0.4c1.2,0,2.4,0.2,3.5,0.5c1.1,0.4,2.1,1.1,2.9,2c0.3,0.4,0.6,0.8,0.8,1.2c0.2,0.4,0.3,0.9,0.2,1.3
		c-0.7,7.5-1,15.1-0.9,22.7C376.5,58.7,377,66.2,377.9,73.7z"/>
	<path class="st3" d="M438.7,73.6c0,0.5-0.3,0.9-0.7,1.2c-0.4,0.2-0.9,0.3-1.3,0.4c-0.3,0.1-0.6,0.1-0.9,0.1h-0.9h-0.8
		c-0.3,0-0.5,0.1-0.8,0.2c-1.2,0-2.6,0-4.1,0s-3,0.2-4.4,0.3c0.8-0.4,1.7-0.8,2.5-1.1c0.8-0.3,1.6-0.7,2.5-1.1
		c-0.7-0.3-1.3-0.5-1.7-0.7s-1-0.3-1.4-0.5c-1-0.4-2-1-2.9-1.6c-0.9-0.7-1.5-1.6-1.8-2.7c0.1-1.6,0.6-3.2,1.5-4.5
		c0.9-1.3,1.7-2.7,2.3-4.2c0-0.4-0.2-0.9-0.7-1c-2.2,0.6-4.3,1.7-6,3.3c-1.7,1.5-3.3,3.2-4.7,5c-0.3,0.4-0.4,0.9-0.5,1.4
		c0,0.5-0.1,0.9-0.2,1.4c-0.1,0.5-0.3,1-0.6,1.4c-0.3,0.4-0.9,0.7-1.4,0.6c-0.7-0.5-1.2-1.4-1.4-2.3c-0.2-0.9-0.4-1.8-0.7-2.7
		c-0.2-1.4-0.4-2.8-0.6-4.2c-0.2-1.4-0.2-2.8,0-4.2c0.2-0.4,0.6-0.8,1-0.9c0.4-0.2,0.9-0.3,1.3-0.4c3.8-1.3,7.5-2.9,11.1-4.6
		c3.7-1.7,7.3-3.8,10.7-6.2c-0.3-0.2-0.7-0.4-1.1-0.5c-0.4-0.1-0.7-0.2-1.1-0.2h-1c-0.3,0-0.7,0-1,0.1c-2.4,0.1-4.8,0.4-7,1.1
		c-2.2,0.6-4.4,1.4-6.5,2.3c-1.6,1.5-3.1,3-4.7,4.5s-3.1,2.9-4.7,4.2s-3.2,2.7-4.8,3.9c-1.6,1.2-3.3,2.3-5.1,3.2
		c-0.6,0.2-1.2,0-1.6-0.4c-0.3-0.4-0.3-0.9,0-1.4c0.3-0.5,0.6-0.9,0.9-1.3c2.5-1.8,4.8-3.6,7-5.4s4.4-3.7,6.7-5.7l3.3-3
		c1.3-1.1,2.5-2.3,3.9-3.5c1.3-1.2,2.6-2.4,3.8-3.6l3.1-2.9c0.2-0.2,0.4-0.4,0.7-0.6c0.3-0.2,0.5-0.5,0.6-0.8
		c-1.4-0.3-2.8-0.2-4.1,0.3c-1.2,0.5-2.4,1.1-3.7,1.7c-1.2,0.7-2.2,1.6-3,2.7c-0.8,1.1-1.7,2.2-2.7,3.1c-0.2,0.1-0.5,0.2-0.7,0.2
		h-0.7c-0.3-0.3-0.6-0.6-0.9-0.9c-0.3-0.3-0.4-0.7-0.3-1.2c0.2-0.9,0.6-1.8,1.2-2.5c0.6-0.7,1.1-1.4,1.6-2.2c0.8-1,1.4-2.2,1.5-3.5
		c-0.1-0.3-0.1-0.5-0.1-0.7c0-0.2-0.1-0.3-0.1-0.5c0-0.4,0-0.6,0.2-0.7c0.3-0.5,1-0.7,1.6-0.6c0.4,0,0.7,0.2,1.1,0.4
		c0.3,0.2,0.6,0.5,0.7,0.9c0.6,1.1,0.4,2.5-0.5,4.1c1.5-1,3.1-1.9,4.8-2.6c1.5-0.7,3.2-1.1,4.8-1.2c1.1-0.1,2.3-0.1,3.4,0.1
		c1.1,0.2,2.1,0.7,3.1,1.3c0.3,0.3,0.5,0.6,0.7,0.9c0.2,0.3,0.2,0.7,0.1,1.1c-0.2,0.3-0.5,0.5-0.9,0.7c-0.4,0.2-0.8,0.3-1.2,0.4
		c-0.5,0.1-0.9,0.1-1.4,0.1c-0.5,0-0.9,0.1-1.4,0.2c-1.3,0.6-2.5,1.4-3.5,2.4c-0.5,0.4-1,1-1.6,1.5l-1.9,2c2-0.4,4-0.8,6-1
		c2-0.2,3.9-0.2,5.9,0c1,0.1,2.1,0.3,3.1,0.5c1,0.2,2,0.8,2.5,1.8c0.1,0.3,0.2,0.7,0.2,1c0,0.3-0.1,0.7-0.4,0.9
		c-0.6,0.6-1.3,1.1-2.1,1.5c-0.7,0.4-1.5,0.7-2.2,1l-16.2,6.8c-0.9,0.4-1.8,0.8-2.6,1.1c-0.9,0.3-1.7,0.8-2.5,1.3
		c0.1,1.7,0.3,3.3,0.5,5c1-0.8,1.8-1.5,2.5-2s1.4-1.2,2.1-1.7s1.3-1.1,2-1.6s1.5-1.1,2.5-1.6c2.1-1.3,4.5-1.9,7-1.6
		c0.4,0.2,0.7,0.3,1.1,0.6c0.3,0.2,0.6,0.5,0.8,0.8c0.3,0.3,0.4,0.6,0.3,1c-0.1,0.4-0.2,0.7-0.3,1l-5.3,8.2l-0.2,0.3
		c-0.1,0.2-0.1,0.4-0.1,0.6c0,0.2,0.1,0.4,0.2,0.6c0.5,0.7,1.3,1.2,2.2,1.4c0.8,0.2,1.7,0.4,2.4,0.7c0.5,0.1,1,0.2,1.6,0.2
		c0.6,0,1.1,0.1,1.6,0.2c1.1,0.1,2.2,0.3,3.2,0.7C437.5,71.6,438.4,72.5,438.7,73.6z M434.4,22.4c0.2,0.5,0.1,1.1-0.1,1.6
		c-0.2,0.5-0.6,0.9-1,1.3c-1.4,1.3-3,2.4-4.5,3.5c-1.6,1.1-3.4,1.9-5.2,2.4c0,0-0.1-0.1-0.1-0.3c1.3-1,2.5-2.1,3.6-3.4
		c1-1.2,2-2.5,2.8-3.9c-0.3-0.5-0.9-0.7-1.5-0.6c-0.7,0-1.3,0.1-1.9,0.2c-4.4,1.1-8.6,3-12.3,5.6c-3.7,2.6-6.9,5.9-9.4,9.7
		c-0.3,0.3-0.8,0.5-1.2,0.6c-0.4,0.1-0.8,0.2-1.2,0c-0.6-0.3-1.1-0.9-1.1-1.6c-0.1-0.7-0.2-1.3-0.4-2c0.1-2,0.1-4,0-6.1
		c-0.2-2,0-4.1,0.4-6.1c0.2-0.4,0.4-0.8,0.6-1.2c0.2-0.4,0.6-0.7,1-0.8c0.2-0.1,0.5-0.2,0.8-0.2c0.3,0,0.6,0.1,0.8,0.2
		c0.4,0.2,0.5,0.6,0.3,1.1c-0.2,1.7-0.4,3.4-0.4,5.1c-0.1,1.8,0,3.5,0.3,5.2c1.8-1.5,3.5-3,5.3-4.4c1.8-1.4,3.7-2.7,5.6-3.8
		c1.9-1.1,4-2.1,6.1-2.9c2.2-0.8,4.4-1.3,6.7-1.5c1.2-0.1,2.4-0.1,3.5,0.2C432.9,20.7,433.9,21.4,434.4,22.4z M421.8,13.9
		c-0.5,0.8-1.2,1.5-1.9,2.1c-0.8,0.6-1.6,1-2.5,1.3c-0.9,0.4-1.9,0.7-2.9,0.9c-1,0.2-1.9,0.4-2.9,0.7c2.2-1.2,4.2-2.6,6-4.3
		c0.4-0.3,0.6-0.8,0.4-1.3c-0.1-0.4-0.3-0.7-0.5-1c-0.7-0.5-1.3-1-2.1-1.5l-2.2-1.3c-0.7-0.4-1.3-0.9-1.9-1.4
		c-0.6-0.5-1.1-1.1-1.6-1.7c0-0.3,0.1-0.6,0.2-0.9c0.1-0.3,0.2-0.6,0.4-0.8c0.1-0.3,0.6-0.3,1.4,0.1c1.8,0.9,3.5,1.9,5.2,2.9
		c1.7,1.1,3.3,2.4,4.6,4C422.1,12.3,422.2,13.2,421.8,13.9z"/>
	<path class="st2" d="M61.4,152.9c-0.8,0.4-1.7,0.6-2.6,0.6c-0.9-0.1-1.8-0.3-2.6-0.7c-0.4-0.2-0.8-0.4-1.2-0.6l-1.2-0.6
		c-2.9-1.5-5.8-3.2-8.6-4.9c-2.8-1.8-5.8-3.4-8.8-5.1c-0.2,0.2-0.4,0.4-0.7,0.5c-0.2,0.1-0.4,0.1-0.6,0c-0.2-0.1-0.4-0.3-0.5-0.6
		c0-0.3-0.1-0.5-0.1-0.8c-0.7-0.4-1.4-0.8-2.1-1.1c-0.7-0.4-1.5-0.5-2.3-0.3c-0.5,1-1.1,1.9-1.8,2.7c-0.7,0.9-1.5,1.8-2.3,2.6
		c-0.8,0.8-1.7,1.4-2.8,1.9c-1,0.5-2.1,0.7-3.2,0.7c-0.2-0.2-0.2-0.3-0.1-0.3c1.1-0.7,2.1-1.4,3-2.2c1-0.8,1.9-1.8,2.8-2.8
		c0.8-1,1.5-2.1,2-3.2c0.5-1.1,0.8-2.4,0.9-3.6c0.1-0.3,0.1-0.6,0.1-0.9c0-0.3,0-0.6,0-0.8c0.1-0.2,0.2-0.4,0.3-0.6
		c0.1-0.2,0.3-0.3,0.5-0.4c0.2,0,0.3,0.1,0.5,0.1c0.2,0.1,0.4,0.2,0.6,0.3c0.3,0.4,0.5,0.9,0.5,1.4c0,0.5,0,1.1-0.1,1.6
		c-0.1,0.2-0.1,0.5-0.2,0.8c-0.1,0.3-0.1,0.6-0.2,0.9c0.7-0.1,1.4-0.1,2.1,0.1c0.5,0.2,1.1,0.4,1.9,0.7c0.1-1.8,0.2-3.4,0.2-5
		c0-1.7,0.2-3.3,0.5-4.9c-1.1,0.5-2.2,0.9-3.2,1.4s-2.1,1-3.2,1.4c-1.1,0.4-2.1,0.7-3.3,0.9c-1.2,0.2-2.3,0.3-3.5,0.1
		c-0.2-0.1-0.3-0.2-0.5-0.3c-0.1-0.1-0.2-0.2-0.3-0.3c-0.1-0.1-0.2-0.3-0.2-0.4c0-0.4,0.2-0.5,0.5-0.4c2-0.4,3.9-1,5.8-1.7
		c1.9-0.7,3.7-1.4,5.4-2.3c1.8-0.9,3.5-1.8,5.2-2.8c1.7-1,3.4-2,5.1-3c0.1,0,0.3,0.1,0.5,0.1c0.2,0,0.3,0,0.4,0.1l0.4,0.2
		c0.1,0.1,0.2,0.2,0.3,0.4c0.1,0.3,0,0.6-0.1,0.8c-0.2,0.2-0.4,0.4-0.6,0.6c-0.1,0.1-0.1,0.1-0.2,0.2c-0.1,0.1-0.2,0.1-0.2,0.2
		l-2.7,1.6c-1,0.6-1.8,1.2-2.5,1.6c-0.5,0.5-0.8,1.2-0.9,2c-0.1,0.8-0.1,1.5-0.2,2.2c0,0.2,0,0.4,0,0.6c0,0.2,0,0.4,0,0.6
		c0,0.2,0,0.4,0,0.6c0,0.3,0.1,0.5,0.1,0.8c1.2-0.9,2.5-1.8,3.9-2.6c1.3-0.8,2.7-1.4,4.2-1.8c0.3,0.1,0.6,0.1,0.9,0.2
		c0.3,0.1,0.5,0.3,0.6,0.5c0.1,0.1,0,0.3-0.1,0.4l-0.3,0.3l-2.8,1.5c-0.9,0.5-1.9,1.1-2.8,1.7c-1.4,0.9-2.6,2-3.7,3.3
		c-0.1,0.3-0.1,0.7-0.2,1c-0.1,0.4-0.1,0.8-0.1,1.1c2.2,1,4.3,2.2,6.4,3.4c2,1.2,4,2.4,6.1,3.6c1.9,1.1,3.9,2.1,5.8,3.1
		c2,1,4,1.7,6.1,2.3c0.2,0,0.3,0.2,0.4,0.4C61.7,152.5,61.6,152.7,61.4,152.9z M42.9,107.9c0.6,1.7,0.7,3.6,0.1,5.4
		c-0.6,1.8-1.4,3.5-2.4,5c-1,1.2-2.1,2.3-3.2,3.3c-1.1,1-2.4,1.8-3.7,2.5c-0.4,0.2-0.9,0.4-1.3,0.5c-0.5,0.1-0.9,0.3-1.4,0.4
		c0.2-0.2,0.3-0.3,0.5-0.4c0.2-0.1,0.4-0.2,0.5-0.3l0.3-0.2l0.2-0.2c0.3-0.2,0.6-0.4,0.8-0.7c-0.2-0.2-0.4-0.4-0.5-0.7
		c-0.2-1.3-0.5-2.5-0.7-3.8s-0.5-2.5-0.8-3.7c-0.3-1.2-0.7-2.5-1.1-3.6c-0.4-1.2-1-2.4-1.7-3.5c-0.1-0.1-0.2-0.1-0.3-0.2
		c-0.1-0.1-0.2-0.2-0.3-0.3c-0.1-0.1-0.3-0.2-0.3-0.4c-0.1-0.2,0-0.4,0.1-0.5c0-0.2,0.1-0.3,0.4-0.4h0.6c0.3,0.1,0.6,0.2,0.9,0.2
		c0.3,0.1,0.5,0.3,0.8,0.5c0.9,1.3,1.6,2.7,2.2,4.1c0.5,1.5,1,3.1,1.2,4.6c0.3-0.3,0.6-0.5,0.8-0.7s0.4-0.4,0.7-0.6
		c0.6-0.5,1.2-0.9,1.9-1.3c0.7-0.3,1.5-0.4,2.2-0.2c0.1,0.1,0.2,0.1,0.3,0.1c0.1,0,0.2,0.1,0.3,0.1c0.2,0.2,0.4,0.4,0.6,0.6l0.4-1.3
		c0.2-0.4,0.3-0.8,0.3-1.2c0.1-0.4,0.1-0.8,0-1.2c0-0.4-0.2-0.8-0.5-1.1c-0.3-0.2-0.7-0.3-1.1-0.3c-0.4,0-0.8,0.1-1.1,0.1l-1.1,0.2
		c-0.4,0.1-0.8,0-1.1-0.1c-0.1,0-0.2-0.1-0.2-0.2c0-0.1,0-0.2,0.1-0.2c0.6-0.7,1.3-1.3,2.2-1.7c0.9-0.4,1.8-0.4,2.7-0.1
		c0.4,0.1,0.8,0.3,1.1,0.5C42.4,107.2,42.7,107.5,42.9,107.9L42.9,107.9z M38.9,115.6c-0.2-0.4-0.6-0.7-1-0.8
		c-0.9,0.5-1.7,1.1-2.4,1.9c-0.7,0.8-1,1.8-1,2.8c0.2,0.2,0.4,0.3,0.6,0.4c0.3,0.1,0.6,0.1,0.8-0.1c0.8-0.4,1.4-1,1.9-1.8
		C38.3,117.4,38.7,116.5,38.9,115.6L38.9,115.6z"/>
	<path class="st2" d="M108.2,126.2c-0.2,0.2-0.4,0.3-0.7,0.3l-0.5-0.1c-0.1,0-0.3,0-0.4,0c-0.6-0.2-1.2-0.4-1.8-0.7
		c-0.6-0.2-1.2-0.5-1.8-0.8c-0.6-0.3-1.2-0.5-1.8-0.7c-0.6-0.2-1.3-0.4-1.9-0.6c-0.2,1-0.6,1.9-1,2.8c-0.2,0.5-0.3,0.9-0.6,1.3
		c-0.2,0.4-0.4,0.9-0.6,1.4c0.1,0.2,0.2,0.3,0.3,0.5c0.1,0.2,0.1,0.3,0,0.5c-0.5,0.7-1.1,1.3-1.8,2s-1.3,1.3-2,1.9
		c-0.7,0.6-1.4,1.3-2.1,1.9l-2,1.8c-0.4,0.2-0.8,0.4-1,0.5c-0.4,0.2-0.8,0.2-1.2,0c-0.2,0.5-0.5,1-0.7,1.6s-0.4,1.1-0.5,1.4
		c0.3,0.3,0.6,0.6,1,0.9l0.9,0.8c0.4-0.7,0.9-1.4,1.6-1.9c0.7-0.5,1.3-1,2-1.5c1.1-0.7,2.2-1.3,3.4-1.9c1.2-0.6,2.4-1.1,3.6-1.4
		c0.3-0.1,0.6-0.1,0.9-0.1c0.3,0,0.6,0.1,0.8,0.4c0.2,0.2,0.3,0.5,0.3,0.7c0,0.3-0.1,0.5-0.1,0.8c-0.5,0.9-1,1.8-1.5,2.8
		c-0.6,0.9-1,1.9-1.4,2.9c0.3,0.7,0.8,1.2,1.4,1.5c0.6,0.3,1.3,0.5,1.9,0.8c0.4,0.1,0.8,0.2,1.3,0.3c0.4,0,0.8,0.1,1.3,0.2
		c0.4,0.1,0.8,0.2,1.2,0.4c0.4,0.2,0.7,0.5,0.9,0.8c0.1,0.3,0.1,0.6,0,0.9c-0.1,0.3-0.3,0.5-0.6,0.5c-0.6,0.3-1.2,0.4-1.8,0.5
		l-1.9,0.2l-2,0.1c-0.7,0.1-1.3,0.1-1.9,0.2l-1.8,0.3c-0.8,0.2-1.5,0.3-2,0.4c1-0.5,2-1,3.1-1.5s2.1-1.1,3.1-1.5l-1.9-1
		c-0.6-0.3-1.1-0.7-1.6-1.2c-0.3-0.3-0.5-0.7-0.7-1.1c-0.1-0.4-0.2-0.9-0.1-1.3c0.3-1.1,0.7-2.1,1.1-3.2c0-0.2,0-0.3-0.1-0.4
		c-0.1-0.1-0.3-0.2-0.4-0.1c-1.1,0.5-2.1,1-3.2,1.7c-1.1,0.6-2.1,1.4-2.9,2.4c-0.2,0.4-0.2,0.9-0.1,1.4l0.1,0.7
		c0,0.2,0.1,0.4,0.1,0.6c0.1,0.3,0.1,0.5,0,0.8c-0.1,0.3-0.3,0.5-0.5,0.7c-0.5-0.1-1-0.4-1.4-0.7c-0.4-0.4-0.7-0.7-1-1.2
		c-0.1-0.2-0.2-0.3-0.3-0.4c-0.1-0.1-0.2-0.3-0.3-0.4c-0.2-0.3-0.4-0.6-0.6-0.9c-0.2-0.3-0.5-0.6-0.8-0.9c-0.5,0.6-1,1.1-1.5,1.8
		c-0.5,0.6-1.1,1.1-1.7,1.5c-0.8,0.6-1.9,0.8-2.9,0.5c-0.5-0.2-0.8-0.4-0.8-0.8c0.5,0,0.9,0,1.4-0.2c0.4-0.2,0.8-0.4,1.1-0.7
		c0.6-0.5,1.1-1.1,1.6-1.7c0.5-0.6,0.9-1.3,1.2-1.9c-0.1-0.2-0.3-0.3-0.5-0.4c-0.1-0.1-0.3-0.2-0.5-0.3c-0.3-0.1-0.4-0.3-0.4-0.6
		c0.3-0.1,0.6-0.1,0.9-0.2c0.3-0.1,0.7-0.1,1,0c0.4-0.9,0.8-1.9,1.1-2.9c0.3-1,0.6-1.9,0.8-2.9c0.2-1,0.4-2,0.6-3s0.4-2.1,0.7-3.1
		c-0.2,0.1-0.4,0.1-0.5,0.2l-0.4,0.2c-0.4,0.2-0.8,0.4-1.2,0.6c-0.4,0.2-0.8,0.4-1.2,0.5c-0.4,0.2-0.9,0.2-1.4,0.1l-0.4-0.1
		c-0.1-0.1-0.2-0.1-0.4-0.2c-0.8,1.3-1.7,2.6-2.7,3.8c-1,1.2-2.1,2.2-3.4,3c-0.1,1.7-0.2,3.4-0.1,5.2c0.1,1.8,0.1,3.5,0,5.2
		l-0.4,0.2c-0.1,0.1-0.3,0.1-0.4,0c-0.7-0.7-1.4-1.4-2-2.2c-0.6-0.8-1.2-1.6-1.8-2.4c-0.6-0.8-1.2-1.6-1.8-2.4
		c-0.6-0.8-1.3-1.5-2.1-2.2c-0.4-0.3-0.8-0.5-1.3-0.4c-0.5,0.1-0.9,0.1-1.4,0c-0.3,0-0.6-0.1-0.8-0.4c-0.2-0.3-0.3-0.6-0.2-0.9
		c0.4-0.4,0.9-0.8,1.4-1.1c0.5-0.3,1-0.6,1.6-0.9c0.6-0.3,1.1-0.6,1.6-0.9c0.5-0.3,1.1-0.6,1.5-1c0.3-0.3,0.7-0.5,1-0.7
		c0.3-0.2,0.7-0.5,1-0.7l1-0.8c0.4-0.3,0.7-0.6,1-0.9c0-1.2,0.1-2.3,0.2-3.5c0.1-1.2,0.2-2.3,0.1-3.5c-1.5,1-3,1.9-4.5,2.7
		c-1.5,0.8-3,1.5-4.5,2.1c-0.7,0.3-1.5,0.3-2.3,0.2c-0.8-0.1-1.5-0.4-2-0.9c-0.5-0.5-0.7-1.1-0.6-1.8c0.1-0.2,0.2-0.4,0.3-0.6
		c0.1-0.2,0.3-0.3,0.5-0.4c0.2,0.4,0.5,0.7,0.8,1.1c0.3,0.4,0.8,0.5,1.2,0.3c1.2-0.2,2.3-0.6,3.5-1c1.1-0.5,2.2-1,3.3-1.6
		c0.9-0.5,1.7-1,2.5-1.6c0.8-0.5,1.6-1.1,2.4-1.7c0.1-0.9,0.2-1.8,0.3-2.7c0.1-0.9,0.1-1.8,0.3-2.7c0.1-0.9,0.2-1.7,0.4-2.6
		c0.2-0.8,0.4-1.6,0.7-2.4c0.1-0.2,0.2-0.4,0.3-0.5c0.1-0.2,0.3-0.3,0.5-0.3c0.2-0.1,0.5,0,0.7,0.1c0.2,0.2,0.3,0.3,0.5,0.5l0.5,0.8
		c0.1,0.2,0.4,0.4,0.6,0.6c0.7,0.6,1.5,1.2,2.4,1.6c0.8,0.4,1.7,0.7,2.5,1.1c0.1,0.1,0.2,0.2,0.2,0.3c0,0.1,0,0.3-0.1,0.4
		c-1.1,1.3-2.3,2.6-3.5,3.7c-1.3,1.2-2.6,2.3-4,3.4c-0.1,1.1-0.1,2.1-0.3,3.2c-0.1,1.1-0.1,2.2-0.1,3.3c0.9-0.7,1.7-1.5,2.5-2.3
		c0.9-0.9,1.7-1.9,2.4-2.8c-0.6,1.4-1.4,2.8-2.3,4c-0.9,1.2-1.8,2.4-2.8,3.6c0,0.6,0,1.4-0.1,2.4c0,1-0.1,1.9-0.1,2.6
		c0.5-0.5,1-1,1.5-1.5c0.4-0.5,0.8-1,1.2-1.5s0.8-1.1,1.1-1.6s0.7-1.1,1.1-1.6c2.8-4.4,5.2-9,7.1-13.8c-0.3,0.1-0.7,0.2-1,0.3
		c-0.4,0.1-0.7,0.2-1,0.4c0.3-0.5,0.7-1,1.2-1.4c0.5-0.4,1-0.6,1.5-0.9c0.5-1.1,1-2.2,1.5-3.3c0.5-1.1,1.2-2.2,2.2-3l0.9-0.3
		c0.3-0.1,0.6,0,0.8,0.3c0.2,0.3,0.2,0.7,0,1c-0.2,0.3-0.4,0.6-0.6,0.9c-0.2,0.2-0.3,0.4-0.4,0.7c-0.3,0.5-0.6,1.1-0.9,1.6
		c-0.3,0.6-0.6,1.2-0.8,1.8c1.2,0.2,2.4,0.6,3.5,1.2c1.1,0.6,2.1,1.3,3,2.1c0.3,0.3,0.7,0.6,1,0.8s0.6,0.5,1,0.8
		c1.5,1.3,3,2.6,4.4,3.9c1.4,1.3,2.8,2.7,4,4.2c0.1,0.2,0.1,0.4,0.2,0.6C108.3,125.9,108.3,126.1,108.2,126.2z M73.6,131.5l-1.5,1.3
		l-1.4,1.2c-0.4,0.4-0.9,0.7-1.4,1.1c-0.5,0.4-0.9,0.7-1.5,1.1c0.3,0.3,0.5,0.5,0.8,0.7l0.6,0.6c0.2,0.2,0.4,0.4,0.6,0.6
		c0.2,0.2,0.4,0.4,0.6,0.7c0.4,0.4,0.8,0.9,1.3,1.3c0.5,0.5,1,0.9,1.5,1.3c0-0.6,0-1.3,0.1-2.1s0-1.6,0.1-2.5s0-1.8,0.1-2.7
		S73.6,132.3,73.6,131.5L73.6,131.5z M81.3,112.7c-0.4-0.3-0.8-0.7-1.3-1.1c-0.5-0.4-1-0.7-1.5-1.1c-0.1-0.1-0.3-0.1-0.4-0.1
		c-0.2,0-0.4,0.1-0.4,0.3c-0.2,1-0.3,1.9-0.4,2.9c-0.1,1-0.2,2-0.3,3.1c0.3-0.3,0.6-0.6,1-0.9l1.1-1.1c0.4-0.4,0.8-0.7,1.2-1.1
		S81,113,81.3,112.7z M102.8,122.9c-0.7-0.7-1.3-1.3-1.9-1.9l-1.9-1.8c-1.2-1.2-2.6-2.2-3.9-3.3c-1.4-1-2.9-1.8-4.5-2.4l-2.4,5.1
		c0.6,0,1.3,0.1,1.9,0.3c0.6,0.2,1.1,0.3,1.7,0.5c0.3,0.2,0.6,0.4,0.8,0.7c0.2,0.3,0.3,0.6,0.2,0.9c0,0.2,0,0.3-0.2,0.5
		c-0.1,0.1-0.2,0.2-0.4,0.3c-0.6,0-1.3-0.1-1.9-0.3c-0.6-0.2-1.2-0.4-1.8-0.6c-0.2-0.1-0.4-0.1-0.6-0.2c-0.2-0.1-0.5-0.1-0.7-0.1
		c-0.3,0.6-0.6,1.2-1,1.8c-0.3,0.6-0.6,1.1-0.9,1.7c-0.3,0.6-0.6,1.1-1,1.7s-0.8,1.2-1.2,1.9c1.2-0.5,2.3-1.1,3.2-1.6l2.9-1.7
		c1.1-0.7,2.2-1.3,3.3-1.9c1.1-0.6,2.3-1.1,3.5-1.5c0.6-0.2,1.2,0,1.7,0.4c0.5,0.4,1,0.9,1.4,1.4c0.3,0,0.6,0.1,0.9,0.1
		c0.3,0,0.6,0.1,0.9,0.1c0.3,0,0.6,0.1,0.9,0.1C102.1,123,102.4,123,102.8,122.9z M91.8,133.2c-0.5,0.1-1.1,0.2-1.6,0.2
		c-0.5,0-1-0.1-1.3-0.5c-0.1,0.5-0.3,1.1-0.4,1.7s-0.3,1.2-0.4,1.6c0.6-0.4,1.2-1,2-1.6L91.8,133.2z M94.2,129.5
		c-0.5-0.2-1-0.2-1.5-0.2c-0.6,0.1-1.1,0.2-1.7,0.4c-0.4,0.2-0.9,0.4-1.3,0.6c-0.5,0.2-0.7,0.8-0.6,1.3c0.1,0.2,0.3,0.4,0.6,0.5
		l0.8,0.1c0.5-0.1,1-0.2,1.5-0.3c0.5-0.1,1-0.4,1.4-0.7C93.9,130.6,94.1,130.1,94.2,129.5L94.2,129.5z M96.7,123.8
		c0.1-0.2,0-0.4-0.2-0.5c-0.2-0.1-0.4-0.1-0.5,0c-1.1,0.6-2.2,1.2-3.3,1.8s-2.2,1.3-3.3,1.9c0.1,0.2,0.2,0.4,0.2,0.6l0.2,0.7
		c0.9-0.4,1.8-0.8,2.7-1c1-0.3,2-0.3,3,0c0.1-0.2,0.1-0.4,0.2-0.5c0-0.1,0.1-0.3,0.2-0.4l0.5-1.2C96.5,124.7,96.6,124.3,96.7,123.8
		L96.7,123.8z"/>
	<path class="st2" d="M127.3,113.4c0.3,0.8,0.4,1.7,0.3,2.6c-0.1,0.9-0.3,1.7-0.6,2.5c-0.6,1.6-1.2,3.1-1.9,4.6
		c-0.7,1.5-1.4,3-2.2,4.6c0.7,0.3,1.5,0.7,2.2,1.1c0.7,0.4,1.3,1.1,1.5,1.9c0.2,2.1,0.3,4.2,0.2,6.3c-0.1,2.1-0.2,4.2-0.4,6.3
		c0,0.4-0.1,0.8-0.3,1.2c-0.2,0.2-0.4,0.3-0.6,0.3c-0.2,0-0.5,0-0.7-0.2c-0.2-0.3-0.4-0.5-0.6-0.8c-0.2-0.3-0.2-0.7-0.2-1
		c0.2-2,0.3-3.9,0.4-5.8c0.1-2,0-3.9-0.2-5.9c-0.1-0.2-0.3-0.4-0.5-0.6c-0.1-0.2-0.4-0.4-0.6-0.4c-0.4-0.1-0.8-0.1-1.1,0.1
		c-0.3,0.2-0.6,0.5-0.8,0.8c-0.1,0.2-0.2,0.3-0.4,0.5l-0.3,0.5c-0.1,0.2-0.2,0.4-0.3,0.5c-0.1,0.2-0.2,0.3-0.4,0.5
		c-0.5,0.8-0.9,1.6-1.3,2.4c-0.4,0.8-1,1.6-1.7,2.2c-0.2,0.1-0.4,0.1-0.6-0.1c-0.2-0.2-0.4-0.4-0.5-0.6c0-0.2,0-0.5,0-0.7
		c0-0.2,0-0.5,0-0.8c2-3.3,3.8-6.6,5.5-9.9c1.7-3.3,3-6.8,4-10.5c0.1-0.6-0.1-1.2-0.4-1.7c-0.1-0.1-0.2-0.2-0.4-0.3l-0.4-0.2
		c-0.1-0.1-0.2-0.1-0.3-0.2c-0.1-0.1,0-0.2,0-0.4c0.2-0.2,0.5-0.3,0.8-0.4c0.3-0.1,0.6,0,0.9,0.1c0.4,0.1,0.7,0.2,0.9,0.5
		C126.9,112.8,127.1,113.1,127.3,113.4z M153,142.7c0.1,0.3,0,0.5-0.2,0.7c-0.2,0.1-0.4,0.3-0.6,0.4c-1,0.3-2.1,0.5-3.1,0.8
		c-1,0.3-2.1,0.4-3.2,0.5c-0.5,0.1-1.1,0.1-1.7,0.1c-0.6,0-1.4-0.1-2.4-0.2c1.2-0.4,2.3-0.8,3.2-1.1c1-0.3,1.7-0.6,2.3-0.8
		c0.1,0,0.2-0.1,0.2-0.2c0-0.1,0-0.2-0.1-0.3c-0.6-0.3-1.2-0.5-1.8-0.6c-0.6-0.1-1.3-0.2-1.9-0.4c-0.5-0.1-1-0.3-1.4-0.6
		c-0.5-0.3-0.8-0.8-1-1.3c0.1-0.5,0.2-1,0.3-1.5c0.2-0.5,0.3-0.9,0.6-1.3c0.4-0.7,0.8-1.4,1.2-2c0.4-0.6,0.8-1.3,1.3-2
		c0.1-0.1,0.1-0.2,0-0.3c0-0.1-0.2-0.1-0.3-0.1c-3.4,1.5-6.5,3.5-9.2,6c-0.2,0.3-0.3,0.7-0.3,1.1c0,0.4,0.1,0.8,0.1,1.3
		c0.1,0.4,0.1,0.8,0,1.2c-0.1,0.4-0.3,0.8-0.7,1c-0.4-0.1-0.7-0.4-1-0.7c-0.2-0.3-0.4-0.6-0.5-1c-0.3-0.8-0.5-1.7-0.7-2.6
		c-0.2-0.9-0.3-1.7-0.4-2.6c-0.1-0.8-0.2-1.5-0.2-2.3c0-0.8,0.1-1.6,0.3-2.3c0.4-0.3,0.8-0.7,1.3-1.1c0.5-0.5,1-0.9,1.5-1.4l1.6-1.4
		l1.4-1.2c0.1-2.1,0.2-4.2,0.2-6.3c0-2,0-4.1-0.2-6.1c-0.1-0.6-0.3-1.1-0.7-1.4c-0.2-0.1-0.4-0.2-0.5-0.3c-0.2-0.1-0.4-0.2-0.6-0.1
		c-0.1,0-0.2,0-0.3,0.1c-0.1,0-0.2,0-0.3,0c-0.1,0-0.2,0.1-0.3,0.1c-0.2,0-0.4,0-0.6,0l0.7-1.1c0.2-0.4,0.6-0.7,1-0.9
		c0.9,0,1.8,0.2,2.6,0.8c0.4,0.4,0.7,0.8,0.9,1.3c0.2,0.5,0.4,1,0.4,1.5c0.1,0.7,0.2,1.4,0.2,2.1c0,0.8,0,1.6,0.1,2.4
		c1.1-0.6,2.2-1.1,3.4-1.5c1.1-0.4,2.3-0.8,3.5-0.9c0.3,0.1,0.6,0.2,0.9,0.2c0.3,0.1,0.5,0.2,0.8,0.4l0.3,0.7
		c0.1,0.3,0.1,0.6-0.1,0.9c-1.3,1.5-2.7,2.9-4.3,4.2c-1.5,1.3-3.1,2.6-4.6,3.9c0,0.4,0,0.7,0,1c0,0.3,0,0.7,0,1
		c0,0.3-0.1,0.6-0.2,0.9c-0.1,0.3-0.2,0.6-0.4,0.9c-0.5,0-1.1-0.3-1.3-0.8l-0.1-0.2c0-0.1-0.1-0.1-0.1-0.2l-0.3-0.6
		c-0.3,0.3-0.6,0.5-0.9,0.8c-0.3,0.2-0.6,0.4-1,0.7c-0.6,0.4-1.1,1-1.6,1.6c-0.4,0.6-0.5,1.5-0.2,2.2l0.2,1.5c0,0.2,0.1,0.4,0.1,0.6
		s0.1,0.5,0.2,0.8c1.8-1.5,3.7-2.9,5.8-4.1c1.9-1.1,3.9-2.1,6-2.9c0.5-0.2,1-0.2,1.5-0.1c0.5,0.1,1,0.4,1.4,0.7
		c0.3,0.2,0.5,0.6,0.4,1c-0.5,0.7-1,1.4-1.5,2s-1,1.3-1.5,1.9c-1,1.3-1.8,2.6-2.6,4c-0.1,0.1-0.1,0.2,0,0.3c0,0.1,0.1,0.2,0.2,0.3
		l3.9,0.8c1.3,0.3,2.5,0.7,3.8,1.2c0.3,0.1,0.5,0.2,0.8,0.4C152.8,142.2,152.9,142.4,153,142.7z M145.9,118.6
		c-0.6,0.2-1.2,0.4-1.6,0.6c-0.5,0.2-0.9,0.4-1.3,0.6c-0.4,0.2-0.9,0.5-1.3,0.8c-0.4,0.3-0.9,0.6-1.4,0.9c0,0.4,0,0.8,0,1.3
		c0,0.5,0,1,0,1.6c0.6-0.5,1.2-1,1.7-1.5c0.5-0.4,0.9-0.9,1.3-1.3c0.4-0.4,0.9-0.9,1.3-1.4S145.4,119.3,145.9,118.6z"/>
	<path class="st2" d="M189.9,125.5c-0.1,0.6-0.2,1.2-0.5,1.7c-0.3,0.5-0.6,1.1-1,1.5c-0.4,0.5-0.8,1-1.2,1.5c-0.4,0.5-0.8,1-1.2,1.5
		c-0.7,0.7-1.3,1.4-2,2.1c-0.7,0.7-1.4,1.3-2.2,1.8c-0.6,0.4-1.2,0.7-1.9,0.8c-0.8,0.2-1.6,0.2-2.3,0c-0.1,2.2-0.2,4.6-0.3,7
		s-0.4,5-0.7,7.6l-0.2,0.3c-0.2,0.4-0.4,0.7-0.7,0.7c-0.5-0.2-0.8-0.7-1-1.2c-0.1-0.3-0.1-0.6-0.1-0.9c0-0.3,0-0.6,0-0.9
		c0.1-1,0.1-2.1,0.2-3.3c0.1-1.2,0.1-2.5,0.2-3.8s0.1-2.6,0.2-3.8c0.1-1.2,0.1-2.3,0.1-3.3c0.1-0.8,0.1-1.8,0.1-2.9
		c0-1.1,0-2.1,0-2.9c-1,0.4-1.9,0.9-2.9,1.5c-0.9,0.5-1.7,1.1-2.6,1.6c-0.9,0.6-1.8,1.2-2.6,1.9c-0.8,0.7-1.6,1.4-2.4,2.3
		c-0.4,0.2-0.8,0.2-1.2,0c-0.2-0.1-0.3-0.2-0.4-0.4c0-0.2-0.1-0.4-0.2-0.6c0.2-1.1,0.7-2.1,1.3-3c0.6-0.9,1.3-1.8,1.8-2.8
		c0.8-1.3,1.7-2.6,2.7-3.8c1-1.2,2-2.4,3-3.5c0.3-0.3,0.5-0.6,0.8-0.9s0.6-0.6,0.9-1c0.3-0.3,0.6-0.6,0.8-0.9
		c0.2-0.3,0.5-0.7,0.8-1.2c-1.7,0.8-3.3,1.4-4.8,2c-1.5,0.5-3,1-4.6,1.3c-0.3,0-0.6,0-0.8,0c-0.3,0-0.6,0-0.8-0.1
		c-0.5-0.1-0.9-0.4-1.1-0.9c0-0.3,0-0.6,0.2-0.8c0.2-0.3,0.5-0.5,0.7-0.7c0.3-0.2,0.5-0.4,0.7-0.6l0.8-0.9c0,0.3,0.1,0.7,0.2,1
		c0.1,0.3,0.3,0.5,0.6,0.6c2.7-0.6,5.3-1.4,7.8-2.6c2.5-1.2,4.9-2.4,7.3-3.7c0.3,0,0.7,0,1,0.1c0.3,0.1,0.6,0.4,0.8,0.7
		c0.1,0.1,0.1,0.3,0.2,0.4c0.1,0.1,0,0.3-0.1,0.4c-1.1,0.8-2.2,1.5-3.3,2.3s-2.1,1.7-3.2,2.7c0.4,0.8,0.7,1.7,0.8,2.7
		c0.1,1,0.1,2,0,3c1-0.3,1.9-0.6,2.7-0.9s1.7-0.6,2.6-0.9c0.9-0.2,1.8-0.4,2.7-0.5c0.9-0.1,1.8,0,2.7,0.2c0.4,0.2,0.7,0.5,1,0.8
		C189.8,124.6,190,125,189.9,125.5z M175.4,126.7c0.1-0.8,0.1-1.7,0.1-2.6c0-0.9-0.1-1.8-0.2-2.7c-1.3,1.5-2.6,3-3.7,4.5
		c-1.1,1.5-2.3,3.1-3.4,4.9c1.4-0.9,2.7-1.6,3.8-2.3C173.2,127.9,174.3,127.3,175.4,126.7z M180.1,108.3c0.1,0.3,0,0.6-0.1,0.9
		c-0.2,0.2-0.4,0.4-0.6,0.6c-1.2,0.7-2.4,1.3-3.6,1.9c-1.2,0.6-2.5,1.1-3.8,1.5c-0.2,0.1-0.3,0.1-0.4-0.1c0-0.1,0-0.2,0.2-0.3
		c0.8-0.4,1.6-0.8,2.3-1.4c0.4-0.3,0.7-0.6,1.1-1c0.3-0.3,0.7-0.7,1.1-1c0.1-0.2,0-0.4-0.1-0.5c-0.1-0.1-0.3-0.1-0.4-0.2
		c-0.9-0.4-1.8-0.8-2.7-1.1c-0.9-0.4-1.8-0.8-2.6-1.4c-0.2-0.2-0.3-0.4-0.4-0.6c-0.1-0.2,0-0.4,0.2-0.6c0.1-0.2,0.2-0.3,0.4-0.4
		c0.2-0.1,0.3-0.2,0.5-0.3c0.7,0.1,1.4,0.3,2,0.7c0.6,0.4,1.2,0.7,1.9,1c0.4,0.2,0.8,0.4,1.3,0.6c0.4,0.1,0.9,0.3,1.3,0.4
		c0.6,0.1,1.2,0.4,1.7,0.7C179.6,107.8,179.9,108,180.1,108.3L180.1,108.3z M187.2,126.2c0.1-0.2,0.1-0.4,0-0.6
		c-0.1-0.2-0.3-0.4-0.6-0.3c-0.7,0.1-1.3,0.2-2,0.4c-0.8,0.2-1.5,0.4-2.3,0.7s-1.5,0.5-2.3,0.8s-1.4,0.6-2,0.8c0,0.9-0.1,2-0.1,3.3
		s-0.1,2.6-0.2,3.7c0.3,0.1,0.6,0.1,0.9,0c0.3-0.1,0.6-0.3,0.8-0.4c0.9-0.5,1.7-1.1,2.4-1.8c0.7-0.7,1.4-1.4,2-2.2
		c0.6-0.7,1.2-1.5,1.7-2.2S186.7,126.9,187.2,126.2L187.2,126.2z"/>
	<path class="st2" d="M239.2,137c-0.5,1.9-1.4,3.8-2.6,5.4c-1.3,1.7-2.7,3.2-4.3,4.7c-1.5,1.4-3.3,2.3-5.2,2.8c-0.5,0-1-0.1-1.5-0.4
		c-0.5-0.3-0.9-0.7-1.1-1.2c-0.3-0.6-0.5-1.3-0.6-2c-0.1-0.5-0.1-0.9-0.2-1.4c0-0.5-0.1-1.1-0.2-1.8c-1.3,1-2.6,1.9-4.1,2.6
		c-1.3,0.7-2.7,1.2-4.2,1.6l-0.5,0.1c-0.2,0-0.3,0-0.5,0c1.6-0.9,3.2-1.9,4.7-2.9c1.6-1,3-2.2,4.4-3.5c0.1-0.6,0.1-1.1,0.1-1.7
		c0-0.6,0-1.2,0.1-1.8c-0.2,0.2-0.4,0.3-0.6,0.5c-0.1,0.1-0.3,0.3-0.5,0.4c-0.2,0.2-0.5,0.3-0.8,0.3c-0.2,0-0.5-0.1-0.7-0.2
		c-0.2-0.1-0.3-0.3-0.4-0.5c0.2-0.4,0.4-0.9,0.7-1.3l0.8-1.2l0.3-0.5c0.1-0.2,0.3-0.4,0.4-0.8c-1.3,0.5-2.6,1.2-3.7,2
		c-1.1,0.8-2.2,1.6-3.2,2.6c-0.3,0.1-0.6,0.1-0.9,0c-0.2-0.2-0.3-0.4-0.4-0.7c0-0.3-0.1-0.5-0.1-0.8c1-1.6,2.2-3.4,3.5-5.2
		c1.3-1.8,2.7-3.6,4.1-5.2c-1.3,0.4-2.6,0.9-3.9,1.4s-2.4,0.9-3.4,1.3c-0.5,1.5-1.1,3.1-1.8,4.5c-0.7,1.5-1.8,2.7-3.1,3.6
		c-0.2,0.1-0.4,0.2-0.7,0.2c-0.2,0-0.5,0-0.7-0.1c-0.5-0.2-0.9-0.6-1.2-1c-0.3-0.4-0.5-0.9-0.6-1.4c-0.2-0.6-0.3-1.2-0.3-1.8
		c-0.1-0.7-0.2-1.3-0.4-1.9c-1.1,0.8-2.2,1.6-3.3,2.4c-1.1,0.8-2.3,1.5-3.6,2c-0.4,0.2-0.9,0.2-1.3,0.1c-0.4-0.1-0.9-0.3-1.2-0.6
		c-0.3-0.3-0.4-0.7-0.4-1.1c0.1-0.4,0.3-0.8,0.5-1.1c0.2-0.2,0.4-0.5,0.5-0.8c0.1-0.3,0.2-0.5,0.3-0.8c0.1,0.2,0.1,0.4,0.1,0.6
		c0,0.2,0,0.4,0,0.7c0,0.3,0.1,0.6,0.4,0.7c0.3,0.1,0.6,0.1,0.9-0.1c1.3-0.6,2.5-1.4,3.6-2.2c1.1-0.8,2.3-1.6,3.5-2.6
		c0-0.9-0.1-1.7-0.1-2.6s0-1.7,0-2.5c0-0.8,0.1-1.7,0.2-2.4c0.1-0.8,0.2-1.5,0.4-2.3c0.2-0.3,0.6-0.4,1-0.3c1,0.6,2,1.1,3.1,1.6
		c1.1,0.5,2.1,0.9,3.3,1.2c0.3,0.1,0.5,0.4,0.7,0.7c0,0.1,0,0.2,0,0.3c0,0.1-0.1,0.3-0.2,0.4c-0.9,1.1-1.9,2.2-3,3.3l-3.1,3.3
		c0,0.5,0.1,0.9,0.1,1.4c0,0.4,0,0.9,0.1,1.3c0,0.4,0.1,0.9,0.2,1.3c0.1,0.5,0.3,0.9,0.6,1.3c0.5-0.2,0.9-0.5,1.3-0.9
		c0.4-0.4,0.7-0.8,1-1.3c0.3-0.4,0.6-0.9,0.8-1.4l0.8-1.6c-0.6-0.2-1.1-0.7-1.4-1.3c0-0.4,0.3-0.7,0.7-0.8c0.3-0.1,0.6-0.2,0.9-0.2
		c0.3,0,0.7-0.2,0.9-0.3c2.8-5.7,4.7-11.8,5.8-18V107c0.1-0.2,0.3-0.4,0.4-0.4c0.4,0,0.8,0.1,1.1,0.3c0.3,0.3,0.6,0.6,0.8,1
		c0.1,0.3,0.2,0.5,0.3,0.8c0.1,0.2,0.2,0.5,0.4,0.9c0.6-1.3,1.5-2.5,2.6-3.4c0.5-0.4,1.1-0.8,1.7-1.1c0.6-0.3,1.2-0.5,1.8-0.6
		c0.6,0,1.3,0.2,1.8,0.5c0.6,0.4,1,0.8,1.4,1.4c0.3,0.8,0.5,1.7,0.6,2.5c0.1,0.9,0,1.8-0.1,2.7c-0.1,0.9-0.3,1.8-0.6,2.6
		c-0.2,0.8-0.5,1.7-0.9,2.5c-0.3,0.6-0.6,1.2-0.9,1.7c-0.3,0.5-0.8,0.9-1.5,1.1c-0.2,0-0.5,0.1-0.7,0.1c-0.3,0-0.5,0-0.8,0.1
		c-0.5,0.5-1.1,1-1.7,1.5c-0.5,0.5-1.1,0.9-1.7,1.4l-1.8,1.3c-0.6,0.5-1.4,1-2.4,1.7c0.8-0.2,1.4-0.3,1.8-0.5
		c0.4-0.1,0.8-0.3,1.1-0.5c0.3-0.2,0.6-0.3,0.9-0.5l0.8-0.4c1.9-0.9,3.8-1.8,5.7-2.6c1.9-0.8,3.8-1.6,5.8-2.4c0.3-0.1,0.7-0.1,1-0.2
		c0.3-0.1,0.7,0,1,0.1c0.2,0.2,0.4,0.4,0.5,0.7c0,0.1,0,0.3,0,0.4c0,0.1-0.1,0.2-0.2,0.3c-1.9,0.8-3.8,1.6-5.7,2.4
		c-1.9,0.8-3.8,1.7-5.7,2.7c-1.3,1.2-2.6,2.5-3.7,3.8c-1.2,1.5-2.4,3-3.4,4.6c1-0.3,1.8-0.7,2.6-1c0.8-0.4,1.5-0.7,2.3-0.9
		c1.1-1.5,1.9-3,2.6-4.7c0.1-0.2,0.2-0.2,0.5-0.1c0.2,0.2,0.3,0.5,0.3,0.8c0,0.2,0,0.4,0,0.6c0,0.3,0,0.6,0,0.8
		c0.9-0.9,1.7-1.6,2.5-2.3c0.8-0.6,1.6-1.2,2.4-1.8c0.2-0.1,0.5-0.1,0.8-0.1c0.2,0,0.4,0.1,0.6,0.3c0.3,0.5,0.5,1.1,0.3,1.7
		c-0.1,0.6-0.3,1.1-0.5,1.7c-0.1,0.2-0.2,0.5-0.3,0.7l-0.3,0.8c1,0.1,1.9,0.3,2.8,0.6c0.9,0.2,1.7,0.8,2.3,1.5
		c0.4,0.7,0.7,1.5,0.7,2.3C239.5,135.5,239.4,136.2,239.2,137z M211.9,123.2c-0.2-0.2-0.5-0.5-0.8-0.7l-0.8-0.4l-0.9-0.4
		c-0.3-0.1-0.6-0.3-1-0.5c-0.1,1-0.1,2-0.1,3c0,0.9,0,2,0,3c0.7-0.8,1.3-1.4,1.9-2C210.8,124.6,211.4,124,211.9,123.2z M222.1,122.9
		l-0.2-0.5c-0.1-0.2-0.1-0.3-0.2-0.4c0-0.2-0.1-0.3-0.1-0.5c0-0.2-0.1-0.3-0.1-0.5c0-0.6-0.1-1.3-0.2-2.2s-0.1-1.8-0.2-2.7
		s-0.1-1.9-0.2-2.9c0-1-0.1-1.9-0.2-2.8c-0.3,1.3-0.6,2.6-1,4s-0.8,2.8-1.2,4.2s-0.8,2.8-1.2,4.2s-0.8,2.7-1.2,4
		c1.1-0.6,2.1-1.2,3-1.8S221.1,123.6,222.1,122.9z M230.8,109c0.1-0.7-0.1-1.5-0.5-2.1c-0.5-0.4-1.1-0.6-1.8-0.5
		c-1.4,0.5-2.6,1.4-3.5,2.6c-0.4,0.6-0.8,1.2-1.1,1.9c-0.3,0.7-0.5,1.5-0.5,2.3l1.2-0.6c0.3-0.2,0.7-0.3,1-0.5l0.9-0.5
		c0.3-0.1,0.7-0.3,1-0.3c0.9-0.3,1.9-0.3,2.9,0c0.1-0.4,0.1-0.7,0.2-1.1C230.7,109.8,230.8,109.4,230.8,109z M224.9,117.5
		c-0.5-0.5-0.9-0.9-1.4-1.4c0,0.5,0,0.9,0,1.4c0,0.4,0,0.8,0,1.2c0,0.9,0.1,1.7,0.3,2.5l2.3-2.6C225.7,118.4,225.4,118,224.9,117.5
		L224.9,117.5z M229.9,132.3c-0.3,0.1-0.7,0.2-1,0.2l-0.8,0.1l-0.8,0.2c-0.3,0.1-0.5,0.1-0.8,0.3c-0.3,0.4-0.6,1-1.1,1.6l-1.1,1.6
		c0,0.6,0,1.1,0,1.7c0,0.7,0,1.4,0.1,2.1c1.1-1.3,2.1-2.6,3-3.8C228.3,135.1,229.2,133.7,229.9,132.3L229.9,132.3z M237.3,133.9
		c-0.3-0.5-0.8-0.9-1.3-1.1c-0.5-0.3-1.1-0.4-1.7-0.4l-1.7-0.1c-1.1,1.9-2.2,3.7-3.5,5.5c-1.3,1.8-2.9,3.4-4.6,4.8
		c0.1,0.5,0.2,1,0.2,1.5c0.1,0.5,0.1,0.9,0.3,1.4c0.1,0.4,0.3,0.9,0.5,1.3c0.2,0.4,0.5,0.8,0.8,1.2c0.3,0,0.5,0.1,0.9,0.1
		c0.3,0,0.6,0,0.8-0.1c0.6-0.3,1.1-0.6,1.6-1c0.5-0.4,1-0.8,1.5-1.2c0.6-0.6,1.2-1.2,1.7-1.8c0.6-0.7,1.2-1.4,1.8-2.2
		c0.6-0.8,1.1-1.6,1.6-2.3c0.4-0.7,0.8-1.4,1-2.2c0.2-0.5,0.3-0.9,0.3-1.4C237.5,134.9,237.4,134.4,237.3,133.9L237.3,133.9z
		 M229.7,113.5c-0.9-0.1-1.8,0-2.7,0.3c-0.8,0.3-1.6,0.8-2.4,1.3c0.4,1.2,1.3,2.2,2.3,2.8l0.8-1.1c0.3-0.3,0.5-0.7,0.8-1.1
		c0.3-0.4,0.4-0.7,0.6-1.1C229.4,114.3,229.6,113.9,229.7,113.5z M232.4,127.4c-0.3-0.1-0.6-0.1-0.8,0c-0.3,0.1-0.5,0.3-0.8,0.5
		c-0.5,0.4-1.1,0.9-1.7,1.4c-0.5,0.5-1,1-1.5,1.5c0.7-0.1,1.4-0.2,1.9-0.3s1-0.1,1.6-0.3c0.2-0.3,0.4-0.8,0.6-1.3
		C232,128.3,232.2,127.9,232.4,127.4z"/>
	<path class="st2" d="M288.4,132.4c-0.2,1.5-0.6,3-1.3,4.3c-0.7,1.4-1.6,2.7-2.6,3.8c-0.7,0.8-1.4,1.5-2.2,2.1
		c-1,0.9-2.1,1.7-3.3,2.4c-1.1,0.7-2.3,1.2-3.6,1.5c-1.1,0.3-2.2,0.1-3.1-0.6c-1.1-0.9-1.9-2.2-2.2-3.7c0.2,0.1,0.3,0.2,0.5,0.4
		c0.1,0.1,0.2,0.2,0.2,0.3c0.2,0.3,0.4,0.5,0.6,0.7c0.3,0.3,0.6,0.6,1,0.8c0.4,0.2,0.8,0.4,1.3,0.4c1-0.2,2-0.5,2.9-1
		c0.9-0.5,1.8-1,2.6-1.6c0.8-0.6,1.6-1.3,2.3-2.1c0.7-0.7,1.4-1.5,2-2.3c0.4-0.6,0.8-1.2,1.2-1.8c0.4-0.6,0.7-1.3,1-2
		c0.2-0.6,0.3-1.3,0.3-2c-0.1-0.7-0.4-1.4-0.9-2c-0.5-0.6-1-1.2-1.6-1.7c-0.6-0.5-1.2-1-1.8-1.4c-0.6-0.4-1.3-0.9-1.9-1.4
		c-0.6-0.5-1.2-1-1.8-1.5c-0.5-0.7-0.9-1.5-0.9-2.3c-0.1-0.8,0-1.6,0.2-2.4c0.2-0.5,0.3-1,0.5-1.4l0.5-1.5c0.2-0.4,0.3-0.9,0.4-1.4
		c0.1-0.5,0.2-1,0.2-1.6c-4.1,3-7.7,6.7-10.5,10.9c0.4,0.3,0.7,0.7,0.8,1.2c0.2,0.4,0.2,0.8,0.2,1.3c0,0.5,0,1,0,1.4
		c0,0.5,0,1,0,1.4c-0.2,1.2-0.4,2.4-0.6,3.7c-0.2,1.2-0.5,2.4-1,3.6c-0.3,0.6-0.7,1.1-1.2,1.4c-0.5,0.4-1.1,0.6-1.7,0.7
		c-0.7,0.1-1.5,0-2.1-0.4c-0.3-0.3-0.6-0.6-0.7-1c-0.1-0.4-0.2-0.8-0.2-1.2c0-0.4,0-0.9,0.1-1.3c0.1-0.4,0.2-0.8,0.2-1.2
		c0.2-0.7,0.4-1.4,0.7-2.1c0.3-0.7,0.5-1.4,0.9-2.1c0.3-0.7,0.6-1.3,1-1.9s0.8-1.4,1.2-2.1c-0.5,0.1-1,0.3-1.4,0.6
		c-0.4,0.2-0.8,0.5-1.2,0.8c-0.4,0.4-0.8,0.7-1.2,1.1c-0.4,0.4-0.7,0.8-0.9,1.3c-0.4,0.7-0.7,1.5-0.8,2.3c-0.1,0.8-0.2,1.7-0.2,2.5
		c0,1.1,0,2.2,0.1,3.2c0.1,1.1,0,2.2-0.1,3.4c-0.1,0.2-0.2,0.4-0.3,0.6c-0.1,0.2-0.3,0.3-0.5,0.4c-0.3-0.1-0.6-0.3-0.8-0.5
		c-0.2-0.3-0.4-0.5-0.6-0.8c-0.1-1.1-0.2-2.2-0.1-3.3c0-1.1,0-2.3-0.1-3.4c-0.1-0.7-0.1-1.5-0.2-2.2c0-0.7-0.1-1.4-0.2-2.1
		c-0.1-0.7-0.4-1.3-0.8-1.9c-0.4-0.6-1-1.2-1.7-1.5c-0.2-0.1-0.3-0.2-0.5-0.3c-0.2-0.1-0.3-0.1-0.5,0c-0.4,0.5-0.8,1.1-1.3,1.8
		l-1.6,2.2l-1.6,2.1c-0.5,0.7-0.9,1.2-1.2,1.6c-0.2,0.1-0.3,0.1-0.4,0.2l-0.4,0.2c-0.2,0.1-0.5,0-0.7-0.2c-0.1-0.4-0.2-0.8-0.1-1.1
		c0.1-0.3,0.2-0.7,0.3-1c0.2-0.3,0.4-0.7,0.6-1c0.2-0.3,0.4-0.6,0.7-0.9c2.4-3.2,4.7-6.5,7-9.7c2.3-3.3,4.4-6.6,6.4-10.1
		c0-0.2,0.1-0.3,0.1-0.5c0-0.2,0-0.3,0-0.5c0-0.1,0-0.2,0-0.4c0-0.1,0-0.3,0-0.4c0.2-0.2,0.4-0.3,0.7-0.4c0.3-0.1,0.7,0,0.9,0.3
		c0.2,0.3,0.4,0.5,0.6,0.7c0.3,0.7,0.3,1.5,0,2.2c-0.3,0.7-0.7,1.3-1.1,1.9c-1.2,1.9-2.4,3.8-3.7,5.6c-1.3,1.8-2.6,3.7-4,5.7
		c0.9,0.3,1.8,0.8,2.5,1.5c0.8,0.7,1.4,1.5,1.9,2.4c0.6-0.8,1.3-1.6,2-2.3c0.7-0.7,1.5-1.2,2.3-1.7c0.6-0.3,1.2-0.5,1.8-0.5
		c0.6-0.1,1.2-0.1,1.8,0c0.8-1.2,1.7-2.4,2.6-3.5c0.9-1.1,1.9-2.2,3-3.3c1.1-1.1,2.1-2.1,3.2-3.2l3.1-3c0.4-0.3,0.9-0.3,1.3,0
		c0.4,0.3,0.8,0.5,1.2,0.8c0.2,0.3,0.4,0.6,0.4,1c0,0.4,0,0.7-0.1,1.1c-0.5,1.3-1,2.5-1.7,3.7c-0.6,1.2-1.2,2.5-1.6,3.8
		c-0.2,0.7,0,1.5,0.5,2.1c0.5,0.4,1,0.7,1.5,1s1,0.7,1.5,1l2.1,1.5c0.7,0.5,1.3,1.1,1.9,1.7c0.6,0.6,1,1.3,1.4,2
		C288.2,130.8,288.4,131.6,288.4,132.4z M267,126.8c-1.4,2.8-2.4,5.9-3,9c0,0.3,0.1,0.5,0.3,0.7c0.2,0.2,0.5,0.2,0.7,0.1
		c0.3-0.2,0.6-0.5,0.7-0.8c0.4-1.4,0.7-2.8,1-4.2C267.1,130,267.1,128.4,267,126.8z M281.7,137.6c-0.2,0.5-0.7,0.8-1.2,0.8
		c-0.3-0.1-0.5-0.1-0.8-0.1c-0.2,0-0.5-0.1-0.7-0.2c0.2-0.2,0.3-0.5,0.4-0.8c0-0.2,0-0.5-0.2-0.7c-0.8-0.7-1.7-1.3-2.7-1.7
		c-1-0.4-1.9-0.9-2.9-1.4l-0.2-0.2c-0.1-0.1-0.2-0.2-0.3-0.3c-0.1-0.1,0-0.3,0.1-0.4c0.5-0.4,1.1-0.5,1.7-0.5c0.6,0,1.2,0.2,1.7,0.4
		c0.8,0.3,1.6,0.7,2.4,1.3c0.7,0.5,1.4,1.1,2.1,1.7c0.2,0.3,0.4,0.6,0.5,1C281.8,136.8,281.8,137.2,281.7,137.6L281.7,137.6z"/>
	<path class="st2" d="M341.3,137.7c0,0.2,0.1,0.5,0.1,0.8c0,0.2-0.1,0.4-0.3,0.6c-0.5,0.4-1,0.6-1.6,0.7c-0.6,0.1-1.2,0.2-1.7,0.5
		c-1,0.3-1.9,0.6-2.8,1l-2.8,1.1c-0.9,0.3-1.9,0.7-2.8,1c-1,0.3-2,0.6-3.1,0.8c0.2-0.1,0.4-0.2,0.5-0.3c0.1-0.1,0.2-0.1,0.4-0.2
		l0.8-0.3c1.1-0.7,2.3-1.4,3.5-2.1c1.3-0.7,2.5-1.5,3.7-2.4c-2.8-0.2-5.6-0.2-8.4,0.1c-2.7,0.2-5.4,0.6-8,1c-0.2,0-0.5,0-0.6-0.2
		c-0.2-0.2-0.3-0.3-0.4-0.6c-0.1-0.2-0.1-0.5-0.1-0.8c0-0.2,0.2-0.5,0.4-0.5c1.6-0.6,3.2-1.4,4.6-2.4c-0.6-1.3-1.3-2.7-1.9-4
		c-0.6-1.3-1.3-2.6-2.2-3.8c-0.2-0.4-0.2-0.9-0.2-1.3c0.1-0.4,0.3-0.8,0.6-1.2c0.6-0.9,1.3-1.7,2.2-2.4l2.5-2.2
		c0-0.4,0.1-0.8,0.1-1.3c0-0.5,0-1,0-1.4c-1.5,1.2-2.8,2.3-4.1,3.5c-1.3,1.2-2.5,2.5-3.7,3.9c-0.1,0.8-0.1,1.8-0.2,3
		c-0.1,1.2-0.2,2.4-0.3,3.6c-0.1,1.2-0.2,2.4-0.3,3.5s-0.2,2-0.3,2.7c-0.2,1.7-0.2,3.4-0.1,5.1c0.1,1.7,0.3,3.4,0.5,5
		c0,0.1,0,0.3-0.1,0.4c0,0.1-0.2,0.2-0.3,0.3c-0.4,0.1-0.8,0-1.2-0.3c-0.7-0.9-1.1-1.9-1.4-2.9c-0.3-1.1-0.5-2.2-0.7-3.2
		c0.1,0,0.2,0.1,0.3,0.2c0.1,0.1,0.2,0.2,0.3,0.2c0.2,0.1,0.3,0.2,0.5,0.4c0-0.5,0.1-1.2,0.2-2.2c0.1-1,0.2-2.1,0.3-3.4
		s0.2-2.7,0.3-4.1c0.1-1.5,0.2-2.9,0.2-4.3c-0.2,0.3-0.4,0.5-0.5,0.7c-0.1,0.2-0.2,0.4-0.3,0.6l-0.4,0.9c0-0.8,0.1-1.6,0.4-2.4
		c0.2-0.7,0.5-1.4,0.7-2c0.3-0.6,0.5-1.2,0.7-1.6v-1.6c0-0.3,0-0.5,0-0.8c0-0.3-0.1-0.7-0.2-1l-1.1,2c-0.3,0.6-0.6,1.2-0.9,1.8
		c-0.3,0.6-0.6,1.2-0.9,1.8c-0.3,0.6-0.7,1.1-1.1,1.6c-0.1,0.1-0.3,0.2-0.4,0.2c-0.1,0.1-0.3,0.1-0.5,0c-0.1-0.1-0.2-0.2-0.3-0.4
		c-0.1-0.2-0.2-0.3-0.2-0.5c0-0.1-0.1-0.1-0.1-0.2c-0.1-0.1-0.1-0.2-0.2-0.3c-0.1,0.2-0.2,0.3-0.4,0.4c-0.1,0.1-0.2,0.2-0.3,0.3
		c-0.1,0.2-0.4,0.2-0.6,0c0,0,0,0,0,0c-0.4-0.2-0.7-0.6-0.9-1.1c-0.1-0.5,0-0.9,0.2-1.4c0.2-0.4,0.4-0.9,0.6-1.4
		c0.2-0.5,0.3-1,0.3-1.5c0-0.2,0-0.5,0.1-0.7c0.1-0.3,0.1-0.7,0.1-1c0-0.4-0.3-0.7-0.6-0.8c-0.4,0-0.8,0.2-1.1,0.4
		c-0.3,0.2-0.6,0.5-0.8,0.7c-0.3,0.3-0.5,0.6-0.7,0.9c-0.2,0.3-0.4,0.6-0.7,0.9c-0.4,0.8-0.6,1.7-0.6,2.6c0,0.8,0.1,1.6,0.3,2.4
		c0.2,0.8,0.3,1.6,0.5,2.4c0,0.1-0.1,0.2-0.2,0.3c-0.1,0-0.2,0.1-0.3,0.2c-0.6,0-1.1-0.3-1.4-0.7c-0.3-0.5-0.6-1-0.8-1.5
		c-0.5-1.4-0.9-2.9-1.3-4.4c-0.4-1.5-0.9-3-1.7-4.3c-0.7-1.2-1.6-2.3-2.6-3.2c0.4-0.2,0.9-0.3,1.3-0.2c0.4,0.1,0.9,0.3,1.3,0.5
		c0.9,0.7,1.6,1.5,2.1,2.5l1.5,2.9c0.5-0.9,1.1-1.7,1.7-2.5c0.6-0.8,1.3-1.5,2.1-2c0.4-0.1,0.9-0.2,1.4-0.1c0.4,0.1,0.8,0.3,1.2,0.6
		l0.9,1.1c0.7-1.2,1.3-2.4,1.9-3.7c0.5-1.2,1.1-2.4,1.8-3.6c0.8-1.4,1.7-2.8,2.9-3.9c0.3-0.2,0.7-0.4,1.1-0.3c0.4,0,0.8,0.2,1.1,0.3
		c0.3,0.2,0.4,0.5,0.4,0.8c0,0.3,0,0.7,0,1c-0.4,1.3-0.9,2.7-1.3,4c-0.5,1.3-1,2.6-1.6,3.8c0.3,0.5,0.5,1,0.6,1.5
		c0.1,0.3,0.1,0.5,0.2,0.8c0,0.3,0.1,0.6,0.2,1c1.3-1.3,2.7-2.6,4-3.7c1.3-1.2,2.6-2.3,4-3.4c0-0.6,0.1-1.2,0.1-1.9
		c0-0.7,0.1-1.4,0.2-2.2c0.1-0.7,0.1-1.4,0.2-2.1c0-0.7,0.1-1.2,0.1-1.7c0.1-0.3,0-0.6-0.1-0.9c-0.1-0.3-0.2-0.5-0.3-0.8
		c-0.1-0.2-0.1-0.4-0.1-0.5c0-0.2,0.3-0.2,0.8-0.2c0.3,0,0.5,0.1,0.8,0.1c0.3,0,0.5,0.1,0.7,0.3c0.1,0.3,0.3,0.7,0.3,1
		c0.1,0.3,0.2,0.7,0.3,1c0.1,0.3,0.2,0.7,0.4,1c0.2,0.3,0.4,0.6,0.7,0.8c0.2,0.5,0.6,0.8,1.1,1c0.4,0.1,0.9,0.2,1.4,0.1l0.9-0.2
		c0.3-0.1,0.6-0.1,0.8-0.1c0.4,0,0.8,0.1,1.1,0.4c0.1,0.1,0.2,0.2,0.3,0.4c0,0.1,0,0.3,0,0.4c-2.7,1.6-5.2,3.3-7.7,5.1
		c0,0.3-0.1,0.5-0.1,0.8s-0.1,0.5-0.1,0.7s-0.1,0.5-0.1,0.7c0,0.3,0,0.6,0.1,0.9c0.4-0.2,0.8-0.5,1.3-0.7c0.5-0.2,1-0.4,1.5-0.6
		c0.5-0.1,1-0.2,1.5-0.2c0.5,0,1,0.3,1.4,0.7c0.2,0.2,0.4,0.5,0.5,0.8c0.1,0.3,0,0.6-0.2,0.9c-0.9,1.2-1.9,2.4-3,3.6
		c-1.1,1.2-2.1,2.4-3.2,3.7c0.3,0.1,0.6,0.2,0.9,0.2l0.8,0.2c0.6,0.2,1.2,0.4,1.8,0.7c0.6,0.2,1.1,0.7,1.4,1.2c0,0.4,0,0.9-0.3,1.3
		c-0.2,0.4-0.5,0.8-0.8,1.1c-0.3,0.3-0.7,0.7-1,1l-1.1,0.9c-0.4,0.3-0.8,0.6-1.1,0.9s-0.7,0.6-1.1,0.9c0,0.2,0,0.3,0,0.5
		c0,0.1,0,0.2,0,0.3c0,0.1,0,0.3,0,0.4c2.5-0.2,5.1-0.3,7.8-0.4c2.5,0,5,0.1,7.5,0.5l0.5,0.2C341.3,137.4,341.3,137.5,341.3,137.7z
		 M315.8,110.9c0-0.1-0.1-0.2-0.3-0.2c-0.2,0-0.3,0-0.5,0.1c-0.9,0.8-1.6,1.8-2.2,2.9c-0.5,1.1-1,2.1-1.5,3.2
		c-0.3,0.6-0.5,1.3-0.7,1.9c-0.2,0.7-0.4,1.3-0.6,2c-0.2,0.9-0.4,1.9-0.6,2.9c-0.2,1.3-0.5,2.5-0.9,3.7c1.6-2.7,3.1-5.6,4.4-8.5
		C314.1,116.3,315,113.6,315.8,110.9z M323.6,123.4c-0.4,0.4-0.7,0.7-0.9,0.9s-0.5,0.5-0.8,0.7c-0.5,0.5-1,1-1.4,1.6
		c0.2,1.2,0.5,2.3,1,3.3c0.5,1,1.1,2.2,1.8,3.4c0-1.9,0.1-3.6,0.1-5.1C323.5,126.7,323.5,125.1,323.6,123.4L323.6,123.4z
		 M328.3,130.1c-0.2-0.2-0.4-0.3-0.6-0.4c-0.2,0-0.4-0.1-0.6-0.2c-0.2,0-0.4-0.1-0.7-0.1c-0.3,0-0.5-0.1-0.8-0.1l-0.1,2.1
		c0,0.7,0,1.5,0,2.3l1.2-1.2l0.5-0.5c0.2-0.2,0.3-0.3,0.4-0.5C327.9,131.2,328.2,130.6,328.3,130.1L328.3,130.1z M329.4,119.8
		c-0.3,0.1-0.7,0.2-1,0.3c-0.3,0.1-0.6,0.3-0.8,0.5l-0.8,0.5c-0.3,0.2-0.5,0.3-0.9,0.5c0,0.4,0,0.9-0.1,1.6c-0.1,0.7,0,1.3,0,2
		c0.3-0.3,0.5-0.6,0.6-0.8c0.1-0.2,0.3-0.4,0.4-0.6c0.4-0.5,0.8-1,1.3-1.5c0.4-0.5,0.8-1,1.2-1.6c0.1-0.2,0.2-0.3,0.2-0.5
		C329.5,120.2,329.5,120,329.4,119.8L329.4,119.8z M329.5,111.2c-0.5-0.2-1-0.4-1.4-0.8c-0.5-0.4-0.8-0.9-1.1-1.4
		c-0.1,0.7-0.2,1.4-0.3,2.2c0,0.7-0.1,1.4-0.2,2.1c0.4-0.3,0.9-0.6,1.4-1C328.5,111.9,329,111.6,329.5,111.2L329.5,111.2z"/>
	<path class="st2" d="M375.7,123.1c0.3,0.8,0,1.3-0.9,1.4c-0.8-0.2-1.5-0.3-2.4-0.5c-0.8-0.2-1.6-0.2-2.4,0
		c-1.3,0.2-2.6,0.5-3.9,0.9c-1.3,0.4-2.5,0.8-3.8,1.2l-3.8,1.2c-1.3,0.4-2.6,0.7-3.9,0.9c-1,0.2-2,0.1-2.9-0.4
		c-0.9-0.4-1.6-1-2.3-1.6c-0.1-0.1-0.2-0.3-0.3-0.5c-0.1-0.1-0.1-0.3,0-0.5c0.1-0.1,0.2-0.3,0.3-0.4c0.1-0.1,0.2-0.2,0.4-0.3
		c0.5,0.6,1.2,1.1,2,1.2c0.7,0.1,1.5,0.1,2.2,0c0.8-0.1,1.6-0.3,2.3-0.6c0.7-0.2,1.4-0.4,2.2-0.6c1.4-0.3,2.7-0.7,4-1.1
		c1.3-0.5,2.6-0.9,3.9-1.2c1.1-0.3,2.2-0.5,3.3-0.7c1.2-0.1,2.3-0.2,3.5-0.1c0.5,0.1,1,0.2,1.5,0.4
		C375.1,122.2,375.5,122.6,375.7,123.1z"/>
	<path class="st2" d="M425.8,147c-0.1,0.2-0.2,0.4-0.3,0.6c-0.1,0.2-0.3,0.4-0.5,0.4c-0.8,0.2-1.6,0.3-2.5,0.3
		c-0.8,0-1.6-0.1-2.3-0.2c-1.3-0.2-2.7-0.4-4-0.8c-1.3-0.3-2.6-0.7-3.9-1.1c-2.8-0.8-5.5-1.7-8.3-2.6c-2.8-0.9-5.6-1.5-8.6-1.8
		c-1.3-0.1-2.7-0.1-4-0.1c-1.4,0.1-2.8,0.3-4.1,0.6c-0.6,0.1-1.2,0.2-1.8,0.3c-0.6,0.1-1.2-0.1-1.7-0.5c-0.2-0.1-0.3-0.3-0.3-0.5
		c0-0.2,0-0.4,0.1-0.6c0.2-0.3,0.5-0.5,0.8-0.6c0.3-0.1,0.7-0.2,1-0.3c0.4-0.1,0.8-0.2,1.3-0.2c0.4,0,0.9,0,1.3,0h1.3
		c0.4,0,0.9-0.1,1.3-0.2c0.8-0.1,1.5-0.5,1.9-1.2c0.2-0.3,0.3-0.6,0.5-0.9c0.2-0.4,0.3-0.7,0.3-0.9c0.1-0.3,0.1-0.7,0-1
		c0-0.3-0.1-0.7-0.3-1c-0.3-0.5-0.5-0.9-0.9-1.3c-0.3-0.4-0.6-0.9-0.8-1.3c-0.2-0.3-0.3-0.7-0.3-1.1c0-0.4,0-0.7,0.1-1.1
		c0.1-0.4,0.2-0.8,0.2-1.1c0.1-0.4,0.2-0.7,0.3-1.1c0.1-0.3,0.2-0.7,0.4-1c0.1-0.3,0.2-0.7,0.3-1c0-0.4-0.2-0.8-0.4-1.1
		c-0.3-0.4-0.5-0.7-0.9-1c-0.3-0.3-0.6-0.6-0.8-1c-0.1-0.3-0.3-0.5-0.3-0.8c-0.1-0.3-0.1-0.7,0-1c0.2-0.2,0.4-0.4,0.7-0.6
		c0.3-0.1,0.5,0,0.8,0.3c0.6,0.8,1.2,1.5,1.8,2.2c0.6,0.7,1.1,1.6,1.4,2.5c0,0.6-0.1,1.2-0.4,1.8c-0.2,0.5-0.5,1.1-0.8,1.6
		c-0.3,0.5-0.5,0.9-0.7,1.4c-0.1,0.3-0.1,0.5-0.2,0.8c-0.1,0.2,0,0.5,0.1,0.7c0.4,0.5,0.8,1,1.2,1.5c0.4,0.5,0.8,1,1.1,1.5
		c0.2,0.4,0.4,0.8,0.5,1.2c0.1,0.5,0,0.9-0.1,1.4c-0.1,0.5-0.3,0.9-0.5,1.4c-0.2,0.5-0.5,0.9-0.9,1.3c1.2,0.1,2.4,0.2,3.6,0.3
		s2.3,0.3,3.4,0.5c2.2,0.5,4.4,1,6.5,1.7c2.1,0.7,4.2,1.3,6.4,1.9c1.8,0.5,3.7,0.9,5.6,1.3c1.9,0.4,3.8,0.6,5.8,0.6
		c0.1,0.1,0.3,0.1,0.4,0.2C425.7,146.7,425.8,146.8,425.8,147z M416.5,128.6c0.1,0.2,0.1,0.5-0.2,0.6c0,0-0.1,0-0.1,0
		c-0.3,0.1-0.5,0.2-0.7,0.4c-1.7,0.3-3.4,0.7-5.1,1.3c-1.6,0.5-3.1,1.3-4.5,2.3c-0.6,0.4-1.2,0.9-1.8,1.4l-1.8,1.8
		c0.8-0.4,1.6-0.8,2.4-1.1c0.9-0.4,1.7-0.7,2.7-1c1-0.3,2-0.4,3.1-0.4c1.1,0.1,2.1,0.4,3,1c0.5,0.4,0.8,1,0.8,1.6
		c0,0.3-0.1,0.6-0.3,0.8c-0.2,0.2-0.4,0.4-0.7,0.4c-1.3,0.5-2.6,1-4,1.5s-2.7,0.9-4.1,1.3c-0.1,0-0.2-0.1-0.3-0.2
		c-0.1-0.1,0-0.2,0.1-0.3c1-0.5,2.1-1.1,3.1-1.7c1-0.6,2-1.4,2.9-2.2c-0.1-0.2-0.2-0.3-0.4-0.4c-0.2-0.1-0.3-0.2-0.5-0.3
		c-0.3-0.1-0.6-0.2-0.9-0.2c-0.3,0-0.6,0-0.9-0.1c-0.5-0.1-1,0-1.5,0.1c-0.5,0.1-0.9,0.3-1.3,0.5c-0.5,0.3-1.1,0.7-1.5,1.1l-1.4,1.2
		l-0.5,0.4c-0.2,0.1-0.4,0.3-0.5,0.4l-0.6,0.2c-0.2,0.1-0.5,0-0.7-0.1c-0.5-0.2-0.9-0.7-1-1.2c0.1-0.4,0.2-0.7,0.3-1
		c0.2-0.3,0.3-0.6,0.6-0.9c0.4-0.4,0.7-0.8,1.2-1.1c0.4-0.3,0.8-0.7,1.2-1.1l-1.3,0.4c-0.5,0.1-1,0.3-1.5,0.5l-1.3,0.5l-0.9,0.3
		c-0.4,0.1-0.7,0.1-1.1,0.1c-0.4,0-0.7-0.2-1-0.5c-0.1-0.1-0.3-0.3-0.3-0.4c0-0.2,0-0.4,0.2-0.5c0.3-0.3,0.8-0.5,1.2-0.6
		c0.5,0,0.9-0.2,1.3-0.3c0.7-0.3,1.6-0.6,2.7-1c1-0.4,2-0.7,2.7-1c-0.2-0.2-0.3-0.5-0.3-0.7c0-0.3-0.1-0.6-0.2-0.9
		c0-0.3-0.1-0.6-0.1-0.9c0-0.3,0-0.6-0.1-0.9c-0.6,0.2-1.3,0.4-2,0.5c-0.7,0.2-1.4,0-2-0.4c-0.4-0.2-0.6-0.7-0.6-1.1
		c0-0.2,0.2-0.4,0.4-0.4c0.2-0.1,0.5-0.1,0.7,0c0.3,0.1,0.5,0.1,0.8,0c0.3-0.1,0.6-0.1,0.9-0.2c0.3-0.1,0.6-0.2,0.8-0.3l0.9-0.4
		c0-0.3,0-0.6,0-0.9s0-0.7,0-1.1c-0.1-0.6-0.1-1.3,0-1.9c-0.2-0.1-0.4-0.2-0.6-0.3c-0.2,0-0.4-0.1-0.5-0.2c-0.4-0.1-0.8-0.3-1.3-0.4
		c-1-0.4-1.9-0.9-2.7-1.5c-0.9-0.6-1.6-1.4-2.2-2.4c-0.3-0.6-0.3-1.3-0.2-1.9c0.1-0.4,0.4-0.7,0.7-0.9c0.3-0.2,0.7-0.3,1-0.4
		c1.1-0.3,2.2-0.5,3.3-0.6c0.5-0.7,1-1.5,1.5-2.2s0.9-1.5,1.3-2.2c-1,0.5-2,1-3,1.6c-1,0.6-2,1.2-3,1.7c-1.1,0.6-2.5,0.7-3.7,0.4
		l-0.8-0.6c-0.3-0.2-0.5-0.5-0.5-0.8c0-0.2,0-0.3,0-0.5c0-0.2,0.2-0.4,0.4-0.4c0.7,0.5,1.6,0.7,2.5,0.5c0.9-0.2,1.7-0.5,2.5-0.9
		c0.4-0.2,0.8-0.4,1.1-0.6l1.1-0.6c0.8-0.4,1.6-0.9,2.3-1.3c0.8-0.5,1.6-0.9,2.5-1.1l1.1,0.1c0.4,0,0.7,0.2,1,0.4
		c0.9,0.1,1.9,0,2.8-0.4c0.9-0.3,1.7-0.8,2.4-1.3c0.7-0.5,1.4-0.9,2.2-1.2c0.5-0.1,1.1,0,1.5,0.4c0.2,0.2,0.3,0.4,0.3,0.7
		c0.1,0.2,0.1,0.5,0,0.7c-0.5,0.9-1.1,1.6-1.8,2.3c-0.7,0.7-1.4,1.4-2,2.1l1-0.1c0.3,0,0.7,0,1,0.1c0.2,0.1,0.3,0.2,0.4,0.4
		c0.1,0.2,0.1,0.4,0,0.6c-0.5,0.5-1.2,0.9-1.8,1.1c-0.7,0.2-1.4,0.4-2,0.7l-0.6,0.3c-0.2,0.1-0.4,0.2-0.5,0.4
		c0.1,0.4,0.2,0.8,0.3,1.2c0.1,0.4,0.4,0.7,0.7,0.8c0.4,0.2,0.9,0.3,1.4,0.3l1.4,0.1c0.5,0.1,1,0.1,1.5,0.2c0.5,0.1,0.9,0.2,1.4,0.5
		c0.4,0.3,0.5,0.6,0.4,1c-0.1,0.3-0.3,0.6-0.7,0.7l-0.9,0.2l-1.3,0.2l-1.4,0.2l-1.2,0.2c0.2,0.4,0.2,0.8,0.2,1.2c0,0.2,0,0.4,0,0.6
		c0,0.2,0,0.4,0,0.6l0.8-0.5c0.3-0.2,0.6-0.3,0.8-0.4c0.5-0.1,1.1,0,1.5,0.4c0.2,0.1,0.3,0.3,0.2,0.5c0,0.2-0.1,0.3-0.2,0.5
		c-0.5,0.4-1.1,0.8-1.7,1.1c-0.6,0.3-1.3,0.6-1.9,0.9c-0.3,0.4-0.4,0.8-0.5,1.3c0,0.5-0.2,0.9-0.4,1.3c-0.4,1.2-1,2.3-1.8,3.2
		c0.5-0.1,0.9-0.3,1.4-0.5l1.3-0.6c0.7-0.3,1.5-0.5,2.2-0.7c0.8-0.2,1.5-0.3,2.3-0.4l0.9,0.4C416.3,128,416.5,128.3,416.5,128.6z
		 M399.5,114.2c-0.4,0.1-0.9,0.2-1.3,0.3c-0.4,0.1-0.8,0.4-1.1,0.7c-0.1,0.2-0.1,0.4-0.1,0.7c0,0.2,0.1,0.4,0.3,0.5l0.2-0.3
		c0.1-0.1,0.2-0.2,0.3-0.3c0.3-0.3,0.6-0.6,0.8-0.8C399,114.8,399.3,114.5,399.5,114.2L399.5,114.2z M411.4,107.3
		c-0.2,0.1-0.4,0.2-0.6,0.3c-0.2,0.1-0.4,0.2-0.6,0.3c-0.6,0.3-1.3,0.5-2,0.7c-0.7,0.1-1.4,0-2-0.5c-0.2,0.3-0.4,0.6-0.6,0.9
		c-0.2,0.3-0.5,0.6-0.7,0.9s-0.5,0.6-0.7,0.9c-0.2,0.3-0.4,0.6-0.7,0.9l0.8-0.2c0.2-0.1,0.5-0.1,0.7,0c0.3,0,0.6,0.2,0.7,0.5
		c0.1,0.3,0.1,0.6,0,0.7c-1.2,0.8-2.4,1.6-3.5,2.5c-1.1,0.9-2.2,1.8-3.3,2.7c0.7,0.4,1.5,0.8,2.2,1.2c0.8,0.4,1.6,0.6,2.4,0.6
		c0.3-0.3,0.5-0.6,0.5-1c0-0.5,0.1-0.9,0.1-1.3c0-0.2,0.1-0.4,0.1-0.5c0-0.2,0.1-0.4,0.2-0.6c0.1,0.4,0.2,0.9,0.3,1.3
		c0.1,0.4,0.3,0.7,0.5,1.1c0.2,0.4,0.4,0.9,0.5,1.3c0.2,0.5,0.2,1,0.2,1.4c0.5,0.1,0.9,0.1,1.3,0.1c0.4,0,0.9,0,1.4,0
		c0.1-0.4,0.1-0.7,0.1-1.1c0-0.3,0-0.7,0-0.9c-0.1-0.3-0.2-0.5-0.3-0.8c-0.2-0.2-0.4-0.4-0.7-0.6c0.3-0.4,0.7-0.6,1.2-0.7
		c0.3,0,0.5,0,0.8,0.2c0.2,0.1,0.4,0.3,0.6,0.5c0.2-0.1,0.4-0.1,0.6-0.2c0.2-0.1,0.4-0.3,0.5-0.5c-0.4,0-0.8-0.1-1.1-0.3l-1.1-0.5
		c-0.6-0.4-1.2-0.9-1.5-1.5c-0.3-0.5-0.4-1.1-0.5-1.7c-0.1-0.6,0-1.2,0.1-1.8c0.2-0.3,0.4-0.6,0.7-0.8c0.3-0.2,0.6-0.3,0.9-0.4
		c0.2-0.1,0.4-0.2,0.6-0.2c0.4-0.5,0.7-1,1-1.5S411.1,107.8,411.4,107.3L411.4,107.3z M408.4,122.6c-0.5-0.1-1.2-0.1-1.8-0.1
		c-0.7,0-1.3,0-1.9-0.1c-0.1,0.4-0.2,0.7-0.1,1.1c0,0.4,0,0.8,0.1,1.1c0.5-0.3,1.1-0.6,1.8-1C407.2,123.3,407.9,123,408.4,122.6
		L408.4,122.6z M407.9,125.3c-0.4,0.2-0.9,0.5-1.6,0.8l-1.6,0.9c0.1,0.6,0.2,1.2,0.2,1.9c0.1,0.7,0.1,1.3,0.2,1.8
		c0.1-0.1,0.2-0.1,0.3-0.1c0.1,0,0.2-0.1,0.3-0.1c0.5-0.8,1-1.7,1.4-2.6C407.4,127,407.7,126.2,407.9,125.3L407.9,125.3z"/>
	<path class="st2" d="M470.2,117.6c0,0.3-0.1,0.6-0.3,0.7c-0.2,0.2-0.5,0.3-0.7,0.4l-1.2,0.5l-1.4,0.7c-0.5,0.2-0.9,0.4-1.4,0.6
		c-0.5,0.2-0.9,0.4-1.2,0.6c0.2,0.2,0.4,0.4,0.5,0.7c0.1,0.2,0.2,0.5,0.2,0.8c-0.3,1.3-0.9,2.5-1.7,3.5c-0.9,1-1.8,2-2.7,3
		c-0.5,0.5-1,0.9-1.5,1.4s-1.1,1.1-1.7,1.9c1.4-0.7,2.8-1.4,4.3-2.1c1.4-0.7,2.6-1.4,3.6-2c0.5-0.2,1.2,0,1.5,0.5
		c0.1,0.2,0.1,0.4,0.1,0.6c0,0.2-0.1,0.5-0.3,0.6l-0.9,0.7c-0.3,0.3-0.7,0.6-1.1,0.8l-1.2,0.8c-0.4,0.3-0.7,0.5-1,0.8
		c0.5,0.2,1,0.3,1.6,0.4c0.5,0.1,1,0.1,1.5,0.1s1,0.1,1.5,0.1c0.5,0,1,0,1.5,0.1c0.2,0,0.3,0.1,0.4,0.3c0.1,0.2,0.2,0.3,0.3,0.5
		c0.1,0.3,0,0.7-0.3,0.9c-0.3,0.2-0.6,0.3-0.8,0.5c-1,0.8-2.1,1.4-3.3,2c-1.1,0.6-2.2,1.2-3.3,1.8c-0.1,1.2-0.2,2.4-0.2,3.6
		c0,1.2,0,2.3-0.2,3.5c-0.2,0.8-0.4,1.7-0.8,2.4c-0.4,0.8-1,1.4-1.8,1.9c0.6-3.4,0.9-6.8,0.8-10.3c-0.8,0.3-1.5,0.6-2.2,0.9
		c-0.7,0.3-1.3,0.6-2,0.9l-2,0.8c-0.7,0.3-1.4,0.5-2.1,0.7c-0.4,0.1-0.8,0.1-1.1,0c-0.4-0.1-0.7-0.4-0.8-0.8
		c-0.1-0.1-0.1-0.2-0.1-0.4v-0.5c0.3-0.3,0.6-0.6,1-0.8c0.3-0.2,0.7-0.5,1-0.7l0.4-0.3c0.1-0.1,0.2-0.2,0.4-0.3c1.1-1,2.2-2,3.3-3.1
		s2.3-2.2,3.6-3.5c-1.3,0.6-2.4,1.1-3.3,1.6s-1.8,0.9-2.7,1.3c-0.3,0.1-0.6,0.1-0.8,0.1c-0.3,0-0.5-0.2-0.6-0.5
		c-0.1-0.5,0-1,0.3-1.3c0.6-0.4,1.2-0.8,1.8-1.2s1.2-0.8,1.8-1.3s1.2-1,1.9-1.5c0.7-0.7,1.4-1.4,2-2.1c-1,0.6-2,1.1-3,1.5
		c-0.4,0.1-0.9-0.1-1.2-0.4c-0.4-0.4-0.6-0.9-0.5-1.4c0-0.5,0.2-1.1,0.4-1.6c0.1-0.3,0.3-0.6,0.4-0.8s0.3-0.6,0.5-1
		c-0.8,0.3-1.6,0.6-2.3,0.9l-2,0.9c-1.3,0.6-2.6,1-4,1.3c-0.3-0.1-0.7-0.2-1-0.3c-0.4-0.1-0.7-0.4-0.8-0.7c0-0.3,0.1-0.5,0.2-0.6
		c0.2-0.1,0.3-0.1,0.5-0.1c0.2,0,0.4-0.1,0.7-0.1c0.2,0,0.5-0.1,0.7-0.3l2.5-0.9c0.8-0.3,1.6-0.7,2.5-1l2.3-1
		c0.8-0.3,1.5-0.7,2.2-1.2c0.3-0.2,0.6-0.5,0.7-0.9c0.1-0.4,0.2-0.7,0.3-1.1c0-0.1,0-0.3,0-0.4c0-0.2,0-0.3,0-0.5
		c-0.3,0.1-0.6,0.2-0.9,0.3l-0.8,0.4l-0.7,0.4c-0.2,0.1-0.5,0.2-0.8,0.3c-0.7,0.2-1.5,0.2-2.1-0.2c-0.2-0.2-0.2-0.4-0.2-0.7
		c0.1-0.3,0.3-0.5,0.5-0.6c0.9-0.3,1.8-0.7,2.7-1.2c0.9-0.5,1.8-1,2.7-1.4c0-0.3,0-0.7,0-1c0-0.4,0-0.8,0-1.2
		c-0.3,0.1-0.7,0.2-1,0.3l-0.9,0.4c-0.3,0.1-0.6,0.2-0.9,0.2c-0.3,0-0.6,0-0.9-0.2c-0.2,0.2-0.5,0.3-0.8,0.4c-0.3,0.1-0.5,0-0.8-0.1
		c-0.7-0.4-1.3-1-1.7-1.8c-0.2-0.4-0.4-0.7-0.7-1.1s-0.4-0.8-0.7-1.3c-1,1-2.1,2-3.2,2.8c-1.1,0.9-2.2,1.8-3.2,2.7
		c0,1.1-0.1,2.1-0.1,3.2c0,1-0.1,2.2-0.1,3.4c0.6-0.5,1.2-1,1.7-1.5c0.5-0.5,0.9-1,1.4-1.5c0.4-0.5,0.8-0.8,1.1-1.3s0.7-0.8,1.1-1.3
		c-0.6,1.5-1.3,2.9-2.3,4.2c-1,1.3-2,2.6-3.1,3.9c0.1,2.5,0.1,4.9,0.2,7.4c0,2.5,0.2,4.9,0.4,7.4c-0.1,0.2-0.2,0.3-0.4,0.4
		c-0.6-0.2-1.2-0.5-1.5-1c-0.5-0.5-0.9-1-1.2-1.4c-0.7-0.9-1.4-1.8-2.2-2.6c-0.8-0.9-1.7-1.6-2.7-2.2c-0.3,0-0.6,0-0.8,0.1l-0.7,0.2
		L433,135c-0.4,0.2-0.9,0.1-1.3-0.1c-0.3-0.1-0.4-0.4-0.3-0.7c0-0.3,0.1-0.6,0.3-0.8c0.1-0.2,0.3-0.4,0.4-0.5l0.5-0.4l0.6-0.4
		c0.2-0.2,0.3-0.3,0.5-0.5c1.2-1,2.5-2,3.8-3c1.3-1,2.5-2.1,3.8-3.2c-0.1-1.1-0.1-2.3,0-3.4c0.1-1.2,0.1-2.3,0-3.5l-2.9,1.9
		c-1,0.7-1.9,1.3-2.9,1.8c-0.7,0.4-1.4,0.7-2.2,0.9c-0.8,0.2-1.6,0.1-2.4-0.1l-0.8-0.8c-0.3-0.3-0.4-0.6-0.5-1
		c0-0.7,0.3-1.3,0.9-1.7v0.2c0,0.2,0,0.5,0.1,0.7c0.2,0.4,0.6,0.7,1,0.7c0.4,0,0.8,0,1.2-0.1l1.7-0.9c0.8-0.4,1.6-0.9,2.5-1.4
		s1.7-1,2.6-1.6c0.7-0.4,1.4-1,2-1.5c0.1-1.4,0.3-2.9,0.4-4.5c0.1-1.5,0.4-3,0.7-4.4c0.2-0.3,0.3-0.7,0.5-1c0.2-0.4,0.5-0.6,0.8-0.8
		c0.2-0.1,0.4-0.1,0.6,0c0.2,0,0.4,0.2,0.4,0.4c0.2,0.9,0.5,1.7,0.9,2.5c0.5,0.8,1.1,1.5,1.9,2c0.1,0.1,0.2,0.1,0.3,0.1
		c0.1,0,0.2,0,0.3,0.1c0.3,0.1,0.6,0.2,0.9,0.2c-0.4-1.6-0.9-3.2-1.5-4.8c0-0.2,0.2-0.3,0.4-0.2c0,0,0,0,0,0c0.2,0,0.4,0.1,0.6,0.2
		c0.3,0.1,0.6,0.4,0.8,0.7c0.1,0.2,0.3,0.4,0.4,0.5l0.3,0.5c0.2,0.4,0.4,0.9,0.5,1.3s0.3,0.9,0.5,1.3c0.2,0.4,0.4,0.9,0.6,1.3
		c0.3,0.5,0.6,1,1,1.5c0.1-0.4,0.1-0.8,0.1-1.3c0-0.3,0-0.7-0.1-1c-0.1-0.3,0-0.4,0-0.6s0-0.4,0-0.6c0-0.6,0.1-1.2,0.3-1.8
		c0.3-0.6,0.7-1,1.3-1.3c1.6-1.1,3.3-2.1,5-3c1.7-0.9,3.5-1.6,5.4-1.9c1.2-0.1,2.5,0.4,3.4,1.2c0.5,0.6,0.8,1.3,0.8,2
		c0.1,0.7,0,1.4-0.2,2.1c-0.6,1.2-1.3,2.3-2.3,3.1c-0.9,1-2.2,1.6-3.5,1.9c-0.5,0.4-1,0.8-1.5,1.1l-1.7,0.9c0.1,0.2,0.2,0.5,0.5,0.6
		c0.2,0.1,0.4,0.3,0.6,0.3c0.4,0,0.8,0,1.1-0.2c0.3-0.2,0.7-0.3,1-0.3c0.2,0,0.5,0,0.7,0c0.2,0.1,0.4,0.2,0.6,0.4
		c0.1,0.3,0.1,0.6-0.1,0.8c-0.2,0.3-0.5,0.5-0.7,0.6c-0.4,0.3-0.8,0.6-1.3,0.8c-0.4,0.3-0.9,0.5-1.3,0.8c-0.1,0.1-0.3,0.2-0.4,0.3
		l-0.4,0.3c-0.1,0.4-0.2,0.9-0.4,1.5c-0.2,0.6-0.3,1-0.4,1.4c1-0.4,1.8-0.8,2.6-1.1c0.8-0.4,1.5-0.7,2.2-1.1c0.7-0.3,1.5-0.7,2.2-1
		s1.5-0.6,2.4-0.8C469.4,117.1,469.8,117.3,470.2,117.6z M441.4,136.5c0-0.5,0-1.1,0-1.8s0-1.3,0-2.1s0-1.4,0-2.2s-0.1-1.4-0.1-2
		c-0.3,0.3-0.7,0.6-1.1,1s-0.9,0.8-1.3,1.2c-0.5,0.4-1,0.8-1.4,1.2c-0.5,0.4-0.9,0.8-1.3,1.1c0.7,0.2,1.4,0.6,2.1,1
		c0.6,0.4,1.2,0.9,1.8,1.4l0.6,0.5C440.9,136.1,441.2,136.3,441.4,136.5z M447.1,111.2c-0.3-0.2-0.5-0.4-0.7-0.7l-0.5-0.7
		c-0.1-0.2-0.3-0.5-0.5-0.7c-0.2-0.3-0.4-0.6-0.7-0.8c-0.2,0.9-0.4,1.9-0.5,2.8c-0.1,0.9-0.2,1.9-0.2,3c0.5-0.5,1.1-1,1.6-1.5
		l0.7-0.7C446.7,111.8,446.9,111.5,447.1,111.2z M458.8,135.6c-1.1,0.9-2.2,1.9-3.3,2.8s-2.1,2-3.3,3.3c1.3-0.5,2.5-1,3.6-1.5
		s2.1-1,3.1-1.5L458.8,135.6z M456.8,112.5c-0.1-0.7-0.2-1.5-0.4-2.4c-0.2-0.7-0.3-1.5-0.3-2.2c-0.7,0.4-1.3,0.9-1.8,1.5
		c-0.1,0.7-0.2,1.5-0.1,2.3c0.1,0.8,0.2,1.6,0.4,2.4c0.4-0.3,0.8-0.5,1.2-0.8C456,113,456.4,112.7,456.8,112.5z M462.8,121.7
		c-0.8,0.3-1.6,0.7-2.4,1.1c-0.7,0.4-1.4,0.8-2,1.4c-1.1,1-1.9,2.3-2.2,3.8c0.1,0.3,0.5,0.5,0.8,0.4c0,0,0,0,0,0
		c0.3-0.1,0.7-0.2,0.9-0.3c1.1-0.8,2-1.8,2.8-2.9C461.6,124.1,462.3,122.9,462.8,121.7z M461.6,104.6c-0.7,0.4-1.4,0.8-2.1,1.1
		c-0.7,0.3-1.4,0.7-2,1.1c0.2,0.3,0.3,0.7,0.4,1c0.1,0.3,0.2,0.6,0.3,1c0.1,0.3,0.1,0.7,0.2,1c0,0.4,0.1,0.8,0.2,1.3
		c0.7-0.6,1.2-1.3,1.7-2c0.4-0.7,0.8-1.4,1.1-2.1c0.2-0.3,0.3-0.7,0.4-1.1C461.8,105.5,461.8,105,461.6,104.6L461.6,104.6z
		 M467.1,105.1c0.1-0.4,0-0.8-0.3-1.1c-0.2-0.3-0.6-0.5-1-0.6c-0.5-0.1-1,0-1.5,0.1c-0.5,0.2-1.1,0.3-1.6,0.5c0.7,0.4,1.1,1.1,1,1.9
		c-0.2,0.9-0.5,1.7-1,2.4c-0.6,0.8-1.2,1.6-1.9,2.4c0.3-0.1,0.5-0.1,0.8-0.2c0.2-0.1,0.3-0.1,0.5-0.1c0.1,0,0.3-0.1,0.4-0.1
		c0.2,0,0.3,0.1,0.5,0.2c0.4-0.4,0.9-0.9,1.3-1.3c0.4-0.5,0.8-0.9,1.2-1.4c0.4-0.5,0.7-0.9,1-1.4C466.8,106,467,105.6,467.1,105.1
		L467.1,105.1z M464.9,135.2c-0.7-0.1-1.3-0.2-2-0.3c-0.6-0.1-1.2-0.3-1.8-0.6v3.1l1.8-1.1C463.5,136,464.2,135.7,464.9,135.2
		L464.9,135.2z"/>
	<path class="st2" d="M493,137.5c0,0.5-0.3,1-0.8,1.1c-1.1,0.3-2.2,0-3-0.8c-0.3-0.3-0.6-0.7-0.7-1.1c-0.1-0.4-0.3-0.8-0.5-1.2
		c0-0.1,0.1-0.2,0.3-0.3c0.2-0.1,0.3-0.1,0.5,0l0.5,0.2c0.2,0.1,0.3,0.1,0.5,0.1c0.3,0,0.5,0,0.8,0c0.3,0,0.5,0,0.8,0.1
		c0.4,0.2,0.8,0.4,1.2,0.7C492.9,136.5,493.1,137,493,137.5z M493.9,112c0.2,1,0.2,2,0,2.9c-0.2,1-0.4,1.9-0.6,2.9
		c-0.4,2-0.7,4-1,6.1c-0.3,2.1-0.5,4.2-0.7,6.2c-0.1,0.2-0.3,0.4-0.5,0.5c-0.2,0.1-0.5,0-0.7-0.1c-0.3-0.5-0.5-1-0.6-1.5
		c-0.1-0.5-0.1-1,0-1.5c0.2-2.2,0.4-4.6,0.7-7.1c0.3-2.5,0.6-4.9,0.9-7.4c0-0.2-0.1-0.5-0.3-0.6c-0.2-0.2-0.4-0.3-0.6-0.4
		c0.1-0.3,0.2-0.6,0.5-0.7c0.3-0.2,0.6-0.3,0.9-0.4c0.4,0,0.8,0,1.2,0.2C493.4,111.3,493.7,111.6,493.9,112z"/>
</g>
</svg>
