<svg xmlns="http://www.w3.org/2000/svg" width="309" height="377" viewBox="0 0 309 377">
    <g fill="none" fill-rule="evenodd">
        <path fill="#FFFAEC" d="M0 0H309V377H0z"/>
        <path fill="#FDEEDB" d="M96.187 278.477c-2.846 11.198-6.454 22.19-10.8 32.902-1.9 3.799-1.101 9.207-2.872 14.444-1.772 5.237-6.804 15.903-7.388 18.608-.583 2.704.972 5.88 1.923 11.761.95 5.88 1.296 6.76 3.197 9.143 1.9 2.382 5.68 7.962 7.128 7.383 1.447-.58 1.684-2.704 1.684-2.704.82 1.035 1.788 1.946 2.873 2.704 1.21.644 2.009-1.352 1.685-2.769-.194-.862-.432-1.715-.713-2.554 0 0 1.512.322 1.923-.794.132-.987-.066-1.99-.562-2.854l-3.434-3.499-.173-3.734c1.249 1.532 2.613 2.967 4.082 4.292.8.387 1.836-.73 1.123-2.79-.533-1.618-1.258-3.167-2.16-4.614-.561-.794-2.484-4.915-2.484-4.915.498-2.814 1.14-5.6 1.923-8.349.41-.408 2.16-8.585 2.808-10.731.648-2.146 0-9.293.67-12.384.669-3.09 3.693-15.667 3.693-15.667s1.274 27.343 1.598 44.835c.036 7.151.23 17.413.58 30.784l73.983.025c2.504-6.634 4.376-11.26 5.617-13.876 7.992-16.848 11.189-42.28 7.668-53.655-3.52-11.375-18.23-23.824-21.427-33.052-3.197-9.23-5.595-17.642-5.12-18.587.476-.944 16.805-39.512 18.23-41.422 1.426-1.91 1.686-1.974 1.686-2.94.032-.53.032-1.06 0-1.589 0 0 8.402-17.642 10.8-19.058 1.512-1.176 3.687-.969 4.946.472 6.345 6.992 13.134 13.573 20.326 19.703 7.675 6.308 16.25 11.45 25.445 15.26 5.421 2.382 7.344 3.025 11.037.965 3.694-2.06 8.143-2.146 8.318-9.55.171-7.405-12.81-36.25-20.392-49.278-7.582-13.028-10.8-18.844-12.96-25.197-2.16-6.353-4.32-10.495-4.32-10.495s-.238-12.083-.8-16.848c-.561-4.764-.95-5.323-1.036-7.06-1.51-5.924-3.46-11.727-5.832-17.364-.8-1.116-1.728-.923-2.16 0-.432.923 2.592 7.941 2.592 11.118 0 3.176 0 8.584-1.123 8.735-1.124.15-1.664-1.267-2.16-2.297-2.12-5.35-4.55-10.575-7.28-15.646-2.31-3.67-3.348-4.85-4.644-4.142-1.296.708-1.036 1.996-.237 3.734.799 1.739 4.817 11.053 5.616 13.586.799 2.533-.216 2.94-.216 2.94s-5.854-16.998-7.755-19.552c-1.9-2.554-3.758-1.996-4.32 0-.561 1.996 7.236 18.2 7.625 20.346.389 2.147 0 2.984-.432 2.705-.432-.28-4.557-8.585-6.631-11.354-2.074-2.768-2.96-5.172-4.73-4.936-1.772.236-1.513 1.202-.713 3.648.799 2.447 5.767 12.728 6.48 16.462.713 3.734 1.123 7.061.173 7.383-.95.322-2.484-.322-4.969-2.94-2.181-2.507-5.191-4.158-8.488-4.658-2.398 0-3.759.73-3.24 1.76.518 1.03 8.92 8.456 10.432 10.538 3.457 4.094 7.345 7.807 11.6 11.075 5.443 4.292 7.041 6.288 8.078 8.027 1.037 1.738 8.964 14.079 10.8 20.11 1.836 6.03 2.16 7.941 2.009 7.469-.151-.472-14.882-21.462-23.198-25.991-8.317-4.529-10.8-1.266-18.706-8.885-7.906-7.62-12.658-8.907-16.006-16.183-3.348-7.276-3.845-11.44-3.693-13.671.15-2.233 1.296-9.852 1.296-9.852s.15.15 4.32-2.146c4.168-2.296 3.045-8.585 4.32-11.053 1.274-2.468 2.721-4.443 1.512-6.675-.602-1.245-1.66-2.213-2.96-2.704 0 0-1.36-18.951-8.402-26.87-3.7-4.589-9.21-7.372-15.12-7.641-4.251-.969-8.649-1.13-12.96-.473-5.443 1.202-21.6 14.23-23.047 24.961-.754 6.55.129 13.185 2.57 19.316.151 1.18-.41-.408-1.36 1.417-.951 1.824-.649 3.348.712 6.438 1.36 3.09 3.046 6.181 3.694 6.267.648.086 1.598 6.761 4.708 11.955 3.11 5.194 6.718 8.177 7.906 10.087.672 1.006 1.189 2.105 1.534 3.262-.125 3.554-.58 7.09-1.361 10.56-.846 2.505-2.502 4.663-4.709 6.138 0 0-15.509 1.588-18.878 7.319-3.37 5.73-2.722 13.135-3.932 17.427-1.21 4.293-9.18 15.431-12.7 22.257-3.521 6.825-2.722 20.818.15 26.548 1.68 3.349 2.99 6.868 3.91 10.495 0 0 .972 14.766 1.923 20.347.773 7.709.932 15.466.475 23.2-.238 1.18-.778 5.087-.778 5.087z"/>
    </g>
</svg>
