<svg xmlns="http://www.w3.org/2000/svg" viewBox="0 0 283.43 133.92"><defs><style>.cls-1{fill:#242122;}.cls-2{fill:#3b3b3b;}.cls-3{fill:#221f20;}.cls-4{fill:#fbdb0d;}.cls-5{fill:#e7ad5b;}.cls-6{fill:#d98144;}.cls-7{fill:#d88144;}.cls-8{fill:#cebea4;}.cls-9{fill:#e9c6ca;}.cls-10{fill:#fff5f8;}.cls-11{fill:#4d4d4d;}.cls-12{fill:#ff7897;}</style></defs><g id="Layer_2" data-name="Layer 2"><g id="Layer_1-2" data-name="Layer 1"><path class="cls-1" d="M89.1,86.62c-1-4.43-2.12-8.84-2.29-13.4a14.7,14.7,0,0,1,1-6.42,2.14,2.14,0,0,1,.1-.22c1.9-3.1,4.8-5,7.86-6.77a.51.51,0,0,1,.24-.07c2,.2,3.89-.55,5.79-1.08a3.81,3.81,0,0,1,2.78.27c1.53.8,3.19,1.31,4.71,2.08,2.64,1.34,4,3.76,4.9,6.42a48.86,48.86,0,0,1,2.39,12,95.51,95.51,0,0,0,3.66,17.8c.94,3.29,1.75,6.62,2.63,9.93.14.54.21.93-.53,1.08s-.71-.32-.81-.75c-1.27-5.25-2.76-10.45-4.22-15.66a89.26,89.26,0,0,1-2.22-13.29c-.52-4.27-1.1-8.53-3-12.47-1.14-2.38-2.85-4.13-5.6-4.54a2.45,2.45,0,0,1-1-.61,4.71,4.71,0,0,0-5.66,0,1.43,1.43,0,0,1-1.34.35c-2.14-.65-3.76.26-5.08,1.89a2.69,2.69,0,0,1-1.06,1,6.14,6.14,0,0,0-3.6,4.29,17.88,17.88,0,0,0-.36,7.35A57.42,57.42,0,0,0,90,84.35c2,6.9,2.73,14,3.7,21.07.34,2.54.78,5.06,1.19,7.58.08.5.27.94-.52,1.08s-.76-.36-.85-.85c-1.1-6.18-1.83-12.41-2.69-18.62C90.45,91.9,89.69,89.28,89.1,86.62Z"/><path class="cls-1" d="M107.51,76.4a3,3,0,0,1-3.45,3.74,5.06,5.06,0,0,0-3.73.78,3.08,3.08,0,0,1-3.7-.12A3.26,3.26,0,0,1,95.86,77a22.3,22.3,0,0,1,2-3.43,4.71,4.71,0,0,1,5.27-1.29,14.68,14.68,0,0,1,3.67,2.7A2.68,2.68,0,0,1,107.51,76.4Z"/><path class="cls-2" d="M110.52,69.63a2.06,2.06,0,0,1-1.28,2.49,1.67,1.67,0,0,1-2-1.43,2,2,0,0,1,1.31-2.57A1.74,1.74,0,0,1,110.52,69.63Z"/><path class="cls-1" d="M98.7,67.08a1.84,1.84,0,0,1-1.26,2.31,2,2,0,0,1-2-1.75,1.82,1.82,0,0,1,1.27-2.3A1.93,1.93,0,0,1,98.7,67.08Z"/><path class="cls-2" d="M104.93,66.1a2.11,2.11,0,0,1-1.32,2.57,1.77,1.77,0,0,1-1.9-1.53A2.1,2.1,0,0,1,103,64.57,1.77,1.77,0,0,1,104.93,66.1Z"/><path class="cls-1" d="M90.9,72.32a1.72,1.72,0,0,1,1.18-2.24,2.1,2.1,0,0,1,2.17,1.79A1.73,1.73,0,0,1,93.1,74,2,2,0,0,1,90.9,72.32Z"/><path class="cls-2" d="M103.64,87c-.66.09-1.31.21-2,.26s-1-.15-1-.79.35-.82.87-.83a9.33,9.33,0,0,0,4.26-1.12.78.78,0,0,1,1.15.38.76.76,0,0,1-.4,1A9.57,9.57,0,0,1,103.64,87Z"/><path class="cls-3" d="M191.1,65.5c-.38-1.48-.71-3-1.17-4.43a2.61,2.61,0,0,1,.6-2.71,12.59,12.59,0,0,0,2-3.11c1.65-3.63-.05-6.6-4-6.91-.85-.07-1.08-.42-1.17-1.22-.23-1.87-1-3.4-3-4s-3.61.16-4.85,2c-.76,1.15-.86,1.16-1.77.18a4.1,4.1,0,0,0-5-1,3.9,3.9,0,0,0-2.25,4.8c.15.71.42,1.35-.74,1.5a4.68,4.68,0,0,0-3.61,7.17,8.18,8.18,0,0,0,4,3.57,2.33,2.33,0,0,1,1.45,2c.82,5.18,1.58,10.36,2.19,15.57a1.56,1.56,0,0,0,1,1.5c7.17,3.23,7.16,9.84,5.21,15.14a1.08,1.08,0,0,1-.91.73c-1.09.21-2.19.41-3.27.69-.7.18-.93,0-1-.74-.43-3.31-.92-6.62-1.38-9.93-1-7.53-2.09-15.05-3.1-22.57-.1-.75-.52-1-1.08-1.33-2.92-1.63-5.07-3.83-5.1-7.44,0-.5-.42-.68-.64-1a1.46,1.46,0,0,1-.31-1.49,1.11,1.11,0,0,1,1.32-.67,1,1,0,0,0,1-.49,5.06,5.06,0,0,1,2.83-1.9c.65-.15.68-.47.64-1a4.77,4.77,0,0,1,1.35-4,1.65,1.65,0,0,0,.36-1.47,1.28,1.28,0,0,1,.69-1.34,1.16,1.16,0,0,1,1.36.32,1.73,1.73,0,0,0,1.65.52,4.64,4.64,0,0,1,3.46,1.06c.62.51.9.37,1.37-.16a4.78,4.78,0,0,1,4-1.82c.63,0,.84-.43,1.21-.72,1-.74,1.88-.44,2,.79a2.71,2.71,0,0,0,.84,1.7,2.92,2.92,0,0,1,.84,1.34c.27,1.75,1.33,2.47,3,2.75.53.09,1,.3,1.48,0a1.09,1.09,0,0,1,1.38.12,1.06,1.06,0,0,1,.27,1.35,2.48,2.48,0,0,0,.13,2.11,6.33,6.33,0,0,1-.49,4.8,9.37,9.37,0,0,1-1.76,2.82,2.64,2.64,0,0,0-.56,2.92q3,10.26,6,20.56c.86,3,1.65,6,2.45,9,.12.42.36.86-.38,1s-.85-.11-1-.7c-.45-1.8-.95-3.58-1.44-5.38a3.85,3.85,0,0,1-.94-2c-1.2-4.58-2.64-9.1-3.94-13.65-.34-1.19-.75-2.36-1.05-3.56A1.94,1.94,0,0,1,191.1,65.5Z"/><path class="cls-4" d="M191.1,65.5c1,3.15,2,6.29,2.89,9.45,1.07,3.68,2.09,7.38,3.13,11.06a4.89,4.89,0,0,1-5-1.34,47.65,47.65,0,0,1-5.94-6.28c-2.07-2.67-2.83-5.71-1.16-8.9C186.28,67.08,188.52,66,191.1,65.5Z"/><path class="cls-3" d="M178.62,52.16c2.08-.44,5.55,1.27,6.36,3a3.12,3.12,0,0,1-3,4.25,6.74,6.74,0,0,0-3.1.63,3.14,3.14,0,0,1-3.7-.89,2.67,2.67,0,0,1-.11-3.53C176.07,54.16,176.85,52.43,178.62,52.16Z"/><path class="cls-2" d="M181.72,65.77c-.63,0-1.52.13-2.42.14-.56,0-1-.24-.94-.88s.45-.74.95-.73a11.07,11.07,0,0,0,4.77-1c.46-.21,1-.39,1.29.21s0,1-.6,1.24A16.86,16.86,0,0,1,181.72,65.77Z"/><path class="cls-1" d="M176.18,48.18a1.44,1.44,0,0,1-1,1.88,1.57,1.57,0,0,1-1.88-1.32c-.16-.88.12-1.61,1.05-1.79A1.51,1.51,0,0,1,176.18,48.18Z"/><path class="cls-2" d="M186.93,53.25a1.63,1.63,0,0,1,1.24-2,1.23,1.23,0,0,1,1.66,1,1.56,1.56,0,0,1-1.2,1.88A1.26,1.26,0,0,1,186.93,53.25Z"/><path class="cls-2" d="M172.53,55.26a1.21,1.21,0,0,1-1.21,1.39,1.54,1.54,0,0,1-1.83-1.27,1.26,1.26,0,0,1,1.1-1.62A1.73,1.73,0,0,1,172.53,55.26Z"/><path class="cls-2" d="M183.09,49.32a1.23,1.23,0,0,1-1.42-1.17,1.51,1.51,0,0,1,1.15-1.88,1.26,1.26,0,0,1,1.66,1A1.71,1.71,0,0,1,183.09,49.32Z"/><path class="cls-5" d="M158.7,100.55,150,102.39c-.08-.42.26-.57.51-.76a5.8,5.8,0,0,0,.79-.59c.58-.64,1.27-1.3,1-2.26s-1.15-1.13-2-1.26a29.49,29.49,0,0,0-6.9.13c-2.05.15-4.11.19-6.16.24s-2.1,0-2.65-2c-.68-2.87-.79-5.83-1.3-8.73a1.39,1.39,0,0,1,.13-1c.35-.37.83-.3,1.27-.37a16.4,16.4,0,0,0,7.63-3,4.18,4.18,0,0,0,1.33-1.59,1.58,1.58,0,0,0-1-2.43,7.33,7.33,0,0,0-2.33-.23c-2.15-.05-4.29,0-6.43-.25a2.41,2.41,0,0,1-1.51-.46,4.16,4.16,0,0,1-.62-2.24,29.93,29.93,0,0,0-.54-3.54,2.69,2.69,0,0,0-1.48-2.12,8.68,8.68,0,0,1-4.27-4.46,5,5,0,0,1,3.57-6.72c1.06-.2,1.26-.6,1.11-1.57a3.91,3.91,0,0,1,2.12-4.56,4.48,4.48,0,0,1,5.4.56c1.05.91,1.13.91,2-.26a4.31,4.31,0,0,1,7.78,1.56,2.1,2.1,0,0,0,2.06,2c3.15.47,4.67,3.16,3.72,6.29a8.67,8.67,0,0,1-1.94,3.56A3.61,3.61,0,0,0,150.3,70c.27,1.28,1.11,2.43.89,3.81-.43.64-1.23.8-1.76,1.32-.38.39-.8.78-.65,1.38s.73.84,1.3,1c.76.21,1.58-.19,2.31.24a12.55,12.55,0,0,1,1.52,5.36c-.28.57-.86.73-1.37,1-2.4,1.12-4.94,1.85-7.41,2.77a6.94,6.94,0,0,0-2,1.12,2,2,0,0,0,.25,3.46,6.38,6.38,0,0,0,3.45.81,34,34,0,0,0,7.71-.94c.62-.14,1.28-.42,1.9,0a6.17,6.17,0,0,1,.78,2c.56,1.87,1.07,3.76,1.56,5.66A1.88,1.88,0,0,1,158.7,100.55Z"/><path class="cls-1" d="M151,73.85c-.34-1.31-.62-2.65-1.06-3.94a3.26,3.26,0,0,1,.77-3.6A9.56,9.56,0,0,0,152.69,63c1.24-3.32-.56-6.15-4.11-6.34-.9,0-1.23-.39-1.32-1.23a4.56,4.56,0,0,0-1.59-3.25c-1.94-1.59-4.57-1.08-6.11,1.16-.93,1.36-.93,1.36-2,.24a4.15,4.15,0,0,0-5-.89,3.93,3.93,0,0,0-2.22,4.62c.3,1.48.3,1.48-1.26,1.7-3.1.43-4.67,4.19-3,7.2a8.52,8.52,0,0,0,4.12,3.61,1.94,1.94,0,0,1,1.21,1.67c.31,2.08.69,4.15,1,6.22.89,1.25.57,2.77.93,4.14.26,1,.2,2.11.42,3.15a1.12,1.12,0,0,1-.2,1,11.89,11.89,0,0,0,.37,3.14c.25,2.24.62,4.46.94,6.7.35,1.87.91,3.7,1.1,5.6a10.07,10.07,0,0,1,.15,3.75c-1.06.51-1.42.23-1.58-1-1.42-10.67-2.93-21.33-4.4-32a1.53,1.53,0,0,0-.9-1.32c-3-1.63-5.24-3.86-5.3-7.58,0-.45-.36-.62-.57-.91a1.5,1.5,0,0,1-.34-1.6,1.17,1.17,0,0,1,1.36-.62c.54.1.74-.2,1-.52a3.63,3.63,0,0,1,2-1.56c1.47-.22,1.52-1.07,1.44-2.21a3.57,3.57,0,0,1,.6-2.11c.58-.91,1.3-1.67,1.19-3-.08-.9,1.06-1.26,1.85-.58a2.26,2.26,0,0,0,1.87.55,4.77,4.77,0,0,1,3.34,1.08c.56.46.84.5,1.34-.11A4.74,4.74,0,0,1,142.92,50a2,2,0,0,0,1.36-.7c1-.83,1.93-.47,2.06.84A2.24,2.24,0,0,0,147,51.6a5.08,5.08,0,0,1,1.46,2.81,1,1,0,0,0,1.1,1c1.13.08,2.11,1,3.41.27.71-.37,1.46.59,1.09,1.5a3,3,0,0,0,.15,2.24,6.23,6.23,0,0,1-.43,4.56,13.44,13.44,0,0,1-2.16,3.45,1.73,1.73,0,0,0-.41,1.8q2.32,7.83,4.58,15.68c1.38,4.84,2.68,9.7,4.06,14.54.36,1.28-.62.92-1.18,1.1q-1.27-4.65-2.53-9.3a2.2,2.2,0,0,1-.66-1.15c-.65-2.1-1.29-4.21-1.81-6.35a1,1,0,0,1,.06-.6,37.44,37.44,0,0,0-1.62-5.48A5.86,5.86,0,0,1,151,73.85Z"/><path class="cls-6" d="M136.13,105.26c-.45-3.12-1-6.22-1.25-9.35.07,1.5.91,1.68,2.28,1.67,4,0,7.92-.6,11.9-.53a6.22,6.22,0,0,1,1.22.1c1,.19,2.17.48,2.4,1.64s-.63,2.06-1.51,2.79a12.9,12.9,0,0,1-1.22.81Z"/><path class="cls-6" d="M153.76,83.15c1,2.65,1.65,5.39,2.41,8.1a39.06,39.06,0,0,1-9.74,1.3,7.89,7.89,0,0,1-2.87-.61,2.72,2.72,0,0,1-1.82-2.28c-.11-1.09.65-1.71,1.44-2.27a15.66,15.66,0,0,1,4.52-1.87C149.78,84.85,151.73,83.92,153.76,83.15Z"/><path class="cls-6" d="M133.57,86.07q-.58-4.16-1.15-8.33a58.62,58.62,0,0,0,8.58.48h.61a2.6,2.6,0,0,1,2.49,1.29,2.39,2.39,0,0,1-.74,2.7A13.9,13.9,0,0,1,133.57,86.07Z"/><path class="cls-1" d="M138.7,60.48c1.78-.36,5.36,1.35,6.11,2.82a3.06,3.06,0,0,1-2.64,4.37,10.06,10.06,0,0,0-3.59.7A3,3,0,0,1,135,67.3a2.78,2.78,0,0,1,.1-3.55C136.08,62.39,136.86,60.71,138.7,60.48Z"/><path class="cls-2" d="M141.78,74a8.54,8.54,0,0,1-2.57.25c-.55,0-1-.24-.94-.88s.43-.74.95-.73a10.29,10.29,0,0,0,4.87-1.1.82.82,0,0,1,1.19.25c.32.56,0,1-.48,1.21A9.68,9.68,0,0,1,141.78,74Z"/><path class="cls-7" d="M151,73.85a22.24,22.24,0,0,1,1.11,3.82,4.6,4.6,0,0,1-2.3.09,1.84,1.84,0,0,1-1.46-1.18A1.42,1.42,0,0,1,149,75,3.79,3.79,0,0,1,151,73.85Z"/><path class="cls-2" d="M136.15,56.87A1.35,1.35,0,0,1,135,58.44,1.64,1.64,0,0,1,133.19,57a1.38,1.38,0,0,1,1.09-1.67C135.14,55.12,135.94,55.72,136.15,56.87Z"/><path class="cls-2" d="M148.24,62.55a1.23,1.23,0,0,1-1.44-1.14,1.58,1.58,0,0,1,1.28-1.83,1.29,1.29,0,0,1,1.68,1A1.76,1.76,0,0,1,148.24,62.55Z"/><path class="cls-2" d="M130.46,62.16a1.64,1.64,0,0,1,2,1.25A1.29,1.29,0,0,1,131.29,65a1.66,1.66,0,0,1-1.9-1.35A1.23,1.23,0,0,1,130.46,62.16Z"/><path class="cls-1" d="M143,57.64a1.21,1.21,0,0,1-1.44-1.08,1.62,1.62,0,0,1,1.22-2,1.31,1.31,0,0,1,1.57,1.07A1.68,1.68,0,0,1,143,57.64Z"/><path class="cls-8" d="M282.53,70.9A9.59,9.59,0,0,1,283.4,74c.17.68-.41.69-.84.78l-25.77,5.32c-2.94.6-3,.61-3.5-2.33a5.85,5.85,0,0,1-.3-2.42c.63.36.61,1,.77,1.61a21.89,21.89,0,0,0,.58,2.39.2.2,0,0,0,.19.14c.23-.2.14-.47.08-.69-.62-2.4-.72-4.88-1.25-7.3-.91-4.1-1.32-8.29-2.33-12.37a2.05,2.05,0,0,1,0-1.34c.47-.6,1.17-.51,1.81-.55a71.4,71.4,0,0,0,9.89-1.31,66.83,66.83,0,0,0,11.78-3.55,2.57,2.57,0,0,1,1.53-.35,2.31,2.31,0,0,1,.63,1.44c1,4.48,2.56,8.79,3.7,13.22.5,1.91,1,3.83,1.53,5.73a3.79,3.79,0,0,0,.5,1.39C282.83,72.75,281.9,71.78,282.53,70.9Z"/><path class="cls-1" d="M251.16,57.72c1.52,7,2.51,14.08,3.89,21.1,0,.24.08.48.15.72.11.42.05.69-.45.8s-.74-.06-.84-.57c-.29-1.49-.61-3-.92-4.46a240.15,240.15,0,0,0-5.58-26.38,36.77,36.77,0,0,1-1.56-11.48,8.72,8.72,0,0,1,3.6-7.12,2.81,2.81,0,0,0,.7-.84,6.1,6.1,0,0,1,6-2.94,1.76,1.76,0,0,0,1.27-.21,5.93,5.93,0,0,1,6.22-.2,2.59,2.59,0,0,0,1.13.43c2.86,0,4.87,1.55,6.48,3.74a23.27,23.27,0,0,1,3.47,8.26c.92,3.52,1.62,7.09,2.19,10.67,1,6.26,3.22,12.2,4.75,18.32.28,1.12.59,2.23.89,3.34.19.89.38,1.77.58,2.65.09.42.24.79-.39,1s-.77-.14-.9-.66c-1-4.2-2.14-8.37-3.36-12.52A95.55,95.55,0,0,1,276,52c-1-1.41-1-3.09-1.23-4.69a63.19,63.19,0,0,0-1.56-7.72,6,6,0,0,1-.44-1.44,3.11,3.11,0,0,0-.52-1.62c-.5-1-.78-2.1-1.2-3.14a3.58,3.58,0,0,0-.72-1.43,10.25,10.25,0,0,0-2.8-2.92,2.2,2.2,0,0,0-.55-.28c-2.07-.48-4.1-1.14-6.16-1.65a3,3,0,0,0-2.45.62,2.79,2.79,0,0,1-2.2.52,4.35,4.35,0,0,0-4.65,2.31,2.53,2.53,0,0,1-.69.86c-2.63,1.74-3.36,4.33-3.29,7.29,0,.25,0,.49,0,.74a3.31,3.31,0,0,0,.1,1.13,5.49,5.49,0,0,1,.15,1.21,19.64,19.64,0,0,0,.61,3.56c.06.29.12.58.19.87.71,3.34,1.6,6.63,2.57,9.9A2,2,0,0,1,251.16,57.72Z"/><path class="cls-1" d="M266.73,41.58l.25.48c1.38,2.72-.7,5.07-3.54,4.52a3.59,3.59,0,0,0-2.73.44c-1.39.92-2.87,1.42-4.3.21s-1.19-2.83-.58-4.41v0c.08-.31.1-.65.47-.79.24-.38.49-.75.71-1.14a4.58,4.58,0,0,1,7.05-1.4c.42.32.88.59,1.32.89C266.14,40.43,266.38,41.07,266.73,41.58Z"/><path class="cls-2" d="M263.2,53.49a9,9,0,0,1-2.68.25.76.76,0,0,1-.79-.76.69.69,0,0,1,.75-.79,11.23,11.23,0,0,0,4.54-.91.73.73,0,0,1,1,.39c.21.52,0,.85-.5,1.09A11.06,11.06,0,0,1,263.2,53.49Z"/><path class="cls-2" d="M259.92,33.2a1.91,1.91,0,0,1,1.24-2.36,1.89,1.89,0,0,1,2,1.74A1.93,1.93,0,0,1,262,34.87,1.86,1.86,0,0,1,259.92,33.2Z"/><path class="cls-2" d="M249.94,39.75a7.74,7.74,0,0,1,0-1,1.51,1.51,0,0,1,2.57-1,2.19,2.19,0,0,1,0,3.47c-.31.13-.61.32-1,.11h0C250.53,41.33,250.14,40.64,249.94,39.75Z"/><path class="cls-2" d="M255.92,36.1a2,2,0,0,1-2.18-1.73,1.76,1.76,0,0,1,1.07-2.2A2,2,0,0,1,257.07,34,1.7,1.7,0,0,1,255.92,36.1Z"/><path class="cls-1" d="M267.14,37.42a2.26,2.26,0,0,1-1.23-2.11,1.82,1.82,0,0,1,1.24-1.92c1-.31,1.5.39,2,1.1C269.72,36.51,269.12,37.4,267.14,37.42Z"/><path class="cls-1" d="M237.27,63.15c-.71-4.35-1.4-8.83-2.18-13.31a36.19,36.19,0,0,0-2.44-8.41c-1.16-2.63-2.87-4.62-5.89-5.07a2.64,2.64,0,0,1-1-.62,4.7,4.7,0,0,0-5.66,0,1.42,1.42,0,0,1-1.34.3c-2.11-.61-3.69.3-5,1.86-.29.34-.45.76-.93,1-2.52,1-3.56,3-4,5.5a22.38,22.38,0,0,0,.14,7.87c.77,5,2.15,9.92,3.23,14.88a.82.82,0,0,0,.72.7A7.35,7.35,0,0,1,218,72.08a29.07,29.07,0,0,0,5.33,7.67,14.42,14.42,0,0,1,3.29,5.87c.19.6,0,.81-.54.93q-5.7,1.15-11.39,2.38c-.81.18-.78-.36-.85-.82-.56-3.59-1.21-7.17-1.64-10.77a124.38,124.38,0,0,0-3-16.92,56.7,56.7,0,0,1-2.06-12.81,11.34,11.34,0,0,1,1.6-7c1.7-2.45,4.28-4,6.65-5.68a1.77,1.77,0,0,1,1-.33c2,.17,3.81-.57,5.67-1.09a4.17,4.17,0,0,1,3.24.43,36.82,36.82,0,0,0,3.82,1.67c3.12,1.38,4.54,4.16,5.56,7.2a82.86,82.86,0,0,1,3.14,15.26c.79,5.7,2.42,11.21,3.69,16.8.54,2.37,1.1,4.74,1.64,7.12.08.39.39.86-.36,1.06s-.83-.22-.95-.75C240.33,76,238.81,69.62,237.27,63.15Z"/><path class="cls-2" d="M224,61.82a14.58,14.58,0,0,1-2.41.24c-.55-.05-.86-.31-.86-.84a.72.72,0,0,1,.81-.75,10.89,10.89,0,0,0,4.43-1,.73.73,0,0,1,1.06.32.79.79,0,0,1-.42,1.12A10.27,10.27,0,0,1,224,61.82Z"/><path class="cls-9" d="M221.06,45.75c2.33-.49,5.2,1.57,6.32,2.77s1.63,4.45-1,5.22-2.11-.3-3.61,0-1.69,1.08-3.66,1.24-2.86-1.61-2.7-3.35S218.63,46.26,221.06,45.75Z"/><ellipse class="cls-9" cx="217.53" cy="41.09" rx="1.68" ry="2" transform="translate(-3.8 45.38) rotate(-11.81)"/><ellipse class="cls-9" cx="223.67" cy="39.8" rx="1.68" ry="2" transform="translate(-2.82 22) rotate(-5.6)"/><ellipse class="cls-9" cx="229.26" cy="43.21" rx="1.68" ry="2" transform="translate(-1.4 8.25) rotate(-2.05)"/><ellipse class="cls-9" cx="213.01" cy="45.85" rx="1.68" ry="2" transform="translate(-0.76 88.03) rotate(-23.31)"/><path class="cls-1" d="M76.32,90.11c.75,6.62,3.39,13.27,5.11,20.15.45,1.8.87,3.61,1.37,5.4.2.7-.09.84-.67,1-9.21,1.92-18.43,3.83-27.64,5.8-1,.2-1-.27-1.12-.93-.79-4.68-1.54-9.37-2.1-14.09-.66-5.52-2.39-10.78-3.93-16.09-1.13-3.93-2.14-7.9-1.89-12A8.64,8.64,0,0,1,49,72.37a2.7,2.7,0,0,0,.71-.83,6.1,6.1,0,0,1,6.08-3,1.87,1.87,0,0,0,1.26-.27,6,6,0,0,1,6-.22c.36.17.67.49,1.11.49,3.57,0,5.73,2.15,7.43,5a25.19,25.19,0,0,1,2.76,7.39C75.06,83.8,75.61,86.72,76.32,90.11Z"/><path class="cls-9" d="M58.36,78.91c2.33-.49,5.2,1.57,6.32,2.77s1.63,4.45-1,5.22-2.11-.3-3.61,0S58.38,88,56.41,88.15s-2.86-1.61-2.7-3.35S55.94,79.42,58.36,78.91Z"/><ellipse class="cls-9" cx="54.83" cy="74.25" rx="1.68" ry="2" transform="translate(-14.03 12.79) rotate(-11.81)"/><ellipse class="cls-9" cx="60.97" cy="72.96" rx="1.68" ry="2" transform="translate(-6.82 6.29) rotate(-5.6)"/><ellipse class="cls-9" cx="66.56" cy="76.37" rx="1.68" ry="2" transform="translate(-2.7 2.44) rotate(-2.05)"/><ellipse class="cls-9" cx="50.32" cy="79.02" rx="1.68" ry="2" transform="translate(-27.16 26.36) rotate(-23.31)"/><path class="cls-10" d="M61.24,93.13a13.39,13.39,0,0,1-2.41.24c-.55,0-.86-.3-.85-.84a.73.73,0,0,1,.81-.75,10.77,10.77,0,0,0,4.43-1,.73.73,0,0,1,1,.32c.25.49,0,.86-.42,1.12A9.9,9.9,0,0,1,61.24,93.13Z"/><path class="cls-11" d="M27.59,118.56c2.53,7.87,4.22,8.46,10.38,6.6h0c-1.19-3.79-5.35-16.94-7.42-23.07C27,103.15,25.14,110.89,27.59,118.56Z"/><path class="cls-1" d="M18,133.92a.74.74,0,0,1-.7-.48c-.05-.13-5.06-13.19-6.67-18.94a64.86,64.86,0,0,1-1.48-8.1c-.38-2.8-.78-5.68-1.44-6.35C3.58,95.9,1.36,92.79,2.31,89.19A3.23,3.23,0,0,1,4,87a5.89,5.89,0,0,1,3.77-.12c-.86-2.29-2.15-6.5-1-8.77a2.77,2.77,0,0,1,2-1.51,4.25,4.25,0,0,1,3.65.62,4.25,4.25,0,0,1,1.36,2,4.24,4.24,0,0,1,5,.16,4.69,4.69,0,0,1,2.25,4.07,5.07,5.07,0,0,1-2.12,4.08,2.29,2.29,0,0,1-1.85.3c-1.17-.33-1.93-1.56-2.52-2.72a.75.75,0,1,1,1.34-.67c.25.48.89,1.75,1.59,2a.81.81,0,0,0,.66-.14,3.58,3.58,0,0,0,1.4-2.83A3.19,3.19,0,0,0,18,80.64c-2.46-1.62-3.89.28-4.05.51a.77.77,0,0,1-.83.29.75.75,0,0,1-.54-.69,3.5,3.5,0,0,0-1.08-2.34,2.84,2.84,0,0,0-2.4-.33,1.27,1.27,0,0,0-.94.72c-1,2,.84,7.19,1.65,9a.73.73,0,0,1-.15.83.75.75,0,0,1-.84.16c-.72-.32-2.88-1-4.12-.43a1.73,1.73,0,0,0-.92,1.2c-.69,2.59.59,5,5.05,9.42,1,1,1.33,3.26,1.87,7.2a62,62,0,0,0,1.44,7.91c1.58,5.68,6.57,18.67,6.62,18.8a.75.75,0,0,1-.43,1A.65.65,0,0,1,18,133.92Z"/><path class="cls-1" d="M20.89,87.43l-.41,0a.75.75,0,0,1,.16-1.5,2.16,2.16,0,0,0,1.77-.6,3.55,3.55,0,0,0,.59-3,2.67,2.67,0,0,0-1.85-2.48,2.1,2.1,0,0,0-2.16.66.76.76,0,0,1-1,.13.74.74,0,0,1-.13-1,3.57,3.57,0,0,1,3.72-1.19,4.18,4.18,0,0,1,2.95,3.71,4.81,4.81,0,0,1-1,4.27A3.62,3.62,0,0,1,20.89,87.43Z"/><path class="cls-1" d="M7.52,77.53a2,2,0,0,1,1.17-.7c.27,0,.52-.09.75-.11,0,0,0-.06,0-.09-.21-.76-.84-1.26-1.4-1.1a1.29,1.29,0,0,0-.64,1.67A2.26,2.26,0,0,0,7.52,77.53Z"/><path class="cls-1" d="M26.06,77.73a2,2,0,0,1,1.36.09,4.78,4.78,0,0,1,.68.33s0-.05,0-.08a1.3,1.3,0,0,0-.53-1.71c-.56-.19-1.21.27-1.47,1A2.09,2.09,0,0,0,26.06,77.73Z"/><path class="cls-1" d="M2.28,89.52a2,2,0,0,1,.64-1.2c.2-.18.39-.34.58-.48l0-.07a1.29,1.29,0,0,0-1.77-.22A1.3,1.3,0,0,0,2,89.31,1.86,1.86,0,0,0,2.28,89.52Z"/><path class="cls-1" d="M38.3,127a.74.74,0,0,1-.71-.52c-.07-.2-6.21-19.73-7.26-22.16s-1.11-7.51-1.14-11.19v-.65c0-1.72,0-2.86-.05-3.73,0-1.79-.05-2.46,0-4.83.12-3.66-.88-4.64-2.42-5s-2.92,1.93-2.94,1.95a.75.75,0,0,1-1,.32.76.76,0,0,1-.32-1c.08-.14,1.79-3.38,4.61-2.72,3.34.77,3.67,3.88,3.57,6.51-.08,2.33-.07,3,0,4.76,0,.87,0,2,.05,3.73v.66c0,3.35.07,8.4,1,10.61,1.07,2.5,7,21.49,7.31,22.3a.76.76,0,0,1-.49.94A.91.91,0,0,1,38.3,127Z"/><path class="cls-1" d="M24.25,93.73a3,3,0,0,1-3.44,3.74,5.09,5.09,0,0,0-3.74.79,3,3,0,0,1-3.69-.13,3.27,3.27,0,0,1-.78-3.85,22,22,0,0,1,2-3.43,4.72,4.72,0,0,1,5.27-1.29,14.88,14.88,0,0,1,3.66,2.7A2.65,2.65,0,0,1,24.25,93.73Z"/><path class="cls-1" d="M7.09,92.72a1.71,1.71,0,0,1,.06-2.52,2.08,2.08,0,0,1,2.74.64,1.7,1.7,0,0,1-.07,2.44A2,2,0,0,1,7.09,92.72Z"/><path class="cls-1" d="M25.28,85.05a1.7,1.7,0,0,1,2.3-1,2.09,2.09,0,0,1,.6,2.75,1.73,1.73,0,0,1-2.25,1A2,2,0,0,1,25.28,85.05Z"/><path class="cls-1" d="M9.79,83.93a1.71,1.71,0,0,1,1.43-2.08,2.1,2.1,0,0,1,1.95,2,1.73,1.73,0,0,1-1.4,2A2,2,0,0,1,9.79,83.93Z"/><path class="cls-12" d="M5.28,66.24c5.93-6-3.08-16.36-1.08-3.54C1.76,61.12-3.85,62.77,5.28,66.24Z"/><path class="cls-1" d="M5.34,66.53l-.15-.06C2.89,65.6.12,64.29,0,63.05a.94.94,0,0,1,.5-.88,4.15,4.15,0,0,1,3.38.07c-.48-3.4-.19-5.47.82-5.85.58-.23,1.26.17,1.84,1a7.36,7.36,0,0,1-1.08,9ZM2,62.35a2.58,2.58,0,0,0-1.22.25c-.28.17-.26.34-.26.4,0,.28.44,1.3,4.71,3a6.91,6.91,0,0,0,.91-8.23c-.42-.65-.91-1-1.24-.87-.58.23-1,1.88-.43,5.81l.08.55-.47-.3A3.92,3.92,0,0,0,2,62.35Z"/><path class="cls-11" d="M23,64.81a.53.53,0,0,1-.24-.06l.11-.22-.11.22c-3.28-1.65-5-3-5.16-4a1,1,0,0,1,.33-.89,1.53,1.53,0,0,1,1.21-.44,3.5,3.5,0,0,1,1.79.8,1.63,1.63,0,0,1,0-.73,1.58,1.58,0,0,1,1-1.12.94.94,0,0,1,1.22.37c.94,1.25,1,5,.26,5.88A.54.54,0,0,1,23,64.81Zm-4-4.92a1.06,1.06,0,0,0-.76.31.49.49,0,0,0-.18.45c.07.48.8,1.6,4.89,3.65h0s.18-.08.31-.78c.29-1.57,0-4.13-.69-4.68a.41.41,0,0,0-.47-.05,1.12,1.12,0,0,0-.75.77A2.37,2.37,0,0,0,22,61.25s.05,0,.05.06l-.38.32-.05-.06c-.26-.29-1.47-1.62-2.55-1.68Z"/><path class="cls-11" d="M201.37,29.64a.54.54,0,0,1-.25-.06c-3.27-1.65-5-3-5.16-4a1,1,0,0,1,.33-.89,1.59,1.59,0,0,1,1.22-.45,3.52,3.52,0,0,1,1.78.81,1.52,1.52,0,0,1,1-1.86,1,1,0,0,1,1.22.37c.94,1.25,1,5,.26,5.89A.57.57,0,0,1,201.37,29.64Zm-4-4.93a1.06,1.06,0,0,0-.76.31.49.49,0,0,0-.17.46c0,.39.64,1.52,4.89,3.65h0s.17-.09.3-.78c.3-1.57,0-4.13-.69-4.69a.42.42,0,0,0-.47-.05,1.14,1.14,0,0,0-.75.77,2.38,2.38,0,0,0,.64,1.68l0,.06-.37.33L200,26.4c-.25-.3-1.47-1.62-2.55-1.69Z"/><path class="cls-12" d="M37.1,45.33c1.55.15.44,6.31-1,7.31s-7.38-1.44-6.38-4,4.73.39,4.73.39S35.08,45.13,37.1,45.33Z"/><path class="cls-1" d="M35.18,53.12a8.25,8.25,0,0,1-4.39-1.65c-1.19-.93-1.64-2-1.26-2.93a1.73,1.73,0,0,1,1.18-1.13c1.25-.34,2.91.68,3.61,1.17.22-1,1-3.66,2.81-3.5h0c.28,0,.66.21.85.93.46,1.7-.45,5.94-1.7,6.83A1.89,1.89,0,0,1,35.18,53.12Zm-3.93-5.28a1.4,1.4,0,0,0-.41,0,1.25,1.25,0,0,0-.85.84c-.38,1,.53,1.89,1.11,2.34,1.64,1.28,4.19,1.87,4.89,1.37,1-.72,1.94-4.67,1.5-6.31-.09-.34-.23-.53-.41-.55H37c-1.67,0-2.21,3.45-2.21,3.48l-.07.43-.33-.27A6.73,6.73,0,0,0,31.25,47.84Z"/><path class="cls-12" d="M247.94,16.91c1.55.15.44,6.3-1,7.3s-7.38-1.44-6.38-4,4.73.38,4.73.38S245.92,16.71,247.94,16.91Z"/><path class="cls-1" d="M246,24.69A8.16,8.16,0,0,1,241.63,23c-1.19-.92-1.64-2-1.26-2.92A1.76,1.76,0,0,1,241.55,19c1.25-.33,2.91.69,3.61,1.18.22-1,1-3.69,2.81-3.5.28,0,.66.21.85.92.46,1.71-.45,5.94-1.7,6.84A1.89,1.89,0,0,1,246,24.69Zm-3.93-5.28a1.84,1.84,0,0,0-.41.05,1.27,1.27,0,0,0-.85.84c-.38,1,.53,1.9,1.11,2.35,1.64,1.28,4.2,1.86,4.89,1.36,1-.72,1.94-4.66,1.51-6.3-.1-.35-.24-.54-.42-.55h0c-1.78-.18-2.34,3.44-2.34,3.47l-.07.43-.33-.27A6.6,6.6,0,0,0,242.09,19.41Z"/><path class="cls-12" d="M87.55,52.61s-7.29-7.17-5.35-9.15,4.64,4.06,4.64,4.06S88.43,41,90.23,41.7,91.31,49.12,87.55,52.61Z"/><path class="cls-1" d="M87.54,53l-.17-.17C86.61,52,80,45.38,82,43.29a1.38,1.38,0,0,1,1.28-.45c1.43.26,2.87,2.77,3.47,4,.39-1.41,1.41-4.6,2.68-5.27a1,1,0,0,1,.87-.07,1.86,1.86,0,0,1,1,1.53c.46,2.29-.55,7-3.6,9.8Zm-4.49-9.64a.91.91,0,0,0-.67.32c-1.41,1.43,3.1,6.55,5.17,8.62,2.75-2.69,3.69-7.09,3.28-9.16-.12-.63-.37-1.05-.68-1.16a.56.56,0,0,0-.47,0c-1.16.62-2.27,4.25-2.6,5.6l-.17.71-.3-.67c-.5-1.11-2.08-4-3.4-4.29Z"/><path class="cls-12" d="M212.3,24.45S205,17.28,207,15.3s4.64,4.06,4.64,4.06,1.59-6.49,3.4-5.82S216.06,21,212.3,24.45Z"/><path class="cls-1" d="M212.29,24.79l-.17-.16c-.76-.75-7.4-7.41-5.35-9.5a1.38,1.38,0,0,1,1.28-.45c1.44.26,2.87,2.77,3.47,4,.4-1.4,1.42-4.59,2.68-5.26a1,1,0,0,1,.87-.07,1.87,1.87,0,0,1,1,1.53c.45,2.28-.55,7-3.61,9.79Zm-4.48-9.64a.92.92,0,0,0-.68.33c-1.41,1.43,3.1,6.55,5.17,8.62,2.75-2.69,3.7-7.09,3.29-9.16-.13-.63-.37-1-.69-1.17a.57.57,0,0,0-.47.05c-1.16.61-2.27,4.25-2.6,5.6l-.17.71-.3-.67c-.5-1.11-2.08-4.05-3.39-4.29Z"/><path class="cls-11" d="M229.84,31.18l-.17-.17c-.63-.61-6.08-6.07-4.37-7.81a1.14,1.14,0,0,1,1.09-.38c1.16.2,2.28,2.12,2.81,3.15.34-1.22,1.15-3.67,2.17-4.21a.9.9,0,0,1,.75-.06A1.57,1.57,0,0,1,233,23a10,10,0,0,1-3,8Zm-3.66-7.88a.72.72,0,0,0-.52.24c-1,1,2,4.73,4.18,6.94a9.56,9.56,0,0,0,2.64-7.4c-.1-.5-.29-.82-.53-.91a.35.35,0,0,0-.34,0c-.93.49-1.84,3.44-2.1,4.54l-.18.71-.3-.67c-.4-.9-1.68-3.28-2.73-3.47Z"/><path class="cls-11" d="M52.39,58.5c-1.66,0-4.06-.51-5-1.56a1.43,1.43,0,0,1,0-1.91,2.43,2.43,0,0,1,1.7-1.17,2.37,2.37,0,0,1,1.7.64A3.45,3.45,0,0,1,51.11,52a2.1,2.1,0,0,1,1.46-.87,1.26,1.26,0,0,1,1.17.35c1.31,1.37.35,6.1.23,6.63l0,.12-.11.05A3.45,3.45,0,0,1,52.39,58.5Zm-3.16-4.15h-.11a2,2,0,0,0-1.34,1,.94.94,0,0,0,0,1.29c1,1.18,4.7,1.63,5.73,1.26.3-1.47.8-5.08-.13-6a.73.73,0,0,0-.72-.21,1.63,1.63,0,0,0-1.14.66,3.32,3.32,0,0,0-.21,2.39.42.42,0,0,1-.2.45.41.41,0,0,1-.49-.07A2.14,2.14,0,0,0,49.23,54.35Z"/><path class="cls-11" d="M178,22.85c-1.66,0-4.07-.5-5-1.56a1.41,1.41,0,0,1,0-1.9,2.41,2.41,0,0,1,1.7-1.17,2.35,2.35,0,0,1,1.69.64,3.5,3.5,0,0,1,.35-2.51,2.1,2.1,0,0,1,1.46-.87,1.26,1.26,0,0,1,1.17.35c1.31,1.37.34,6.1.23,6.63l0,.12-.1.05A3.51,3.51,0,0,1,178,22.85Zm-3.16-4.14h-.11a1.91,1.91,0,0,0-1.34,1,.93.93,0,0,0,0,1.28c1,1.19,4.7,1.63,5.73,1.27.3-1.47.8-5.08-.13-6.05a.75.75,0,0,0-.73-.21,1.59,1.59,0,0,0-1.13.66,3.37,3.37,0,0,0-.22,2.39.41.41,0,0,1-.2.45.39.39,0,0,1-.48-.07A2.14,2.14,0,0,0,174.87,18.71Z"/><path class="cls-11" d="M115.39,39.78h-.32c-1.68-.08-5.36-1-6.21-2.65a1.6,1.6,0,0,1,.14-1.69,2.33,2.33,0,0,1,1.86-1.22,4.08,4.08,0,0,1,2.73,1.36,4.36,4.36,0,0,1,.36-3,1.42,1.42,0,0,1,1.13-.58,1.86,1.86,0,0,1,1.7,1.1,6.9,6.9,0,0,1-.29,6.32C116.4,39.6,116.18,39.78,115.39,39.78ZM111,34.71h-.07a1.86,1.86,0,0,0-1.46,1c-.42.65-.28,1.26.45,1.85,1.77,1.46,5.8,2,6.21,1.63a6.46,6.46,0,0,0,.26-5.8,1.39,1.39,0,0,0-1.24-.85.91.91,0,0,0-.75.38c-.6.81-.27,2.74-.1,3.42l.31,1.17-.75-1S112.36,34.71,111,34.71Z"/><path class="cls-11" d="M267.73,7.76h-.32c-1.69-.09-5.36-1-6.21-2.65a1.62,1.62,0,0,1,.14-1.7,2.32,2.32,0,0,1,1.86-1.22,4.22,4.22,0,0,1,2.73,1.36,4.42,4.42,0,0,1,.35-3A1.44,1.44,0,0,1,267.42,0a1.87,1.87,0,0,1,1.7,1.1,6.93,6.93,0,0,1-.29,6.33C268.74,7.57,268.52,7.76,267.73,7.76Zm-4.44-5.08h-.07a1.87,1.87,0,0,0-1.46,1c-.43.64-.28,1.25.45,1.85,1.77,1.45,5.8,2,6.2,1.62a6.43,6.43,0,0,0,.27-5.8A1.45,1.45,0,0,0,267.49.5h-.05a1,1,0,0,0-.76.38c-.59.81-.27,2.74-.09,3.42l.3,1.17-.74-1S264.7,2.68,263.29,2.68Z"/><path class="cls-12" d="M139.46,32.2c-.54.84-9-.84-7.07-3.75s4.8.83,4.8.83-1.05-4,1.08-4.11S141,29.76,139.46,32.2Z"/><path class="cls-1" d="M138.57,32.67h-.32c-1.69-.09-5.36-1-6.21-2.65a1.62,1.62,0,0,1,.14-1.7A2.33,2.33,0,0,1,134,27.1h.09a4.21,4.21,0,0,1,2.64,1.36,4.38,4.38,0,0,1,.35-2.95,1.42,1.42,0,0,1,1.14-.58A1.86,1.86,0,0,1,140,26a6.92,6.92,0,0,1-.29,6.33h0C139.58,32.49,139.36,32.67,138.57,32.67Zm-4.44-5.08h-.07a1.87,1.87,0,0,0-1.46,1c-.43.65-.28,1.25.45,1.85,1.77,1.45,5.8,2,6.21,1.62a6.46,6.46,0,0,0,.26-5.8,1.34,1.34,0,0,0-1.24-.84.89.89,0,0,0-.75.37c-.6.81-.28,2.75-.1,3.42l.31,1.18-.75-1S135.54,27.59,134.13,27.59Z"/><path class="cls-12" d="M170.59,38.46c-.54.84-9-.84-7.07-3.75s4.8.83,4.8.83-1-4,1.08-4.11S172.17,36,170.59,38.46Z"/><path class="cls-1" d="M169.7,38.93h-.32c-1.69-.09-5.36-1-6.21-2.65a1.62,1.62,0,0,1,.14-1.7,2.38,2.38,0,0,1,1.86-1.22,4.2,4.2,0,0,1,2.74,1.36,4.3,4.3,0,0,1,.35-3,1.42,1.42,0,0,1,1.13-.57,1.86,1.86,0,0,1,1.7,1.09,6.93,6.93,0,0,1-.29,6.33h0C170.71,38.74,170.49,38.93,169.7,38.93Zm-4.44-5.08h-.07a1.87,1.87,0,0,0-1.46,1c-.42.65-.28,1.25.45,1.85,1.77,1.45,5.8,2,6.21,1.62a6.43,6.43,0,0,0,.26-5.8,1.44,1.44,0,0,0-1.19-.85h-.05a.91.91,0,0,0-.75.37c-.6.81-.27,2.75-.1,3.42l.31,1.18-.75-1S166.67,33.85,165.26,33.85Z"/><path class="cls-2" d="M19.77,102.92c-.65.09-1.31.21-2,.26s-1-.15-1-.79.35-.82.87-.83a9.4,9.4,0,0,0,4.27-1.12.8.8,0,1,1,.75,1.42A9.72,9.72,0,0,1,19.77,102.92Z"/></g></g></svg>