<svg xmlns="http://www.w3.org/2000/svg" width="153" height="119" viewBox="0 0 153 119">
    <g fill="none">
        <ellipse fill="#EFCFB8" style="mix-blend-mode:multiply" cx="76.5" cy="108.5" rx="68.5" ry="8.5"/>
        <ellipse fill="#EFCFB8" style="mix-blend-mode:multiply" cx="76.5" cy="108" rx="76.5" ry="11"/>
        <path fill="#F7E6DB" d="M10 90v18.113C10 111.918 39.764 115 76.491 115c36.728 0 66.509-3.082 66.509-6.887V90H10z"/>
        <ellipse cx="76.5" cy="90" fill="#FFF" rx="66.5" ry="7"/>
        <path fill="#EFCFB8" d="M126 89.21c0 3.356-22.31 5.79-50.009 5.79C48.293 95 26 92.634 26 89.21S48.31 83 75.991 83C103.673 83 126 85.786 126 89.21z"/>
        <path fill="#F7E6DB" d="M28 75v13.039C28 90.782 49.723 93 76.5 93s48.5-2.235 48.5-4.961V75H28z"/>
        <ellipse cx="76.5" cy="75" fill="#FFF" rx="48.5" ry="5"/>
        <path fill="#F9B568" d="M95.896 8.004l.76-.607c.654-.48 1.335-.92 2.04-1.319 1.093-.62 2.252-1.114 3.455-1.474 1.497-.465 3.074-.613 4.63-.434.825.09 1.63.313 2.385.66l.795.294.466.312c.353.247.683.525.985.833 1.366 1.403 2.193 3.247 2.332 5.204.077 1.053-.034 2.11-.328 3.123-.127.503-.306.992-.535 1.457v.295l-.242.434c-.156.278-.277.434-.432.677-1.379 1.902-3.146 3.487-5.184 4.649-2.197 1.236-4.512 2.247-6.911 3.018-2.436.833-4.942 1.527-7.395 2.29-2.447.633-4.849 1.433-7.188 2.394-1.238.58-2.362 1.379-3.317 2.36-1.018.976-1.743 2.22-2.09 3.59-.162.738-.162 1.501 0 2.239.121.736.418 1.432.863 2.03.785 1.003 1.91 1.682 3.162 1.908.944.155 1.914.022 2.782-.382.435-.223.817-.537 1.123-.92.3-.372.487-.824.536-1.3.068-.646-.033-1.298-.294-1.892-.175-.457-.506-.838-.933-1.075-.272-.108-.575-.108-.847 0l-.242.104c.298.02.573.165.76.399.34.67.34 1.463 0 2.134-.155.52-1.4.85-2.315.312-.466-.212-.831-.598-1.02-1.076-.135-.434-.135-.9 0-1.335.708-1.477 1.941-2.635 3.456-3.244 2.173-.832 4.394-1.527 6.653-2.082 2.384-.711 4.924-1.405 7.516-2.238 2.68-.871 5.268-2.01 7.723-3.4 2.657-1.454 4.94-3.51 6.67-6.003.225-.33.433-.67.621-1.023l.242-.434v-.104l.104-.19.12-.278c.332-.715.598-1.458.796-2.221.382-1.494.493-3.046.328-4.58-.253-2.956-1.538-5.727-3.629-7.824-.24-.264-.506-.502-.794-.711-.268-.233-.55-.448-.847-.642-.288-.185-.61-.376-.968-.572-.276-.157-.5-.243-.76-.365-1.166-.499-2.401-.815-3.663-.937-2.112-.183-4.24.065-6.255.73-1.493.485-2.925 1.143-4.267 1.96-.87.517-1.701 1.097-2.488 1.734l-.726.642 2.367 2.88z"/>
        <path fill="#FDCB80" d="M95.712 7.488l.737-.614c.692-.53 1.42-1.014 2.177-1.447 1.181-.675 2.435-1.218 3.736-1.618 1.66-.522 3.41-.701 5.142-.528.972.099 1.92.352 2.811.749l.737.34.635.392c.427.301.828.638 1.2 1.005 1.6 1.612 2.573 3.737 2.742 5.996.256 2.4-.35 4.814-1.714 6.812-1.487 2.106-3.432 3.853-5.69 5.11-2.294 1.26-4.712 2.281-7.217 3.049-2.485.817-4.97 1.499-7.387 2.231-2.33.598-4.62 1.343-6.856 2.231-1.084.5-2.07 1.186-2.914 2.027-.817.8-1.408 1.798-1.714 2.896-.293 1.083-.112 2.24.497 3.185.585.794 1.436 1.356 2.4 1.584.823.202 1.69.13 2.468-.205.353-.145.669-.366.926-.647.237-.27.391-.6.445-.954.254-.949-.043-1.959-.771-2.623-.29-.166-.637-.209-.96-.119.312-.045.63.041.874.238.529.679.671 1.578.377 2.385-.205 1.005-1.714 1.584-3.136 1.107-.714-.233-1.321-.71-1.714-1.345-.47-.682-.643-1.524-.48-2.334.734-1.855 2.194-3.336 4.045-4.105 2.232-.878 4.523-1.6 6.856-2.163 2.4-.715 4.902-1.396 7.421-2.23 2.564-.8 5.04-1.855 7.388-3.152 2.441-1.343 4.545-3.218 6.153-5.484 1.564-2.244 2.28-4.964 2.023-7.682-.21-2.57-1.326-4.983-3.154-6.813-.427-.427-.891-.814-1.389-1.158l-.788-.46-.754-.357c-1.024-.407-2.105-.654-3.205-.733-1.903-.165-3.82.049-5.64.63-1.38.416-2.709.987-3.959 1.704-.81.477-1.59 1.006-2.33 1.584l-.67.664.652.852z"/>
        <path fill="#F9B568" d="M54.48 5.827l-.748-.615c-.803-.63-1.65-1.2-2.537-1.71-1.366-.771-2.818-1.385-4.327-1.829-2.042-.612-4.188-.81-6.309-.581-1.28.146-2.528.487-3.701 1.009l-.765.376-.956.58c-.33.206-.556.428-.851.65-.278.222-.539.462-.782.718-2.056 2.115-3.286 4.876-3.476 7.795-.102 1.517.075 3.04.521 4.496.217.747.502 1.474.852 2.171l.121.273.105.189v.102l.243.427c.174.291.434.684.66.992 1.798 2.414 4.134 4.39 6.83 5.778 2.53 1.285 5.185 2.315 7.925 3.077 2.624.786 5.213 1.401 7.594 2.051 2.287.497 4.539 1.137 6.743 1.915 1.509.58 2.747 1.688 3.476 3.11.168.425.205.89.104 1.334-.184.467-.537.85-.99 1.077-.94.547-2.173.24-2.347-.256-.371-.644-.416-1.422-.122-2.103.18-.242.46-.392.765-.41l-.26-.103c-.28-.076-.578-.045-.835.086-.425.242-.751.623-.92 1.077-.249.594-.339 1.241-.261 1.88.07.47.268.913.573 1.282.318.36.708.652 1.147.855.952.464 2.037.597 3.076.376 1.256-.248 2.376-.941 3.145-1.949.42-.627.687-1.34.783-2.085.095-.717.036-1.445-.174-2.137-.38-1.344-1.131-2.558-2.173-3.505-.989-.933-2.136-1.69-3.388-2.239-2.379-.9-4.817-1.637-7.3-2.205-2.467-.7-5.004-1.35-7.472-2.103-2.447-.708-4.816-1.653-7.073-2.82-2.091-1.104-3.921-2.63-5.37-4.479l-.434-.65-.174-.375v-.103l-.087-.171c-.255-.46-.47-.94-.643-1.436-.294-.987-.4-2.018-.313-3.043.11-1.912.897-3.726 2.225-5.128.276-.346.584-.667.92-.957l.452-.308.73-.376c.75-.343 1.546-.579 2.364-.7 1.566-.196 3.155-.08 4.675.341 1.203.344 2.368.808 3.475 1.385.721.373 1.418.79 2.086 1.248l.764.58 2.433-2.854z"/>
        <path fill="#FDCB80" d="M54.084 6.47l-.761-.603c-.751-.574-1.543-1.093-2.37-1.552-1.276-.72-2.628-1.298-4.03-1.723-1.85-.548-3.792-.718-5.709-.5-1.123.13-2.216.444-3.235.93l-.744.38-.778.5c-.51.344-.98.743-1.401 1.189-1.783 1.878-2.853 4.316-3.027 6.895-.193 2.753.59 5.487 2.214 7.723 1.668 2.229 3.813 4.06 6.279 5.36 2.425 1.255 4.968 2.266 7.594 3.017 2.56.776 5.103 1.414 7.524 2.103 2.35.522 4.662 1.202 6.92 2.034 1.88.744 3.383 2.21 4.168 4.069.26.778.198 1.628-.173 2.361-.398.65-1.009 1.143-1.73 1.396-1.349.5-2.957 0-3.182-1.051-.313-.816-.182-1.734.346-2.43.24-.202.553-.295.865-.26-.328-.098-.682-.048-.969.139-.722.686-1.002 1.716-.727 2.672.066.352.228.68.468.948.268.28.592.504.95.655.8.316 1.68.364 2.51.138.972-.271 1.814-.884 2.369-1.724.545-.933.688-2.046.398-3.086-.339-1.107-.972-2.102-1.834-2.879-.859-.832-1.86-1.503-2.958-1.982-2.306-.864-4.67-1.566-7.075-2.103-2.439-.69-4.964-1.327-7.49-2.103-2.539-.753-4.996-1.758-7.334-3-2.302-1.205-4.305-2.907-5.864-4.981-1.452-1.995-2.15-4.437-1.972-6.895.14-2.293 1.083-4.464 2.664-6.137.366-.38.772-.722 1.21-1.017l.624-.414c.224-.137.484-.258.726-.379.913-.433 1.887-.723 2.889-.862 1.74-.208 3.504-.068 5.19.414 1.323.377 2.6.904 3.805 1.569.765.438 1.499.927 2.197 1.465l.76.603.693-.879z"/>
        <path fill="#F9B568" d="M51.506 1.113c.08-.38.416-.651.805-.65L71.713.256h4.453L95.57 0c.385-.009.723.257.805.634 1.959 8.988-.745 18.358-7.193 24.923-11.285 11.725-12.313 13.694-11.08 23.52 1.233 9.825 6.045 12.718 6.045 12.718l-9.453.102h-.257L64.983 62s4.727-3.064 5.771-12.838c1.045-9.774 0-11.811-11.576-23.297-6.548-6.443-9.429-15.738-7.672-24.752z"/>
        <path fill="#4D4D51" d="M90.295 72.428l-30.942.329-.091-8.571c-.02-1.809 1.435-3.29 3.248-3.31l24.375-.258c1.814-.02 3.3 1.43 3.319 3.24l.091 8.57z"/>
        <path fill="#66686B" d="M93.85 74.295l-37.92.402-.022-2.005c-.005-.482.182-.946.52-1.29.338-.345.8-.542 1.283-.547l34.277-.364c.483-.005.949.182 1.294.519.345.337.542.797.547 1.28l.022 2.005z"/>
        <path fill="#FDCB80" d="M54.007 5.63c.036-.677.591-1.21 1.27-1.218l18.27-.206h.926L92.675 4c.681-.002 1.25.521 1.304 1.2v.293c.242 5.047-1.578 9.977-5.043 13.656-3.466 3.678-8.277 5.79-13.33 5.85h-2.728c-5.069.071-9.948-1.927-13.51-5.534-3.56-3.607-5.497-8.51-5.361-13.578V5.63zM55.078 1.457L92.905 1c.289-.005.567.124.773.36.206.235.322.556.322.892.004.337-.107.662-.309.905-.202.242-.479.38-.769.386L55.112 4c-.29.005-.57-.124-.78-.358-.208-.235-.327-.556-.332-.894 0-.698.477-1.27 1.078-1.29z"/>
        <path fill="#FFF" d="M74.5 8L76.809 12.941 82 13.738 78.242 17.563 79.135 23 74.5 20.432 69.865 23 70.742 17.563 67 13.738 72.174 12.941z"/>
    </g>
</svg>
