<svg xmlns="http://www.w3.org/2000/svg" width="407" height="378" viewBox="0 0 407 378">
    <g fill="none" fill-rule="evenodd">
        <path fill="#F7459B" d="M10.593 56.604c-.44-1.046-.662-2.158-.768-3.271-.044-.454.088-.887.268-1.157.817-1.47 2.553-1.573 3.706-.235.69.8 1.429 1.291 2.462 1.469 1.081.185 1.851 1.008 2.009 1.93.168.977-.365 2.006-1.39 2.417-.874.352-1.791.638-2.722.824-1.233.248-3.054-.76-3.565-1.977zm5.72 2.778c.577-1.067 1.754-1.41 2.76-.806 1.078.645 1.462 2.175.844 3.366-.598 1.156-1.815 1.52-2.84.852-1.035-.677-1.389-2.256-.763-3.412zM4.743 52.827c.575-1.151 2.028-1.572 3.14-.911 1.053.627 1.422 1.848.893 2.952-.599 1.252-2.071 1.686-3.22.947-1.005-.646-1.35-1.915-.813-2.988zm6.969 8.89c.608-1.125 1.96-1.476 2.975-.772.993.686 1.32 2.167.721 3.261-.62 1.133-1.945 1.473-2.977.76-1.01-.695-1.326-2.124-.72-3.248zm-6.969-2.076c.584-1.178 2.122-1.603 3.215-.887.956.625 1.313 1.948.802 2.972-.593 1.189-2.104 1.612-3.206.894-.962-.624-1.32-1.947-.811-2.979zM393.507 330.997c-1.101.27-2.235.316-3.35.247-.456-.028-.863-.226-1.102-.446-1.324-1.038-1.154-2.767.349-3.698.897-.556 1.498-1.209 1.835-2.201.353-1.039 1.286-1.67 2.22-1.683.992-.013 1.925.675 2.17 1.752.211.917.35 1.869.389 2.817.052 1.256-1.23 2.897-2.51 3.212zm3.639-5.216c-.963-.736-1.119-1.953-.365-2.852.807-.964 2.378-1.103 3.457-.307 1.048.772 1.218 2.031.397 2.938-.83.917-2.445 1.02-3.49.22zm-8.285 10.404c-1.046-.748-1.235-2.25-.408-3.245.784-.94 2.048-1.115 3.055-.42 1.143.788 1.341 2.31.431 3.329-.794.891-2.101 1.034-3.078.336zm9.872-5.492c-1.017-.777-1.152-2.167-.298-3.06.833-.873 2.347-.964 3.334-.202 1.022.79 1.15 2.151.284 3.06-.844.889-2.305.977-3.32.202zm-3.141 6.558c-1.073-.761-1.252-2.347-.374-3.315.768-.846 2.13-.992 3.062-.327 1.08.771 1.262 2.33.381 3.307-.767.852-2.13 1-3.07.335zM39.1 155.764c-1.128-.122-2.209-.467-3.234-.914-.418-.182-.733-.507-.882-.795-.89-1.428-.138-2.995 1.592-3.355 1.034-.216 1.822-.624 2.478-1.441.686-.856 1.78-1.13 2.662-.822.936.326 1.577 1.292 1.44 2.388-.116.934-.31 1.876-.599 2.78-.381 1.198-2.146 2.302-3.457 2.16zm5.202-3.656c-.653-1.022-.383-2.218.633-2.805 1.088-.63 2.612-.224 3.354.894.72 1.084.45 2.325-.632 2.896-1.094.578-2.647.122-3.355-.985zM32.96 159.05c-.727-1.06-.391-2.536.726-3.188 1.058-.616 2.306-.347 3.015.65.804 1.131.47 2.63-.733 3.276-1.052.566-2.329.253-3.008-.738zm11.155-1.784c-.69-1.077-.342-2.43.766-2.977 1.082-.535 2.535-.103 3.203.95.69 1.092.345 2.415-.78 2.972-1.097.547-2.5.13-3.189-.945zm-5.195 5.088c-.747-1.082-.373-2.633.783-3.242 1.01-.533 2.34-.204 2.988.74.752 1.094.39 2.62-.772 3.237-1.012.539-2.344.211-2.999-.735zM157.633 317.979c-.942.631-1.992 1.062-3.064 1.378-.438.13-.888.083-1.187-.042-1.6-.522-2.031-2.206-.938-3.594.654-.83.995-1.649.972-2.696-.024-1.097.637-2.01 1.512-2.341.926-.351 2.038-.024 2.638.904.511.79.967 1.636 1.328 2.514.478 1.163-.165 3.143-1.26 3.877zm1.635-6.146c-1.156-.362-1.719-1.452-1.318-2.555.429-1.181 1.857-1.85 3.144-1.47 1.249.366 1.839 1.492 1.378 2.624-.467 1.146-1.95 1.795-3.204 1.401zm-4.226 12.61c-1.24-.345-1.93-1.691-1.494-2.909.415-1.152 1.543-1.748 2.728-1.44 1.343.35 2.05 1.712 1.543 2.98-.441 1.11-1.62 1.691-2.777 1.37zm7.398-8.537c-1.221-.382-1.824-1.642-1.327-2.773.485-1.106 1.876-1.709 3.064-1.33 1.23.392 1.817 1.628 1.314 2.777-.49 1.125-1.832 1.707-3.051 1.326zm-.709 7.237c-1.268-.348-1.979-1.778-1.485-2.987.432-1.058 1.662-1.66 2.765-1.354 1.28.355 1.983 1.757 1.49 2.976-.43 1.063-1.66 1.668-2.77 1.365z" opacity=".3" transform="translate(0 1)"/>
        <path stroke="#F7459B" stroke-dasharray="4" stroke-linecap="round" stroke-linejoin="round" d="M58.966 54c-63.51 57.824-91.862 229.028 110.008 238.099C303.554 298.146 382.562 326.113 406 376" opacity=".3" transform="translate(0 1)"/>
        <g opacity=".5">
            <path stroke="#F7459B" d="M48.83 28.68c.84-3.388 2.959-5.842 1.339-7.756-1.5-1.769-6.34-.199-7.998.723L29.468 8.867c.915-1.669 2.477-6.538.719-8.046-2.009-1.718-4.607.747-8.266 1.476-2.53-.886-5.459-.327-7.469 1.696L2.335 16.184c-2.797 2.813-2.797 7.416 0 10.23l23.112 23.252c2.798 2.813 7.374 2.813 10.17 0l12.117-12.192c2.362-2.375 2.72-6.02 1.096-8.794z" transform="translate(0 1) rotate(-90 53.5 -2)"/>
            <path fill="#F868AE" d="M21.383 14.137c-.897.875-2.35.875-3.249 0-.896-.875-.896-2.294 0-3.17.898-.875 2.352-.875 3.249 0 .896.876.896 2.295 0 3.17" transform="translate(0 1) rotate(-90 53.5 -2)"/>
            <path stroke="#F7459B" d="M21.383 14.137c-.897.875-2.35.875-3.249 0-.896-.875-.896-2.294 0-3.17.898-.875 2.352-.875 3.249 0 .896.876.896 2.295 0 3.17z" transform="translate(0 1) rotate(-90 53.5 -2)"/>
            <path fill="#F868AE" d="M37.459 32.067c-.897.876-2.35.876-3.249 0-.896-.875-.896-2.293 0-3.17.899-.874 2.352-.874 3.249 0 .896.877.896 2.295 0 3.17" transform="translate(0 1) rotate(-90 53.5 -2)"/>
            <path stroke="#F7459B" d="M37.459 32.067c-.897.876-2.35.876-3.249 0-.896-.875-.896-2.293 0-3.17.899-.874 2.352-.874 3.249 0 .896.877.896 2.295 0 3.17z" transform="translate(0 1) rotate(-90 53.5 -2)"/>
            <path fill="#F868AE" d="M24.629 23.759L26.648 25.65 24.352 26z" transform="translate(0 1) rotate(-90 53.5 -2)"/>
            <path stroke="#F7459B" d="M24.629 23.759L26.648 25.65 24.352 26z" transform="translate(0 1) rotate(-90 53.5 -2)"/>
            <path stroke="#F7459B" stroke-linecap="round" stroke-linejoin="round" stroke-width=".75" d="M19.759 23.759s.011.578.794 1.449c.784.872 2.903 1.25 2.903 1.25s.035 1.694 1.188 2.848c1.154 1.155 2.004 1.177 2.004 1.177M8.276 12.552L10.572 14.793M8.276 17.034L5.979 14.793M38.131 41.69L35.835 39.448M33.538 41.69L35.835 43.931" transform="translate(0 1) rotate(-90 53.5 -2)"/>
        </g>
    </g>
</svg>
