<svg xmlns="http://www.w3.org/2000/svg" width="567" height="270" viewBox="0 0 567 270">
    <g fill="none" fill-rule="evenodd" opacity=".3">
        <g fill="#F7459B">
            <path d="M519.197 11.805c-.653-1.141-1.065-2.39-1.343-3.656-.114-.516-.023-1.033.146-1.37.734-1.808 2.716-2.172 4.231-.796.906.822 1.825 1.282 3.038 1.34 1.27.06 2.271.897 2.582 1.935.33 1.1-.138 2.36-1.26 2.98-.956.528-1.971.988-3.016 1.335-1.383.46-3.62-.442-4.378-1.768zm6.97 2.382c.514-1.309 1.82-1.872 3.062-1.32 1.33.59 1.987 2.296 1.443 3.754-.526 1.416-1.875 2.008-3.147 1.384-1.286-.631-1.915-2.398-1.357-3.818zM511.937 8.29c.5-1.406 2.113-2.098 3.485-1.495 1.298.572 1.895 1.925 1.441 3.27-.513 1.526-2.146 2.235-3.571 1.548-1.247-.6-1.822-2.011-1.355-3.323zm9.264 9.24c.541-1.381 2.047-1.978 3.314-1.312 1.239.649 1.822 2.306 1.288 3.65-.554 1.392-2.031 1.972-3.319 1.298-1.26-.656-1.823-2.255-1.283-3.635zm-8.308-1.398c.506-1.439 2.217-2.147 3.574-1.478 1.188.583 1.784 2.055 1.34 3.306-.515 1.452-2.194 2.154-3.563 1.485-1.194-.581-1.793-2.053-1.35-3.313zM15.818 229.45c-1.313-.05-2.59-.363-3.812-.798-.498-.177-.889-.528-1.084-.85-1.144-1.58-.403-3.454 1.566-4.01 1.177-.333 2.055-.868 2.746-1.866.724-1.045 1.965-1.45 3.01-1.164 1.108.302 1.928 1.368 1.859 2.647-.058 1.091-.206 2.196-.465 3.265-.343 1.418-2.293 2.836-3.82 2.776zm5.714-4.648c-.837-1.13-.623-2.536.503-3.296 1.206-.816 3-.469 3.949.765.92 1.197.708 2.655-.494 3.402-1.218.757-3.05.354-3.958-.871zM8.99 233.745c-.927-1.169-.659-2.903.58-3.747 1.172-.798 2.636-.587 3.536.51 1.022 1.245.758 3.005-.58 3.85-1.169.739-2.67.479-3.536-.613zm12.746-2.959c-.885-1.191-.593-2.785.643-3.506 1.207-.707 2.922-.323 3.779.842.886 1.208.595 2.767-.659 3.502-1.224.721-2.879.351-3.763-.838zm-5.588 6.304c-.952-1.192-.646-3.017.64-3.814 1.125-.698 2.688-.424 3.514.616.958 1.206.664 3.002-.629 3.808-1.125.705-2.691.432-3.525-.61zM12.9 119.248c.188-1.3.632-2.538 1.193-3.707.228-.477.618-.829.958-.99 1.692-.972 3.478-.04 3.825 1.977.207 1.206.648 2.134 1.569 2.926.964.83 1.237 2.106.843 3.115-.417 1.07-1.562 1.775-2.828 1.572-1.078-.171-2.162-.434-3.198-.804-1.374-.489-2.58-2.576-2.362-4.089zm4.026 6.17c1.21-.716 2.587-.356 3.226.844.685 1.284.152 3.033-1.174 3.847-1.287.79-2.714.427-3.332-.847-.625-1.29-.033-3.07 1.28-3.845zm-7.583-13.41c1.26-.8 2.956-.352 3.666.968.671 1.25.308 2.683-.877 3.464-1.345.886-3.068.44-3.768-.98-.613-1.24-.197-2.705.979-3.452zm1.61 12.986c1.278-.756 2.832-.3 3.42 1.005.577 1.274.016 2.94-1.233 3.67-1.293.756-2.814.303-3.413-1.02-.59-1.293-.049-2.9 1.226-3.655zm-5.685-6.217c1.285-.823 3.068-.328 3.726 1.035.577 1.191.14 2.717-.98 3.43-1.3.827-3.054.347-3.721-1.023-.583-1.193-.149-2.722.975-3.442z" transform="translate(1 1) translate(13 5)"/>
        </g>
        <path stroke="#F7459B" stroke-dasharray="4" stroke-linecap="round" stroke-linejoin="round" d="M565 0C562.37 178.667-81.98 3.941 8.755 268" transform="translate(1 1)"/>
    </g>
</svg>
