<svg xmlns="http://www.w3.org/2000/svg" width="97" height="320" viewBox="0 0 97 320">
    <g fill="none" fill-rule="evenodd" opacity=".5">
        <path fill="#FFFAED" d="M15.748 53.048c-.944-.85-1.7-1.87-2.337-2.945-.26-.439-.333-.938-.278-1.295.13-1.868 1.842-2.785 3.65-1.973 1.081.485 2.065.636 3.198.331 1.186-.319 2.359.152 2.958 1.01.636.907.584 2.197-.26 3.093-.72.764-1.515 1.483-2.37 2.107-1.134.828-3.463.662-4.56-.328zm7.13.127c.077-1.347 1.108-2.246 2.417-2.107 1.401.148 2.52 1.514 2.459 3.006-.058 1.449-1.12 2.387-2.477 2.19-1.373-.198-2.484-1.628-2.4-3.089zM8.011 51.972c.036-1.432 1.31-2.538 2.754-2.39 1.366.14 2.323 1.2 2.311 2.563-.012 1.546-1.3 2.674-2.818 2.465-1.327-.181-2.281-1.301-2.247-2.638zm11.305 5.72c.082-1.422 1.286-2.41 2.652-2.175 1.335.229 2.371 1.572 2.285 2.958-.09 1.435-1.273 2.398-2.66 2.162-1.357-.23-2.357-1.525-2.277-2.945zm-8.061 1.166c.031-1.464 1.39-2.614 2.84-2.403 1.27.184 2.26 1.353 2.23 2.628-.036 1.478-1.369 2.613-2.83 2.405-1.272-.18-2.267-1.35-2.24-2.63z" transform="translate(1 1)"/>
        <path stroke="#FFFAEC" stroke-dasharray="4" stroke-linecap="round" stroke-linejoin="round" d="M0 0c84.42 66.881 143.258 201.905 35.814 318" transform="translate(1 1)"/>
        <path fill="#FFFAED" d="M82.017 300.292c-.93-.867-1.667-1.9-2.285-2.986-.253-.443-.317-.943-.257-1.3.163-1.866 1.891-2.752 3.685-1.908 1.072.503 2.053.67 3.191.386 1.191-.298 2.356.193 2.94 1.06.62.92.546 2.208-.314 3.09-.732.751-1.54 1.456-2.407 2.065-1.148.808-3.473.6-4.553-.407zm7.126.25c.1-1.345 1.147-2.226 2.453-2.064 1.399.172 2.493 1.558 2.407 3.049-.083 1.447-1.161 2.367-2.515 2.147-1.37-.223-2.456-1.672-2.345-3.131zM74.3 299.082c.06-1.431 1.355-2.515 2.795-2.343 1.364.164 2.302 1.242 2.267 2.604-.04 1.545-1.347 2.65-2.86 2.416-1.324-.205-2.26-1.341-2.202-2.677zm11.204 5.916c.106-1.42 1.328-2.388 2.69-2.128 1.33.251 2.343 1.612 2.233 2.997-.115 1.433-1.315 2.376-2.698 2.115-1.353-.253-2.33-1.566-2.225-2.984zm-8.08 1.025c.056-1.464 1.436-2.59 2.882-2.353 1.265.206 2.236 1.393 2.183 2.667-.062 1.477-1.414 2.589-2.87 2.355-1.27-.203-2.244-1.389-2.196-2.67z" transform="translate(1 1)"/>
    </g>
</svg>
