<svg xmlns="http://www.w3.org/2000/svg" width="190" height="150" viewBox="0 0 190 150">
    <defs>
        <linearGradient id="prefix__e" x1="29.389%" x2="77.459%" y1="70.281%" y2="24.094%">
            <stop offset="0%" stop-color="#FEEBD8"/>
            <stop offset="68%" stop-color="#FF91AA"/>
            <stop offset="100%" stop-color="#FED8C9"/>
        </linearGradient>
        <linearGradient id="prefix__f" x1="-406.933%" x2="-344.942%" y1="-753.361%" y2="-788.19%">
            <stop offset="0%" stop-color="#FEEBD8"/>
            <stop offset="68%" stop-color="#FF91AA"/>
            <stop offset="100%" stop-color="#FED8C9"/>
        </linearGradient>
        <linearGradient id="prefix__g" x1="29.465%" x2="77.521%" y1="71.492%" y2="22.475%">
            <stop offset="0%" stop-color="#E4A7AF"/>
            <stop offset="68%" stop-color="#FF91AA"/>
            <stop offset="100%" stop-color="#FED8C9"/>
        </linearGradient>
        <linearGradient id="prefix__h" x1="25.974%" x2="68.43%" y1="93.294%" y2="32.396%">
            <stop offset="0%" stop-color="#FEEBD8"/>
            <stop offset="28%" stop-color="#FCCFC5"/>
            <stop offset="81%" stop-color="#FF91AA"/>
            <stop offset="100%" stop-color="#FED8C9"/>
        </linearGradient>
        <linearGradient id="prefix__i" x1="6.145%" x2="111.416%" y1="39.036%" y2="67.513%">
            <stop offset="0%" stop-color="#FEEBD8"/>
            <stop offset="100%" stop-color="#FF9AAB"/>
        </linearGradient>
        <linearGradient id="prefix__j" x1="61.61%" x2="43.158%" y1="213.981%" y2="17.431%">
            <stop offset="0%" stop-color="#FF7897"/>
            <stop offset="35%" stop-color="#FF8BB0"/>
            <stop offset="100%" stop-color="#FFB6E8"/>
        </linearGradient>
        <linearGradient id="prefix__k" x1="68.634%" x2="44.464%" y1="195.573%" y2="5.884%">
            <stop offset="0%" stop-color="#FF7897"/>
            <stop offset="35%" stop-color="#FF8BB0"/>
            <stop offset="100%" stop-color="#FFB6E8"/>
        </linearGradient>
        <linearGradient id="prefix__l" x1="71.518%" x2="47.827%" y1="186.742%" y2="-10.144%">
            <stop offset="0%" stop-color="#FF7897"/>
            <stop offset="35%" stop-color="#FF8BB0"/>
            <stop offset="100%" stop-color="#FFB6E8"/>
        </linearGradient>
        <linearGradient id="prefix__m" x1="60.818%" x2="42.937%" y1="174.827%" y2="-21.748%">
            <stop offset="0%" stop-color="#FF7897"/>
            <stop offset="35%" stop-color="#FF8BB0"/>
            <stop offset="100%" stop-color="#FFB6E8"/>
        </linearGradient>
        <radialGradient id="prefix__a" cx="30.558%" cy="37.707%" r="55.489%" fx="30.558%" fy="37.707%" gradientTransform="scale(-1 -.95238) rotate(49.315 .842 -.675)">
            <stop offset="0%" stop-color="#FFDBF4"/>
            <stop offset="57%" stop-color="#FFB5CC"/>
            <stop offset="100%" stop-color="#FF9DB3"/>
        </radialGradient>
        <radialGradient id="prefix__b" cx="3596.427%" cy="1447.747%" r="55.662%" fx="3596.427%" fy="1447.747%" gradientTransform="matrix(1 0 0 .96296 0 .536)">
            <stop offset="0%" stop-color="#FFDBF4"/>
            <stop offset="57%" stop-color="#FFB5CC"/>
            <stop offset="100%" stop-color="#FF9DB3"/>
        </radialGradient>
        <radialGradient id="prefix__c" cx="57.391%" cy="15.563%" r="93.738%" fx="57.391%" fy="15.563%" gradientTransform="scale(1 .94737) rotate(-8.75 .63 .16)">
            <stop offset="0%" stop-color="#FFDBF4"/>
            <stop offset="57%" stop-color="#FFB5CC"/>
            <stop offset="100%" stop-color="#FF9DB3"/>
        </radialGradient>
        <radialGradient id="prefix__d" cx="43.783%" cy="8.356%" r="90.767%" fx="43.783%" fy="8.356%">
            <stop offset="0%" stop-color="#FFDBF4"/>
            <stop offset="57%" stop-color="#FFB5CC"/>
            <stop offset="100%" stop-color="#FF9DB3"/>
        </radialGradient>
    </defs>
    <g fill="none">
        <path fill="url(#prefix__a)" d="M140.765 37.746c-13.686 11.739-12.602 31.283-6.24 58.254 20.327-12.817 35.236 2.815 48.921-8.904 13.686-11.718 4.656-30.684-15.23-29.945 3.712-19.605-13.766-31.204-27.451-19.405z"/>
        <path fill="url(#prefix__b)" d="M117.668 1.995c-5.943 5.021-5.457 13.41-2.709 25.005 8.813-5.519 15.281 1.195 21.203-3.825 5.923-5.021 2.022-13.17-6.589-12.851 1.597-8.329-5.983-13.33-11.905-8.329z"/>
        <path fill="url(#prefix__c)" d="M28.03 52.363C36.86 58.929 37.16 71.03 34.613 88c-12.907-6.93-21.14 3.455-29.99-3.111-8.851-6.566-4.297-18.708 7.755-19.193C9.196 53.777 19.18 45.797 28.03 52.363z"/>
        <path fill="url(#prefix__d)" d="M19.339 16.266c3.06 1.112 4.053 4.353 4.661 9.109-4.276-.902-5.857 2.512-8.917 1.4-3.06-1.113-2.696-4.718.75-5.754-1.845-3.03.425-5.925 3.506-4.755z"/>
        <g>
            <path fill="url(#prefix__e)" d="M40.794 34.488c7.93-2.234 10.614-2.49 12.464 3.044 1 3.178 2.18 6.3 3.539 9.35.772 1.6-.671 4.25-4.067 2.728-3.757-1.523-6.503-4.746-7.34-8.619l.243 10.793L30.505 64 18 49.768l7.706-10.24s8.927-3.3 15.088-5.04z" transform="translate(55 76)"/>
            <path fill="url(#prefix__f)" d="M33.794 25.486c7.93-2.233 10.614-2.49 12.464 3.062 1.001 3.169 2.183 6.282 3.539 9.324.772 1.6-.671 4.248-4.067 2.726-3.773-1.511-6.535-4.734-7.381-8.613l.244 10.786L23.505 55 11 40.756l7.706-10.233s8.927-3.299 15.088-5.037z" transform="translate(55 76)"/>
            <path fill="url(#prefix__g)" d="M27.818 17.535c7.938-2.295 10.625-2.58 12.477 3.127.985 3.286 2.153 6.514 3.501 9.668.774 1.645-.671 4.367-4.07 2.803-3.783-1.558-6.548-4.88-7.39-8.876l.245 11.11L17.518 48 5 33.377l7.714-10.521s8.936-3.493 15.104-5.321z" transform="translate(55 76)"/>
            <path fill="url(#prefix__h)" d="M49.598 40.423c-4.701-5.099-29.935 5.12-33.53-5.08-1.488-3.983 7.372-18.066 10.988-20.555 3.617-2.49 8.539-10.936 4.822-13.944-4.34-3.545-11.853 5.06-16.514 7.669C10.703 11.123 1.3 36.2.055 44.586c-.103.56-.061 1.135.12 1.673 2.01 12.63 27.786 32.488 42.431 26.712 23.265-9.123 15.45-23.325 6.992-32.548z" transform="translate(55 76)"/>
            <path fill="url(#prefix__i)" d="M7.489 1.664c4.46-2.655 10.939 3.133 13.878 8.901 2.94 5.769 10.68 17.385 15.339 19.321 6.314 3.378 11.65 8.32 15.498 14.35 6.42 11.178 9.28 25.35-10.439 20.938-17.578-3.992-23.577-25.767-25.497-33.93-1.92-8.164-17.138-24.55-8.78-29.58z" transform="translate(55 76)"/>
        </g>
        <path fill="url(#prefix__j)" d="M53.416 57.98h-11.16c-.6.022-1.185-.196-1.618-.605-.42-.423-.643-1-.614-1.59V36.008c-.112-.827.177-1.657.78-2.243.604-.586 1.452-.859 2.291-.738.835-.115 1.676.161 2.271.747.596.586.877 1.413.76 2.234v16.936h7.29c.706-.104 1.42.128 1.924.625.505.496.74 1.198.635 1.892.097.692-.142 1.39-.644 1.883-.503.494-1.211.729-1.915.634z"/>
        <path fill="url(#prefix__k)" d="M81.97 45.87c.16 3.427-.93 6.796-3.067 9.48-2.099 2.453-5.213 3.796-8.436 3.637-3.156.128-6.205-1.161-8.314-3.517-2.213-2.691-3.33-6.12-3.128-9.6-.208-3.436.904-6.82 3.107-9.46 2.151-2.295 5.196-3.536 8.335-3.396 3.173-.161 6.257 1.08 8.436 3.396 2.196 2.642 3.295 6.029 3.068 9.46zm-7.567 5.78c1.046-1.739 1.546-3.753 1.433-5.78.106-1.996-.394-3.976-1.433-5.68-.878-1.297-2.352-2.058-3.915-2.022-1.554-.041-3.019.723-3.875 2.021-1.02 1.713-1.512 3.689-1.413 5.68-.095 2.03.395 4.044 1.413 5.801.816 1.357 2.293 2.175 3.875 2.143 1.596.03 3.088-.795 3.915-2.163z"/>
        <path fill="url(#prefix__l)" d="M95.244 58h-3.716c-.486.007-.96-.15-1.346-.444-.38-.296-.654-.706-.784-1.17l-6.267-20.92c-.225-.593-.158-1.258.18-1.795.417-.466 1.026-.712 1.648-.665h2.009c.526-.01 1.04.152 1.466.464.417.328.709.791.824 1.31l2.37 9.603c.281.928.603 2.26 1.004 4.035.402 1.775.724 3.106.965 4.034h.16c.241-.887.563-2.232.965-4.034.401-1.755.723-3.087.964-4.035l2.35-9.602c.109-.522.401-.988.824-1.311.425-.312.94-.475 1.466-.464h1.728c.622-.047 1.23.199 1.647.665.331.54.391 1.205.16 1.796l-6.327 20.818c-.127.503-.426.946-.844 1.25-.42.307-.927.47-1.446.465z"/>
        <path fill="url(#prefix__m)" d="M121.496 57.976h-11.33c-.582.023-1.148-.195-1.568-.604-.408-.424-.623-1-.596-1.592V35.217c-.027-.592.188-1.168.596-1.592.42-.409.986-.627 1.567-.604h11.013c.667-.095 1.338.133 1.814.616s.701 1.165.607 1.841c.1.681-.122 1.37-.598 1.86-.475.492-1.15.727-1.823.638h-7.262v4.612h5.774c.7-.12 1.413.11 1.916.618.504.507.736 1.23.624 1.94.1.69-.126 1.388-.61 1.884-.484.495-1.17.73-1.85.634h-5.854v5.277h7.58c.684-.104 1.376.128 1.865.624.489.497.717 1.199.615 1.893.102.695-.126 1.397-.615 1.893-.49.496-1.181.728-1.865.625z"/>
    </g>
</svg>
