<svg xmlns="http://www.w3.org/2000/svg" xmlns:xlink="http://www.w3.org/1999/xlink" width="146" height="72" viewBox="0 0 146 72">
    <defs>
        <path id="prefix__a" d="M36.325 72c1.755 0 3.712-.274 4.252-.754.607-2.262 1.62-6.307 3.171-11.449l4.926-16.384c1.35-4.456 2.767-8.5 3.24-9.872 1.214-3.36 2.294-4.182 5.33-4.799l1.62-.343c.608-.48.675-1.988.135-2.399-3.104.137-4.926.206-7.828.206-2.564 0-4.79-.069-8.367-.206-.878.48-1.08 1.782-.473 2.4l2.025.274c3.441.48 3.509 1.508 2.834 4.936-.27 1.234-1.35 5.347-2.632 9.803l-2.902 9.872c-.472 1.576-1.08 3.496-1.552 4.25-.742-1.44-1.89-3.839-4.251-9.186l-3.172-7.13c-3.171-7.198-5.6-12.614-5.263-15.219-1.485.137-3.712.206-5.399.206-2.564 0-4.994-.069-8.503-.206-.81.411-1.08 1.988-.472 2.4l1.89.274c3.441.48 3.306 1.85 1.619 7.403l-5.534 18.167C9.67 58.7 8.32 62.745 7.848 64.116c-1.147 3.222-2.227 4.114-5.331 4.8l-1.552.342c-.81.48-.743 1.988-.135 2.4 3.036-.138 4.926-.206 7.76-.206 2.564 0 4.859.068 8.503.205.742-.48.675-1.782.337-2.4l-2.024-.342c-3.442-.548-3.374-1.44-2.835-4.867.203-1.234 1.283-5.348 2.632-9.804l3.982-13.368c1.08-3.702 1.35-4.524 1.687-5.347.945 1.92 3.104 7.198 4.386 10.215l7.22 16.658C34.369 66.722 36.19 72 36.326 72z"/>
        <path id="prefix__b" d="M59.596 71.966c3.838 0 7.809-1.308 11.25-4.58C74.684 63.724 77 58.229 77 53.519c0-4.71-2.647-9.552-9.728-9.552-2.977 0-6.485.85-10.323 4.122-4.433 3.794-6.882 9.747-6.948 14.785-.066 4.58 2.846 9.093 9.595 9.093zm.46-3c-1.26 0-2.056-1.035-2.056-2.653 0-6.211 4.177-13.976 6.564-16.888 1.392-1.682 2.519-2.459 3.58-2.459 1.458 0 1.856 1.359 1.856 2.718 0 4.918-3.249 12.035-5.039 14.947-1.79 2.847-3.248 4.335-4.906 4.335zm24.425 3c3.181 0 5.519-2.683 5.519-6.036 0-3.086-1.753-4.964-4.35-4.964-3.377 0-5.65 3.153-5.65 6.305 0 2.951 1.948 4.695 4.48 4.695z"/>
        <path id="prefix__c" d="M144.442 71c1.13-.331 1.243-3.202.226-3.865l-4.632-.331c-5.368-.428-6.168-1.48-6.212-9.597l-.002-42.852c0-5.521.113-10.6.34-13.14C133.934.33 133.143 0 132.578 0c-.79 0-5.084 2.098-10.055 3.533-4.52 1.215-9.83 2.43-14.462 3.092-.903.663-.79 3.313.226 3.865l5.197.662c4.972.663 5.424 2.32 5.424 9.607v35.666c0 8.833-.678 9.937-6.214 10.379l-4.633.331c-1.016.663-.903 3.534.226 3.865 4.068-.22 10.847-.331 18.303-.331 7.005 0 13.784.11 17.851.331z"/>
    </defs>
    <g fill="none">
        <use fill="#000" xlink:href="#prefix__a"/>
        <use fill="#FFFAED" xlink:href="#prefix__a"/>
        <use fill="#000" xlink:href="#prefix__b"/>
        <use fill="#FFFAED" xlink:href="#prefix__b"/>
        <g>
            <use fill="#000" xlink:href="#prefix__c"/>
            <use fill="#FFFAED" xlink:href="#prefix__c"/>
        </g>
    </g>
</svg>
