<svg xmlns="http://www.w3.org/2000/svg" xmlns:xlink="http://www.w3.org/1999/xlink" width="147" height="70" viewBox="0 0 147 70">
    <defs>
        <path id="prefix__a" d="M35.35 70c1.725 0 3.649-.262 4.18-.721.597-2.164 1.592-6.033 3.118-10.951l4.842-15.672c1.327-4.263 2.72-8.131 3.185-9.443 1.194-3.213 2.255-4 5.24-4.59l1.592-.328c.598-.459.664-1.902.133-2.295-3.051.131-4.843.197-7.695.197-2.521 0-4.71-.066-8.226-.197-.862.459-1.062 1.705-.464 2.295l1.99.262c3.383.46 3.45 1.443 2.786 4.722-.265 1.18-1.327 5.114-2.587 9.377l-2.853 9.442c-.464 1.509-1.061 3.345-1.526 4.066-.73-1.377-1.857-3.672-4.179-8.787l-3.118-6.82C28.65 33.672 26.262 28.492 26.594 26c-1.46.131-3.649.197-5.307.197-2.521 0-4.91-.066-8.359-.197-.796.393-1.061 1.902-.464 2.295l1.857.262c3.383.46 3.25 1.77 1.592 7.082l-5.44 17.377C9.147 57.28 7.82 61.148 7.356 62.46c-1.128 3.082-2.19 3.934-5.241 4.59l-1.526.328c-.796.46-.73 1.902-.133 2.295 2.986-.131 4.843-.197 7.63-.197 2.52 0 4.776.066 8.358.197.73-.459.663-1.705.332-2.295l-1.99-.328c-3.384-.524-3.317-1.377-2.787-4.656.2-1.18 1.26-5.114 2.587-9.377L18.5 40.23c1.062-3.541 1.327-4.328 1.659-5.115.929 1.836 3.051 6.885 4.312 9.77l7.098 15.935C33.427 64.95 35.218 70 35.35 70z"/>
        <path id="prefix__b" d="M56.827 70c3.93 0 7.997-1.308 11.52-4.58 3.931-3.663 6.303-9.158 6.303-13.869 0-4.71-2.71-9.551-9.962-9.551-3.05 0-6.64.85-10.571 4.121-4.54 3.795-7.048 9.748-7.116 14.786C46.933 65.486 49.915 70 56.827 70zm.068-2.879c-1.287 0-2.1-1.046-2.1-2.682 0-6.28 4.269-14.13 6.708-17.075 1.423-1.7 2.575-2.485 3.66-2.485 1.49 0 1.897 1.373 1.897 2.747 0 4.972-3.32 12.168-5.15 15.112-1.83 2.879-3.32 4.383-5.015 4.383zM82.24 70c3.32 0 5.76-2.617 5.76-5.888 0-3.01-1.83-4.841-4.54-4.841-3.524 0-5.896 3.075-5.896 6.15 0 2.878 2.033 4.579 4.676 4.579z"/>
        <path id="prefix__c" d="M141.69 70c1.842-2.613 4.335-10.124 5.31-16.874-.433-1.415-2.926-1.415-3.685-.653-3.038 5.577-4.354 5.967-11.585 5.986l-13.883.001c-1.517 0-2.059-.653-2.059-1.306 0-.871.976-2.395 5.744-6.859l5.202-4.898c13.005-12.302 16.365-18.399 16.365-26.89C143.099 8.274 135.296 0 122.616 0c-10.512 0-20.483 5.988-24.926 16.983.217 1.742 2.276 2.395 3.576 1.524 3.468-5.988 7.803-10.016 13.98-10.016 7.261 0 11.813 5.77 11.813 13.282 0 11.648-6.719 20.793-14.197 29.067-6.502 7.185-12.68 12.955-16.798 16.765-.217.98.109 2.177 1.084 2.395 1.842-.218 6.502-.327 12.138-.327h17.231c6.936 0 10.838.11 15.173.327z"/>
    </defs>
    <g fill="none">
        <use fill="#000" xlink:href="#prefix__a"/>
        <use fill="#FFFAED" xlink:href="#prefix__a"/>
        <use fill="#000" xlink:href="#prefix__b"/>
        <use fill="#FFFAED" xlink:href="#prefix__b"/>
        <g>
            <use fill="#000" xlink:href="#prefix__c"/>
            <use fill="#FFFAED" xlink:href="#prefix__c"/>
        </g>
    </g>
</svg>
