<svg xmlns="http://www.w3.org/2000/svg" xmlns:xlink="http://www.w3.org/1999/xlink" width="144" height="74" viewBox="0 0 144 74">
    <defs>
        <path id="prefix__a" d="M34.131 68c1.666 0 3.523-.256 4.036-.705.576-2.115 1.537-5.896 3.01-10.702l4.676-15.316c1.28-4.165 2.626-7.946 3.074-9.228 1.153-3.14 2.178-3.909 5.06-4.486l1.537-.32c.577-.449.641-1.858.129-2.243-2.947.128-4.676.192-7.43.192-2.434 0-4.548-.064-7.943-.192-.832.449-1.024 1.666-.448 2.243l1.921.256c3.267.449 3.331 1.41 2.69 4.614-.256 1.154-1.28 4.999-2.497 9.164l-2.755 9.228c-.448 1.474-1.024 3.268-1.473 3.973-.704-1.345-1.793-3.588-4.035-8.587l-3.01-6.664c-3.01-6.73-5.317-11.792-4.996-14.227-1.41.128-3.523.192-5.124.192-2.434 0-4.74-.064-8.07-.192-.77.385-1.026 1.858-.45 2.243l1.794.256c3.267.449 3.139 1.73 1.538 6.921l-5.253 16.982c-1.28 4.166-2.562 7.947-3.01 9.228-1.089 3.012-2.114 3.845-5.06 4.486l-1.473.32c-.769.45-.705 1.86-.128 2.244 2.882-.129 4.675-.193 7.365-.193 2.434 0 4.612.064 8.07.193.705-.449.641-1.667.321-2.243l-1.921-.32c-3.267-.513-3.203-1.347-2.69-4.55.192-1.154 1.216-5 2.497-9.165l3.78-12.496c1.024-3.46 1.28-4.23 1.6-4.998.897 1.794 2.947 6.728 4.164 9.548l6.854 15.572C32.274 63.066 34.003 68 34.13 68z"/>
        <path id="prefix__b" d="M57.348 69c3.739 0 7.606-1.262 10.958-4.416 3.739-3.533 5.995-8.832 5.995-13.374S71.723 42 64.825 42c-2.9 0-6.317.82-10.056 3.974-4.318 3.66-6.703 9.4-6.768 14.257C47.937 64.647 50.773 69 57.348 69zm.064-2.776c-1.224 0-1.998-1.009-1.998-2.586 0-6.056 4.061-13.626 6.382-16.465 1.353-1.64 2.45-2.397 3.48-2.397 1.419 0 1.806 1.324 1.806 2.65 0 4.794-3.16 11.733-4.9 14.572-1.74 2.775-3.158 4.226-4.77 4.226zM81.521 69C84.679 69 87 66.477 87 63.322c0-2.901-1.74-4.668-4.319-4.668-3.352 0-5.608 2.965-5.608 5.93 0 2.776 1.934 4.416 4.448 4.416z"/>
        <path id="prefix__c" d="M107.419 74c5.709 0 15.33-1.914 24.422-8.506C140.3 59.221 144 51.46 144 43.804c0-10.206-8.247-16.798-17.762-16.48-1.375 0-2.115-.85-.952-1.381 11.525-4.998 13.322-9.357 13.322-13.716 0-7.124-6.45-12.227-16.81-12.227-9.516 0-17.868 4.89-22.098 13.503 0 1.276 1.48 2.445 2.96 2.02 3.173-4.784 7.93-8.825 13.005-8.825 5.18 0 8.67 3.828 8.67 7.762 0 4.784-2.538 7.974-4.44 9.569-4.23 3.508-12.794 7.017-17.023 8.612-.951 2.445.317 4.678 2.432 5.103 2.643-2.445 6.132-4.465 10.467-4.465 7.507 0 12.37 6.804 12.37 16.267 0 13.078-9.621 19.138-14.167 19.138-1.48 0-3.278-.532-4.547-2.445-.951-1.383-3.277-5.636-7.083-5.636-4.23 0-6.344 2.977-6.344 5.848C96 71.874 101.71 74 107.419 74z"/>
    </defs>
    <g fill="none">
        <use fill="#000" xlink:href="#prefix__a"/>
        <use fill="#FFFAED" xlink:href="#prefix__a"/>
        <use fill="#000" xlink:href="#prefix__b"/>
        <use fill="#FFFAED" xlink:href="#prefix__b"/>
        <g>
            <use fill="#000" xlink:href="#prefix__c"/>
            <use fill="#FFFAED" xlink:href="#prefix__c"/>
        </g>
    </g>
</svg>
