<svg xmlns="http://www.w3.org/2000/svg" width="132" height="41" viewBox="0 0 132 41">
    <g fill="#707070">
        <path d="M15.537 7.69c-.808-1.186-1.804-2.237-2.947-3.113-.853-.539-1.848-.814-2.86-.791-.977-.002-1.919.37-2.627 1.037-.734.683-1.14 1.642-1.119 2.638-.01 1.034.363 2.035 1.048 2.815 1.47 1.458 3.076 2.777 4.794 3.94 2.055 1.426 3.876 3.159 5.398 5.135 1.121 1.465 1.743 3.245 1.776 5.083.007 2.303-.982 4.499-2.717 6.033-1.687 1.648-3.97 2.56-6.34 2.532C5.719 33 2.398 30.678 0 25.964l3.16-1.759c1.883 3.518 3.996 5.277 6.34 5.277 1.422.026 2.803-.476 3.871-1.407 1.038-.846 1.627-2.117 1.598-3.448-.036-1.29-.512-2.53-1.35-3.517-1.372-1.577-2.928-2.987-4.634-4.204-1.604-1.138-3.124-2.39-4.546-3.746-.77-.795-1.374-1.733-1.775-2.761-.37-.93-.562-1.92-.569-2.92-.03-1.984.767-3.892 2.202-5.276C5.793.73 7.837-.065 9.944.004c1.66-.032 3.29.44 4.67 1.354 1.533 1.096 2.856 2.454 3.907 4.01L15.537 7.69zM36 11.904h-4.924v16.405c0 .598.093.968.28 1.09.426.181.897.248 1.361.194H34.9v3.06c-1.096.19-2.206.302-3.32.334-1.18.089-2.35-.272-3.246-1.003-.775-.898-1.15-2.046-1.044-3.2v-16.88H23V8.792h4.29V0h3.73v8.792h4.924L36 11.904zM63.992 21.055H42.734c.042 2.363 1.035 4.617 2.767 6.278 1.545 1.533 3.67 2.383 5.878 2.352 3.844.032 7.341-2.157 8.9-5.57l3.113 1.555c-1.132 2.229-2.83 4.14-4.933 5.554-2.04 1.228-4.408 1.843-6.807 1.768-3.433.123-6.752-1.206-9.1-3.643-2.345-2.372-3.622-5.554-3.549-8.843-.049-3.301 1.262-6.484 3.64-8.842 2.285-2.4 5.519-3.732 8.882-3.661 3.326-.068 6.532 1.213 8.845 3.537 2.442 2.589 3.742 6.005 3.622 9.515zm-4.095-3.148c-.36-1.888-1.438-3.574-3.021-4.723-1.575-1.147-3.491-1.768-5.46-1.768-4.15 0-6.91 2.134-8.282 6.402l16.763.089zM72.617 12.259c2.112-2.71 5.377-4.284 8.827-4.257 3.368-.057 6.606 1.284 8.935 3.7 2.39 2.378 3.697 5.623 3.618 8.982.062 3.355-1.242 6.594-3.618 8.981-2.248 2.405-5.414 3.755-8.718 3.719-3.504-.04-6.812-1.61-9.044-4.294V41H69V8.666h3.617v3.593zm8.827 17.676c2.385.016 4.669-.961 6.294-2.695 1.75-1.72 2.716-4.076 2.677-6.52.053-2.437-.893-4.79-2.622-6.521-1.668-1.76-4.006-2.738-6.44-2.694-2.453-.06-4.813.936-6.475 2.73-1.714 1.752-2.646 4.115-2.586 6.556-.058 2.461.903 4.838 2.659 6.575 1.676 1.72 3.993 2.675 6.403 2.64l.09-.071zM101.918 25c1.25-.01 2.378.724 2.853 1.853.474 1.128.198 2.425-.697 3.276-.561.557-1.328.871-2.128.871s-1.567-.314-2.128-.871c-.575-.587-.87-1.385-.81-2.196-.013-.788.314-1.546.902-2.087.534-.523 1.253-.826 2.008-.846zM131 33h-23l12.89-13.545c1.653-1.652 3.185-3.415 4.586-5.277.902-1.3 1.372-2.841 1.344-4.413.005-1.668-.727-3.257-2.007-4.358-1.312-1.209-3.061-1.857-4.862-1.802-1.827-.043-3.585.685-4.824 2-1.394 1.593-2.176 3.613-2.21 5.71h-3.683c-.03-3.067 1.159-6.024 3.314-8.25 2.005-2 4.761-3.107 7.624-3.062 2.749-.068 5.407.959 7.366 2.846 1.929 1.8 2.998 4.31 2.946 6.916.007 1.977-.547 3.916-1.602 5.602-1.435 2.157-3.082 4.171-4.916 6.016l-7.495 7.979H131V33z"/>
    </g>
</svg>
