<svg xmlns="http://www.w3.org/2000/svg" width="128" height="40" viewBox="0 0 128 40">
    <g fill="#707070">
        <path d="M15.555 7.686c-.785-1.179-1.752-2.23-2.864-3.115-.85-.533-1.84-.807-2.847-.788-1.016-.029-2.002.345-2.737 1.039-.74.676-1.143 1.637-1.106 2.631-.018 1.034.357 2.037 1.051 2.81 1.436 1.452 3.008 2.765 4.696 3.921 2.07 1.427 3.904 3.16 5.439 5.138 1.141 1.452 1.777 3.229 1.813 5.067.025 2.303-.952 4.506-2.684 6.05-1.675 1.659-3.955 2.581-6.327 2.56-4.242-.023-7.572-2.368-9.989-7.035l3.173-1.79c1.885 3.449 4 5.18 6.345 5.192 1.421.024 2.8-.48 3.861-1.415 1.007-.814 1.598-2.027 1.614-3.312-.022-1.309-.496-2.572-1.342-3.58-1.357-1.564-2.896-2.964-4.586-4.171-1.6-1.139-3.115-2.39-4.533-3.742-.786-.789-1.403-1.726-1.813-2.757-.369-.93-.56-1.92-.562-2.918-.067-2.015.73-3.965 2.194-5.37C5.854.68 7.875-.076 9.953.005c1.667-.036 3.306.433 4.695 1.343 1.525 1.116 2.848 2.478 3.916 4.028l-3.009 2.309zM34.982 11.897H30.44V28.31c0 .592 0 .968.263 1.093.397.175.832.243 1.263.197h2.017v3.046c-1.013.195-2.04.31-3.07.34-1.086.093-2.162-.269-2.982-1.003-.726-.896-1.079-2.048-.983-3.207V11.897H23v-3.1h3.947V0h3.51v8.797H35l-.018 3.1zM61.994 20.988H41.558c.024 2.356.949 4.61 2.577 6.283 1.483 1.537 3.519 2.388 5.633 2.354 3.684.034 7.036-2.165 8.53-5.595l2.986 1.575c-1.102 2.232-2.733 4.15-4.745 5.577-1.947 1.24-4.209 1.87-6.504 1.81-3.261.117-6.414-1.202-8.654-3.62-2.248-2.384-3.464-5.587-3.377-8.891-.019-3.316 1.26-6.503 3.554-8.855 2.194-2.389 5.285-3.707 8.495-3.622 3.185-.088 6.262 1.178 8.494 3.495 2.312 2.588 3.548 5.99 3.447 9.489zM58 18c-.345-1.77-1.38-3.35-2.895-4.423-1.508-1.052-3.335-1.605-5.203-1.576C45.942 12.07 43.28 14.07 42 18h16zM70.678 12.134c2.108-2.642 5.366-4.17 8.803-4.131 3.334-.068 6.545 1.223 8.857 3.56 2.39 2.289 3.713 5.429 3.66 8.69.039 3.264-1.281 6.405-3.66 8.707-2.244 2.327-5.395 3.62-8.674 3.561-3.489-.033-6.784-1.565-9.004-4.184V40H67V8.59h3.66l.018 3.544zm8.387 16.862c2.375.016 4.649-.938 6.268-2.63 1.748-1.676 2.712-3.979 2.665-6.367.029-2.363-.918-4.638-2.628-6.315-1.653-1.737-3.983-2.712-6.415-2.683-2.417-.034-4.733.943-6.36 2.683-1.72 1.705-2.655 4.016-2.592 6.404-.061 2.398.896 4.715 2.647 6.404 1.688 1.665 4.012 2.573 6.415 2.504zM100.009 25c.8-.008 1.57.253 2.13.724.573.466.884 1.108.86 1.771.02.663-.291 1.303-.86 1.771-.559.47-1.323.734-2.12.734-.799 0-1.563-.264-2.122-.734-.58-.464-.905-1.104-.897-1.77-.014-.664.312-1.301.897-1.757.555-.47 1.316-.737 2.112-.739zM122.763 14.518c1.573.756 2.914 1.933 3.88 3.404.89 1.425 1.362 3.079 1.357 4.767.011 2.71-1.08 5.303-3.015 7.167-2.024 2.084-4.808 3.22-7.688 3.136-2.478.101-4.9-.764-6.77-2.419-1.903-1.942-3.14-4.455-3.527-7.168h3.526c.352 1.712 1.178 3.285 2.38 4.534 1.271 1.061 2.89 1.593 4.532 1.487 1.807.078 3.573-.565 4.92-1.792 1.339-1.223 2.07-2.991 1.992-4.82.036-1.793-.81-3.487-2.257-4.515-1.994-1.264-4.317-1.888-6.665-1.792v-3.405c1.804.093 3.592-.39 5.114-1.38 1.222-.69 1.998-1.983 2.045-3.404.026-1.305-.524-2.554-1.499-3.405-1.012-.9-2.323-1.373-3.667-1.326-1.286-.066-2.547.37-3.527 1.219-1.026 1.048-1.798 2.324-2.257 3.727h-3.614c.436-2.417 1.615-4.631 3.367-6.325 1.672-1.482 3.831-2.269 6.048-2.204 2.305-.032 4.536.826 6.242 2.4 1.693 1.451 2.662 3.592 2.645 5.842.015 2.591-1.346 4.99-3.562 6.272z"/>
    </g>
</svg>
