<svg xmlns="http://www.w3.org/2000/svg" width="127" height="42" viewBox="0 0 127 42">
    <g fill="#707070">
        <path d="M16.416 7.923c-.856-1.225-1.913-2.305-3.131-3.199-.888-.555-1.928-.841-2.986-.821-1.074-.033-2.117.35-2.896 1.066-.785.692-1.216 1.683-1.177 2.709-.013 1.065.38 2.098 1.104 2.901 1.553 1.503 3.25 2.86 5.068 4.055 2.202 1.446 4.156 3.215 5.792 5.244C19.365 21.39 20 23.23 20 25.12c.006 2.371-1.042 4.63-2.878 6.205C15.374 33.037 12.987 34 10.498 34 6.033 34 2.534 31.594 0 26.782l3.348-1.853c1.991 3.565 4.224 5.348 6.697 5.348 1.498.029 2.953-.49 4.073-1.45 1.059-.84 1.681-2.086 1.701-3.409.008-1.347-.465-2.656-1.34-3.705-1.486-1.595-3.163-3.015-4.995-4.23-1.691-1.195-3.288-2.51-4.778-3.932-.83-.81-1.482-1.774-1.919-2.832-.374-.961-.57-1.979-.579-3.006-.05-2.052.783-4.032 2.299-5.47C6.103.736 8.268-.072 10.497.004c1.758-.038 3.484.45 4.942 1.398 1.62 1.133 3.017 2.536 4.127 4.143l-3.15 2.377zM37 12.244h-4.922V29.16c0 .612.09.997.27 1.136.435.169.904.235 1.37.193H35.9v3.148c-1.102.195-2.216.312-3.336.35-1.18.092-2.35-.28-3.245-1.032-.751-.907-1.119-2.058-1.028-3.218V12.244H24V9.078h4.291V0h3.787v9.078H37v3.166zM64.993 21.56H43.7c.03 2.44.995 4.774 2.693 6.51 1.559 1.597 3.694 2.483 5.913 2.455 3.85.033 7.352-2.254 8.905-5.817l3.115 1.62c-1.138 2.323-2.84 4.318-4.946 5.798-2.041 1.281-4.408 1.93-6.81 1.868-3.417.106-6.713-1.281-9.046-3.807-2.327-2.462-3.593-5.757-3.52-9.161-.076-3.416 1.19-6.723 3.52-9.197 2.284-2.514 5.53-3.908 8.905-3.825 3.292-.084 6.473 1.202 8.8 3.558 2.523 2.692 3.879 6.29 3.765 9.998zm-4.1-3.292c-.355-1.966-1.437-3.721-3.027-4.91-1.566-1.188-3.48-1.814-5.438-1.778-4.153 0-6.916 2.223-8.289 6.67l16.754.018zM73.766 13.241c2.197-2.699 5.583-4.266 9.16-4.24 3.502-.053 6.866 1.304 9.27 3.738 2.488 2.35 3.862 5.57 3.802 8.912.058 3.345-1.3 6.571-3.766 8.946-2.332 2.406-5.62 3.758-9.052 3.72-3.643-.032-7.087-1.595-9.414-4.274V42H70V9.607h3.766v3.634zm9.16 17.667c2.478.014 4.85-.965 6.536-2.7 1.813-1.716 2.814-4.066 2.77-6.505.048-2.43-.931-4.775-2.715-6.507-1.736-1.75-4.158-2.729-6.68-2.7-2.505-.05-4.915.918-6.627 2.666-1.782 1.744-2.748 4.104-2.68 6.54-.073 2.472.922 4.863 2.752 6.61 1.746 1.704 4.15 2.643 6.645 2.596zM104.996 26c1.219.025 2.307.761 2.772 1.876.465 1.114.219 2.396-.626 3.264-.554.562-1.317.874-2.11.86-.806.006-1.58-.31-2.145-.878-.575-.566-.894-1.337-.887-2.14-.01-.792.31-1.554.887-2.105.556-.56 1.316-.876 2.11-.877zM126 33L122.233 33 122.233 4.659 117 4.659 119.285 1 126 1z"/>
    </g>
</svg>
