<svg xmlns="http://www.w3.org/2000/svg" width="201" height="120" viewBox="0 0 201 120">
    <g fill="none">
        <path fill="#F7D9DA" d="M112.265 0h-2.545c-6.46.19-12.892.943-19.222 2.25-6.407 1.306-12.728 3.005-18.927 5.086-4.918 1.626-9.35 3.131-13.68 5.034-5.284 2.118-10.054 5.339-13.992 9.447-.875.975-1.674 2.016-2.39 3.114-.415.643-.774 1.32-1.073 2.024-.173.415-.33.813-.468 1.246-.138.432-.225.796-.329 1.21-.138.67-.236 1.345-.294 2.025-.087.692-.104 1.401-.139 2.076v.536c0 1.315-.12 2.82-.294 4.24-.219 1.49-.62 2.949-1.195 4.342-.455 1.068-1.037 2.08-1.732 3.01-.778.935-1.66 1.776-2.632 2.509-1.841 1.3-3.836 2.37-5.94 3.183-1.385.554-2.805 1.073-4.069 1.523h-.138c-2.096.76-4.26 1.557-6.32 2.491-1.754.78-3.42 1.743-4.97 2.872-1.311.95-2.508 2.047-3.568 3.27-2.138 2.502-3.852 5.336-5.074 8.39C1.924 73.21 1 76.699.521 80.26c-.538 3.67-.66 7.39-.364 11.09.248 3.645.94 7.247 2.06 10.726.872 3.436 2.46 6.649 4.659 9.43 5.374 5.692 12.954 8.778 20.78 8.46h.416c2.718 0 5.49-.104 8.156-.208h.138c2.078 0 4.416-.173 6.667-.208h5.542c8.52-.173 17.178-.311 25.836-.311H86.204l5.195.12H94.654c5.369.122 11.048.226 17.317.312 12.641.156 25.196.173 34.634.19h22.061c1.732 0 11.29.139 11.827.139.97 0 17.317-14.585 19.464-24.221.55-2.423.886-4.89 1.005-7.37.112-2.47-.022-4.945-.399-7.388-.373-2.52-1.023-4.993-1.94-7.37-.94-2.43-2.143-4.75-3.584-6.92-2.584-3.859-5.797-7.257-9.507-10.053-3.808-2.838-7.934-5.224-12.294-7.11-4.051-1.78-8.203-3.323-12.434-4.62-3.134-1.003-5.766-1.886-8.33-2.941-2.803-1.092-5.465-2.515-7.93-4.239-.923-.681-1.76-1.471-2.494-2.353-.398-.506-.735-1.058-1.004-1.643-.197-.473-.343-.967-.433-1.471-.043-.449-.043-.9 0-1.35.1-.593.269-1.174.502-1.73.347-.738.777-1.435 1.282-2.076 1.23-1.437 2.58-2.768 4.034-3.979l.19-.173c1.43-1.107 2.763-2.334 3.984-3.668.505-.622.936-1.301 1.281-2.024.183-.349.333-.714.45-1.09.117-.43.192-.87.225-1.315.048-.39.048-.786 0-1.176-.058-.42-.163-.832-.311-1.229-.407-1.008-.994-1.935-1.732-2.733-.697-.835-1.468-1.605-2.303-2.301-.887-.692-1.825-1.317-2.805-1.869-1.975-1.102-4.066-1.984-6.234-2.63-2.303-.697-4.652-1.229-7.03-1.591-2.148-.329-4.417-.588-7.153-.813-2.424-.19-4.762-.294-6.753-.381h-.19L114.862 0h-2.598"/>
        <path fill="#E9505F" d="M165.75 3c-.722.002-1.442.072-2.15.208-1.055.22-2.077.576-3.04 1.058-.96.474-1.864 1.056-2.69 1.735-.798.667-1.508 1.43-2.115 2.273-1.215 1.545-1.835 3.471-1.747 5.43.076.996.375 1.962.874 2.828.351.629.78 1.212 1.275 1.735v.087c-.027.067-.027.141 0 .208l.105.26c.315.816.647 1.735.944 2.499.21.572.401 1.145.594 1.734l.314.885c.556 1.692 1.228 3.344 2.01 4.945.428.835.913 1.64 1.45 2.411.267.382.564.781.89 1.197.315.4.647.781.979 1.128.612.662 1.304 1.244 2.062 1.735.7.468 1.458.847 2.253 1.128.78.269 1.59.438 2.411.503.274.017.548.017.822 0 .584.006 1.169-.035 1.747-.122.85-.136 1.683-.369 2.48-.694.834-.326 1.63-.74 2.377-1.231 1.92-1.368 3.294-3.365 3.879-5.639.336-1.18.513-2.4.524-3.626.023-1.223-.124-2.443-.437-3.626-.293-1.147-.765-2.241-1.398-3.244-.628-.979-1.448-1.822-2.41-2.48-.686-.467-1.44-.824-2.237-1.06 0-.364 0-.745-.123-1.127-.084-1.163-.23-2.321-.436-3.47-.191-.9-.49-1.773-.891-2.602-.364-.702-.816-1.355-1.346-1.943-.77-.873-1.701-1.591-2.743-2.117-.528-.286-1.084-.519-1.66-.694-.513-.148-1.04-.246-1.572-.295h-.996"/>
        <path fill="#D64957" d="M173.38 7.468c.235.66.42 1.338.555 2.027.122.699.209 1.38.26 2.08.044.698.044 1.398 0 2.096-.03.646-.106 1.288-.225 1.923-.09.557-.224 1.106-.4 1.642.52.177 1.02.405 1.495.682.467.258.899.575 1.286.943.535.5.977 1.091 1.303 1.748.17.353.303.721.4 1.1.083.345.141.696.174 1.05.087.678.087 1.365 0 2.044-.102.717-.282 1.42-.539 2.097-.25.676-.577 1.32-.973 1.922-.386.579-.86 1.092-1.408 1.52-.254.212-.527.4-.817.56-.296.147-.604.27-.92.366l-.557.123h-.539c-.312.035-.626.035-.938 0-.244-.03-.48-.108-.695-.228-.195-.022-.384-.081-.556-.174l-.192-.262-.139-.28c-.085-.222-.155-.45-.208-.681-.093-.532-.151-1.069-.174-1.608 0-.612 0-1.206-.139-1.748-.038-.348-.102-.692-.191-1.03-.11-.376-.244-.743-.4-1.102-.2-.475-.432-.936-.695-1.38-.246-.44-.524-.861-.834-1.258-.307-.393-.638-.767-.99-1.119-.335-.347-.695-.668-1.078-.96-.37-.289-.76-.551-1.165-.787-.393-.228-.799-.432-1.216-.612-.409-.169-.827-.314-1.252-.437-.42-.122-.85-.21-1.286-.262-.428-.026-.857-.026-1.286 0-.428-.025-.857-.025-1.286 0-.446.052-.888.14-1.32.262l-.435.14.278.297c-.01.029-.01.06 0 .088-.027.067-.027.142 0 .21l.104.262c.313.82.643 1.747.939 2.516l.59 1.747.296.874c.555 1.711 1.229 3.381 2.016 4.998.427.831.903 1.636 1.425 2.411.255.385.55.787.887 1.206.33.42.66.786.973 1.136.623.657 1.317 1.243 2.068 1.747.698.466 1.45.842 2.242 1.119.776.269 1.58.445 2.398.524h.817c.582 0 1.163-.048 1.738-.14.845-.133 1.673-.362 2.468-.681.83-.335 1.621-.757 2.363-1.258 1.92-1.37 3.288-3.384 3.858-5.68.333-1.19.514-2.417.54-3.652.013-1.231-.133-2.459-.435-3.652-.29-1.159-.766-2.263-1.408-3.268-.623-.992-1.439-1.848-2.398-2.516-.683-.464-1.434-.818-2.225-1.049l-.104-1.136c-.088-1.172-.239-2.339-.452-3.494-.174-.911-.472-1.793-.886-2.622-.332-.671-.753-1.294-1.252-1.852.273.497.5 1.017.678 1.555M168 24.01L168 24.01 168 23.99 168 24.01"/>
        <path fill="#E9505F" d="M154.96 18.018c-.062-.024-.13-.024-.192 0-.06.037-.099.1-.104.17-.026.067-.026.14 0 .206.045.048.107.078.173.085h1.112c.008.142.008.285 0 .427.024.45.024.9 0 1.35 0 .358 0 .75-.121 1.195-.103.815-.248 1.624-.435 2.425-.917 3.596-2.174 7.101-3.752 10.469-.243.546-.487 1.059-.712 1.588-1.582 3.31-2.749 6.797-3.475 10.384-.256 1.397-.32 2.821-.191 4.235 0 .359 0 .717-.122 1.093-.097.948-.138 1.9-.121 2.852-.027.06-.027.128 0 .188.008.07.055.129.121.154 1.716.72 3.555 1.114 5.42 1.161h.174c.872 0 1.74-.098 2.589-.29.777-.187 1.53-.462 2.241-.82.759-.348 1.448-.829 2.033-1.418 1.372-1.636 2.229-3.63 2.467-5.738v-.102c0-.342.139-.684.226-1.008.225-.905.503-1.793.816-2.664.313-.871.626-1.606 1.112-2.682.26-.58.539-1.16.817-1.707.538-1.162 1.094-2.34 1.58-3.536.739-1.747 1.196-3.596 1.356-5.482.13-1.895-.186-3.794-.921-5.55-.322-.763-.737-1.486-1.234-2.152-.516-.628-1.098-1.2-1.737-1.708-1.27-1.059-2.74-1.86-4.326-2.357-1.55-.486-3.168-.728-4.795-.717"/>
        <path fill="#EC95B1" d="M144.938 54c-.067.014-.123.06-.153.122-.345.785-.625 1.598-.838 2.43-.962-.437-2.007-.65-3.06-.625h-1.453c-.85.117-1.69.296-2.513.538-.702.21-1.393.46-2.068.747.009-.075.009-.15 0-.226.02-.056.02-.117 0-.173-.033-.066-.1-.106-.171-.105-.14-.011-.265.086-.29.226v.538c-.07.093-.07.22 0 .313-.031.328-.089.653-.172.972-.128.486-.318.953-.564 1.389-.224.384-.5.735-.82 1.041-.378.375-.804.696-1.265.955-1.081.576-2.23 1.007-3.42 1.285l-2.034.486c-.94.226-1.897.452-2.837.73-.82.216-1.626.489-2.41.815-.809.33-1.587.73-2.325 1.198l-.701.469-.36.278-.136.104-.222.19c-.052.038-.089.094-.103.157-.03.066-.03.143 0 .209.031.053.072.1.12.138.758.584 1.571 1.09 2.427 1.51.752.383 1.59.747 2.701 1.181 1.111.434 1.966.73 2.82.99.855.26 2.035.625 3.146.885 2.123.49 4.276.832 6.445 1.025 1.042.104 2.102.173 3.265.208h2.906c1.871-.022 3.735-.255 5.556-.694.903-.223 1.785-.531 2.632-.92.393-.192.804-.4 1.214-.643.41-.243.803-.555 1.196-.833h.12l.29-.209c.062-.03.106-.088.12-.156.024-.061.024-.13 0-.19.025-.056.025-.12 0-.174-1.094-1.042-2.222-2.05-3.419-3.004l-.837-.694c-.24-.191-.53-.417-.804-.66-.445-.411-.856-.858-1.23-1.337-.417-.533-.767-1.116-1.043-1.736-.27-.644-.454-1.32-.547-2.014-.111-.83-.111-1.67 0-2.5.178-1.27.53-2.508 1.043-3.68v-.087c.017-.063.017-.129 0-.191-.015-.068-.059-.126-.12-.156-.039-.015-.081-.015-.12 0"/>
        <path fill="#D688A1" d="M144.639 54c-.068.016-.126.055-.161.109-.353.704-.646 1.429-.878 2.17-.999-.396-2.09-.586-3.187-.558-.507-.03-1.015-.03-1.522 0-.893.089-1.774.25-2.632.48-.74.176-1.464.398-2.167.667.01-.062.01-.125 0-.186.028-.06.028-.127 0-.186-.055-.046-.123-.078-.197-.093-.152-.01-.285.086-.304.217v.48c-.062.085-.062.194 0 .28-.042.292-.108.582-.197.867-.094.316-.226.623-.394.915.334.103.674.196 1.02.279 1.415.355 2.879.543 4.352.558 1.116.015 2.229-.095 3.312-.326.34-.077.699-.17 1.039-.279l.949-.387.215-.109c-.026-.428-.026-.858 0-1.286.197-1.132.564-2.237 1.092-3.286.028-.06.028-.127 0-.186-.019-.06-.064-.11-.125-.14h-.126M144.01 58.99L143.99 59.01 144.01 58.99z"/>
        <path fill="#EC95B1" d="M77.201 42c-.227.024-.442.113-.62.256-.224.19-.416.415-.567.667-.144.258-.254.534-.327.82-.072.303-.113.612-.12.923-.03.72.022 1.443.154 2.153.117.73.29 1.45.517 2.153.147.489.325.968.533 1.435-.24-.444-.43-.906-.62-1.35-.189-.444-.344-.82-.55-1.213-.214-.42-.474-.816-.775-1.18-.105-.112-.22-.215-.344-.307-.137-.078-.29-.125-.448-.136h-.327c-.108.042-.203.113-.275.205-.078.08-.142.172-.19.273-.053.127-.093.258-.12.393-.073.308-.108.624-.103.94-.025.358-.025.718 0 1.076 0 .445.172.872.258 1.265.086.393.258.888.413 1.333.313.868.687 1.713 1.119 2.529.789 1.38 1.68 2.7 2.668 3.947.014.094.071.176.155.222.135.152.262.312.378.479.055.056.128.092.207.102.05.02.105.02.155 0 .075-.089.075-.219 0-.308.3.064.606.092.912.086.645-.002 1.288-.089 1.91-.256.641-.165 1.26-.406 1.842-.718.519-.264.995-.604 1.412-1.008v.632c.017.128.128.223.258.222.082.003.16-.036.206-.102.018-.062.018-.127 0-.188-.08-.469-.12-.943-.12-1.419 0-.479.064-.955.19-1.418.107-.404.276-.79.498-1.145.225-.345.479-.67.758-.974.134-.15.278-.293.43-.427l.19-.205c.241-.239.471-.49.688-.752.2-.242.352-.52.447-.82v-.222c.01-.074.01-.149 0-.222-.012-.144-.053-.283-.12-.41-.18-.317-.458-.569-.792-.718-.256-.107-.532-.159-.809-.154h-.207c-.168.024-.335.059-.499.103l-.516.205c-.531.273-1.014.631-1.429 1.06-.203.197-.392.409-.568.631v-.53-1.504c0-.563 0-1.127.086-1.708.086-.58 0-1.333 0-1.88-.004-.506-.092-1.008-.258-1.486-.09-.364-.343-.667-.688-.82h-.603c-.181.034-.352.11-.499.222-.304.262-.535.597-.671.974-.178.47-.305.956-.379 1.452-.057.917-.05 1.836.018 2.751v1.009c-.138-.422-.276-.883-.414-1.385-.154-.649-.327-1.298-.464-1.965-.138-.666-.258-1.093-.379-1.537-.152-.503-.366-.985-.637-1.436-.116-.177-.261-.333-.43-.461l-.258-.103c-.091-.016-.185-.016-.276 0"/>
        <path fill="#CE829B" d="M80.285 52.128c-.253.628-.339 1.274-.252 1.916.087.652.474 1.28 1.122 1.82.066.057.166.096.281.113.106.03.231.03.337 0 .105-.034.177-.093.196-.16.041-.062.041-.13 0-.192-.305-.24-.568-.497-.786-.766-.218-.319-.369-.651-.449-.99-.098-.425-.098-.854 0-1.278v-.4c.026-.04.02-.084-.019-.122-.038-.037-.103-.062-.177-.069-.132.004-.245.055-.28.128"/>
        <path fill="#FDFEFD" d="M84.79 58h-.837c-.744.067-1.48.197-2.202.39-.691.184-1.365.427-2.014.728-.613.274-1.187.627-1.707 1.05-.009.057-.009.114 0 .17-.04.062-.04.142 0 .203.218 2.716.605 5.415 1.161 8.082.239 1.186.53 2.541.87 4.015.342 1.474.58 2.592.871 3.88.734 3.05 1.349 5.405 2.031 7.607.393 1.254.82 2.508 1.28 3.71.411 1.113.878 2.204 1.4 3.27.836 1.718 1.93 3.3 3.243 4.693 1.187 1.238 2.593 2.249 4.148 2.982.767.358 1.568.641 2.39.847.845.206 1.708.33 2.577.373h.802c1.619-.014 3.228-.253 4.78-.712 1-.277 1.982-.622 2.935-1.033.87-.368 1.718-.78 2.544-1.237 1.598-.89 3.072-1.984 4.386-3.253 2.473-2.419 4.202-5.486 4.984-8.844.41-1.766.6-3.575.564-5.387 0-.915 0-1.88-.205-2.88 0-.509-.154-1-.24-1.508v-.356c.009-.119.009-.237 0-.356 0-.271 0-.542-.136-.813v-.153c-.126-.912-.303-1.817-.529-2.71-.214-.925-.595-1.804-1.126-2.593v-.101c.005-.04.005-.08 0-.119-.052-.07-.134-.115-.222-.118h-.154c-.8.444-1.555.967-2.253 1.558-.614.525-1.246 1.118-2.048 1.949l-1.23 1.321-.17.17-.154.169-.34.356-.462.508-.188.186-.375.407-1.058 1.169c-1.11 1.22-2.202 2.524-3.278 3.863-.495.61-1.024 1.287-1.57 1.999l-1.707 1.982v.119l-1.11 1.474c-.403-.863-.889-1.686-1.45-2.457-.17-.27-.376-.525-.563-.796v-.102l-.24-.322-1.075-1.203c-1.11-1.694-2.202-3.388-3.243-5.082-2.003-3.354-3.771-6.841-5.291-10.437v-.084c-.854-2.067-1.707-4.185-2.356-6.269.009-.045.009-.09 0-.136-.052-.05-.117-.084-.187-.101-.359-.018-.717-.018-1.076 0"/>
        <path fill="#FDFEFD" d="M117.152 66h-.121c-.284.218-.541.469-.765.748-.194.246-.347.522-.452.817-.213.584-.296 1.208-.243 1.827.049.585.136 1.166.26 1.74v.19c0 .348.122.679.192 1.01.07.33 0 .139 0 .208v.122c0 .348.104.66.121.974-1.166 1.583-2.24 3.233-3.215 4.94-.992 1.733-1.774 3.578-2.33 5.497-.556 1.882-.728 3.858-.503 5.81.1 1.058.34 2.1.712 3.095.349.899.773 1.766 1.27 2.592 1.092 1.706 2.368 3.287 3.805 4.714-.483 4.344-1.202 8.658-2.155 12.924-.278 1.217-.59 2.435-.903 3.635-.026.055-.026.119 0 .174.042.06.103.103.173.122 0 0 .087.104.14.104 5.13.8 10.31 1.254 15.503 1.357 2.537 0 5.214.122 7.404.156h4.258l3.111.105h.904c1.564 0 3.215.122 4.918.139h2.399c.82-.022 1.637-.086 2.45-.191.063.019.13.019.192 0 2.608-5.332 4.149-11.123 4.536-17.047.175-2.413.227-4.834.156-7.253-.085-2.556-.311-5.105-.677-7.636-.396-2.555-.976-5.078-1.738-7.55-.698-2.401-1.624-4.73-2.764-6.957-.645-1.257-1.389-2.461-2.225-3.6-.025-.067-.085-.114-.156-.122h-.122c-.044-.018-.094-.018-.139 0l-.243.156c-.885.514-1.823.928-2.798 1.235-1.441.433-2.919.73-4.415.888-.626.087-1.269.139-2.12.226l-2.295.139h-1.738c-3.319.002-6.629-.354-9.872-1.061h-.33c-3.183-.765-6.255-1.934-9.142-3.48l-.434-.26-.574-.33c-.051-.015-.105-.015-.156 0"/>
        <path fill="#EEE" d="M152.358 71c-.252.26-.505.536-.741.813-.236.277-.893 1.056-1.298 1.592-.612.841-1.175 1.72-1.685 2.63-.287.502-.54.97-.758 1.437-.22.467-.439.9-.624 1.367-.347.844-.64 1.711-.876 2.595-.118.467-.236.917-.32 1.35-.085.432-.152.882-.203 1.297-.154 1.147-.21 2.305-.168 3.461V89.342c0 .553.118 1.107.185 1.73.152 1.108.32 2.25.489 3.34v.259c.152 1.056.32 2.146.455 3.219s.27 2.353.303 3.357c.077 1.077.077 2.158 0 3.235-.086 1.3-.324 2.583-.708 3.824-.181.641-.413 1.266-.69 1.87-.281.66-.614 1.297-.995 1.903-.374.644-.797 1.257-1.264 1.834-.396.522-.824 1.02-1.28 1.488-.868.9-1.803 1.727-2.798 2.474-.455.346-.91.675-1.382.987H143.764c1.786 0 3.252.12 4.769.138h2.325c.759 0 1.551 0 2.377-.19.06.018.125.018.185 0 2.523-5.306 4.017-11.066 4.399-16.958.17-2.4.22-4.81.151-7.215-.082-2.543-.301-5.079-.657-7.597-.383-2.542-.946-5.052-1.685-7.51-.677-2.389-1.574-4.707-2.68-6.92-.27-.52-.539-1.004-.792-1.472"/>
        <path fill="#E3E3E3" d="M115.625 74.286c-1.1 1.682-2.119 3.422-3.053 5.214-.948 1.815-1.671 3.754-2.153 5.768-.216 1.01-.35 2.037-.4 3.072-.025.505-.025 1.012 0 1.518.04.497.108.992.2 1.482.19.99.481 1.953.868 2.875.394.948.857 1.861 1.384 2.732.434.715.907 1.4 1.419 2.054.233.321.484.625.75.928l.418.482.233.233.284.267c.11.119.29.119.4 0 .033-.073.033-.158 0-.232.02-.07.02-.144 0-.214l-.4-.429-.4-.428-.635-.875c-1.065-1.411-1.962-2.959-2.67-4.607-.493-1.139-.852-2.338-1.067-3.572-.18-1.18-.215-2.381-.1-3.572.183-1.756.581-3.48 1.185-5.125.504-1.386 1.095-2.734 1.768-4.035.65-1.268 1.368-2.483 2.12-3.68.033-.04.033-.101 0-.142"/>
        <path fill="#B0A6E6" d="M101.013 115.466c-.017.177-.017.356 0 .534H120v-.504c0-3.053-4.238-5.48-9.485-5.496-5.23 0-9.485 2.443-9.502 5.466"/>
        <path fill="#A298D3" d="M106.179 110c-.07.013-.128.055-.16.114-.026.057-.026.121 0 .178 0 0 0 .098.124.146.03-.007.06-.007.088 0 .402.294.763.632 1.076 1.007.319.403.585.838.794 1.299.176.44.3.898.37 1.363v.65c0 .134.118.243.264.243.143-.008.256-.112.265-.244.003-.454-.056-.906-.176-1.347-.112-.443-.278-.873-.494-1.282-.214-.412-.48-.8-.794-1.153-.33-.36-.703-.687-1.11-.974h-.124"/>
        <path fill="#A298D3" d="M106.757 111c-.817.229-1.621.526-2.408.89-.803.363-1.556.893-2.227 1.567-.054.034-.093.099-.105.174-.023.068-.023.145 0 .213.03.065.079.114.135.136.054.027.113.027.166 0 .494-.484 1.029-.893 1.595-1.22.945-.494 1.922-.882 2.92-1.16.098-.034.167-.15.167-.28 0-.132-.069-.248-.168-.281"/>
        <path fill="#EC95B1" d="M111.128 105c-.62-.001-1.24.055-1.852.169l-1.08.28c-.35.118-.693.255-1.029.413-.402.201-.782.453-1.131.75-.396.288-.71.69-.91 1.161-.069.225-.069.469 0 .694.046.218.154.415.31.562-.184.274-.312.587-.378.918-.124.388-.046.819.206 1.125.262.225.593.333.926.3.329-.01.656-.055.977-.132l-.085.131c0 .15-.155.319-.223.469-.028.136-.028.276 0 .412-.027.11-.027.227 0 .337.052.109.137.195.24.244.206.117.436.175.668.169.334-.008.667-.046.995-.113h.24c.257 0 .515-.093.789-.112h1.44c.955-.002 1.908.092 2.847.28 1.147.22 2.26.611 3.31 1.163l.84.45c.394.224.805.468 1.234.674.714.379 1.489.601 2.28.656.093 0 .178-.054.224-.14.045-.088.045-.195 0-.282-.046-.087-.131-.14-.223-.14H120.937c.119-.17.222-.352.309-.544.126-.296.229-.603.308-.918.158-.666.21-1.357.154-2.042-.047-.7-.186-1.387-.411-2.043-.115-.345-.259-.677-.429-.993 0 0 .103 0 .137-.15.017-.074.017-.151 0-.225-.04-.058-.093-.103-.154-.131l-.429-.206c-.044-.017-.092-.017-.137 0-2.819-1.74-5.936-2.824-9.157-3.186"/>
        <path fill="#CE829B" d="M110.93 109.07c-.515.062-1.026.162-1.53.297-.467.13-.926.291-1.376.482-.032.036-.032.094 0 .13.036.028.084.028.12 0l.373-.148c.777-.272 1.582-.434 2.396-.483.82-.05 1.642.013 2.447.186l.493.148h.136c.01-.036.01-.075 0-.111.016-.047.015-.099-.005-.144-.019-.046-.054-.08-.097-.098-.65-.218-1.326-.325-2.005-.315-.317-.019-.635-.019-.952 0M109.424 107.026c-.522.03-1.042.12-1.555.271-.528.132-1.048.33-1.556.591-.453.217-.886.524-1.29.912-.03.048-.03.124 0 .172.032.037.076.037.108 0 .33-.306.679-.554 1.042-.739.378-.182.763-.33 1.151-.443.405 0 .793-.172 1.198-.222h2.302c.044.007.087-.016.12-.063s.051-.113.05-.183c.008-.057.008-.115 0-.172-.04-.014-.082-.014-.123 0-.37-.11-.745-.16-1.12-.148h-.25"/>
        <path fill="#FDFEFD" d="M151.325 69c-.1-.005-.195.05-.242.14-1.335.63-2.514 1.555-3.45 2.705C146.62 73.1 145.8 74.5 145.198 76c-.604 1.471-.994 3.023-1.156 4.608-.218 1.715-.047 3.458.5 5.096.335.99.745 1.953 1.226 2.88.414.89.897 1.745 1.31 2.565v.157c1.209 2.27 2.14 4.172 2.952 5.935.345.75.655 1.466.931 2.111.276.646.673 1.658 1.036 2.653.362.995.655 1.746.862 2.513-1.592-.442-3.232-.688-4.883-.733h-1.242c-1.61.006-3.217.105-4.814.297-1.053.105-2.123.262-3.193.454l-3.226.646-.708.157c-1.725.366-3.761.82-5.728 1.1l-3.969.523h-.466l-2.433.314h-.259l-1.69.262c-.076.017-.143.06-.19.122-.079.096-.079.235 0 .332.225.417.41.855.552 1.309.222.784.35 1.593.38 2.408.028 1.11-.082 2.218-.329 3.299 0 .21-.103.419-.172.628-.025.068-.025.142 0 .21.05.045.11.08.172.104 1.468.424 2.969.716 4.487.873h1.363l.897.122 2.381.262c3.14.332 6.35.558 9.525.68 1.605 0 3.21.105 4.78.105h5.125c2.445.054 4.89-.14 7.298-.576 1.283-.23 2.53-.628 3.71-1.186.519-.251 1.02-.537 1.501-.856.475-.325.925-.687 1.346-1.082 1.694-1.575 2.99-3.538 3.78-5.724.405-1.097.705-2.231.896-3.386.194-1.265.274-2.544.242-3.823-.088-2.959-.563-5.893-1.415-8.726-.89-2.686-2.004-5.29-3.33-7.784-.345-.698-.673-1.362-1.018-1.99-.12-.244-.242-.506-.38-.75l-.138-.297-.12-.244-.294-.629c-.605-1.063-1.274-2.09-2.002-3.071-.517-.751-1.07-1.519-1.829-2.496-.759-.978-1.26-1.623-1.88-2.374-1.082-1.435-2.334-2.73-3.727-3.857-.062-.02-.129-.02-.19 0l-.173-.105h-.103"/>
        <path fill="#EEE" d="M157.887 77c1.105 1.785 2.106 3.63 2.997 5.526 1.134 2.424 2.072 4.93 2.806 7.497.383 1.327.696 2.636.94 3.894s.401 2.38.506 3.4c.212 2.02.177 4.058-.105 6.07-.141.955-.357 1.899-.645 2.822-.276.885-.632 1.744-1.062 2.568-.435.79-.949 1.535-1.534 2.227-1.236 1.503-2.802 2.718-4.582 3.553-.986.48-2.02.862-3.084 1.14-.627.17-1.272.305-1.952.424-.679.12-1.376.221-2.056.29-1.418.139-2.843.207-4.268.203h-.087c-2.666 0-5.35-.204-7.946-.374h-.836l-2.126-.136-2.334-.153c-1.569-.102-3.172-.22-4.722-.374-2.579-.22-5.14-.51-7.614-.816v.306l-.157.595c-.035.07-.035.151 0 .221.038.06.103.097.174.102 1.48.421 2.997.712 4.53.867h1.377l.906.12 2.404.254c3.189.323 6.412.545 9.618.664 1.638 0 3.258.102 4.826.102h5.158c2.47.052 4.938-.136 7.37-.562 1.293-.231 2.552-.62 3.746-1.156.531-.247 1.044-.53 1.533-.85.48-.31.935-.656 1.36-1.037 1.705-1.546 3.012-3.462 3.815-5.593.41-1.069.713-2.174.906-3.299.195-1.231.276-2.478.244-3.723-.087-2.885-.574-5.744-1.446-8.501-.887-2.678-2.006-5.277-3.345-7.77-.349-.68-.697-1.326-1.028-1.938l-.384-.714-.156-.29-.122-.237-.297-.63c-.601-1.038-1.27-2.037-2.003-2.992-.384-.544-.802-1.105-1.307-1.7"/>
        <path fill="#E3E3E3" d="M144.562 103.05c-2.389.157-4.762.485-7.097.983l-3.48.705-1.739.328-1.74.295c-1.739.279-3.478.54-5.218.77l-2.574.328-1.253.148h-1.287c-.098.021-.169.102-.174.196 0 .109.093.197.209.197h.835l.956-.098c.627 0 1.235-.131 1.844-.197 1.235-.148 2.47-.311 3.688-.492 1.218-.18 2.453-.36 3.688-.557 1.235-.197 2.348-.41 3.479-.64 3.003-.732 6.054-1.28 9.132-1.638 1.442-.09 2.89-.09 4.332 0 1.412.063 2.819.216 4.21.459.94.162 1.868.376 2.782.639.917.275 1.812.609 2.68 1 .041.027.097.027.138 0 .036-.038.036-.094 0-.131-1.061-.442-2.154-.814-3.27-1.115-1.07-.33-2.163-.592-3.27-.787-1.72-.306-3.468-.455-5.219-.442h-1.74"/>
        <path fill="#376279" d="M121.728 29.121c-4.32-.81-8.586 2.515-9.538 7.424-.952 4.908 1.763 9.524 6.082 10.334 4.32.81 8.586-2.515 9.538-7.424.952-4.908-1.763-9.524-6.082-10.334"/>
        <path fill="#25225F" d="M123.222 28.037c-3.806-.471-7.44 3.599-8.114 9.102-.675 5.503 1.886 10.272 5.692 10.814 3.806.541 7.439-3.617 8.096-9.102.657-5.486-1.868-10.342-5.674-10.814"/>
        <path fill="#EC95B1" d="M134.376 17.052c-1.28-.004-2.559.111-3.819.343-1.421.266-2.794.747-4.074 1.426-.602.343-1.172.74-1.704 1.185-.563.46-1.082.972-1.552 1.529-.312.379-.597.78-.852 1.202-.088.004-.17.048-.222.12-1.107 1.77-1.956 3.69-2.522 5.703-.634 2.097-1.079 4.246-1.33 6.424-.125 1.007-.21 2.055-.256 3.143-.06.99-.06 1.982 0 2.971.103 2.009.529 3.987 1.262 5.857.714 1.883 1.747 3.626 3.051 5.153.65.76 1.375 1.451 2.165 2.061.815.618 1.682 1.164 2.591 1.632 2.978 1.462 6.25 2.215 9.563 2.199.918.002 1.834-.055 2.745-.172 2.097-.236 4.152-.767 6.102-1.58.967-.397 1.901-.868 2.796-1.409.877-.516 1.72-1.09 2.523-1.717 1.497-1.247 2.8-2.712 3.87-4.346 1.074-1.644 1.944-3.415 2.59-5.273.341-.98.631-1.958.904-2.903.337-1.122.576-2.271.716-3.435.01-.04.01-.08 0-.12.103-.839.103-1.687 0-2.525-.115-.864-.309-1.715-.58-2.542-.6-1.745-1.456-3.39-2.54-4.878-1.077-1.509-2.324-2.886-3.716-4.105-1.234-1.107-2.617-2.032-4.108-2.749-1.244-.593-2.525-1.104-3.835-1.528-1.464-.49-2.955-.892-4.467-1.203-1.518-.294-3.057-.466-4.602-.515h-.7"/>
        <path fill="#E9505F" d="M136.519 11c-1.286-.003-2.57.074-3.846.23-3.07.34-6.05 1.258-8.782 2.709-1.32.712-2.546 1.586-3.653 2.602-.542.51-1.047 1.061-1.51 1.646-.451.556-.857 1.148-1.212 1.77-.375.656-.693 1.343-.948 2.054-.286.769-.47 1.573-.545 2.39-.079.722.043 1.451.352 2.107.174.308.407.579.685.796.275.206.584.362.913.46.38.122.767.217 1.159.284.351 0 .738.106 1.212.142.737 0 1.51.088 2.178.088h1.194c.386-.021.77-.087 1.141-.195.359-.1.697-.262 1.001-.478.31-.217.572-.493.773-.814.199-.313.352-.653.457-1.009.135-.336.252-.678.351-1.027l.088-.248c.172-.526.378-1.04.615-1.54.176-.366.394-.71.65-1.027.219-.262.466-.5.737-.708-.183.537-.324 1.088-.421 1.647-.13.67-.165 1.355-.106 2.036.033.305.092.607.176.902.074.275.174.542.298.797.23.49.54.938.914 1.328.39.412.832.769 1.317 1.062.515.31 1.056.577 1.616.797 1.232.466 2.5.827 3.793 1.08l2.072.353c.65.124 1.546.248 2.442.372 1.855.269 3.727.41 5.602.425h.65c1.777-.02 3.545-.252 5.269-.69-.123.354-.229.725-.334 1.15-.151.648-.263 1.304-.334 1.965-.145 1.35-.061 2.715.246 4.037.165.735.456 1.436.86 2.07.45.623 1.056 1.112 1.757 1.417.062.027.131.027.193 0 .346-.141.675-.32.984-.531.299-.192.576-.418.825-.673.494-.522.903-1.12 1.212-1.77.314-.598.567-1.227.755-1.877.185-.735.332-1.48.44-2.23.104-.744.175-1.487.245-2.142v-.266-.903-1.61c.005-2.124-.333-4.235-1.001-6.25-.176-.495-.351-.99-.597-1.522-.19-.458-.414-.902-.668-1.328-.445-.755-.976-1.456-1.58-2.089-.526-.573-1.083-1.117-1.669-1.628l-.79-.62-1.23-.974c-.315-.247-.614-.53-.913-.796-.057-.017-.118-.017-.175 0h-.106c-.877-.485-1.78-.922-2.704-1.31-.86-.372-1.563-.638-2.248-.885-1.4-.462-2.833-.817-4.285-1.063-1.81-.318-3.643-.478-5.48-.478"/>
        <path fill="#D64957" d="M135.814 15c-.263.241-.51.517-.758.792-.244.282-.473.582-.686.896l-.627.982c-.195.368-.37.73-.525 1.086-.16.379-.321.758-.452 1.154-.143.38-.265.772-.365 1.171-.198.815-.325 1.652-.379 2.498-.03.522-.03 1.046 0 1.568 0 .276 0 .551.102.827.102.275.102.5.16.74.056.203.233.322.409.276.168-.058.266-.265.219-.465-.078-.379-.136-.758-.175-1.137-.059-.502-.088-1.009-.088-1.516.005-.542.04-1.083.102-1.62.072-.487.165-.97.277-1.446.124-.52.27-1.032.438-1.534.161-.45.346-.887.554-1.309.206-.43.435-.844.686-1.24.37-.57.795-1.084 1.268-1.533.035-.05.035-.122 0-.173h-.073"/>
        <path fill="#D64957" d="M134.614 20.172c-.26.531-.52 1.062-.76 1.562-.225.558-.398 1.127-.52 1.704-.142.607-.182 1.227-.12 1.843.056.545.246 1.075.56 1.563.08.127.27.187.44.14.103-.017.19-.068.24-.14.041-.075.041-.16 0-.234-.12-.266-.24-.516-.34-.782-.092-.246-.165-.497-.22-.75-.11-.69-.11-1.388 0-2.078 0-.484.2-.969.34-1.453.14-.484.34-.953.54-1.422.026-.015.04-.038.04-.062 0-.025-.014-.048-.04-.063-.059 0-.11.033-.12.078M154.247 30.055c-.315.756-.573 1.54-.771 2.345-.115.422-.197.861-.279 1.283-.082.421-.131.898-.164 1.337-.063.893-.036 1.79.082 2.676.049.422.131.84.246 1.245.115.423.274.83.476 1.21.134.273.3.525.492.751.13.13.328.13.459 0 .095-.047.162-.143.18-.256.043-.105.043-.225 0-.33-.343-.539-.634-1.116-.869-1.723-.24-.625-.4-1.285-.476-1.96-.13-1.138-.13-2.29 0-3.427.066-.526.164-1.046.296-1.557.11-.488.252-.965.426-1.43v-.09V30M130.626 12.886c-1.412.481-2.776 1.11-4.07 1.878-.318.177-.62.39-.937.585-.318.195-.603.425-.888.655-.587.465-1.147.968-1.675 1.506-1.04 1.04-1.93 2.233-2.646 3.543-.356.63-.653 1.294-.887 1.985-.134.372-.235.761-.335 1.133-.087.361-.149.728-.185 1.099.009.04.009.083 0 .124-.03.286.152.548.42.602.26.033.501-.152.552-.425-.01-.13-.01-.26 0-.39l.1-.443c0-.248.118-.496.185-.726.345-1.215.84-2.376 1.473-3.455.741-1.196 1.619-2.29 2.613-3.26.621-.552 1.276-1.06 1.96-1.523.686-.523 1.408-.99 2.16-1.4.7-.377 1.421-.708 2.16-.992.741-.297 1.503-.534 2.278-.708 1.333-.332 2.7-.481 4.07-.443.651.017 1.3.088 1.942.213.047 0 .084-.04.084-.09 0-.048-.037-.088-.084-.088-.921-.185-1.858-.274-2.797-.265-1.871.01-3.73.327-5.51.939"/>
        <path fill="#D64957" d="M124.913 19c-.753.905-1.407 1.904-1.952 2.976-.059.125-.112.253-.159.384-.07.132-.128.272-.173.416-.101.288-.188.576-.275.88-.087.304-.145.592-.202.896-.058.304-.102.672-.13 1.008-.03.088-.03.184 0 .272.053.077.13.128.216.144.08.032.167.032.246 0 .05-.041.09-.096.116-.16.015-.057.015-.118 0-.176v-.224c.027-.819.148-1.63.361-2.416.044-.184.098-.366.16-.544.058-.19.125-.377.202-.56.134-.378.299-.742.491-1.088.351-.563.738-1.097 1.157-1.6.018-.018.029-.044.029-.072 0-.028-.01-.054-.03-.072"/>
        <path fill="#25225F" d="M147.26 11H147c.081.037.157.084.226.142h.139c1.148.61 2.21 1.373 3.161 2.269.626.592 1.207 1.232 1.737 1.915.522.656 1.043 1.382 1.546 2.162 1.294 2.075 2.31 4.317 3.023 6.666.759 2.436 1.197 4.964 1.303 7.517v1.33c-.013.04-.013.083 0 .124-.025.17-.025.343 0 .514v.177c0 .603-.122 1.135-.209 1.631-.02.128.019.259.105.355.07.092.18.144.295.141.11-.006.213-.05.295-.124.088-.076.144-.184.157-.301v-.408c.141.142.299.267.469.373.255.129.522.23.799.3.279.066.565.096.85.09.293.005.584-.025.87-.09.467-.115.909-.32 1.302-.602l-.104 1.082v1.258c-.033.098-.033.204 0 .302.076.091.18.153.295.177.103.002.202-.036.278-.106v-.09c.024-.062.024-.131 0-.194.134-.494.227-.998.278-1.507 0-.479.104-.957.14-1.49.06-1.015.06-2.033 0-3.048-.147-1.998-.538-3.97-1.165-5.868-.31-.938-.676-1.855-1.094-2.748-.412-.908-.876-1.79-1.39-2.642-.556-.904-1.077-1.684-1.615-2.393-.513-.62-1.058-1.213-1.633-1.773-.634-.635-1.307-1.227-2.015-1.773-.711-.558-1.453-1.073-2.224-1.542-1.447-.9-3.052-1.501-4.725-1.773h-1.06"/>
        <path fill="#25225F" d="M159.457 33c-4.245.28-7.707 3.615-8.265 7.963-.948 5.24 1.694 10.059 6.097 10.915.424.084.856.125 1.288.122 4.227-.308 7.663-3.633 8.23-7.963.95-5.24-1.693-10.076-6.096-10.915-.425-.084-.856-.125-1.288-.122"/>
        <path fill="#376279" d="M161.277 33.098c-4.011-.738-8.075 2.773-9.06 8.038-.985 5.266 1.478 9.987 5.489 10.76 4.01.772 8.092-2.826 9.077-7.986.985-5.16-1.478-9.987-5.506-10.76"/>
        <path fill="#467E9B" d="M163.677 36.048c-.04.036-.061.086-.061.139 0 .052.022.102.06.138.368.482.676 1.004.92 1.556.331.805.563 1.647.688 2.507.124.981.124 1.974 0 2.956-.12.89-.357 1.762-.706 2.593-.286.659-.654 1.28-1.096 1.85-.366.45-.78.862-1.236 1.227-.458.326-.95.604-1.466.83l-.406.156c-.132.036-.243.122-.31.239-.066.117-.082.255-.044.383.078.269.359.43.636.363.36-.108.714-.235 1.06-.38.295-.153.579-.326.848-.519.292-.206.57-.43.83-.674.247-.26.477-.519.707-.795.402-.534.734-1.115.989-1.73.283-.638.496-1.304.636-1.987.3-1.375.354-2.79.159-4.184-.167-1.323-.593-2.603-1.254-3.769-.198-.324-.416-.636-.654-.933-.046-.016-.096-.016-.141 0-.052-.019-.108-.019-.16 0M157.4 50c.01.327.273.59.6.6.331 0 .6-.269.6-.6 0-.331-.269-.6-.6-.6-.327.01-.59.273-.6.6M155.65 49.01c.01.184.156.33.34.34.191 0 .35-.149.36-.34 0-.095-.038-.187-.105-.255-.068-.067-.16-.105-.255-.105-.191.01-.34.169-.34.36"/>
        <path fill="#F26D86" d="M137.289 48.12h-.387c-.275.065-.545.162-.804.289l-.479.234c-.179.094-.35.209-.51.342-.235.182-.448.4-.634.647-.095.119-.183.245-.262.378-.083.16-.15.328-.201.504-.016.046-.016.098 0 .144.022.04.054.072.092.09.339.14.693.226 1.051.252h.155c.32-.001.637-.056.943-.162.342-.128.657-.336.927-.612l.232-.288c.102-.148.195-.305.278-.468.093-.141.166-.3.217-.467.055-.142.086-.295.093-.45.005-.127-.034-.25-.109-.342-.066-.09-.151-.158-.247-.198-.108-.017-.217-.017-.325 0"/>
        <path fill="#25225F" d="M133.816 36.031c.004 1.011-.076 2.021-.239 3.023l-.165.915c0 .248-.129.496-.202.744-.233-.127-.48-.236-.735-.325l-.386-.124-.404-.078c-.207-.03-.418-.03-.625 0-.186.04-.357.12-.495.233-.145.093-.259.215-.331.356-.093.144-.15.302-.165.465-.092.358-.092.728 0 1.086.15.417.414.8.771 1.116.183.156.394.286.625.387.27.11.564.168.863.171.165-.008.294-.124.294-.264 0-.137-.132-.248-.294-.248h-.22c-.157-.016-.311-.047-.46-.093-.13-.05-.253-.112-.367-.186-.113-.08-.218-.168-.312-.263-.145-.156-.262-.328-.35-.512-.08-.186-.141-.378-.183-.574-.028-.174-.028-.352 0-.527.017-.122.054-.242.11-.356.032-.072.075-.14.129-.202l.165-.124c.05-.045.113-.077.184-.093.084-.015.172-.015.257 0h.404c.245.035.485.092.716.17.277.098.541.217.79.357.046.02.1.022.147.004.047-.019.08-.054.092-.097 0-.17 0-.356.129-.542.128-.186 0-.419.128-.62.129-.202.129-.807.166-1.225.103-.835.153-1.673.147-2.512-.01-.054-.065-.094-.13-.093-.06 0-.11.042-.11.093M134.35 47.046c-1.095.353-2.214.646-3.35.88.017.237.07.472.157.697.074.237.18.466.314.682.13.204.288.392.471.561.164.176.352.333.558.47.398.254.848.44 1.326.546.307.073.624.108.942.106.169.016.338.016.506 0 .931-.101 1.756-.572 2.234-1.273.263-.415.418-.876.453-1.35.052-.337.052-.678 0-1.016-.083-.435-.236-.859-.453-1.258-.028-.054-.09-.09-.157-.091-.977.38-1.972.743-3.001 1.061m2.564 1.517h.663c-.046.229-.122.453-.226.667-.09.185-.207.358-.35.515-.133.146-.285.279-.453.394-.18.118-.373.22-.576.304-.252.088-.515.15-.785.182h-.837c-.3-.04-.593-.112-.873-.213-.024-.094-.024-.193 0-.288.079-.13.166-.257.262-.379.163-.171.344-.329.54-.47.298-.19.62-.347.96-.47.36-.128.734-.22 1.117-.273h.454M143.213 40.995c.823.077 1.608-.767 1.76-1.857.154-1.09-.382-2.056-1.186-2.133-.804-.077-1.608.767-1.76 1.857-.154 1.09.382 2.056 1.186 2.133M123.232 39.995c.804.077 1.589-.752 1.742-1.857.153-1.105-.383-2.056-1.187-2.133-.804-.077-1.608.767-1.76 1.872-.154 1.105.382 2.041 1.205 2.118"/>
        <path fill="#E9505F" d="M124.49 30c-.403.003-.805.06-1.199.17-1.38.38-2.414 1.292-2.28 2.014.136.721.676.816 1.5.816.403-.013.805-.07 1.2-.17 1.38-.4 2.4-1.311 2.28-2.033-.12-.721-.675-.797-1.5-.797M142.195 32c-.624 0-1.05.188-1.157.528-.107.341 0 .7.472 1.108.935.854 2.097 1.334 3.303 1.364.624 0 1.05-.188 1.157-.528.107-.341-.076-.7-.472-1.091-.477-.459-1.03-.806-1.629-1.023-.536-.223-1.102-.344-1.674-.358"/>
        <path fill="#ED5A81" d="M34.582 90.07c-1.332.052-2.519.852-3.058 2.063-.513-1.227-1.687-2.055-3.023-2.133-2.053.13-3.614 1.881-3.495 3.92 0 4.109 6.378 8.08 6.378 8.08s6.536-3.468 6.606-7.925c.151-2.033-1.363-3.813-3.408-4.006z" opacity=".5"/>
        <path fill="#ECB0C3" d="M46.791 75.085c-1.652.035-3.13.98-3.78 2.419-.607-1.453-2.058-2.433-3.707-2.504-2.488.155-4.394 2.155-4.3 4.513C35.003 84.35 42.85 89 42.85 89s8.134-3.934 8.134-9.214c.208-2.392-1.666-4.493-4.193-4.7z"/>
        <path fill="#ED5A81" d="M24.81 63.102c-1.648.031-3.124.964-3.779 2.387-.618-1.436-2.062-2.406-3.706-2.489-2.527.154-4.452 2.192-4.318 4.57 0 4.792 7.862 9.43 7.862 9.43s8.043-3.978 8.115-9.243c.208-2.368-1.658-4.45-4.174-4.655zM42.588 54.087c-1.332.05-2.52.844-3.066 2.049-.511-1.223-1.68-2.052-3.013-2.136-2.053.14-3.614 1.887-3.504 3.925C33.005 62.023 39.4 66 39.4 66s6.534-3.473 6.587-7.919c.172-2.033-1.349-3.82-3.399-3.994zM51.387 95.057c-1.032.032-1.953.707-2.354 1.727-.387-1.034-1.3-1.73-2.337-1.784-1.581.112-2.782 1.569-2.691 3.264 0 3.415 4.921 6.736 4.921 6.736s5.01-2.79 5.064-6.584c.133-1.694-1.025-3.189-2.603-3.36z" opacity=".5"/>
        <path fill="#ECB0C3" d="M59.376 69.057c-1.028.024-1.948.692-2.35 1.708-.385-1.032-1.3-1.724-2.334-1.765-1.576.102-2.778 1.553-2.687 3.245 0 3.434 4.914 6.755 4.914 6.755s5.038-2.846 5.074-6.641c.112-1.683-1.052-3.151-2.617-3.302zM40.38 35.076c-1.031.021-1.956.689-2.364 1.708-.386-1.034-1.295-1.73-2.33-1.784-1.575.112-2.772 1.569-2.681 3.264 0 3.434 4.905 6.736 4.905 6.736s5.028-2.846 5.081-6.603c.122-1.69-1.042-3.17-2.611-3.321z"/>
        <path fill="#474189" d="M90.261 67c-1.863-.003-3.559 1.048-4.347 2.694-.105.171-.193.343-.281.514l-.106.24-.21.48-1.127 2.763-1.566 3.843-1.303 3.209-1.302 3.208c-.025.072-.025.15 0 .223.029.07.086.127.158.154.878 1.09 2.013 1.954 3.309 2.522 1.3.582 2.682.97 4.1 1.15h.915c.088-.002.17-.04.229-.103.09-.023.162-.087.194-.172l1.548-3.825 1.549-3.792.95-2.333.88-2.197.792-1.938.158-.48v-.19c.057-.191.104-.386.141-.583.404-2.524-1.342-4.898-3.924-5.336h-.757"/>
        <path fill="#25225F" d="M89 66.46l.416 1.08 1.584-.8c-.296-.104-.6-.178-.91-.22-.277-.03-.556-.03-.833 0H89M90 67.579c.197.474.382.947.566 1.421L92 68.276l-.434-1.079-.421-.197-1.145.579"/>
        <path fill="#25225F" d="M90 68.965c.31.667.6 1.35.91 2.035l2.09-.965c-.29-.667-.6-1.35-.89-2.035l-2.11.965M92.053 71.931L92.684 74 94 73.155v-.276c-.197-.62-.382-1.258-.579-1.879L92 71.931"/>
        <path fill="#25225F" d="M92.12 73.622L92.86 75 93.04 74.689 93.92 73 93.92 73 92.08 73.696M92.93 68.72l.72-.36c-.37-.43-.81-.795-1.3-1.08l.58 1.44"/>
        <path fill="#25225F" d="M93.07 68.28l.94 1.72.92-.353c-.173-.53-.485-1.03-.92-1.47L93.83 68l-.76.28zM93.499 70.358l.54 1.138c.098.164.185.332.26.504l.12-.472c.11-.505.11-1.022 0-1.528l-.88.358M87 67.696L87.42 69 89 67.991 88.678 67c-.593.064-1.168.296-1.678.678"/>
        <path fill="#25225F" d="M89.421 67.037L88 68.043c.197.658.382 1.298.566 1.957L90 68.976 89.434 67"/>
        <path fill="#25225F" d="M88 69.936L88.881 72 91 71.012c-.3-.66-.581-1.336-.881-2.012L88 69.988M89.075 71.966c.206.475.431.966.638 1.458l.262.576L92 73.034 91.119 71 89 71.966M90 74.966c.287.672.592 1.362.898 2.034l1.91-.828.192-.448L92.255 74 90 74.966M90.12 77.672c.24.432.46.88.7 1.328l.6-1.12.46-.88-1.76.672M85 68.6l.163.4L87 68.138 86.512 67c-.636.38-1.157.91-1.512 1.538"/>
        <path fill="#25225F" d="M85 69.036c.288.655.558 1.31.827 1.964L88 69.964 87.173 68 85 69.036M87.358 70.364L86 70.988c.302.677.585 1.353.887 2.012L89 72.012c-.283-.677-.585-1.353-.868-2.012l-.774.347M87.225 72.864L87 72.966 87.9 75 90 74.034 89.1 72 87.225 72.864M88 75.983c.132.31.264.62.415.93.151.311.302.725.472 1.087L91 77.034c-.283-.69-.585-1.362-.887-2.034L88 75.983"/>
        <path fill="#25225F" d="M89 78.065L89.57 80 90.894 79.112 91 78.775 90.483 77 89 78.012M89.07 80.671L89.83 82 90.77 80.286 90.93 80 89.07 80.671M85.08 68.67c-.12.22-.22.44-.32.66l.48-.24-.16-.42"/>
        <path fill="#25225F" d="M84.774 69.309L84.581 69.8 84 71.473 84.194 72 85.71 71.145 86 70.964 85.306 69 84.774 69.309"/>
        <path fill="#25225F" d="M84 71.954L84.854 74 86.259 73.358 87 73.012 86.108 71zM85 73.955L85.9 76l1.5-.682.6-.273c-.281-.681-.581-1.363-.881-2.045L85 73.955M87.338 77.379L86 77.983 86.86 80 89 79.034 88.561 78.034 88.102 77 87.299 77.379"/>
        <path fill="#25225F" d="M86 79.03l.288.65c.174.453.366.886.558 1.32L89 79.988c-.27-.669-.558-1.32-.846-1.988L86 79.03M88 81.125c.176.638.365 1.256.54 1.875L90 81.875c-.176-.638-.351-1.256-.54-1.875L88 81.125"/>
        <path fill="#25225F" d="M88 83.052c.275.662.549 1.325.804 1.948l.588-1.5L90 82l-2 1.052M83.79 72.32l.42-.2c-.041-.15-.095-.298-.16-.44l-.26.64z"/>
        <path fill="#25225F" d="M83.683 72.263v.246L83 74.369l.228.631L85 74.035c-.26-.667-.504-1.35-.764-2.035l-.553.263z"/>
        <path fill="#25225F" d="M83 74.931L83.917 77 86 76.069 85.14 74 83.057 74.931M84 78.893c.306.696.611 1.393.898 2.107l1.91-.893H87c-.306-.696-.611-1.393-.898-2.107l-2.083.982"/>
        <path fill="#25225F" d="M85.342 79.736l-.342.24c.105.35.197.68.29 1.03.092.35.197.663.289.994L87 80.988c-.171-.626-.342-1.233-.526-1.84V79l-1.092.755M86 82.693L86.537 84 88 83.307c-.188-.444-.362-.889-.55-1.307l-1.45.706M88.44 83.02L87 84.064c.187.658.373 1.335.547 1.935L89 84.935c-.187-.658-.36-1.316-.547-1.935"/>
        <path fill="#25225F" d="M87.782 85.354l-.782.285.69 1.361c.06-.015.11-.043.146-.082.09-.013.165-.059.2-.122L89 85l-1.2.449M82.71 75.43L83.29 75.15 83.05 74.57z"/>
        <path fill="#25225F" d="M82.698 75.307L82.372 76.21 82 77.233 82.279 78 84 77.045 83.256 75 82.698 75.307M82 78.954c.304.676.608 1.37.892 2.046L85 80.029 84.108 78 82 78.954M83 81l.194.473c.232.509.445 1.018.658 1.527l1.76-.836.388-.182-.155-.364L85.148 80 83 81"/>
        <path fill="#25225F" d="M84 83.077L84.53 85 86 83.923c-.172-.654-.358-1.288-.53-1.923L84 83.058M85 85.077c.184.673.368 1.327.54 1.923L87 85.923 86.46 84 85 85.058"/>
        <path fill="#25225F" d="M85 87.21l.068.24c.425.16.857.28 1.293.36l.639.1-.49-1.82L85 87.21zM81.63 79.56L82.37 79.18 82.15 78.44z"/>
        <path fill="#25225F" d="M81.532 79.393l-.306.875-.226.643c0 .178.129.375.21.571l.177.518L83 81.107c-.258-.714-.5-1.41-.758-2.107l-.726.393"/>
        <path fill="#25225F" d="M81 81.956c.208.675.417 1.369.611 2.044L83 83.044c-.208-.675-.403-1.35-.611-2.044L81 81.956zM82 84.675c.199.438.383.888.582 1.325l.638-.305.78-.37c-.184-.438-.383-.888-.567-1.325l-1.419.675"/>
        <path fill="#25225F" d="M83 85.919l.07.234.185.108c.495.297 1.007.544 1.532.739l.213-.144c-.142-.45-.284-.901-.411-1.351l-.17-.505-1.419.919M84.9 87.06L85.1 87.06 85.1 86.94 84.96 86.94M80.46 82.81L81.54 82.27 81.12 81.19zM80.326 83.425l-.303.657c-.03.052-.03.113 0 .165.026.056.078.1.144.123.206.223.43.433.67.63L82 84.507 81.299 83l-.973.425"/>
        <path fill="#25225F" d="M81.018 84.58c.556.546 1.166 1.023 1.818 1.42H83l-.727-2-1.273.7"/>
        <path fill="#B0A6E6" d="M83.37 103.017c-.158.095-.273.257-.316.448-.072.193-.072.409 0 .602l4.609 11.531c.089.178.245.304.428.345.172.076.365.076.538 0 .157-.105.27-.272.317-.465.072-.187.072-.398 0-.585l-4.61-11.532c-.091-.178-.246-.308-.427-.361h-.174c-.13.006-.255.047-.365.12M80.192 102.018c-.172.05-.317.19-.393.38-1.575 4.122-3.144 8.248-4.708 12.381-.085.195-.111.419-.075.635.047.203.162.373.318.47.154.111.34.144.514.091.171-.06.317-.196.409-.38 1.564-4.133 3.128-8.254 4.692-12.362.068-.204.068-.431 0-.635-.045-.204-.153-.379-.303-.49-.106-.071-.226-.109-.348-.108h-.182"/>
        <path fill="#9B92CB" d="M81.35 103.668v11.862c.056.272.33.47.65.47s.594-.198.65-.47v-11.862c.046-.224-.067-.45-.287-.574-.22-.125-.506-.125-.726 0-.22.124-.333.35-.287.574"/>
        <path fill="#B0A6E6" d="M81.11 91.77v10.478c.01.418.41.752.9.752.486 0 .88-.337.88-.752V91.769c0-.418-.39-.76-.88-.769-.493.01-.89.348-.9.77"/>
        <path fill="#25225F" d="M82.485 104c1.927 0 3.5-.4 3.515-.951.015-.552-1.542-1.009-3.5-1.047-1.958-.038-3.5.4-3.5.952 0 .551 1.542 1.008 3.485 1.046"/>
        <path fill="#EEB54C" d="M82.5 92c.81 0 1.5-.44 1.5-.992 0-.551-.645-1.008-1.5-1.008s-1.5.425-1.5.976c0 .552.645 1.008 1.5 1.024"/>
        <path fill="#25225F" d="M79.115 85.946c-.487 1.25.614 2.884 2.485 3.653 1.871.77 3.79.401 4.293-.849.095-.266.127-.552.094-.833-.456-.128-.927-.289-1.383-.465-.456-.176-1.227-.497-1.825-.785-.597-.289-1.179-.625-1.745-.978L80.027 85c-.405.194-.728.53-.912.946"/>
        <path fill="#EEB54C" d="M78.264 83c-.09.002-.177.033-.245.087-.626.513-.994 1.24-1.019 2.011v.399l.943.59.32.19c2.273 1.263 4.75 2.182 7.34 2.723h1.565l.113-.104.113-.121c.25-.33.43-.701.528-1.093.104-.399.104-.815 0-1.214-.018-.1-.1-.182-.207-.208H86.923h.094l-.396-.087h-.151l-.547.087c-.884-.219-1.753-.485-2.603-.798l-1.566-.624c-.803-.36-1.583-.76-2.34-1.196h-.113l-.792-.486c-.054-.02-.115-.02-.17 0"/>
        <path fill="#DFA947" d="M85.248 86.265c-.17.217-.353.422-.546.613-.199.185-.407.356-.623.514-.34.236-.701.43-1.079.58.982.444 1.999.788 3.038 1.028H87.3l.092-.1.106-.115c.203-.323.352-.682.44-1.061.084-.382.084-.78 0-1.16-.02-.093-.084-.168-.167-.2H86.464l-.44-.182-.578-.182-.198.282"/>
    </g>
</svg>
