<svg xmlns="http://www.w3.org/2000/svg" xmlns:xlink="http://www.w3.org/1999/xlink" width="394" height="47" viewBox="0 0 394 47">
    <defs>
        <linearGradient id="prefix__b" x1="0%" x2="100%" y1="50.001%" y2="50.001%">
            <stop offset="0%" stop-color="#FFC4B3"/>
            <stop offset="100%" stop-color="#FF95D3"/>
        </linearGradient>
        <linearGradient id="prefix__d" x1="-1.427%" x2="101.428%" y1="50.002%" y2="50.002%">
            <stop offset="0%" stop-color="#FFBCCC"/>
            <stop offset="100%" stop-color="#FF8EBF"/>
        </linearGradient>
        <path id="prefix__a" d="M175.708 0.545L168.597 8.359 535.231 8.359 524.859 26.748 552.613 26.748 539.822 49.426 492.904 49.426 485.793 57.24 507.661 57.24 489.148 90.061 530.62 90.061 523.51 97.873 484.743 97.873 475.8 113.723 502.798 113.723 495.69 121.535 289.395 121.535 292.951 117.631 34.669 117.631 46.027 97.493 0 97.493 12.79 74.813 58.82 74.813 68.731 57.24 91.763 57.24 98.874 49.426 46.865 49.426 53.976 41.615 77.544 41.615 96.303 8.359 76.834 8.359 83.943 0.545z"/>
        <path id="prefix__c" d="M19.52.908c-.33 0-.638.267-.843.725L.241 42.9c-.563 1.262-.062 3.13.84 3.13H374.49c.327 0 .638-.265.842-.723L393.767 4.04c.156-.354.232-.755.236-1.148v-.094c-.012-.98-.447-1.89-1.077-1.89H19.52z"/>
    </defs>
    <g fill="none" fill-rule="evenodd">
        <g opacity=".3" transform="translate(-147) translate(0 27)">
            <use fill="url(#prefix__b)" xlink:href="#prefix__a"/>
        </g>
        <g transform="translate(-147) translate(147)">
            <use fill="url(#prefix__d)" xlink:href="#prefix__c"/>
            <text fill="#FFF" font-family="AGaramondPro-BoldItalic, Adobe Garamond Pro" font-size="28" font-style="italic" font-weight="bold" letter-spacing=".043">
                <tspan x="33" y="32">5/20~5/23</tspan>
            </text>
            <text fill="#FFF" font-family="STSongti-SC-Black, Songti SC" font-size="24" font-weight="700" letter-spacing=".037">
                <tspan x="172" y="32">山猫主播排行攻略</tspan>
            </text>
        </g>
    </g>
</svg>
