<svg xmlns="http://www.w3.org/2000/svg" width="16" height="17" viewBox="0 0 16 17">
    <path fill="#FFF" d="M15.804 8.554c.25.28.26.708.036.998l-.061.07-7.111 7.17c-.248.25-.622.275-.896.073l-.071-.06L.234 9.634c-.291-.28-.314-.757-.05-1.066.243-.286.645-.328.934-.113l.07.06 6.978 6.701 6.633-6.69c.285-.286.735-.274 1.005.028zm0-8.319c.25.279.26.708.036.998l-.061.07-7.111 7.17c-.248.25-.622.275-.896.073l-.071-.06L.234 1.315C-.057 1.035-.08.558.184.248c.243-.285.645-.327.934-.112l.07.06 6.978 6.701 6.633-6.69c.285-.287.735-.274 1.005.028z"/>
</svg>
