<svg xmlns="http://www.w3.org/2000/svg" xmlns:xlink="http://www.w3.org/1999/xlink" width="75" height="29" viewBox="0 0 75 29">
    <defs>
        <path id="prefix__a" d="M0 0.029L13.572 0.029 13.572 28.476 0 28.476z"/>
        <path id="prefix__c" d="M0.065 0.095L23.209 0.095 23.209 28.476 0.065 28.476z"/>
        <path id="prefix__e" d="M0 28.527L74.399 28.527 74.399 0.216 0 0.216z"/>
    </defs>
    <g fill="none" fill-rule="evenodd">
        <path fill="#FFF" d="M11.731 14.246c.125-.38.287-.713.47-1.007l-1.304-1.007c-1.871 2.491-2.663 4.873-2.989 6.637l-.007.037c1.346 1.988 3.543 3.383 6.09 3.696-.01-.018-.022-.035-.033-.052-2.183-3.343-2.936-6.133-2.227-8.304M6.76 14.633c.028.6.119 1.184.266 1.746l.017.062c.03.11.062.22.096.328.021.067.044.133.067.2.02.059.04.119.063.178.036.098.074.194.114.29l.03.074c.07.164.146.324.226.482l.007-.033c.404-1.758 1.23-3.953 2.888-6.226l-1.03-.82c-.67.814-1.548 1.602-2.688 2.285l-.002.013c-.019.155-.034.313-.045.47l-.002.035c-.011.167-.017.335-.018.504v.021c0 .095.005.188.008.282l.003.11M9.053 10.54l-.926-.777c-.027.045-.056.09-.082.135-.073.126-.143.253-.21.383-.039.076-.075.153-.112.23-.068.145-.134.29-.195.44-.02.046-.038.093-.056.14-.07.18-.134.363-.193.55l-.027.084c-.064.21-.12.425-.168.643l-.006.028c.76-.535 1.422-1.153 1.975-1.857M11.52 6.798c-.207 1.005-.656 2.395-1.644 3.78l1.04.83c1.265-1.623 2.96-3.269 5.222-4.815.113-.192.22-.36.322-.515-.426-.066-.862-.101-1.306-.101-1.301 0-2.533.295-3.634.821M8.56 9.175l1.033.752c.38-.486.703-1.01.97-1.571.208-.438.356-.852.465-1.227-.96.532-1.798 1.229-2.469 2.046"/>
        <path fill="#FFF" d="M16.432 22.607c-.835-1.278-1.786-3.427-2.176-6.88-.04-.357-.066-.705-.084-1.046l-1.416-1.132c-.139.245-.264.517-.36.827-.65 2.08.18 4.95 2.393 8.334l.032.05c.085.002.17.006.257.006.47 0 .932-.04 1.382-.115l-.028-.044M15.143 7.623c-1.588 1.283-2.825 2.616-3.786 3.931l1.18 1.007c.608-.807 1.313-1.206 1.611-1.348.216-1.432.593-2.632.995-3.59M14.224 13.878c-.002-.636.033-1.239.096-1.81-.325.188-.759.502-1.152.982l1.056.828zM14.814 13.905l.96.96 3.58-1.255.398-3.508-2.617-2.15-1.19.244c-.567 1.366-1.113 3.464-1.131 5.71M21.558 16.369l-1.998-2.491-3.7 1.339-.388 2.743 1.31 2.82c5.106.264 4.776-4.411 4.776-4.411M17.245 6.306c-.297.039-.615.255.413 1.143.442.382 3.19 2.478 3.19 2.478l1.538-.01c-1.154-1.79-2.986-3.11-5.141-3.61M23.538 14.17c0-.067-.004-.134-.005-.202-.002-.078-.004-.155-.008-.233-.073-1.317-.457-2.554-1.08-3.643H20.63l-.383 3.242 1.938 2.519 1.327-1.054c.016-.208.026-.417.027-.629"/>
        <path fill="#FFF" d="M23.538 15.36l-1.187 1.023s-.052 2.215-1.282 3.256h.426c1.064-1.182 1.793-2.655 2.043-4.28M17.62 22.437c1.044-.317 2.13-.87 2.955-1.646-.633.299-2.045.903-3.457.837 0 0 .073.29.501.809"/>
        <g transform="translate(0 .051)">
            <mask id="prefix__b" fill="#fff">
                <use xlink:href="#prefix__a"/>
            </mask>
            <path fill="#FFF" d="M4.478 0.029L0 0.029 0 28.476 13.572 28.476 13.572 24.005 4.478 24.005z" mask="url(#prefix__b)"/>
        </g>
        <g transform="translate(7.242 .051)">
            <mask id="prefix__d" fill="#fff">
                <use xlink:href="#prefix__c"/>
            </mask>
            <path fill="#FFF" d="M10.893.095H.065v4.471h9.911c3.084 0 8.778 2.122 8.778 9.787 0 7.14-5.704 9.652-8.778 9.652H9.2v4.47h1.693c8.5 0 12.316-7.389 12.316-14.222 0-7.74-3.87-14.158-12.316-14.158" mask="url(#prefix__d)"/>
        </g>
        <mask id="prefix__f" fill="#fff">
            <use xlink:href="#prefix__e"/>
        </mask>
        <path fill="#FFF" d="M58.598 4.825L65.675 4.825 65.675 2.191 58.598 2.191zM58.104 9.562h1.852l-1.75 6.616v1.808c0 .186.155.336.344.336h5.682c.57 0 1.03-.45 1.03-1.007v-3.758h-2.12v2.621H61.14c-.225 0-.389-.207-.333-.42l1.639-6.196h3.23V6.965h-7.571v2.597zM70.689 3.076l.111-1.05h-2.482l-.111 1.05h-2.143v2.625h1.864l-1.121 10.574h-.967v2.047h2.307c.526 0 .967-.393 1.022-.91L70.41 5.7h1.254v10.574h-1.353v2.047h3.06c.568 0 1.027-.455 1.027-1.017V3.076h-3.71zM39.177 9.055h4.62V5.17h-4.62v3.886zm13.66 2.598V9.055h-6.569V5.169h5.18c.565 0 1.023-.45 1.023-1.006V2.026h-2.309v.545H36.706v8.075c0 .556.458 1.007 1.022 1.007h6.069v4.69h-2.325v2.144h3.774c.565 0 1.022-.451 1.022-1.007v-5.827h6.569z" mask="url(#prefix__f)"/>
        <path fill="#FFF" d="M39.98 12.726l-1.71 3.336c-.058.114-.176.186-.305.186h-1.26v1.745h2.433c.387 0 .74-.216.916-.56l2.413-4.707H39.98zM51.491 16.035l-1.321-3.31h-2.436l1.849 4.628c.154.387.523.64.933.64h2.32v-1.745h-1.034c-.136 0-.259-.084-.31-.213M38.694 24.487v-4.354h-1.33v4.723c0 1.028.843 1.86 1.881 1.86h2.399v-1.315h-2.025c-.51 0-.925-.41-.925-.914M51.127 25.401h-1.405v-3.953h1.405c1.117 0 1.68.885 1.68 1.977 0 1.091-.563 1.976-1.68 1.976m-.118-5.268h-2.617v6.584h2.617c1.861 0 3.144-1.474 3.144-3.292 0-1.819-1.283-3.292-3.144-3.292M71.63 21.448h2.77v-1.315h-2.654c-1.84 0-3.108 1.473-3.108 3.292 0 1.818 1.269 3.292 3.108 3.292h2.653v-3.95h-3.09v1.315h1.76v1.32h-1.44c-1.104 0-1.66-.886-1.66-1.977 0-1.092.556-1.977 1.66-1.977M45.132 21.448h2.273v-1.315h-2.156c-1.842 0-3.111 1.473-3.111 3.292 0 1.818 1.27 3.292 3.11 3.292h2.157V25.4h-2.273c-.871 0-1.4-.55-1.586-1.319h3.859v-1.315h-3.86c.186-.768.716-1.32 1.587-1.32M57.857 25.711c-.962 0-1.742-.95-1.742-2.122s.78-2.122 1.742-2.122 1.742.95 1.742 2.122-.78 2.122-1.742 2.122m0-5.414c-1.682 0-3.045 1.474-3.045 3.292 0 1.818 1.363 3.292 3.045 3.292s3.045-1.474 3.045-3.292c0-1.818-1.363-3.292-3.045-3.292M66.639 20.133L66.639 24.939 63.91 20.133 62.219 20.133 62.219 26.717 63.56 26.717 63.56 21.879 66.307 26.717 67.98 26.717 67.98 20.133z" mask="url(#prefix__f)"/>
    </g>
</svg>
