<svg xmlns="http://www.w3.org/2000/svg" width="395" height="94" viewBox="0 0 395 94">
    <g fill="#FFF" fill-rule="evenodd">
        <path d="M57.642 1v4.585h-8.791l-4.804 14.12h13.595v23.933h14.592V19.705H85.65V5.585H72.234V1H57.642zm-42.96 0v4.585h-8.79L0 19.705h14.682v23.933h14.593V19.705h13.413V5.585H29.275V1H14.682zm59.909 21.824v22.098l10.514-7.428v-14.67H74.59zm-29.545 0v22.098l10.421-7.428v-14.67H45.046zm-13.415 0v22.098l10.514-7.428v-14.67H31.63zm-29.546 0v22.098l10.423-7.428v-14.67H2.085zm2.81 23.657V73.44l15.769-6.326V62.62h46.859v5.043l-64.17 11.92v14.12l79.033-14.12V48.314H20.664v-1.833H4.894zM32.81 64.177v8.253l16.676-2.66v-5.593H32.81zM114.555 1v6.457h-8.122l-4.784 15.22h12.906v40.77h14.442v-40.77h11.191V7.457h-11.191V1h-14.442zm28.069 1.476v60.971h33.394l11.28-12.083V2.476h-44.674zm14.802 17.065h15.163v-2.767h-15.163v2.767zm0 15.312h15.163v-3.044h-15.163v3.044zm0 14.85h15.163V47.03h-15.163v2.675zm-26.444-22.506V54.04l9.296-7.84V27.196h-9.296zm-27.708 0v32.838l9.206-7.932V27.197h-9.206zm45.849 39.294v13.191l14.62-3.69v-9.5h-14.62zm-22.834.092v27.12h34.657l7.13-12.73H141v-14.39h-14.711zm45.937.83v26.29l14.713-7.38v-18.91h-14.713zm-67.688 0v26.29l14.8-7.38v-18.91h-14.8zM252.93 0l-12.684 7.201h-36.947v86.51h14.797V46.126h56.893l10.753-11.121V7.2H252.93V0zm-34.834 31.45h52.848v-9.572h-52.848v9.572zm5.33 19.6v42.66h52.572l9.927-10.21V51.05h-62.498zm14.706 28.074h32.904v-13.4h-32.904v13.4zM319.432 5.367h-13.969v37.758h-3.538v14.83h3.538v35.756h13.969V57.955h10.25v23.018l-5.442 12.738h19.592V5.367h-11.973V0l-12.427 5.367zm.363 37.758h9.887V19.743h-9.887v23.382zm41.843-34.118h-11.056l-5.71 14.83h45.96V9.007h-14.787V1.092l-14.407 7.915zm-40.392 13.284v18.195l7.166-6.004V22.29h-7.166zm26.94 8.006V93.71h14.604V45.309h11.067V93.71h16.78l3.991-15.285h-5.896v-48.13h-40.545zm-27.212 30.66v22.291l7.256-7.37v-14.92h-7.256z"/>
    </g>
</svg>
