<?xml version="1.0" encoding="utf-8"?>
<!-- Generator: Adobe Illustrator 23.0.3, SVG Export Plug-In . SVG Version: 6.00 Build 0)  -->
<svg version="1.1" id="圖層_1" xmlns="http://www.w3.org/2000/svg" xmlns:xlink="http://www.w3.org/1999/xlink" x="0px" y="0px"
	 viewBox="0 0 124 120" style="enable-background:new 0 0 124 120;" xml:space="preserve">
<style type="text/css">
	.st0{fill:#FFFFFF;}
	.st1{fill:#FF0028;}
</style>
<g>
	<path class="st0" d="M71.7,68.6c0.3-0.1,0.6-0.1,1,0l8.6,2.3c1.4,0.4,1.7,2.3,0.4,3L69.5,81l9.6,2.6l10.8-9.7
		c0.3-0.3,0.8-0.5,1.2-0.4l0.2,0l5,1c1.1,0.2,1.6,1.3,1.2,2.3l-5.4,11.7l0.7,0.6c1.8,1.5,3.6,3.1,5.4,4.8l0.9,0.9
		c0.4,0.4,0.6,1,0.4,1.6l-1,4c-0.2,0.7-0.8,1.2-1.6,1.3c-7,0.2-13.7-0.1-20.1-1c-4.8-0.7-9.4-1.4-13.9-2.3l-0.6-0.1l10,15.8
		c0.8,1.2-0.3,2.7-1.7,2.5l-0.2,0l-8.6-2.3c-0.3-0.1-0.6-0.2-0.8-0.4L40.6,92.5l-22.4-6c-3.3-0.9-5.4-4.2-4.6-7.6l0.1-0.3
		c0.4-1.3,1.1-2.5,2.2-3.4c5.2-4,11.9-5.4,18.2-3.7l16.1,4.3L71.7,68.6z M33.3,74.7c-3.4-0.9-7.1-0.8-10.3,0.4l6.5,1.7
		c0.9,0.2,1.4,1.1,1.2,2c-0.2,0.8-1,1.3-1.8,1.2l-0.2,0l-9.9-2.6l-0.1,0c-0.2,0.2-0.4,0.3-0.6,0.5c-0.5,0.4-0.9,1-1.1,1.7
		c-0.4,1.7,0.5,3.4,2.2,3.8l22.8,6.1c0.3,0.1,0.6,0.2,0.8,0.4L63.1,111l4.1,1.1l-9.8-15.5c-0.8-1.2,0.2-2.7,1.6-2.5l0.2,0
		c5.8,1.3,11.9,2.4,18.2,3.2c6.2,0.9,12.7,1.2,19.6,1l-1.3,0l0.5-1.8l-0.2-0.2c-2-2-4-3.7-6-5.3L89,90.3c-0.6-0.5-0.8-1.3-0.5-2
		l5.1-11l-2.1-0.4l-10.8,9.8c-0.4,0.3-0.9,0.5-1.3,0.4l-0.2,0L33.3,74.7z M114.4,96.1c0.8-0.4,1.8-0.1,2.2,0.7
		c0.4,0.8,0.1,1.8-0.7,2.2c-2.9,1.5-6.2,2.1-9.3,1.6c-0.9-0.1-1.5-1-1.4-1.9c0.1-0.9,1-1.5,1.9-1.4
		C109.6,97.7,112.2,97.2,114.4,96.1L114.4,96.1z M121.8,81.7c0.9-0.2,1.8,0.4,1.9,1.3c0.6,3.4,0.2,6.6-1.2,9.4
		c-0.4,0.8-1.4,1.2-2.2,0.7c-0.8-0.4-1.2-1.4-0.7-2.2c1.1-2.2,1.4-4.6,0.9-7.3C120.4,82.7,120.9,81.8,121.8,81.7z M72.3,71.9
		l-16.1,5.5l8.8,2.4l11.6-6.7C76.6,73.1,72.3,71.9,72.3,71.9z M112.2,68c0.6-0.7,1.7-0.7,2.3,0c2.3,2.2,4.2,4.5,5.7,6.7
		c0.5,0.8,0.3,1.8-0.5,2.3c-0.8,0.5-1.8,0.3-2.3-0.5c-1.3-2-3.1-4.1-5.2-6.2C111.6,69.7,111.6,68.6,112.2,68z M52.4,7.8
		c0.9-2.5,3.6-3.9,6.2-3.2l27.9,8.3c2.1,0.6,3.6,2.6,3.6,4.8l1,45c0,0.5-0.1,1-0.2,1.5c-0.8,2.7-3.6,4.3-6.3,3.5l-18.3-5.2l-12,5.7
		c-2,0.9-4.4,0.5-5.9-1.1l-0.2-0.2L19,32.7c-0.3-0.4-0.6-0.8-0.8-1.2c-1.2-2.6,0-5.6,2.5-6.7l13.3-6l-1.1-3.5
		c-0.1-0.4-0.2-0.7-0.2-1.1l0-0.3c-0.1-2.8,2.1-5.1,4.9-5.2l14.7-0.4l0-0.1L52.4,7.8z M98.5,58.2c0.5-0.8,1.5-1,2.3-0.6
		c2.6,1.6,5,3.1,7.2,4.7c0.7,0.5,0.9,1.6,0.4,2.3c-0.5,0.7-1.6,0.9-2.3,0.4c-2.1-1.5-4.4-3-6.9-4.6C98.2,60,98,59,98.5,58.2
		L98.5,58.2z M35,21.9l-12.9,5.9c-0.9,0.4-1.3,1.4-0.9,2.3c0.1,0.2,0.2,0.3,0.3,0.4l29.3,34.1c0.5,0.6,1.4,0.8,2.1,0.4l8.3-3.9
		l-9.6,0.4c-0.1,0-0.1,0-0.2,0h0c-0.2,0-0.4,0-0.6,0l-0.1,0l-0.1,0l-0.1,0c0,0-0.1,0-0.1,0l0,0c-1.7-0.4-3.1-1.7-3.7-3.4L35,21.9z
		 M57.7,7.8C56.8,7.5,55.8,8,55.5,9c0,0.2-0.1,0.3-0.1,0.5l-0.3,45l0,0.2c0,0.5,0.3,1,0.8,1.3L56,56c0.1,0,0.1,0.1,0.2,0.1
		c0.1,0,0.1,0,0.2,0.1l-0.1,0l0.1,0l10.2,2.9l4.3,1.2h0l14.7,4.1c0.9,0.3,1.8-0.2,2.1-1.1l0-0.1c0-0.2,0.1-0.3,0.1-0.5l-1-45
		c0-0.8-0.5-1.4-1.3-1.7L57.7,7.8z M52.1,11.5l-14.4,0.4c-1,0-1.7,0.8-1.7,1.8c0,0.2,0,0.3,0.1,0.5l1,3.1h0l4.8,15.2L49.7,57
		l0.1,0.2l0.1,0.1c0.1,0.2,0.2,0.3,0.4,0.5c0.2,0.2,0.5,0.3,0.7,0.4c0.1,0,0.1,0,0.2,0c0.1,0,0.2,0,0.3,0l2-0.1
		c-1-0.9-1.6-2.3-1.6-3.7L52,32.7C52,32.7,52.1,11.5,52.1,11.5z M6.5,38.1c0.6-0.7,1.6-0.9,2.3-0.3c1,0.7,2.1,1.5,3.3,2.2
		c0.8,0.5,1.1,1.5,0.6,2.3c-0.5,0.8-1.5,1.1-2.3,0.6c-1.4-0.8-2.6-1.6-3.7-2.4C6.1,39.9,5.9,38.8,6.5,38.1L6.5,38.1z M1.7,23.5
		c0.5-0.8,1.5-1,2.3-0.5c0.8,0.5,1,1.5,0.5,2.3c-1.3,2-1.5,4.3-0.6,6.6c0.3,0.8-0.1,1.8-0.9,2.2c-0.8,0.3-1.8-0.1-2.2-0.9
		C-0.5,29.8-0.2,26.4,1.7,23.5z M18.1,16.1c0.9,0,1.7,0.7,1.7,1.7c0,0.9-0.7,1.7-1.7,1.7c-2.8,0-5.4,0.5-7.7,1.4
		c-0.9,0.3-1.8-0.1-2.2-0.9c-0.3-0.9,0.1-1.8,0.9-2.2C11.8,16.7,14.9,16.1,18.1,16.1L18.1,16.1z"/>
	<path class="st1" d="M59.2,33.8c0.7-10.5,6.9-17.8,14-15.6c6.8,2.1,11.3,12.2,10.6,22.5c-0.7,10.5-6.9,17.8-14,15.6
		C63.1,54.2,58.5,44.1,59.2,33.8L59.2,33.8z M72.6,40.8l-0.8,12.5l0,0c2.3,0.2,4.5-1.2,6.2-3.9C78,49.5,72.6,40.8,72.6,40.8z
		 M70.4,21.2c-3.9,0.3-7.3,5.3-7.9,12.8c-0.5,7.5,2.2,14.8,6,17.8l1-16.2c0-0.2,0-0.4,0-0.6L70.4,21.2z M73.7,22.1l-0.8,13l6.7,10.7
		c0.5-1.5,0.8-3.1,0.9-4.9l0-0.4C81.1,32.4,78,24.7,73.7,22.1z"/>
</g>
</svg>
