<?xml version="1.0" encoding="utf-8"?>
<!-- Generator: Adobe Illustrator 23.0.3, SVG Export Plug-In . SVG Version: 6.00 Build 0)  -->
<svg version="1.1" id="圖層_1" xmlns="http://www.w3.org/2000/svg" xmlns:xlink="http://www.w3.org/1999/xlink" x="0px" y="0px"
	 viewBox="0 0 124 120" style="enable-background:new 0 0 124 120;" xml:space="preserve">
<style type="text/css">
	.st0{fill:#FFFFFF;}
	.st1{fill:#FF0028;}
</style>
<g>
	<path class="st0" d="M114.7,0c2.9,0,5.3,2.4,5.3,5.3v26.5c0,2.9-2.4,5.3-5.3,5.3l-21.2,0l1.6,4c0.3,0.7,0.1,1.6-0.5,2.1l-0.1,0.1
		L82,51.5c-0.8,0.5-1.8,0.3-2.3-0.3l-6.3-7.6l-0.1,20h45c2.9,0,5.2,2.3,5.3,5.1l0,0.2v45.9c0,2.9-2.4,5.3-5.3,5.3H45.9
		c-2.9,0-5.3-2.4-5.3-5.3V96.9c-7.7-0.7-13.6-2-17.7-4c-0.6-0.3-1-0.9-1-1.6V43.5l-6.3,7.6c-0.5,0.6-1.4,0.8-2.1,0.5l-0.2-0.1
		L0.8,43.2c-0.8-0.5-1-1.6-0.5-2.4l10.6-16.4C15,18,22.1,14.1,29.7,14.1h4.4c0.4,0,0.7,0.1,1,0.3c8.9,1.9,17.2,1.9,25.1,0.1
		c0.3-0.2,0.7-0.4,1.1-0.4h4.7c6.6,0,12.7,2.9,17,7.8V5.3c0-2.9,2.4-5.3,5.3-5.3H114.7z M118.2,67.1H45.9c-1,0-1.8,0.8-1.8,1.8v45.9
		c0,1,0.8,1.8,1.8,1.8h72.4c1,0,1.8-0.8,1.8-1.8V68.8C120,67.8,119.2,67.1,118.2,67.1L118.2,67.1z M106.9,93.8
		c3.3,0,6.1,2.7,6.1,6.1c0,3.3-2.7,6.1-6.1,6.1s-6.1-2.7-6.1-6.1C100.8,96.5,103.5,93.8,106.9,93.8z M57.4,77.6l3,0.3L60,85h4.6
		l0.4-6.5l3,0.3L67.5,85h4.8v3.9h-5.1l-0.4,5.8h5.5v3.9h-5.7l-0.5,7.3l-3-0.3l0.5-7H59l-0.4,6.5l-3-0.3l0.4-6.1h-4.8v-3.9h5.1
		l0.4-5.8h-5.5V85h5.7C56.9,85,57.4,77.6,57.4,77.6z M107.6,79.7l2.9,2.8l-20.9,22.1l-2.9-2.8C86.7,101.8,107.6,79.7,107.6,79.7z
		 M80,100.1v4.1h-4.1v-4.1H80z M106.9,96.6c-1.8,0-3.3,1.5-3.3,3.3c0,1.8,1.5,3.3,3.3,3.3c1.8,0,3.3-1.5,3.3-3.3
		C110.1,98,108.7,96.6,106.9,96.6z M80,79.4V96h-4.1V79.4L80,79.4L80,79.4z M64.2,88.9h-4.6l-0.4,5.8h4.6L64.2,88.9z M88.2,37.1
		c-0.1,0-0.2,0-0.4,0l0,0h0l-0.1,0l-0.1,0l-0.1,0l-0.1,0c-0.1,0-0.3,0-0.4-0.1c-0.2,0-0.4-0.1-0.5-0.2c-0.1,0-0.2-0.1-0.3-0.1
		c-0.2-0.1-0.3-0.2-0.5-0.2l-0.1,0l0,0l-0.1-0.1l0,0c-0.1-0.1-0.2-0.1-0.3-0.2L85.1,36c-0.1-0.1-0.2-0.1-0.3-0.2l0,0l-0.1-0.1
		l-0.1-0.1l0,0l-0.1-0.1c-0.1-0.1-0.1-0.1-0.2-0.2l-0.1-0.1l0,0L84,35l0-0.1l-0.1-0.1l0-0.1l-0.1-0.1l0-0.1l-0.1-0.1l0-0.1l0,0
		l-0.1-0.1l0,0l0-0.1L83.5,34c-0.1-0.2-0.2-0.4-0.2-0.5l0,0c-0.1-0.3-0.2-0.6-0.2-1c0-0.1,0-0.2,0-0.3l0,0c0-0.1,0-0.3,0-0.4v-3.9
		l-1.4-2l-0.3-0.5c-3.6-4.9-9.2-7.8-15.3-7.8h-3.2l-0.1,0.6c-1.3,8.4-6.5,12.9-15.1,12.9l-0.5,0c-8.3-0.2-13.2-4.6-14.5-12.9
		l-0.1-0.5h-2.8c-6.2,0-12,3.1-15.6,8.2l-0.3,0.5L4.2,41.2l9.7,6.4l8.4-10.1c1-1.2,3-0.6,3.1,0.9l0,0.2v51.6l0.5,0.2
		c3.4,1.4,8,2.4,13.9,2.9l0.8,0.1V68.8c0-0.4,0.1-0.9,0.2-1.3l0-0.1l0-0.1l0-0.1l0-0.1l0-0.1c0,0,0-0.1,0.1-0.1l0-0.1l0.1-0.1l0-0.1
		l0.1-0.1l0,0c0,0,0-0.1,0.1-0.1l0-0.1l0.1-0.1l0-0.1c0,0,0-0.1,0.1-0.1l0.1-0.1l0.1-0.1l0,0l0.1-0.1l0,0l0.1-0.1l0-0.1l0.1-0.1
		c0.2-0.2,0.3-0.3,0.5-0.5l0.1-0.1l0.2-0.1c0.1-0.1,0.3-0.2,0.4-0.3c0.1-0.1,0.2-0.1,0.3-0.2l0.1,0l0.1-0.1l0.1,0l0.1,0l0.1,0l0.1,0
		l0.1,0c0.1,0,0.1,0,0.2-0.1l0,0l0.1,0c0,0,0.1,0,0.1,0l0.1,0l0.1,0l0.1,0l0.1,0l0.1,0l0.1,0l0,0c0.1,0,0.1,0,0.2,0
		c0.1,0,0.2,0,0.2,0l-0.2,0l0.2,0l0,0h0c0.1,0,0.2,0,0.3,0h23.8l0.2-24.9c0-1.6,1.9-2.3,3-1.3l0.1,0.1l8.4,10.1l10-6.6l-1.6-4
		L88.2,37.1z M90.8,77.6c3.3,0,6.1,2.7,6.1,6.1c0,3.3-2.7,6.1-6.1,6.1c-3.3,0-6.1-2.7-6.1-6.1C84.7,80.4,87.4,77.6,90.8,77.6z
		 M90.8,80.4c-1.8,0-3.3,1.5-3.3,3.3c0,1.8,1.5,3.3,3.3,3.3c1.8,0,3.3-1.5,3.3-3.3C94,81.9,92.6,80.4,90.8,80.4z M86.5,31.8
		c0,0.1,0,0.2,0,0.3c0,0.1,0,0.1,0.1,0.2l0,0l0,0c0.2,0.7,0.8,1.2,1.5,1.2l0.2,0h26.5c1,0,1.8-0.8,1.8-1.8V5.3c0-1-0.8-1.8-1.8-1.8
		H88.2c-1,0-1.8,0.8-1.8,1.8L86.5,31.8z M36.2,18.2l0.1,0.3c1.2,6,4.8,8.9,10.9,9l0.5,0c6.6,0,10.3-3,11.5-9.2
		C51.8,19.8,44.2,19.8,36.2,18.2z"/>
	<path class="st1" d="M108.9,11.3c0.6-0.8,1.7-0.9,2.5-0.3c0.7,0.6,0.9,1.5,0.4,2.3l-0.1,0.2L102,25.8c-0.6,0.8-1.8,0.9-2.6,0.2
		l-0.2-0.2l-7.1-7.9c-0.6-0.7-0.6-1.8,0.1-2.5c0.7-0.6,1.7-0.6,2.3,0l0.2,0.2l5.7,6.4C100.5,22,108.9,11.3,108.9,11.3z"/>
</g>
</svg>
