<?xml version="1.0" encoding="utf-8"?>
<!-- Generator: Adobe Illustrator 23.0.3, SVG Export Plug-In . SVG Version: 6.00 Build 0)  -->
<svg version="1.1" id="圖層_1" xmlns="http://www.w3.org/2000/svg" xmlns:xlink="http://www.w3.org/1999/xlink" x="0px" y="0px"
	 viewBox="0 0 124 120" style="enable-background:new 0 0 124 120;" xml:space="preserve">
<style type="text/css">
	.st0{fill:#FFFFFF;}
	.st1{fill:#FF0028;}
</style>
<g>
	<path class="st0" d="M97.6,0.3c6.3,0,11.3,5.1,11.3,11.3v14c0,6.3-5.1,11.3-11.3,11.3H84.4c1.1,2.9,1.7,5.9,1.7,9.1
		c0,9.5-5.4,17.8-13.3,21.9c1.5,0.3,2.8,0.6,4.1,1.1c0.4-4.5,3.7-8.2,8.1-9.1l0.2,0v-4.3c0-1.5,1.6-2.3,2.8-1.5l7.9,5.6h13.3
		c6.1,0,11.1,4.8,11.3,10.9l0,0.4v13.1c0,6.3-5.1,11.3-11.3,11.3h-2l0,3.9c0,3-2.4,5.5-5.4,5.6l-0.2,0h-1.1v12.8
		c0,1-0.8,1.8-1.8,1.8c-0.9,0-1.7-0.7-1.8-1.6l0-0.2l0-12.8H26v12.8c0,1-0.8,1.8-1.8,1.8c-0.9,0-1.7-0.7-1.8-1.6l0-0.2V105h-1.1
		c-3,0-5.5-2.4-5.6-5.4l0-0.2v-9.5c0-2,1.7-3.7,3.7-3.7h15.4c0.1-1.5,0.2-2.8,0.4-4l-21.5,0c-6.3,0-11.3-5.1-11.3-11.3V53.7
		c0-6.3,5.1-11.3,11.3-11.3H37c1.8-11.9,12.1-21,24.4-21c0.7,0,1.4,0,2,0.1v-9.8c0-6.3,5.1-11.3,11.3-11.3H97.6z M19.5,89.8
		c-0.1,0-0.1,0.1-0.1,0.1v9.5c0,1.1,0.9,2,2,2h80.1c1.1,0,2-0.9,2-2l0-3.9H88.1c-0.2,0-0.3,0-0.5,0l0,0h0c-0.2,0-0.4,0-0.6,0l-0.1,0
		l-0.2,0l0,0c-0.1,0-0.2,0-0.3,0l0,0c-1.3-0.2-2.5-0.7-3.7-1.3l-0.1,0c-0.3-0.2-0.7-0.4-1-0.7l-0.1-0.1l-0.1-0.1
		c-0.2-0.2-0.5-0.4-0.7-0.6l-0.1-0.1c-0.1,0-0.1-0.1-0.2-0.1l-0.1-0.1c-0.1,0-0.1-0.1-0.1-0.1l-0.1-0.1c-0.3-0.3-0.6-0.6-0.9-1
		l0-0.1L79.1,91l-0.2-0.2c-0.2-0.3-0.4-0.6-0.6-0.8l0.1,0.2L78.4,90l0,0l0-0.1l0-0.1L19.5,89.8z M88.7,59.1v2.5c0,1-0.8,1.8-1.8,1.8
		l-0.3,0c-3.5,0.2-6.2,3-6.2,6.5v14.3c0,1.1,0.2,2.2,0.7,3.2l0.1,0.1L81,87.3c0,0.1,0.1,0.1,0.1,0.2l0-0.1c0,0.1,0.1,0.2,0.1,0.2
		l-0.1-0.1c1.2,2.5,3.7,4.2,6.6,4.4l0.3,0h21c4.3,0,7.7-3.5,7.7-7.7V71.1c0-4.3-3.5-7.7-7.7-7.7H95.3c-0.4,0-0.7-0.1-1-0.3
		L88.7,59.1L88.7,59.1z M46.5,80.4l-0.1,0.1l-0.1,0c0,0-0.1,0.1-0.2,0.1L46,80.7c-0.2,0.1-0.4,0.2-0.7,0.3l-0.1,0l-0.2,0.1l-0.1,0
		c-0.1,0.1-0.3,0.1-0.4,0.2l-0.1,0l-0.2,0.1l-0.1,0c-0.4,0.2-0.9,0.3-1.3,0.4l-0.1,0c-0.2,0-0.3,0.1-0.5,0.1l-0.1,0l-0.1,0l-0.2,0
		l-0.1,0c-0.1,0-0.1,0-0.2,0l0,0c-0.2,0-0.3,0-0.5,0c-0.1,0-0.2,0-0.4,0l0.2,0l-0.2,0l-0.4,0l-1.5,0l-0.1,0.4
		c-0.2,1-0.3,2.1-0.4,3.2l0,0.4h38.3V72.9l-0.2-0.1c-3.2-1.4-7.6-2-14.4-2.1l-0.8,0c-3.5,0-6.5,0.2-9.1,0.6l-0.6,0.1l0,0.1l0,0.3
		c0,0.3,0,0.5-0.1,0.8c0,0.3-0.1,0.6-0.2,0.9c-0.1,0.6-0.3,1.2-0.6,1.8c-0.1,0.1-0.1,0.3-0.2,0.4c-0.1,0.1-0.1,0.2-0.2,0.4l-0.1,0.1
		c-0.1,0.1-0.1,0.3-0.2,0.4l0,0.1l-0.1,0.2l0,0.1L50,76.9L49.9,77l-0.1,0.1l-0.1,0.1c0,0-0.1,0.1-0.1,0.1l-0.1,0.1l-0.1,0.1
		c0,0-0.1,0.1-0.1,0.1l-0.1,0.1l0,0.1c0,0-0.1,0.1-0.1,0.1l-0.1,0.1L49,78.3l-0.1,0.1l-0.1,0.1l-0.1,0.1l-0.1,0.1l-0.1,0.1l-0.1,0.1
		c-0.1,0.1-0.2,0.2-0.3,0.3L48,79.2l-0.1,0.1l-0.1,0.1l-0.1,0.1l-0.2,0.1l-0.1,0.1l-0.1,0.1c-0.1,0.1-0.1,0.1-0.2,0.1l0,0l0,0
		C47.2,80,47.1,80,47,80.1l-0.1,0l-0.1,0.1l-0.1,0.1l-0.2,0.1L46.5,80.4C46.5,80.4,46.5,80.4,46.5,80.4z M13.8,45.9
		c-4.3,0-7.7,3.5-7.7,7.7v17.2c0,4.3,3.5,7.7,7.7,7.7h26.7c0.1,0,0.3,0,0.4,0c0.1,0,0.1,0,0.2,0c0.1,0,0.1,0,0.2,0
		c0.1,0,0.2,0,0.2,0c0.1,0,0.3,0,0.4-0.1c0.1,0,0.2,0,0.3-0.1c0.1,0,0.2-0.1,0.4-0.1l0,0l0,0c0.1,0,0.3-0.1,0.4-0.1l0.2-0.1L43,78.1
		c0.1,0,0.2-0.1,0.2-0.1l-0.1,0c0.2-0.1,0.4-0.2,0.6-0.3l0.1,0l-0.1,0c2.5-1.2,4.3-3.7,4.4-6.7l0-0.3v-1v-7.6c0-0.5,0.2-1,0.6-1.3
		l6.1-5.5H50l-0.2,0c-0.8-0.1-1.5-0.7-1.6-1.5l0-0.2l0-0.4c0-0.1,0-0.1,0-0.2c0-0.1,0-0.2,0-0.2c0-0.4-0.1-0.9-0.2-1.3l0-0.1l0,0.1
		c0-0.2-0.1-0.3-0.1-0.5c0-0.1-0.1-0.2-0.1-0.3c-0.1-0.2-0.1-0.4-0.2-0.5c-1.2-2.5-3.7-4.3-6.7-4.4l-0.3,0H13.8z M44.4,43.1
		c0.1,0,0.1,0,0.2,0.1l0.1,0l0.2,0.1l0.1,0.1l0.1,0.1l0.1,0l0.2,0.1v0c0.7,0.3,1.3,0.7,1.9,1.2l0.1,0.1c0.2,0.1,0.4,0.3,0.5,0.4l0,0
		l0.1,0.1l0.1,0.1l0.1,0.1l0,0l0,0l0.2,0.1c0.3,0.3,0.6,0.6,0.9,0.9l0,0c0.1,0.1,0.2,0.2,0.2,0.3c0.1,0.2,0.3,0.4,0.4,0.6
		c0.1,0.1,0.1,0.2,0.2,0.3l0.1,0.2l-0.1-0.2c0.4,0.6,0.7,1.2,0.9,1.9c0,0.1,0.1,0.2,0.1,0.3c0.1,0.4,0.3,0.8,0.4,1.3
		c0,0.1,0.1,0.3,0.1,0.4l0,0l0,0.3h7.9c1.6,0,2.4,1.9,1.3,3L60.7,55l-8.9,8l0,1.8l0.3,0.2c2.5,1.2,5.3,2,8.1,2.1l0.5,0l0.7,0
		c11.6,0,21.1-9.4,21.1-21.1c0-2.2-0.3-4.3-1-6.4l-0.2-0.6L75,43.6c-0.3,0.2-0.6,0.3-0.9,0.3L74,44c-0.9,0-1.7-0.6-1.8-1.6l0-0.2
		l0-5.3l-0.1,0l-0.1,0l0,0l-0.1,0l-0.1,0c-0.1,0-0.1,0-0.2,0l0,0c-0.1,0-0.1,0-0.2,0c0,0-0.1,0-0.1,0c-0.1,0-0.1,0-0.2,0l-0.1,0
		c-0.1,0-0.1,0-0.2-0.1l-0.1,0c-0.1,0-0.1,0-0.2-0.1l-0.1,0c-0.1,0-0.1,0-0.2-0.1l-0.1,0c-0.1,0-0.1,0-0.2-0.1l-0.1,0
		c0,0-0.1,0-0.1,0l-0.1-0.1c-0.2-0.1-0.4-0.2-0.6-0.3l-0.1-0.1l-0.2-0.1l-0.1,0c-0.2-0.1-0.4-0.2-0.6-0.4l-0.2-0.1l0,0l-0.1-0.1
		l-0.1-0.1l-0.1-0.1c-0.1-0.1-0.2-0.2-0.4-0.3l0,0L67,34.3l-0.1-0.1l-0.1-0.1c-0.2-0.2-0.3-0.3-0.5-0.5l-0.1-0.1
		c0-0.1-0.1-0.1-0.1-0.2l0,0c-0.1-0.1-0.2-0.2-0.3-0.3c-0.1-0.1-0.2-0.2-0.2-0.3l-0.1-0.1l0-0.1c-0.5-0.6-0.8-1.3-1.2-2.1l0-0.1
		c-0.1-0.3-0.2-0.6-0.3-1l0-0.1c-0.1-0.2-0.1-0.4-0.2-0.6c0-0.1-0.1-0.3-0.1-0.4l0-0.3c0-0.1,0-0.1,0-0.2c0-0.2,0-0.4-0.1-0.6
		c0-0.1,0-0.2,0-0.3l0-0.4v-1.4l-0.6,0c-0.2,0-0.5,0-0.7,0l-0.7,0c-10.3,0-18.9,7.4-20.7,17.2l0,0.2h0l0.1,0l0.1,0l0,0l0.2,0l0.2,0
		l0.1,0l0.1,0l0.2,0l0.1,0l0.2,0l0.1,0l0.2,0l0.2,0l0.1,0l0.2,0l0.2,0l0.1,0l0.1,0c0.2,0,0.3,0.1,0.5,0.1c0.1,0,0.1,0,0.2,0
		c0,0,0.1,0,0.1,0l0.1,0C44.1,42.9,44.2,43,44.4,43.1L44.4,43.1z M97.6,3.9H74.8c-4.3,0-7.7,3.5-7.7,7.7v14.8c0,0.3,0,0.6,0.1,0.9
		c0,0.1,0,0.2,0,0.3l0,0.2c0.1,0.3,0.1,0.5,0.2,0.8c0,0.1,0.1,0.2,0.1,0.3c0,0.1,0.1,0.2,0.1,0.3l0,0l0,0c0,0.1,0.1,0.1,0.1,0.2
		l0,0.1l0-0.1c1.1,2.2,3.3,3.8,5.9,3.9l0.3,0l0.1,0l0,0l0.1,0l0.1,0l0.1,0l0.1,0l0.1,0l0.1,0l0.1,0l0,0c0,0,0.1,0,0.1,0l0,0l0,0l0,0
		c0.1,0,0.1,0.1,0.2,0.1c0,0,0,0,0.1,0l0,0l0,0c0.1,0,0.1,0.1,0.2,0.2l0,0c0,0.1,0.1,0.1,0.1,0.2c0,0.1,0.1,0.1,0.1,0.2l0,0.1l0-0.1
		c0.1,0.1,0.1,0.2,0.1,0.4c0,0.1,0,0.3,0,0.4v3.5l5.3-3.8l0,0l1.5-1.1c0.2-0.2,0.5-0.3,0.8-0.3l0.2,0h14.1c4.3,0,7.7-3.5,7.7-7.7
		v-14C105.4,7.4,101.9,3.9,97.6,3.9L97.6,3.9z"/>
	<path class="st1" d="M99.6,69.1c0.9,0,1.7,0.7,1.8,1.6l0,0.2v4.9h4.9c1,0,1.8,0.8,1.8,1.8c0,0.9-0.7,1.7-1.6,1.8l-0.2,0h-4.9v4.9
		c0,1-0.8,1.8-1.8,1.8c-0.9,0-1.7-0.7-1.8-1.6l0-0.2v-4.9h-4.9c-1,0-1.8-0.8-1.8-1.8c0-0.9,0.7-1.7,1.6-1.8l0.2,0h4.9v-4.9
		C97.8,69.9,98.6,69.1,99.6,69.1L99.6,69.1z M86.2,9.9c0.9,0,1.7,0.7,1.8,1.6l0,0.2v4.9h4.9c1,0,1.8,0.8,1.8,1.8
		c0,0.9-0.7,1.7-1.6,1.8l-0.2,0H88v4.9c0,1-0.8,1.8-1.8,1.8c-0.9,0-1.7-0.7-1.8-1.6l0-0.2v-4.9h-4.9c-1,0-1.8-0.8-1.8-1.8
		c0-0.9,0.7-1.7,1.6-1.8l0.2,0h4.9v-4.9C84.4,10.7,85.2,9.9,86.2,9.9L86.2,9.9z M27.1,52.1c0.9,0,1.7,0.7,1.8,1.6l0,0.2v6.5h6.6
		c1,0,1.8,0.8,1.8,1.8c0,0.9-0.7,1.7-1.6,1.8l-0.2,0h-6.6v6.6c0,1-0.8,1.8-1.8,1.8c-0.9,0-1.7-0.7-1.8-1.6l0-0.2v-6.6h-6.5
		c-1,0-1.8-0.8-1.8-1.8c0-0.9,0.7-1.7,1.6-1.8l0.2,0h6.5v-6.5C25.3,52.9,26.1,52.1,27.1,52.1L27.1,52.1z"/>
</g>
</svg>
