<svg xmlns="http://www.w3.org/2000/svg" width="40" height="40" viewBox="0 0 40 40">
    <path fill="#FF0028" d="M.879 14.154C4.108 3.594 15.286-2.35 25.846.88 36.406 4.108 42.35 15.286 39.12 25.846 35.892 36.406 24.714 42.35 14.154 39.12 3.594 35.892-2.35 24.714.88 14.154zm19.562 7.331l-4.793 15.682c6.07 1.544 12.278-.266 16.562-4.336L20.441 21.485zm3.354-18.784C14.868.732 5.783 5.929 3.065 14.822.344 23.716 4.97 33.104 13.472 36.464L23.795 2.701zm2.196.633l-4.8 15.7 12.571 12.12c1.336-1.648 2.395-3.563 3.086-5.697l.088-.28C39.71 16.1 34.833 6.506 25.99 3.335z"/>
</svg>
