<?xml version="1.0" encoding="utf-8"?>
<!-- Generator: Adobe Illustrator 24.0.2, SVG Export Plug-In . SVG Version: 6.00 Build 0)  -->
<svg version="1.1" id="圖層_1" xmlns="http://www.w3.org/2000/svg" xmlns:xlink="http://www.w3.org/1999/xlink" x="0px" y="0px"
	 viewBox="0 0 30 30" style="enable-background:new 0 0 30 30;" xml:space="preserve">
<style type="text/css">
	.st0{fill:#DDDDDD;}
	.st1{display:none;fill:#DDDDDD;}
</style>
<path class="st0" d="M16.41,15L29.71,1.71c0.39-0.39,0.39-1.02,0-1.41s-1.02-0.39-1.41,0L15,13.59L1.71,0.29
	c-0.39-0.39-1.02-0.39-1.41,0C0.1,0.49,0,0.74,0,1s0.1,0.51,0.29,0.71L13.59,15L0.29,28.29c-0.39,0.39-0.39,1.02,0,1.41
	C0.49,29.9,0.74,30,1,30s0.51-0.1,0.71-0.29L15,16.41l13.29,13.29c0.39,0.39,1.02,0.39,1.41,0s0.39-1.02,0-1.41L16.41,15z"/>
<path class="st1" d="M15.71,15L29.85,0.85c0.2-0.2,0.2-0.51,0-0.71s-0.51-0.2-0.71,0L15,14.29L0.85,0.15c-0.2-0.2-0.51-0.2-0.71,0
	s-0.2,0.51,0,0.71L14.29,15L0.15,29.15c-0.2,0.2-0.2,0.51,0,0.71C0.24,29.95,0.37,30,0.5,30s0.26-0.05,0.35-0.15L15,15.71
	l14.15,14.15c0.1,0.1,0.23,0.15,0.35,0.15s0.26-0.05,0.35-0.15c0.2-0.2,0.2-0.51,0-0.71L15.71,15z"/>
</svg>
